<?xml version="1.0" standalone="no"?>
<!DOCTYPE svg PUBLIC "-//W3C//DTD SVG 20010904//EN"
 "http://www.w3.org/TR/2001/REC-SVG-20010904/DTD/svg10.dtd">
<svg version="1.0" xmlns="http://www.w3.org/2000/svg"
 width="848.000000pt" height="848.000000pt" viewBox="0 0 848.000000 848.000000"
 preserveAspectRatio="xMidYMid meet">
<metadata>
Created by potrace 1.14, written by Peter Selinger 2001-2017
</metadata>
<g transform="translate(0.000000,848.000000) scale(0.100000,-0.100000)"
fill="#000000" stroke="none">
<path d="M1916 8300 c-226 -48 -436 -210 -548 -425 -17 -33 -34 -62 -38 -65
-3 -3 -13 -18 -22 -35 -16 -33 -40 -75 -85 -150 -66 -110 -118 -200 -118 -205
0 -3 -8 -16 -17 -30 -18 -27 -30 -48 -127 -221 -36 -63 -67 -116 -70 -119 -4
-3 -13 -18 -21 -35 -8 -16 -39 -69 -67 -118 -29 -48 -53 -90 -53 -93 0 -2 -12
-23 -27 -47 -15 -23 -41 -68 -59 -99 l-32 -57 151 -157 c84 -86 188 -194 232
-239 44 -46 163 -169 265 -275 102 -105 237 -245 300 -310 63 -66 198 -205
300 -311 445 -461 408 -426 424 -404 8 11 24 31 36 45 12 14 31 38 43 53 12
15 31 38 42 51 12 12 39 45 60 72 22 27 42 51 45 54 3 3 32 39 65 80 33 41 62
77 65 80 3 3 43 52 90 110 47 58 95 116 107 130 53 61 63 73 63 79 0 3 19 27
43 53 23 25 49 56 57 68 8 12 24 32 35 44 29 33 52 61 124 151 36 44 72 87 80
97 9 9 26 29 38 45 12 15 30 38 40 49 10 12 32 39 48 60 27 34 52 65 180 219
18 22 43 51 54 64 12 13 21 27 21 30 0 9 70 81 79 81 4 0 23 -21 43 -47 20
-27 53 -66 72 -88 43 -48 51 -57 95 -110 39 -47 54 -65 286 -340 98 -115 185
-218 194 -227 9 -9 21 -23 26 -30 35 -44 102 -125 115 -138 9 -8 36 -40 60
-70 25 -30 55 -66 66 -80 18 -21 82 -96 188 -220 11 -14 55 -66 96 -115 41
-50 80 -95 86 -101 5 -6 26 -31 45 -54 18 -23 43 -52 54 -64 11 -12 42 -48 69
-81 27 -33 55 -64 61 -70 6 -5 17 -19 25 -31 14 -19 97 -117 130 -153 8 -9 35
-41 60 -71 74 -91 94 -113 122 -142 14 -15 24 -28 22 -28 -3 0 1 -6 8 -14 8
-7 34 -37 59 -66 99 -119 122 -145 128 -150 4 -3 22 -25 41 -50 19 -24 42 -52
50 -60 8 -9 31 -35 50 -59 19 -24 56 -66 82 -95 26 -28 48 -54 48 -58 0 -3 12
-19 28 -35 30 -32 114 -130 146 -171 11 -15 23 -29 26 -32 8 -8 70 -80 116
-135 119 -143 279 -332 293 -347 9 -9 26 -29 38 -45 12 -16 33 -41 45 -54 13
-14 41 -47 63 -73 22 -27 47 -56 55 -66 8 -10 33 -39 55 -65 22 -26 45 -53 50
-59 6 -6 35 -41 65 -76 30 -36 57 -67 60 -70 3 -3 15 -17 26 -32 18 -23 101
-121 129 -152 6 -6 32 -37 59 -69 l48 -58 59 102 c33 56 59 106 59 111 0 4 4
8 9 8 5 0 14 12 20 28 6 15 15 34 21 42 28 42 130 223 130 231 0 5 4 9 8 9 4
0 13 12 19 28 11 26 48 91 79 139 8 12 26 44 41 70 14 26 31 51 37 55 6 4 8 8
4 8 -4 0 18 41 48 92 29 50 56 100 60 110 3 10 10 18 15 18 5 0 9 4 9 10 0 5
20 44 45 86 25 41 45 77 45 79 0 2 18 32 40 66 22 35 44 73 49 84 5 11 30 55
55 98 25 43 46 82 46 87 0 6 4 10 8 10 4 0 13 12 20 28 7 15 26 52 42 82 25
47 36 75 56 145 15 50 30 173 28 230 -6 183 -32 253 -220 580 -86 149 -159
277 -164 285 -56 90 -180 312 -180 320 0 5 -4 10 -10 10 -5 0 -10 4 -10 10 0
5 -14 33 -31 62 -18 29 -40 67 -49 83 -10 17 -41 70 -69 118 -28 49 -51 93
-51 98 0 5 -4 9 -10 9 -5 0 -10 6 -10 14 0 8 -6 21 -12 28 -13 14 -52 82 -72
125 -6 13 -14 23 -18 23 -5 0 -8 4 -8 9 0 5 -19 42 -43 83 -24 40 -46 80 -50
88 -4 8 -16 29 -26 45 -11 17 -32 53 -46 80 -15 28 -34 58 -43 68 -8 9 -11 17
-6 17 5 0 4 4 -2 8 -5 4 -56 88 -113 187 -56 99 -107 187 -112 195 -13 23
-136 235 -163 283 -13 23 -33 58 -45 77 -11 19 -26 46 -33 60 -7 14 -15 27
-18 30 -3 3 -75 127 -159 275 -85 149 -160 277 -167 285 -7 8 -13 20 -15 25
-3 19 -77 120 -121 166 -50 52 -132 119 -146 119 -6 0 -12 3 -14 8 -8 18 -174
90 -223 97 -11 2 -40 8 -65 14 -31 7 -656 10 -1985 10 -1855 0 -1944 -1 -2029
-19z"/>
<path d="M728 4062 c-52 -73 -166 -230 -201 -276 -12 -15 -35 -47 -52 -71 -16
-23 -115 -158 -220 -300 -104 -141 -194 -264 -200 -273 -5 -10 -13 -19 -16
-22 -13 -11 -29 -50 -21 -50 6 0 12 -8 15 -17 3 -10 19 -39 34 -65 39 -65 107
-180 116 -198 4 -8 18 -33 32 -55 13 -22 32 -56 42 -75 10 -19 21 -36 26 -38
4 -2 7 -7 7 -12 0 -8 213 -377 228 -395 4 -5 11 -18 15 -28 4 -10 36 -67 72
-128 36 -61 65 -115 65 -120 0 -5 4 -9 9 -9 5 0 11 -8 14 -17 3 -10 20 -40 36
-68 17 -27 34 -57 38 -65 4 -8 31 -54 60 -102 29 -49 50 -88 47 -88 -2 0 0 -6
6 -13 6 -6 78 -129 160 -272 82 -143 154 -267 160 -275 5 -8 14 -24 20 -35 5
-11 23 -42 40 -70 17 -27 36 -61 43 -75 6 -14 14 -27 17 -30 3 -3 11 -16 18
-29 8 -13 22 -38 32 -56 10 -18 24 -43 32 -56 7 -13 15 -26 18 -29 3 -3 19
-23 35 -45 63 -84 197 -193 290 -234 56 -25 175 -61 222 -68 68 -9 3887 -8
3952 1 136 20 295 92 398 181 75 65 203 230 203 262 0 7 4 13 9 13 25 0 14 59
-16 85 -6 5 -30 33 -53 60 -52 61 -112 132 -165 194 -22 26 -58 69 -80 96 -22
27 -47 56 -55 65 -8 9 -31 36 -51 60 -20 25 -45 55 -55 66 -11 12 -37 43 -59
69 -22 26 -50 58 -62 71 -13 13 -23 26 -23 29 0 3 -10 17 -22 30 -21 21 -48
52 -109 125 -11 14 -30 36 -42 50 -12 14 -56 66 -97 115 -41 50 -78 92 -81 95
-3 3 -53 61 -110 130 -57 69 -114 136 -126 150 -49 57 -67 77 -101 119 -21 25
-44 52 -52 61 -8 8 -35 40 -60 70 -25 30 -50 60 -55 66 -6 6 -27 31 -46 54
-18 23 -47 57 -64 76 -16 18 -40 46 -52 61 -12 15 -35 43 -51 61 -17 18 -47
54 -68 79 -33 40 -151 180 -318 377 -22 27 -46 54 -51 60 -9 9 -68 80 -127
151 -9 11 -27 31 -39 45 -11 14 -38 45 -58 70 -20 24 -55 64 -78 90 -24 25
-43 48 -43 51 0 4 -12 20 -27 37 -35 36 -117 132 -167 194 -11 12 -33 39 -50
59 -17 20 -42 49 -55 65 l-25 30 -71 -86 c-39 -47 -106 -128 -149 -180 -43
-52 -86 -105 -97 -118 -10 -12 -19 -24 -19 -27 0 -2 -10 -15 -22 -28 -24 -24
-37 -39 -103 -122 -22 -27 -48 -59 -57 -70 -9 -11 -63 -76 -119 -145 -103
-127 -162 -198 -189 -230 -8 -10 -27 -33 -42 -51 -50 -64 -230 -284 -259 -317
-16 -19 -29 -37 -29 -41 0 -3 -9 -12 -20 -19 -11 -7 -20 -17 -20 -23 0 -7 -6
-17 -13 -23 -8 -6 -42 -46 -77 -89 l-63 -78 -65 68 c-57 60 -245 255 -592 614
-142 146 -447 463 -533 552 -305 317 -403 417 -412 416 -5 0 -31 -30 -57 -67z"/>
</g>
</svg>
