<svg width="1716" height="1650" viewBox="0 0 1716 1650" fill="none" xmlns="http://www.w3.org/2000/svg">
<path d="M238.742 825.94L15.266 438.45C6.34986 422.99 6.34984 403.95 15.2659 388.49L238.742 1" stroke="white" stroke-opacity="0.1" stroke-width="2"/>
<path d="M692.25 825.94L468.774 438.45C459.858 422.99 459.858 403.95 468.774 388.49L692.25 1" stroke="white" stroke-opacity="0.1" stroke-width="2"/>
<path d="M1460.15 825.94L1236.68 438.45C1227.76 422.99 1227.76 403.95 1236.68 388.49L1460.15 1" stroke="white" stroke-opacity="0.1" stroke-width="2"/>
<path d="M377.856 825.94L154.379 438.45C145.463 422.99 145.463 403.95 154.379 388.49L377.856 1" stroke="white" stroke-opacity="0.1" stroke-width="2"/>
<path d="M1145.76 825.94L922.283 438.45C913.366 422.99 913.366 403.95 922.283 388.49L1145.76 1" stroke="white" stroke-opacity="0.1" stroke-width="2"/>
<path d="M831.364 825.94L607.887 438.45C598.971 422.99 598.971 403.95 607.887 388.49L831.364 1" stroke="white" stroke-opacity="0.1" stroke-width="2"/>
<path d="M1599.27 825.94L1375.79 438.45C1366.87 422.99 1366.87 403.95 1375.79 388.49L1599.27 1" stroke="white" stroke-opacity="0.1" stroke-width="2"/>
<path d="M306.907 825.94L83.431 438.45C74.5149 422.99 74.5149 403.95 83.431 388.49L306.907 1" stroke="white" stroke-opacity="0.1" stroke-width="2"/>
<path d="M760.416 825.94L536.94 438.45C528.024 422.99 528.024 403.95 536.94 388.49L760.416 1" stroke="white" stroke-opacity="0.1" stroke-width="2"/>
<path d="M1528.32 825.94L1304.84 438.45C1295.93 422.99 1295.93 403.95 1304.84 388.49L1528.32 1" stroke="white" stroke-opacity="0.1" stroke-width="2"/>
<path d="M454.367 825.94L230.891 438.45C221.975 422.99 221.975 403.95 230.891 388.49L454.367 1" stroke="white" stroke-opacity="0.1" stroke-width="2"/>
<path d="M1222.27 825.94L998.794 438.45C989.878 422.99 989.878 403.95 998.794 388.49L1222.27 1" stroke="white" stroke-opacity="0.1" stroke-width="2"/>
<path d="M907.876 825.94L683.156 438.559C674.155 423.044 674.155 403.896 683.156 388.381L907.876 1" stroke="white" stroke-opacity="0.1" stroke-width="2"/>
<path d="M1675.78 825.94L1452.3 438.45C1443.39 422.99 1443.39 403.95 1452.3 388.49L1675.78 1" stroke="white" stroke-opacity="0.1" stroke-width="2"/>
<path d="M238.742 1649.49L15.3085 1262.73C6.3681 1247.25 6.3681 1228.18 15.3086 1212.7L238.742 825.94" stroke="white" stroke-opacity="0.1" stroke-width="2"/>
<path d="M692.25 1649.49L468.816 1262.73C459.876 1247.25 459.876 1228.18 468.816 1212.7L692.25 825.94" stroke="white" stroke-opacity="0.1" stroke-width="2"/>
<path d="M1460.15 1649.49L1236.72 1262.73C1227.78 1247.25 1227.78 1228.18 1236.72 1212.7L1460.15 825.94" stroke="white" stroke-opacity="0.1" stroke-width="2"/>
<path d="M377.856 1649.49L154.422 1262.73C145.481 1247.25 145.481 1228.18 154.422 1212.7L377.856 825.94" stroke="white" stroke-opacity="0.1" stroke-width="2"/>
<path d="M1145.76 1649.49L922.325 1262.73C913.385 1247.25 913.385 1228.18 922.325 1212.7L1145.76 825.94" stroke="white" stroke-opacity="0.1" stroke-width="2"/>
<path d="M831.364 1649.49L607.93 1262.73C598.989 1247.25 598.989 1228.18 607.93 1212.7L831.364 825.94" stroke="white" stroke-opacity="0.1" stroke-width="2"/>
<path d="M1599.27 1649.49L1375.83 1262.73C1366.89 1247.25 1366.89 1228.18 1375.83 1212.7L1599.27 825.94" stroke="white" stroke-opacity="0.1" stroke-width="2"/>
<path d="M306.907 1649.49L83.4736 1262.73C74.5331 1247.25 74.5331 1228.18 83.4736 1212.7L306.907 825.94" stroke="white" stroke-opacity="0.1" stroke-width="2"/>
<path d="M760.416 1649.49L536.982 1262.73C528.042 1247.25 528.042 1228.18 536.982 1212.7L760.416 825.94" stroke="white" stroke-opacity="0.1" stroke-width="2"/>
<path d="M1528.32 1649.49L1304.88 1262.73C1295.94 1247.25 1295.94 1228.18 1304.88 1212.7L1528.32 825.94" stroke="white" stroke-opacity="0.1" stroke-width="2"/>
<path d="M454.367 1649.49L230.934 1262.73C221.993 1247.25 221.993 1228.18 230.934 1212.7L454.367 825.94" stroke="white" stroke-opacity="0.1" stroke-width="2"/>
<path d="M1222.27 1649.49L998.837 1262.73C989.896 1247.25 989.896 1228.18 998.837 1212.7L1222.27 825.94" stroke="white" stroke-opacity="0.1" stroke-width="2"/>
<path d="M907.876 1649.49L683.199 1262.83C674.174 1247.3 674.174 1228.12 683.199 1212.59L907.876 825.94" stroke="white" stroke-opacity="0.1" stroke-width="2"/>
<path d="M1675.78 1649.49L1452.34 1262.73C1443.4 1247.25 1443.4 1228.18 1452.34 1212.7L1675.78 825.94" stroke="white" stroke-opacity="0.1" stroke-width="2"/>
<path d="M530.879 825.94L307.403 438.45C298.487 422.99 298.487 403.95 307.403 388.49L530.879 1" stroke="white" stroke-opacity="0.1" stroke-width="2"/>
<path d="M1298.78 825.94L1075.31 438.45C1066.39 422.99 1066.39 403.95 1075.31 388.49L1298.78 1" stroke="white" stroke-opacity="0.1" stroke-width="2"/>
<path d="M984.388 825.94L760.911 438.45C751.995 422.99 751.995 403.95 760.911 388.49L984.388 1" stroke="white" stroke-opacity="0.1" stroke-width="2"/>
<path d="M1752.29 825.94L1528.81 438.45C1519.9 422.99 1519.9 403.95 1528.81 388.49L1752.29 1" stroke="white" stroke-opacity="0.1" stroke-width="2"/>
<path d="M615.739 825.94L392.262 438.45C383.346 422.99 383.346 403.95 392.262 388.49L615.739 1" stroke="white" stroke-opacity="0.1" stroke-width="2"/>
<path d="M1383.64 825.94L1160.17 438.45C1151.25 422.99 1151.25 403.95 1160.17 388.49L1383.64 1" stroke="white" stroke-opacity="0.1" stroke-width="2"/>
<path d="M1069.25 825.94L845.77 438.45C836.854 422.99 836.854 403.95 845.77 388.49L1069.25 1" stroke="white" stroke-opacity="0.1" stroke-width="2"/>
<path d="M1837.15 825.94L1613.67 438.45C1604.76 422.99 1604.76 403.95 1613.67 388.49L1837.15 1" stroke="white" stroke-opacity="0.1" stroke-width="2"/>
<path d="M530.879 1649.49L307.445 1262.73C298.505 1247.25 298.505 1228.18 307.445 1212.7L530.879 825.94" stroke="white" stroke-opacity="0.1" stroke-width="2"/>
<path d="M1298.78 1649.49L1075.35 1262.73C1066.41 1247.25 1066.41 1228.18 1075.35 1212.7L1298.78 825.94" stroke="white" stroke-opacity="0.1" stroke-width="2"/>
<path d="M984.388 1649.49L760.954 1262.73C752.014 1247.25 752.014 1228.18 760.954 1212.7L984.388 825.94" stroke="white" stroke-opacity="0.1" stroke-width="2"/>
<path d="M1752.29 1649.49L1528.86 1262.73C1519.92 1247.25 1519.92 1228.18 1528.86 1212.7L1752.29 825.94" stroke="white" stroke-opacity="0.1" stroke-width="2"/>
<path d="M615.739 1649.49L392.305 1262.73C383.364 1247.25 383.364 1228.18 392.305 1212.7L615.739 825.94" stroke="white" stroke-opacity="0.1" stroke-width="2"/>
<path d="M1383.64 1649.49L1160.21 1262.73C1151.27 1247.25 1151.27 1228.18 1160.21 1212.7L1383.64 825.94" stroke="white" stroke-opacity="0.1" stroke-width="2"/>
<path d="M1069.25 1649.49L845.812 1262.73C836.872 1247.25 836.872 1228.18 845.812 1212.7L1069.25 825.94" stroke="white" stroke-opacity="0.1" stroke-width="2"/>
<path d="M1837.15 1649.49L1613.72 1262.73C1604.78 1247.25 1604.78 1228.18 1613.72 1212.7L1837.15 825.94" stroke="white" stroke-opacity="0.1" stroke-width="2"/>
<path d="M182.237 555.579C178.666 555.579 175.366 553.675 173.579 550.584L69.2929 370.194C67.5027 367.097 67.5027 363.28 69.2929 360.184L173.579 179.794C175.366 176.703 178.666 174.799 182.237 174.799H390.839C394.41 174.799 397.709 176.703 399.496 179.794L503.783 360.184C505.573 363.28 505.573 367.097 503.783 370.194L399.496 550.584C397.709 553.675 394.41 555.579 390.839 555.579H182.237Z" fill="white" fill-opacity="0.08"/>
<path d="M1254.88 1424.23C1251.31 1424.23 1248.01 1422.33 1246.22 1419.24L1167.44 1283.05C1165.65 1279.95 1165.65 1276.13 1167.44 1273.03L1246.22 1136.84C1248.01 1133.75 1251.31 1131.85 1254.88 1131.85H1412.49C1416.06 1131.85 1419.36 1133.75 1421.14 1136.84L1499.93 1273.03C1501.72 1276.13 1501.72 1279.95 1499.93 1283.05L1421.14 1419.24C1419.36 1422.33 1416.06 1424.23 1412.49 1424.23H1254.88Z" fill="white" fill-opacity="0.08"/>
<path d="M1148.73 409.586C1147.48 409.586 1146.32 408.917 1145.7 407.831L1073.78 282.788C1073.16 281.708 1073.16 280.378 1073.78 279.298L1145.7 154.255L1144.4 153.507L1145.7 154.255C1146.32 153.169 1147.48 152.5 1148.73 152.5H1292.54C1293.79 152.5 1294.95 153.169 1295.58 154.255L1367.5 279.298C1368.12 280.378 1368.12 281.708 1367.5 282.788L1295.58 407.831C1294.95 408.917 1293.79 409.586 1292.54 409.586H1148.73Z" stroke="white" stroke-opacity="0.08" stroke-width="3"/>
<path d="M189.128 1422.73C187.878 1422.73 186.723 1422.07 186.097 1420.98L132.039 1327.39C131.414 1326.3 131.414 1324.97 132.039 1323.89L186.097 1230.29C186.723 1229.21 187.878 1228.54 189.128 1228.54H297.252C298.502 1228.54 299.657 1229.21 300.282 1230.29L354.341 1323.89C354.966 1324.97 354.966 1326.3 354.341 1327.39L300.282 1420.98C299.657 1422.07 298.502 1422.73 297.252 1422.73H189.128Z" stroke="white" stroke-opacity="0.08" stroke-width="3"/>
<path d="M202.733 1137.35C202.017 1137.35 201.356 1136.97 200.999 1136.34L50.0325 873.609C49.678 872.992 49.678 872.233 50.0325 871.616L200.999 608.88C201.356 608.259 202.017 607.877 202.733 607.877H504.634C505.35 607.877 506.012 608.259 506.368 608.88L508.966 607.388L506.368 608.88L657.335 871.616C657.689 872.233 657.689 872.992 657.335 873.609L506.368 1136.34C506.012 1136.97 505.35 1137.35 504.634 1137.35H202.733Z" stroke="white" stroke-opacity="0.08" stroke-width="6"/>
<path d="M1452.16 858.562C1451.45 858.562 1450.79 858.18 1450.43 857.561L1296.07 589.725C1295.72 589.107 1295.72 588.346 1296.07 587.728L1450.43 319.892C1450.79 319.273 1451.45 318.891 1452.16 318.891H1760.87C1761.59 318.891 1762.25 319.273 1762.6 319.892L1916.96 587.728C1917.32 588.346 1917.32 589.107 1916.96 589.725L1762.6 857.561C1762.25 858.18 1761.59 858.562 1760.87 858.562H1452.16Z" stroke="white" stroke-opacity="0.08" stroke-width="6"/>
<path d="M631.866 739.169C628.293 739.169 624.992 737.263 623.206 734.169L470.465 469.634C468.679 466.54 468.679 462.728 470.465 459.633L623.206 195.098C624.992 192.004 628.293 190.098 631.866 190.098H937.357C940.93 190.098 944.231 192.004 946.017 195.098L1098.76 459.633C1100.54 462.728 1100.54 466.54 1098.76 469.634L946.017 734.169C944.231 737.263 940.93 739.169 937.357 739.169H631.866Z" fill="white" fill-opacity="0.08"/>
<path d="M1208.36 1087.65C1201.23 1087.65 1194.63 1083.85 1191.06 1077.68L1010.56 766.195C1006.97 759.993 1006.97 752.342 1010.56 746.14L1191.06 434.658C1194.63 428.485 1201.23 424.685 1208.36 424.685H1569.5C1576.63 424.685 1583.22 428.485 1586.8 434.658L1767.3 746.14C1770.89 752.342 1770.89 759.993 1767.3 766.195L1586.8 1077.68C1583.22 1083.85 1576.63 1087.65 1569.5 1087.65H1208.36Z" fill="white" fill-opacity="0.08"/>
<path d="M529.258 1565.33C522.119 1565.33 515.52 1561.52 511.946 1555.34L291.479 1174.16C287.896 1167.97 287.896 1160.33 291.479 1154.13L511.946 772.954C515.52 766.774 522.119 762.968 529.258 762.968H970.268C977.407 762.968 984.006 766.774 987.58 772.954L1208.05 1154.13C1211.63 1160.33 1211.63 1167.97 1208.05 1174.16L987.58 1555.34C984.006 1561.52 977.407 1565.33 970.268 1565.33H529.258Z" fill="white" fill-opacity="0.08"/>
</svg>
