<svg width="96" height="99" viewBox="0 0 96 99" fill="none" xmlns="http://www.w3.org/2000/svg">
<path d="M54.8614 87.809L84.79 57.984L96 69.175L66.0714 99L54.8614 87.809ZM71.7821 44.8927L55.3901 28.6341C54.7645 28.0225 54.0518 27.5067 53.275 27.1032L47.3528 4.45735C46.9729 3.13939 46.0946 2.02051 44.9035 1.33716C43.7124 0.65381 42.3019 0.459529 40.9699 0.795374C39.638 1.13122 38.489 1.97088 37.7659 3.13691C37.0427 4.30293 36.802 5.70397 37.0946 7.04394L42.6996 28.5285L30.3791 2.97929C29.1629 0.339911 25.9903 -0.663054 23.3464 0.445486C20.7026 1.71239 19.5921 4.87965 20.8612 7.51903L29.7975 26.2059L11.9778 8.57478C9.91556 6.51606 6.5314 6.51606 4.46919 8.57478C2.40697 10.6863 2.45984 14.0119 4.52206 16.0706L24.1925 35.6021L20.491 37.0273L14.7803 39.2972L4.6807 46.2652C4.6807 46.2652 0.397625 51.8079 0.0274827 54.1833C-0.395537 56.5588 4.2048 68.4888 4.2048 68.4888H4.25768C5.10371 70.2835 6.90155 71.5504 9.01664 71.5504C10.419 71.5504 11.764 70.9943 12.7556 70.0043C13.7473 69.0144 14.3044 67.6717 14.3044 66.2717C14.3044 65.7438 14.1458 65.3215 13.9871 64.8464L14.0929 64.7936L10.9731 55.6614L17.477 50.4882C19.9623 50.5937 25.3029 51.016 27.8939 51.1744C42.3294 64.1074 28.687 69.175 28.687 69.175L10.3915 74.7705L9.49254 75.5095C8.94999 76.0102 8.52608 76.6254 8.25167 77.3103C7.97726 77.9951 7.85924 78.7325 7.90622 79.4686L8.01197 85.1169L42.0122 82.4775C44.0215 82.5303 45.9251 81.7912 47.4057 80.366L71.7821 56.0837C74.5846 53.2331 74.6904 47.9016 71.7821 44.8927Z" fill="#5F19F2"/>
</svg>
