<svg width="55" height="33" viewBox="0 0 55 33" fill="none" xmlns="http://www.w3.org/2000/svg">
<path d="M27.5 0C29.6273 0 31.6674 0.839222 33.1716 2.33305C34.6758 3.82687 35.5208 5.85293 35.5208 7.96552C35.5208 10.0781 34.6758 12.1042 33.1716 13.598C31.6674 15.0918 29.6273 15.931 27.5 15.931C25.3727 15.931 23.3326 15.0918 21.8284 13.598C20.3242 12.1042 19.4792 10.0781 19.4792 7.96552C19.4792 5.85293 20.3242 3.82687 21.8284 2.33305C23.3326 0.839222 25.3727 0 27.5 0ZM11.4583 5.68965C12.7417 5.68965 13.9333 6.03103 14.9646 6.64552C14.6208 9.9 15.5833 13.1317 17.5542 15.6579C16.4083 17.8428 14.1167 19.3448 11.4583 19.3448C9.63497 19.3448 7.88629 18.6255 6.59697 17.3451C5.30766 16.0647 4.58333 14.328 4.58333 12.5172C4.58333 10.7065 5.30766 8.96983 6.59697 7.68941C7.88629 6.40899 9.63497 5.68965 11.4583 5.68965ZM43.5417 5.68965C45.365 5.68965 47.1137 6.40899 48.403 7.68941C49.6923 8.96983 50.4167 10.7065 50.4167 12.5172C50.4167 14.328 49.6923 16.0647 48.403 17.3451C47.1137 18.6255 45.365 19.3448 43.5417 19.3448C40.8833 19.3448 38.5917 17.8428 37.4458 15.6579C39.4439 13.0963 40.3713 9.86859 40.0354 6.64552C41.0667 6.03103 42.2583 5.68965 43.5417 5.68965ZM12.6042 29.0172C12.6042 24.3062 19.2729 20.4828 27.5 20.4828C35.7271 20.4828 42.3958 24.3062 42.3958 29.0172V33H12.6042V29.0172ZM0 33V29.5862C0 26.4228 4.33125 23.76 10.1979 22.9862C8.84583 24.5338 8.02083 26.6731 8.02083 29.0172V33H0ZM55 33H46.9792V29.0172C46.9792 26.6731 46.1542 24.5338 44.8021 22.9862C50.6687 23.76 55 26.4228 55 29.5862V33Z" fill="#5F19F2"/>
</svg>
