<svg width="195" height="68" viewBox="0 0 195 68" fill="none" xmlns="http://www.w3.org/2000/svg">
<rect x="0.5" y="0.5" width="194" height="67" rx="9.5" stroke="white"/>
<path d="M86.33 33.6L84.35 28.34C84.19 27.9333 84.0267 27.4167 83.86 26.79C83.7867 27.1033 83.7067 27.3933 83.62 27.66C83.5333 27.92 83.4533 28.15 83.38 28.35L81.4 33.6H86.33ZM90.76 39H88.95C88.7433 39 88.5767 38.95 88.45 38.85C88.3233 38.7433 88.2267 38.6133 88.16 38.46L86.96 35.28H80.76L79.56 38.46C79.5067 38.5933 79.4133 38.7167 79.28 38.83C79.1467 38.9433 78.98 39 78.78 39H76.97L82.68 24.6H85.05L90.76 39ZM94.1514 36.44C94.4514 36.8267 94.7781 37.1 95.1314 37.26C95.4914 37.4133 95.8881 37.49 96.3214 37.49C97.1614 37.49 97.8147 37.1833 98.2814 36.57C98.7547 35.9567 98.9914 35.0433 98.9914 33.83C98.9914 33.2033 98.9381 32.67 98.8314 32.23C98.7247 31.7833 98.5714 31.42 98.3714 31.14C98.1714 30.86 97.9281 30.6567 97.6414 30.53C97.3547 30.4033 97.0314 30.34 96.6714 30.34C96.1247 30.34 95.6514 30.46 95.2514 30.7C94.8581 30.9333 94.4914 31.27 94.1514 31.71V36.44ZM94.0414 30.28C94.4681 29.78 94.9514 29.3767 95.4914 29.07C96.0381 28.7633 96.6714 28.61 97.3914 28.61C97.9647 28.61 98.4847 28.7267 98.9514 28.96C99.4181 29.1867 99.8181 29.52 100.151 29.96C100.485 30.4 100.741 30.9467 100.921 31.6C101.108 32.2467 101.201 32.99 101.201 33.83C101.201 34.5833 101.098 35.2867 100.891 35.94C100.691 36.5867 100.401 37.15 100.021 37.63C99.6414 38.1033 99.1814 38.4767 98.6414 38.75C98.1014 39.0167 97.4914 39.15 96.8114 39.15C96.2114 39.15 95.7014 39.0533 95.2814 38.86C94.8681 38.6667 94.4914 38.4 94.1514 38.06V42.39H92.0014V28.8H93.3014C93.5947 28.8 93.7814 28.9367 93.8614 29.21L94.0414 30.28ZM105.44 36.44C105.74 36.8267 106.067 37.1 106.42 37.26C106.78 37.4133 107.177 37.49 107.61 37.49C108.45 37.49 109.104 37.1833 109.57 36.57C110.044 35.9567 110.28 35.0433 110.28 33.83C110.28 33.2033 110.227 32.67 110.12 32.23C110.014 31.7833 109.86 31.42 109.66 31.14C109.46 30.86 109.217 30.6567 108.93 30.53C108.644 30.4033 108.32 30.34 107.96 30.34C107.414 30.34 106.94 30.46 106.54 30.7C106.147 30.9333 105.78 31.27 105.44 31.71V36.44ZM105.33 30.28C105.757 29.78 106.24 29.3767 106.78 29.07C107.327 28.7633 107.96 28.61 108.68 28.61C109.254 28.61 109.774 28.7267 110.24 28.96C110.707 29.1867 111.107 29.52 111.44 29.96C111.774 30.4 112.03 30.9467 112.21 31.6C112.397 32.2467 112.49 32.99 112.49 33.83C112.49 34.5833 112.387 35.2867 112.18 35.94C111.98 36.5867 111.69 37.15 111.31 37.63C110.93 38.1033 110.47 38.4767 109.93 38.75C109.39 39.0167 108.78 39.15 108.1 39.15C107.5 39.15 106.99 39.0533 106.57 38.86C106.157 38.6667 105.78 38.4 105.44 38.06V42.39H103.29V28.8H104.59C104.884 28.8 105.07 28.9367 105.15 29.21L105.33 30.28ZM127.49 27.06C127.417 27.18 127.34 27.27 127.26 27.33C127.18 27.3833 127.08 27.41 126.96 27.41C126.833 27.41 126.69 27.3567 126.53 27.25C126.377 27.1433 126.183 27.0267 125.95 26.9C125.723 26.7667 125.453 26.6467 125.14 26.54C124.827 26.4267 124.453 26.37 124.02 26.37C123.62 26.37 123.267 26.42 122.96 26.52C122.66 26.62 122.407 26.76 122.2 26.94C121.993 27.12 121.837 27.3333 121.73 27.58C121.63 27.82 121.58 28.0833 121.58 28.37C121.58 28.7367 121.677 29.0433 121.87 29.29C122.063 29.53 122.317 29.7367 122.63 29.91C122.95 30.0833 123.313 30.2367 123.72 30.37C124.127 30.4967 124.54 30.6333 124.96 30.78C125.387 30.9267 125.803 31.0933 126.21 31.28C126.617 31.4667 126.977 31.7033 127.29 31.99C127.61 32.2767 127.867 32.6267 128.06 33.04C128.253 33.4533 128.35 33.9567 128.35 34.55C128.35 35.19 128.24 35.79 128.02 36.35C127.8 36.91 127.48 37.4 127.06 37.82C126.647 38.2333 126.133 38.56 125.52 38.8C124.913 39.04 124.22 39.16 123.44 39.16C122.98 39.16 122.53 39.1133 122.09 39.02C121.657 38.9333 121.24 38.81 120.84 38.65C120.447 38.4833 120.077 38.2833 119.73 38.05C119.383 37.8167 119.073 37.5567 118.8 37.27L119.48 36.15C119.54 36.0567 119.617 35.9833 119.71 35.93C119.803 35.8767 119.907 35.85 120.02 35.85C120.173 35.85 120.343 35.9233 120.53 36.07C120.717 36.21 120.94 36.3667 121.2 36.54C121.467 36.7067 121.787 36.8633 122.16 37.01C122.533 37.15 122.98 37.22 123.5 37.22C124.347 37.22 125 37.0133 125.46 36.6C125.927 36.1867 126.16 35.6167 126.16 34.89C126.16 34.4833 126.063 34.1533 125.87 33.9C125.677 33.64 125.42 33.4233 125.1 33.25C124.787 33.0767 124.427 32.93 124.02 32.81C123.613 32.69 123.2 32.5633 122.78 32.43C122.36 32.29 121.947 32.13 121.54 31.95C121.133 31.7633 120.77 31.5233 120.45 31.23C120.137 30.93 119.883 30.5633 119.69 30.13C119.497 29.69 119.4 29.1433 119.4 28.49C119.4 27.97 119.5 27.4667 119.7 26.98C119.907 26.4933 120.203 26.0633 120.59 25.69C120.983 25.31 121.467 25.0067 122.04 24.78C122.613 24.5533 123.267 24.44 124 24.44C124.827 24.44 125.583 24.57 126.27 24.83C126.963 25.09 127.56 25.46 128.06 25.94L127.49 27.06ZM133.299 39.16C132.452 39.16 131.799 38.9233 131.339 38.45C130.885 37.97 130.659 37.2967 130.659 36.43V30.49H129.539C129.419 30.49 129.315 30.4533 129.229 30.38C129.142 30.3 129.099 30.1833 129.099 30.03V29.16L130.749 28.92L131.219 25.97C131.252 25.8567 131.309 25.7667 131.389 25.7C131.469 25.6267 131.575 25.59 131.709 25.59H132.809V28.94H135.639V30.49H132.809V36.28C132.809 36.6467 132.899 36.9267 133.079 37.12C133.259 37.3133 133.499 37.41 133.799 37.41C133.965 37.41 134.109 37.39 134.229 37.35C134.349 37.3033 134.452 37.2567 134.539 37.21C134.625 37.1567 134.699 37.11 134.759 37.07C134.825 37.0233 134.889 37 134.949 37C135.069 37 135.165 37.0667 135.239 37.2L135.879 38.25C135.545 38.5433 135.152 38.77 134.699 38.93C134.245 39.0833 133.779 39.16 133.299 39.16ZM141.665 28.64C142.419 28.64 143.099 28.7633 143.705 29.01C144.319 29.2567 144.839 29.6067 145.265 30.06C145.699 30.5133 146.032 31.0633 146.265 31.71C146.499 32.3567 146.615 33.0833 146.615 33.89C146.615 34.6967 146.499 35.4233 146.265 36.07C146.032 36.7167 145.699 37.27 145.265 37.73C144.839 38.1833 144.319 38.5333 143.705 38.78C143.099 39.0267 142.419 39.15 141.665 39.15C140.905 39.15 140.219 39.0267 139.605 38.78C138.999 38.5333 138.479 38.1833 138.045 37.73C137.612 37.27 137.279 36.7167 137.045 36.07C136.812 35.4233 136.695 34.6967 136.695 33.89C136.695 33.0833 136.812 32.3567 137.045 31.71C137.279 31.0633 137.612 30.5133 138.045 30.06C138.479 29.6067 138.999 29.2567 139.605 29.01C140.219 28.7633 140.905 28.64 141.665 28.64ZM141.665 37.47C142.585 37.47 143.269 37.1633 143.715 36.55C144.169 35.93 144.395 35.0467 144.395 33.9C144.395 32.7533 144.169 31.87 143.715 31.25C143.269 30.6233 142.585 30.31 141.665 30.31C140.732 30.31 140.039 30.6233 139.585 31.25C139.132 31.87 138.905 32.7533 138.905 33.9C138.905 35.0467 139.132 35.93 139.585 36.55C140.039 37.1633 140.732 37.47 141.665 37.47ZM150.711 30.69C151.031 30.0433 151.418 29.5367 151.871 29.17C152.324 28.7967 152.868 28.61 153.501 28.61C153.721 28.61 153.928 28.6367 154.121 28.69C154.314 28.7367 154.488 28.81 154.641 28.91L154.491 30.53C154.464 30.6433 154.421 30.7233 154.361 30.77C154.308 30.81 154.234 30.83 154.141 30.83C154.041 30.83 153.898 30.8133 153.711 30.78C153.524 30.74 153.328 30.72 153.121 30.72C152.821 30.72 152.554 30.7633 152.321 30.85C152.094 30.9367 151.888 31.0633 151.701 31.23C151.521 31.3967 151.361 31.6 151.221 31.84C151.081 32.08 150.951 32.3533 150.831 32.66V39H148.681V28.8H149.931C150.158 28.8 150.314 28.8433 150.401 28.93C150.488 29.01 150.548 29.1533 150.581 29.36L150.711 30.69ZM162.402 32.75C162.402 32.39 162.349 32.0567 162.242 31.75C162.142 31.4367 161.992 31.1667 161.792 30.94C161.592 30.7067 161.342 30.5267 161.042 30.4C160.749 30.2667 160.409 30.2 160.022 30.2C159.242 30.2 158.629 30.4233 158.182 30.87C157.736 31.3167 157.452 31.9433 157.332 32.75H162.402ZM157.272 34.07C157.299 34.65 157.389 35.1533 157.542 35.58C157.696 36 157.899 36.35 158.152 36.63C158.412 36.91 158.719 37.12 159.072 37.26C159.432 37.3933 159.832 37.46 160.272 37.46C160.692 37.46 161.056 37.4133 161.362 37.32C161.669 37.22 161.936 37.1133 162.162 37C162.389 36.88 162.582 36.7733 162.742 36.68C162.902 36.58 163.049 36.53 163.182 36.53C163.356 36.53 163.489 36.5967 163.582 36.73L164.192 37.52C163.939 37.82 163.652 38.0733 163.332 38.28C163.012 38.4867 162.672 38.6567 162.312 38.79C161.952 38.9167 161.582 39.0067 161.202 39.06C160.822 39.12 160.452 39.15 160.092 39.15C159.386 39.15 158.729 39.0333 158.122 38.8C157.522 38.56 156.999 38.21 156.552 37.75C156.112 37.29 155.766 36.72 155.512 36.04C155.266 35.36 155.142 34.5767 155.142 33.69C155.142 32.9833 155.252 32.3233 155.472 31.71C155.699 31.0967 156.019 30.5633 156.432 30.11C156.852 29.6567 157.359 29.3 157.952 29.04C158.552 28.7733 159.229 28.64 159.982 28.64C160.609 28.64 161.189 28.7433 161.722 28.95C162.256 29.15 162.716 29.4467 163.102 29.84C163.489 30.2333 163.789 30.7167 164.002 31.29C164.222 31.8567 164.332 32.5033 164.332 33.23C164.332 33.5633 164.296 33.7867 164.222 33.9C164.149 34.0133 164.016 34.07 163.822 34.07H157.272Z" fill="white"/>
<path d="M55.8281 54.2347C53.4374 56.5566 50.8271 56.19 48.3144 55.0901C45.6554 53.9658 43.2159 53.9169 40.4105 55.0901C36.8976 56.6055 35.0436 56.1655 32.9456 54.2347C21.0409 41.9407 22.7973 23.2186 36.3121 22.5342C39.6054 22.7053 41.8986 24.3429 43.8258 24.4895C46.7044 23.9029 49.461 22.2165 52.5348 22.4365C56.2184 22.7298 58.9994 24.1962 60.829 26.8359C53.2178 31.4064 55.023 41.4518 62 44.2626C60.6095 47.9288 58.8043 51.5706 55.8037 54.2591L55.8281 54.2347ZM43.5818 22.3876C43.2159 16.9372 47.6314 12.4399 52.7055 12C53.413 18.3059 46.9971 22.9986 43.5818 22.3876Z" fill="white"/>
</svg>
