<svg width="195" height="68" viewBox="0 0 195 68" fill="none" xmlns="http://www.w3.org/2000/svg">
<rect x="0.5" y="0.5" width="194" height="67" rx="9.5" stroke="black"/>
<path d="M85.33 36.6L83.35 31.34C83.19 30.9333 83.0267 30.4167 82.86 29.79C82.7867 30.1033 82.7067 30.3933 82.62 30.66C82.5333 30.92 82.4533 31.15 82.38 31.35L80.4 36.6H85.33ZM89.76 42H87.95C87.7433 42 87.5767 41.95 87.45 41.85C87.3233 41.7433 87.2267 41.6133 87.16 41.46L85.96 38.28H79.76L78.56 41.46C78.5067 41.5933 78.4133 41.7167 78.28 41.83C78.1467 41.9433 77.98 42 77.78 42H75.97L81.68 27.6H84.05L89.76 42ZM93.1514 39.44C93.4514 39.8267 93.7781 40.1 94.1314 40.26C94.4914 40.4133 94.8881 40.49 95.3214 40.49C96.1614 40.49 96.8147 40.1833 97.2814 39.57C97.7547 38.9567 97.9914 38.0433 97.9914 36.83C97.9914 36.2033 97.9381 35.67 97.8314 35.23C97.7247 34.7833 97.5714 34.42 97.3714 34.14C97.1714 33.86 96.9281 33.6567 96.6414 33.53C96.3547 33.4033 96.0314 33.34 95.6714 33.34C95.1247 33.34 94.6514 33.46 94.2514 33.7C93.8581 33.9333 93.4914 34.27 93.1514 34.71V39.44ZM93.0414 33.28C93.4681 32.78 93.9514 32.3767 94.4914 32.07C95.0381 31.7633 95.6714 31.61 96.3914 31.61C96.9647 31.61 97.4847 31.7267 97.9514 31.96C98.4181 32.1867 98.8181 32.52 99.1514 32.96C99.4847 33.4 99.7414 33.9467 99.9214 34.6C100.108 35.2467 100.201 35.99 100.201 36.83C100.201 37.5833 100.098 38.2867 99.8914 38.94C99.6914 39.5867 99.4014 40.15 99.0214 40.63C98.6414 41.1033 98.1814 41.4767 97.6414 41.75C97.1014 42.0167 96.4914 42.15 95.8114 42.15C95.2114 42.15 94.7014 42.0533 94.2814 41.86C93.8681 41.6667 93.4914 41.4 93.1514 41.06V45.39H91.0014V31.8H92.3014C92.5947 31.8 92.7814 31.9367 92.8614 32.21L93.0414 33.28ZM104.44 39.44C104.74 39.8267 105.067 40.1 105.42 40.26C105.78 40.4133 106.177 40.49 106.61 40.49C107.45 40.49 108.104 40.1833 108.57 39.57C109.044 38.9567 109.28 38.0433 109.28 36.83C109.28 36.2033 109.227 35.67 109.12 35.23C109.014 34.7833 108.86 34.42 108.66 34.14C108.46 33.86 108.217 33.6567 107.93 33.53C107.644 33.4033 107.32 33.34 106.96 33.34C106.414 33.34 105.94 33.46 105.54 33.7C105.147 33.9333 104.78 34.27 104.44 34.71V39.44ZM104.33 33.28C104.757 32.78 105.24 32.3767 105.78 32.07C106.327 31.7633 106.96 31.61 107.68 31.61C108.254 31.61 108.774 31.7267 109.24 31.96C109.707 32.1867 110.107 32.52 110.44 32.96C110.774 33.4 111.03 33.9467 111.21 34.6C111.397 35.2467 111.49 35.99 111.49 36.83C111.49 37.5833 111.387 38.2867 111.18 38.94C110.98 39.5867 110.69 40.15 110.31 40.63C109.93 41.1033 109.47 41.4767 108.93 41.75C108.39 42.0167 107.78 42.15 107.1 42.15C106.5 42.15 105.99 42.0533 105.57 41.86C105.157 41.6667 104.78 41.4 104.44 41.06V45.39H102.29V31.8H103.59C103.884 31.8 104.07 31.9367 104.15 32.21L104.33 33.28ZM126.49 30.06C126.417 30.18 126.34 30.27 126.26 30.33C126.18 30.3833 126.08 30.41 125.96 30.41C125.833 30.41 125.69 30.3567 125.53 30.25C125.377 30.1433 125.183 30.0267 124.95 29.9C124.723 29.7667 124.453 29.6467 124.14 29.54C123.827 29.4267 123.453 29.37 123.02 29.37C122.62 29.37 122.267 29.42 121.96 29.52C121.66 29.62 121.407 29.76 121.2 29.94C120.993 30.12 120.837 30.3333 120.73 30.58C120.63 30.82 120.58 31.0833 120.58 31.37C120.58 31.7367 120.677 32.0433 120.87 32.29C121.063 32.53 121.317 32.7367 121.63 32.91C121.95 33.0833 122.313 33.2367 122.72 33.37C123.127 33.4967 123.54 33.6333 123.96 33.78C124.387 33.9267 124.803 34.0933 125.21 34.28C125.617 34.4667 125.977 34.7033 126.29 34.99C126.61 35.2767 126.867 35.6267 127.06 36.04C127.253 36.4533 127.35 36.9567 127.35 37.55C127.35 38.19 127.24 38.79 127.02 39.35C126.8 39.91 126.48 40.4 126.06 40.82C125.647 41.2333 125.133 41.56 124.52 41.8C123.913 42.04 123.22 42.16 122.44 42.16C121.98 42.16 121.53 42.1133 121.09 42.02C120.657 41.9333 120.24 41.81 119.84 41.65C119.447 41.4833 119.077 41.2833 118.73 41.05C118.383 40.8167 118.073 40.5567 117.8 40.27L118.48 39.15C118.54 39.0567 118.617 38.9833 118.71 38.93C118.803 38.8767 118.907 38.85 119.02 38.85C119.173 38.85 119.343 38.9233 119.53 39.07C119.717 39.21 119.94 39.3667 120.2 39.54C120.467 39.7067 120.787 39.8633 121.16 40.01C121.533 40.15 121.98 40.22 122.5 40.22C123.347 40.22 124 40.0133 124.46 39.6C124.927 39.1867 125.16 38.6167 125.16 37.89C125.16 37.4833 125.063 37.1533 124.87 36.9C124.677 36.64 124.42 36.4233 124.1 36.25C123.787 36.0767 123.427 35.93 123.02 35.81C122.613 35.69 122.2 35.5633 121.78 35.43C121.36 35.29 120.947 35.13 120.54 34.95C120.133 34.7633 119.77 34.5233 119.45 34.23C119.137 33.93 118.883 33.5633 118.69 33.13C118.497 32.69 118.4 32.1433 118.4 31.49C118.4 30.97 118.5 30.4667 118.7 29.98C118.907 29.4933 119.203 29.0633 119.59 28.69C119.983 28.31 120.467 28.0067 121.04 27.78C121.613 27.5533 122.267 27.44 123 27.44C123.827 27.44 124.583 27.57 125.27 27.83C125.963 28.09 126.56 28.46 127.06 28.94L126.49 30.06ZM132.299 42.16C131.452 42.16 130.799 41.9233 130.339 41.45C129.885 40.97 129.659 40.2967 129.659 39.43V33.49H128.539C128.419 33.49 128.315 33.4533 128.229 33.38C128.142 33.3 128.099 33.1833 128.099 33.03V32.16L129.749 31.92L130.219 28.97C130.252 28.8567 130.309 28.7667 130.389 28.7C130.469 28.6267 130.575 28.59 130.709 28.59H131.809V31.94H134.639V33.49H131.809V39.28C131.809 39.6467 131.899 39.9267 132.079 40.12C132.259 40.3133 132.499 40.41 132.799 40.41C132.965 40.41 133.109 40.39 133.229 40.35C133.349 40.3033 133.452 40.2567 133.539 40.21C133.625 40.1567 133.699 40.11 133.759 40.07C133.825 40.0233 133.889 40 133.949 40C134.069 40 134.165 40.0667 134.239 40.2L134.879 41.25C134.545 41.5433 134.152 41.77 133.699 41.93C133.245 42.0833 132.779 42.16 132.299 42.16ZM140.665 31.64C141.419 31.64 142.099 31.7633 142.705 32.01C143.319 32.2567 143.839 32.6067 144.265 33.06C144.699 33.5133 145.032 34.0633 145.265 34.71C145.499 35.3567 145.615 36.0833 145.615 36.89C145.615 37.6967 145.499 38.4233 145.265 39.07C145.032 39.7167 144.699 40.27 144.265 40.73C143.839 41.1833 143.319 41.5333 142.705 41.78C142.099 42.0267 141.419 42.15 140.665 42.15C139.905 42.15 139.219 42.0267 138.605 41.78C137.999 41.5333 137.479 41.1833 137.045 40.73C136.612 40.27 136.279 39.7167 136.045 39.07C135.812 38.4233 135.695 37.6967 135.695 36.89C135.695 36.0833 135.812 35.3567 136.045 34.71C136.279 34.0633 136.612 33.5133 137.045 33.06C137.479 32.6067 137.999 32.2567 138.605 32.01C139.219 31.7633 139.905 31.64 140.665 31.64ZM140.665 40.47C141.585 40.47 142.269 40.1633 142.715 39.55C143.169 38.93 143.395 38.0467 143.395 36.9C143.395 35.7533 143.169 34.87 142.715 34.25C142.269 33.6233 141.585 33.31 140.665 33.31C139.732 33.31 139.039 33.6233 138.585 34.25C138.132 34.87 137.905 35.7533 137.905 36.9C137.905 38.0467 138.132 38.93 138.585 39.55C139.039 40.1633 139.732 40.47 140.665 40.47ZM149.711 33.69C150.031 33.0433 150.418 32.5367 150.871 32.17C151.324 31.7967 151.868 31.61 152.501 31.61C152.721 31.61 152.928 31.6367 153.121 31.69C153.314 31.7367 153.488 31.81 153.641 31.91L153.491 33.53C153.464 33.6433 153.421 33.7233 153.361 33.77C153.308 33.81 153.234 33.83 153.141 33.83C153.041 33.83 152.898 33.8133 152.711 33.78C152.524 33.74 152.328 33.72 152.121 33.72C151.821 33.72 151.554 33.7633 151.321 33.85C151.094 33.9367 150.888 34.0633 150.701 34.23C150.521 34.3967 150.361 34.6 150.221 34.84C150.081 35.08 149.951 35.3533 149.831 35.66V42H147.681V31.8H148.931C149.158 31.8 149.314 31.8433 149.401 31.93C149.488 32.01 149.548 32.1533 149.581 32.36L149.711 33.69ZM161.402 35.75C161.402 35.39 161.349 35.0567 161.242 34.75C161.142 34.4367 160.992 34.1667 160.792 33.94C160.592 33.7067 160.342 33.5267 160.042 33.4C159.749 33.2667 159.409 33.2 159.022 33.2C158.242 33.2 157.629 33.4233 157.182 33.87C156.736 34.3167 156.452 34.9433 156.332 35.75H161.402ZM156.272 37.07C156.299 37.65 156.389 38.1533 156.542 38.58C156.696 39 156.899 39.35 157.152 39.63C157.412 39.91 157.719 40.12 158.072 40.26C158.432 40.3933 158.832 40.46 159.272 40.46C159.692 40.46 160.056 40.4133 160.362 40.32C160.669 40.22 160.936 40.1133 161.162 40C161.389 39.88 161.582 39.7733 161.742 39.68C161.902 39.58 162.049 39.53 162.182 39.53C162.356 39.53 162.489 39.5967 162.582 39.73L163.192 40.52C162.939 40.82 162.652 41.0733 162.332 41.28C162.012 41.4867 161.672 41.6567 161.312 41.79C160.952 41.9167 160.582 42.0067 160.202 42.06C159.822 42.12 159.452 42.15 159.092 42.15C158.386 42.15 157.729 42.0333 157.122 41.8C156.522 41.56 155.999 41.21 155.552 40.75C155.112 40.29 154.766 39.72 154.512 39.04C154.266 38.36 154.142 37.5767 154.142 36.69C154.142 35.9833 154.252 35.3233 154.472 34.71C154.699 34.0967 155.019 33.5633 155.432 33.11C155.852 32.6567 156.359 32.3 156.952 32.04C157.552 31.7733 158.229 31.64 158.982 31.64C159.609 31.64 160.189 31.7433 160.722 31.95C161.256 32.15 161.716 32.4467 162.102 32.84C162.489 33.2333 162.789 33.7167 163.002 34.29C163.222 34.8567 163.332 35.5033 163.332 36.23C163.332 36.5633 163.296 36.7867 163.222 36.9C163.149 37.0133 163.016 37.07 162.822 37.07H156.272Z" fill="black"/>
<path d="M55.8281 54.2347C53.4374 56.5566 50.8271 56.19 48.3144 55.0901C45.6554 53.9658 43.2159 53.9169 40.4105 55.0901C36.8976 56.6055 35.0436 56.1655 32.9456 54.2347C21.0409 41.9407 22.7973 23.2186 36.3121 22.5342C39.6054 22.7053 41.8986 24.3429 43.8258 24.4895C46.7044 23.9029 49.461 22.2165 52.5348 22.4365C56.2184 22.7298 58.9994 24.1962 60.829 26.8359C53.2178 31.4064 55.023 41.4518 62 44.2626C60.6095 47.9288 58.8043 51.5706 55.8037 54.2591L55.8281 54.2347ZM43.5818 22.3876C43.2159 16.9372 47.6314 12.4399 52.7055 12C53.413 18.3059 46.9971 22.9986 43.5818 22.3876Z" fill="black"/>
</svg>
