<svg width="93" height="91" viewBox="0 0 93 91" fill="none" xmlns="http://www.w3.org/2000/svg">
<path d="M41.9829 2.32032L6.72921 24.3978H3.32143C1.49464 24.3978 0 25.8963 0 27.7278C0 29.5592 1.49464 31.0577 3.31811 31.0577V37.7176C1.49132 37.7209 0 39.2161 0 41.0475C0 42.879 1.49464 44.3775 3.32143 44.3775H6.64286V77.6802C5.72379 77.7155 4.85408 78.1063 4.21623 78.7707C3.57838 79.435 3.22197 80.3212 3.22179 81.2433V84.3401H3.55393C1.59429 84.3401 0 85.9385 0 87.9032V91H92.9668V87.9032C92.9668 85.9385 91.3725 84.3401 89.4129 84.3401H89.6786V81.2433C89.6788 80.3385 89.3357 79.4675 88.7189 78.807C88.1021 78.1465 87.2577 77.7461 86.3571 77.6869V44.3775H89.6786C91.5054 44.3775 93 42.879 93 41.0475C93 39.2161 91.5054 37.7176 89.6786 37.7176L89.6752 31.0577C91.502 31.0577 93 29.5592 93 27.7278C93 25.8963 91.5054 24.3978 89.6786 24.3978H86.4036L51.15 2.32365C48.36 0.558783 44.7729 0.555453 41.9829 2.32032ZM44.8393 29.5925V27.7944C44.3471 27.7279 43.8665 27.5934 43.4111 27.3948C42.4811 27.0618 41.7171 26.4624 41.1193 25.6632C40.9277 25.3917 40.834 25.0629 40.8536 24.7308C40.8536 24.6176 40.8635 24.5077 40.8868 24.3978C40.9834 23.9877 41.233 23.6302 41.5843 23.3989C42.2818 22.966 43.0457 23.0659 43.6768 23.6985C44.0096 24.0633 44.4029 24.3675 44.8393 24.5976C44.8559 24.6176 44.8791 24.6243 44.9057 24.6309L44.919 24.6376C45.4587 24.8773 46.0426 25.0009 46.6329 25.0006C47.5429 24.9573 47.8718 24.6676 47.9946 24.4012C48.0611 24.2447 48.0611 24.0981 48.0611 24.0016C48.0611 23.7019 47.9282 23.4688 47.6293 23.3023C47.2639 23.1025 46.6329 22.8694 45.8357 22.6696C45.5009 22.5789 45.1686 22.479 44.8393 22.3699C44.7264 22.3266 44.6134 22.29 44.5071 22.2534C44.2013 22.1555 43.9018 22.0387 43.6104 21.9037C42.9793 21.6373 42.4479 21.2377 42.0161 20.6716C41.5511 20.1055 41.3186 19.373 41.3186 18.4406C41.3186 17.6081 41.5511 16.9088 42.0493 16.2761C42.4811 15.6767 43.0789 15.2438 43.8429 14.9108C44.175 14.7776 44.5071 14.6444 44.8393 14.5778V12.5799C44.8393 11.7807 45.5036 11.0814 46.3339 11.0814H46.5664C47.3968 11.0814 48.0611 11.7807 48.0611 12.5799V14.711C48.2205 14.7343 48.36 14.7843 48.5061 14.8342L48.6257 14.8775C49.4561 15.2105 50.1536 15.6767 50.6186 16.3094C50.8843 16.6091 50.9839 16.9754 50.9839 17.3417C50.9839 17.8079 50.8179 18.2075 50.4193 18.5072C49.8214 19.0067 48.8914 18.9401 48.36 18.4073C48.2688 18.3093 48.1688 18.2202 48.0611 18.1409C47.8751 17.9481 47.648 17.8001 47.3968 17.708C46.9824 17.5114 46.5262 17.4199 46.0682 17.4416C45.3375 17.4416 45.0054 17.6081 44.8393 17.8079C44.7064 17.9744 44.7064 18.1742 44.7064 18.3074C44.7064 18.4739 44.7396 18.6404 44.8393 18.7736C44.8393 18.8069 44.8725 18.8402 44.9057 18.8735C45.105 19.04 45.3043 19.1732 45.6032 19.2731C45.9021 19.373 46.3671 19.5061 46.965 19.6726C47.2473 19.7659 47.513 19.8425 47.7621 19.9157L48.0611 20.0056C48.4596 20.1388 48.7918 20.272 49.0907 20.4052C49.6886 20.7049 50.22 21.1045 50.6186 21.6706C51.0504 22.2367 51.2829 22.9693 51.2829 23.9017C51.2887 24.7007 51.0188 25.4771 50.5189 26.0994C50.0338 26.7151 49.3909 27.187 48.6589 27.4647C48.4596 27.5646 48.2604 27.6312 48.0611 27.6645V29.5959C48.0611 30.3118 47.5296 30.9179 46.8189 31.0377H46.0815C45.7376 30.9827 45.4242 30.8074 45.1968 30.5429C44.9694 30.2784 44.8428 29.9417 44.8393 29.5925ZM62.7351 24.3978C63.3324 21.4719 63.1386 18.4391 62.1738 15.6134L76.2899 24.4012H62.7385L62.7351 24.3978ZM30.6136 15.8499C29.7131 18.6096 29.5471 21.5573 30.132 24.4012H16.8795L30.6136 15.8499ZM19.9286 77.6802H16.6071V44.3808H19.9286V77.6802ZM36.5357 77.6802H29.8929V44.3808H63.1071V77.6802H56.4643V56.5018C56.4643 55.3363 55.5011 54.3706 54.3386 54.3706H38.6282C37.4657 54.3706 36.5357 55.303 36.5357 56.4685V77.6802ZM73.0714 44.3808H76.3929V77.6802H73.0714V44.3808Z" fill="black"/>
</svg>
