<svg width="80" height="80" viewBox="0 0 80 80" fill="none" xmlns="http://www.w3.org/2000/svg">
<rect width="80" height="80" rx="10" fill="#F2D255"/>
<path d="M20 30.35H17.65V28.4401L39.5 19.7001L61.35 28.4401V30.35H59H58.35V31C58.35 31.2106 58.2764 31.3938 58.0777 31.578C57.8778 31.7632 57.6568 31.85 57.3828 31.85H21.6172C21.3432 31.85 21.1222 31.7632 20.9223 31.578C20.7236 31.3938 20.65 31.2106 20.65 31V30.35H20ZM23.65 52V34.65H28.35V52V52.65H29H32H32.65V52V34.65H37.35V52V52.65H38H41H41.65V52V34.65H46.35V52V52.65H47H50H50.65V52V34.65H55.35V52V52.65H56H57.3828C57.6568 52.65 57.8778 52.7368 58.0777 52.922C58.2764 53.1062 58.35 53.2894 58.35 53.5V54.35H20.65V53.5C20.65 53.2894 20.7236 53.1062 20.9223 52.922C21.1222 52.7368 21.3432 52.65 21.6172 52.65H23H23.65V52ZM60.3828 57.15C60.6568 57.15 60.8778 57.2368 61.0777 57.422C61.2764 57.6062 61.35 57.7894 61.35 58V60.35H17.65V58C17.65 57.7894 17.7236 57.6062 17.9223 57.422C18.1222 57.2368 18.3432 57.15 18.6172 57.15H60.3828Z" stroke="white" stroke-width="1.3"/>
</svg>
