<svg width="81" height="80" viewBox="0 0 81 80" fill="none" xmlns="http://www.w3.org/2000/svg">
<path d="M61.7249 6.31532C55.6058 2.45121 48.2895 0.186035 40.4412 0.186035C32.5928 0.186035 25.2765 2.45121 19.1574 6.31532V73.8707C25.2765 77.7348 32.5928 80 40.4412 80C48.2895 80 55.6058 77.7348 61.7249 73.8707V6.31532Z" fill="#F9F9F9"/>
<path d="M61.7284 6.31561V73.871C72.9024 66.9422 80.3517 54.1507 80.3517 40.0267C80.3517 25.9027 72.9024 13.3776 61.7284 6.31561ZM19.161 6.31561C7.98702 13.3776 0.53772 26.1692 0.53772 40.1599C0.53772 54.1507 7.98702 66.9422 19.161 74.0042V6.31561ZM54.9442 39.6269C54.4121 39.3604 54.2791 38.8275 54.4121 38.561L55.7424 33.7641L51.0865 34.6969C50.9535 34.6969 50.4214 34.6969 50.2884 33.7641L49.8893 32.1652L46.6968 35.8961C46.6968 35.8961 44.5684 38.1612 45.2335 34.6969L46.5638 27.3684L44.0363 28.7008C43.9033 28.7008 43.3712 28.8341 42.7061 27.5016L40.4447 22.838L38.0503 27.2351C37.3852 28.5676 36.8531 28.4343 36.72 28.4343L34.1926 27.1019L35.5228 34.4304C36.1879 37.8947 34.0596 35.6296 34.0596 35.6296L30.867 31.8987L30.4679 33.4977C30.2019 34.4304 29.8028 34.4304 29.6698 34.4304L25.014 33.4977L26.3442 38.2945C26.3442 38.6942 26.3442 39.094 25.8121 39.3604L24.4819 40.1599C24.4819 40.1599 29.8028 44.4238 31.5321 45.8895C31.9312 46.156 32.7293 46.9554 32.4633 47.8881L31.7982 49.7536L39.1145 48.6876C39.5135 48.6876 40.3117 48.6876 40.1786 49.8868L39.7796 57.4818H41.1098L40.7107 49.8868C40.7107 48.6876 41.5089 48.6876 41.7749 48.6876L49.0912 49.7536L48.4261 47.8881C48.16 46.9554 48.9582 46.156 49.3572 45.8895C51.0865 44.4238 56.4075 40.1599 56.4075 40.1599L54.9442 39.6269Z" fill="#ED4C5C"/>
</svg>
