<svg width="42" height="35" viewBox="0 0 42 35" fill="none" xmlns="http://www.w3.org/2000/svg">
<path d="M17.0625 0C16.0182 0 15.0167 0.414843 14.2783 1.15327C13.5398 1.89169 13.125 2.89321 13.125 3.9375V5.25H3.9375C2.89321 5.25 1.89169 5.66484 1.15327 6.40327C0.414843 7.14169 0 8.14321 0 9.1875L0 12.8205L19.9867 18.1493C20.6507 18.3261 21.3493 18.3261 22.0132 18.1493L42 12.8205V9.1875C42 8.14321 41.5852 7.14169 40.8467 6.40327C40.1083 5.66484 39.1068 5.25 38.0625 5.25H28.875V3.9375C28.875 2.89321 28.4602 1.89169 27.7217 1.15327C26.9833 0.414843 25.9818 0 24.9375 0H17.0625ZM17.0625 2.625H24.9375C25.2856 2.625 25.6194 2.76328 25.8656 3.00942C26.1117 3.25556 26.25 3.5894 26.25 3.9375V5.25H15.75V3.9375C15.75 3.5894 15.8883 3.25556 16.1344 3.00942C16.3806 2.76328 16.7144 2.625 17.0625 2.625Z" fill="#5F19F2" fill-opacity="0.5"/>
<path d="M0 30.1875C0 31.2317 0.414843 32.2333 1.15327 32.9717C1.89169 33.7101 2.89321 34.125 3.9375 34.125H38.0625C39.1068 34.125 40.1083 33.7101 40.8467 32.9717C41.5852 32.2333 42 31.2317 42 30.1875V15.3562L21.3386 20.8608C21.1168 20.9201 20.8832 20.9201 20.6614 20.8608L0 15.3562V30.1875Z" fill="#5F19F2"/>
</svg>
