<svg width="93" height="92" viewBox="0 0 93 92" fill="none" xmlns="http://www.w3.org/2000/svg">
<path d="M37.586 4.53135L36.212 3.6733C33.5227 2.03147 30.1661 1.07764 27.2806 1.97283C24.1791 2.93448 21.7058 5.31318 20.4103 8.88612L18.5651 7.94011C15.3851 6.31001 13.7205 6.2846 12.3406 6.90224C11.2394 7.39284 10.091 8.57339 8.78961 10.2973L24.9643 22.7498C27.4965 23.5708 31.2065 23.5512 34.9164 22.5935C38.646 21.6357 42.356 19.7594 45.0649 17.238L51.1696 2.20738C45.7911 -2.02425 40.8838 0.426773 37.586 4.53135ZM48.0093 19.4857C44.6723 22.8476 39.706 25.1149 35.839 26.1312C34.4846 26.4831 33.1301 26.7371 31.815 26.874C31.0887 28.0662 30.4802 29.2781 30.0091 30.4899C30.9513 35.259 32.7179 39.1682 35.3679 42.3736L32.5413 44.7191C30.912 42.7646 29.4594 40.6536 28.3602 38.3082C28.1835 42.8427 29.2043 47.5337 30.8728 52.4201L27.3983 53.5928C24.3361 44.68 23.2958 35.5522 27.5946 26.9521C26.1421 26.8349 24.768 26.5612 23.4921 26.1117L23.4332 26.0921C22.5891 26.8935 21.7843 27.734 21.0188 28.6135C14.8217 35.7672 11.4082 45.2859 13.1945 52.6937C14.1504 56.6615 15.8641 60.4143 18.3295 63.6197C21.9414 63.5416 25.3569 63.6197 28.4583 64.7925C29.9305 64.6361 31.442 64.5384 33.0124 64.5384C38.6068 64.5384 43.6712 65.5743 47.4989 67.3725C48.9907 68.0761 50.3452 68.9166 51.4248 69.8744C51.4248 68.8384 51.5818 67.7243 51.8959 66.9034C50.1489 65.2616 49.0496 63.2679 49.0496 61.0006C49.0496 57.8538 51.15 55.2542 54.1926 53.3778C54.1926 52.4787 54.3692 51.6187 54.6833 50.7978C52.7007 49.0973 51.4248 46.9864 51.4248 44.5237C51.4248 42.9796 51.9352 41.5723 52.7989 40.3018C51.9352 39.0509 51.4248 37.6436 51.4248 36.0995C51.4248 35.3372 51.5426 34.6336 51.7585 33.9495C49.8544 32.2686 48.657 30.1967 48.657 27.8122C48.657 25.4471 49.8348 23.3948 51.7192 21.7335C50.5611 20.8344 49.3245 20.0721 48.0093 19.4857ZM69.8765 19.9353C64.7728 19.9353 60.1599 21.0103 56.9996 22.5935C53.8196 24.1767 52.3278 26.1312 52.3278 27.8122C52.3278 29.5126 53.8196 31.4672 56.9996 33.0504C60.1599 34.6336 64.7728 35.7086 69.8765 35.7086C72.0946 35.7086 74.195 35.4936 76.1383 35.1418V31.819C78.8668 31.4086 81.1242 30.6658 82.5768 29.7081V33.1481C85.0304 32.4445 87.386 29.8449 87.4449 27.8122C87.4449 26.1312 85.953 24.1767 82.773 22.5935C79.5931 21.0103 74.9998 19.9353 69.8765 19.9353ZM88.8189 33.1677C88.1712 33.8518 87.4056 34.4968 86.5419 35.0831L86.5812 40.7514C89.0545 39.2854 90.2126 37.585 90.2126 36.0995C90.2126 35.1613 89.7611 34.1449 88.8189 33.1677ZM55.0955 36.1777C55.1544 37.8586 56.6462 39.7545 59.7673 41.3182C62.9473 42.9209 67.5406 43.9764 72.6639 43.9764C75.8635 43.9764 78.8668 43.5464 81.4382 42.8427L81.5757 37.5263C78.1994 38.6991 74.195 39.3441 69.8765 39.3441C64.2821 39.3441 59.1981 38.23 55.3507 36.3145C55.2525 36.2754 55.174 36.2168 55.0955 36.1777ZM55.4881 42.9796C55.2133 43.5073 55.0955 44.035 55.0955 44.5237C55.0955 46.2241 56.5873 48.1787 59.7673 49.7619C62.9473 51.3451 67.5406 52.4006 72.6639 52.4006C75.255 52.4006 77.7086 52.1465 79.9268 51.6578V46.9669C77.6498 47.3969 75.2157 47.6119 72.6639 47.6119C67.0499 47.6119 61.9658 46.5173 58.1185 44.5823C57.1566 44.1132 56.2733 43.5659 55.4881 42.9796ZM89.82 42.9796C88.6226 43.82 87.5823 44.4455 86.3652 44.9732V49.3319C88.976 47.8269 90.2126 46.0678 90.2126 44.5237C90.2126 44.035 90.0948 43.5073 89.82 42.9796ZM91.2922 50.1724C90.8997 50.5633 90.4678 50.9346 89.9967 51.306V57.6388C92.0185 56.2706 93 54.7656 93 53.3974C93 52.3615 92.4307 51.2474 91.2922 50.1724ZM57.9025 52.9087C57.8829 53.0846 57.8633 53.241 57.8633 53.3974C57.8633 55.0979 59.3551 57.0329 62.5351 58.6161C65.715 60.2188 70.328 61.2743 75.4316 61.2743C78.3564 61.2743 81.1438 60.9224 83.5582 60.3361V54.4919C80.3586 55.5083 76.6487 56.0556 72.6639 56.0556C67.0499 56.0556 61.9658 54.9415 58.1185 53.026C58.0399 52.9869 57.981 52.9478 57.9025 52.9087ZM55.2329 57.0915C53.5252 58.362 52.7203 59.7497 52.7203 61.0006C52.7203 62.7011 54.2122 64.6361 57.3922 66.2389C60.5721 67.8221 65.1654 68.8775 70.2887 68.8775C72.1535 68.8775 73.9594 68.7407 75.6476 68.4866V64.9293H75.4316C69.8176 64.9293 64.7336 63.8152 60.8862 61.8802C58.4325 60.6684 56.3911 59.0461 55.2329 57.0915ZM87.1308 63.0725C85.5801 63.6197 83.8919 64.0693 82.086 64.3625V66.7275C82.459 66.5711 82.8319 66.4148 83.1853 66.2389C85.109 65.2616 86.4045 64.167 87.1308 63.0725ZM88.9367 66.6298C88.1908 67.3725 87.3271 68.0371 86.3652 68.643V74.233C88.976 72.7476 90.2126 70.9884 90.2126 69.4443C90.2126 68.5452 89.8004 67.568 88.9367 66.6298ZM20.4888 67.177C18.4866 67.1966 16.3273 67.4507 14.0896 67.9784C9.61209 69.0143 5.76275 70.9103 3.25018 73.0016C0.737607 75.0735 -0.243866 77.1844 0.0505757 78.6894C0.345018 80.1944 1.89575 81.5822 4.91868 82.3836C7.9318 83.1654 12.1463 83.2045 16.6218 82.1685C18.4277 81.7385 20.1158 81.1913 21.6665 80.5463V76.5003C24.5324 75.2299 26.672 73.7053 27.6339 72.2198V76.989C30.0091 74.9562 30.9316 72.9235 30.6568 71.438C30.382 69.933 28.8117 68.5452 25.7887 67.7634C24.2773 67.3725 22.4713 67.1575 20.4888 67.177ZM33.1694 68.1934C33.6994 68.9557 34.0724 69.8157 34.2687 70.7734C34.4846 71.9462 34.3864 73.0798 34.0331 74.1939C35.9764 74.7021 37.7431 75.3862 39.2742 76.2462C40.1379 76.7153 40.9427 77.2821 41.6493 77.8685C43.416 77.4581 44.9078 76.8717 45.9678 76.168V80.1944C49.1282 78.709 50.5807 76.8912 50.5807 75.4449C50.5807 73.9789 49.1282 72.1612 45.9482 70.6757C42.7878 69.2098 38.2338 68.213 33.1694 68.1934ZM55.1151 69.1707C55.0955 69.2489 55.0955 69.3466 55.0955 69.4443C55.0955 71.1448 56.5873 73.0798 59.7673 74.6826C62.9473 76.2658 67.5406 77.3212 72.6639 77.3212C75.255 77.3212 77.7086 77.0476 79.9268 76.5785V71.3207C77.0216 72.1025 73.7435 72.5325 70.2887 72.5325C64.6747 72.5325 59.5907 71.4184 55.7433 69.503C55.5274 69.3857 55.3114 69.2684 55.1151 69.1707ZM55.6648 76.4612C55.2722 77.1062 55.0955 77.7317 55.0955 78.3376C55.0955 80.0381 56.5873 81.9731 59.7673 83.5758C62.9473 85.159 67.5406 86.2145 72.6639 86.2145C75.255 86.2145 77.7086 85.9409 79.9268 85.4718V80.3117C77.6498 80.7417 75.2157 80.9763 72.6639 80.9763C67.0499 80.9763 61.9658 79.8622 58.1185 77.9271C57.2351 77.4971 56.4107 77.0085 55.6648 76.4612ZM89.6434 76.4612C88.5049 77.2235 87.5038 77.8294 86.3652 78.3181V83.1263C88.976 81.6408 90.2126 79.8817 90.2126 78.3376C90.2126 77.7317 90.0359 77.1062 89.6434 76.4612ZM32.2076 77.5167C31.5205 78.3767 30.7157 79.1976 29.8128 79.9403C26.7506 82.5008 22.4321 84.5727 17.4462 85.7259C15.6678 86.1363 13.9011 86.3904 12.2051 86.5272C12.8333 87.5631 13.9384 88.5795 15.5559 89.4786C18.2314 90.9836 22.1573 92 26.515 92C28.4976 92 30.382 91.785 32.1094 91.4136V87.3481C34.8183 86.9377 37.0953 86.1949 38.5479 85.2372V88.8336C40.5108 87.4654 41.453 85.9213 41.453 84.4554C41.453 82.7549 40.1771 80.9372 37.4879 79.4322C36.0353 78.6308 34.2294 77.9662 32.2076 77.5167Z" fill="black"/>
</svg>
