<svg width="80" height="80" viewBox="0 0 80 80" fill="none" xmlns="http://www.w3.org/2000/svg">
<rect width="80" height="80" rx="10" fill="#ED4C5C"/>
<path d="M34.8393 53.8929L34.6076 54.5003L34.8556 53.2434L34.8557 53.2431L34.8559 53.2431L34.8571 53.2432L34.8626 53.2433L34.8856 53.2438L34.9782 53.2455C35.0602 53.2469 35.1816 53.2485 35.3379 53.2496C35.6506 53.2517 36.1025 53.2516 36.6566 53.2426C37.7657 53.2244 39.2801 53.1704 40.9048 53.0273C42.5319 52.8839 44.255 52.6524 45.7864 52.2833C47.0494 51.9788 48.1328 51.5918 48.9217 51.1161L47.3206 48.686L47.3158 48.6858C47.0957 48.6791 46.7783 48.669 46.3888 48.6558C45.6099 48.6294 44.542 48.5903 43.3865 48.5395C41.0877 48.4384 38.4034 48.2898 36.975 48.0992C36.544 48.0426 36.0227 47.8883 35.4874 47.7115C35.1992 47.6163 34.8749 47.5033 34.5423 47.3874C34.2675 47.2917 33.9871 47.194 33.7167 47.1027C32.4541 46.6765 31.1839 46.3119 30.1502 46.3119H30.149C29.9124 46.3114 29.6764 46.3378 29.4456 46.3906C29.4452 46.3907 29.4448 46.3908 29.4444 46.3908L34.8393 53.8929ZM34.8393 53.8929C34.6076 54.5003 34.608 54.5004 34.6083 54.5005L34.6091 54.5008L34.6112 54.5016L34.6173 54.5039L34.6371 54.5112C34.6536 54.5172 34.6769 54.5255 34.7068 54.5359C34.7665 54.5566 34.8524 54.5853 34.9632 54.6197C35.1848 54.6885 35.5063 54.78 35.9172 54.8753C36.7386 55.0658 37.919 55.2716 39.3738 55.3398C42.2851 55.4764 46.295 55.0618 50.7156 52.8738C50.9916 52.7384 51.6753 52.3259 52.5014 51.8146C53.346 51.2918 54.3809 50.6397 55.3843 50.0032C56.388 49.3665 57.3617 48.7445 58.0843 48.2818C58.3982 48.0808 58.6647 47.9099 58.8659 47.7807L61.0044 49.666C60.7356 49.8894 60.378 50.1832 59.9448 50.5314C58.9122 51.3616 57.4514 52.5004 55.7397 53.734C52.3047 56.2096 47.9037 59.0341 43.9402 60.5337L43.9394 60.534C43.6166 60.6565 42.6156 60.8636 41.3455 61.0415C40.1007 61.2159 38.6873 61.35 37.5809 61.35C37.1664 61.35 36.8112 61.3314 36.5316 61.2929C36.2325 61.2517 36.0929 61.1967 36.0528 61.1717L36.046 61.1675L36.0392 61.1635C29.8523 57.5159 23.5124 56.8959 19.9212 56.8959L19.9178 56.8959C18.9871 56.9007 18.2399 56.9445 17.7226 56.9875C17.6979 56.9896 17.6737 56.9916 17.65 56.9937V48.1123L34.8393 53.8929ZM38.8338 18.6482C39.1249 17.8563 39.5013 17.677 39.636 17.6508C39.6368 17.6508 39.6378 17.6507 39.639 17.6507C39.6439 17.6504 39.6504 17.6502 39.659 17.6501L39.6891 17.65C39.9033 17.65 40.3215 17.7644 40.8656 18.33L40.8712 18.3358L40.8769 18.3414C41.5104 18.9683 42.1124 20.0416 42.4214 21.3586C42.7192 22.6579 42.6196 23.8581 42.3168 24.633L42.3168 24.633L42.313 24.6431C42.0124 25.4518 41.6508 25.6112 41.5325 25.6286L41.5236 25.6299L41.5148 25.6314C41.3746 25.656 40.9258 25.6126 40.2861 24.9587L40.2861 24.9586L40.2801 24.9527C39.6441 24.3193 39.034 23.2339 38.7349 21.9378C38.4438 20.6173 38.5283 19.4353 38.8297 18.6593L38.8298 18.6593L38.8338 18.6482ZM44.2458 32.9403L44.2459 32.9404L44.2526 32.9315C44.792 32.2224 45.8246 31.4149 47.2268 30.7977C48.4304 30.2855 49.6591 30.0298 50.6079 30.0023C50.7585 30.0024 50.8314 30.0042 50.9128 30.0196L50.9616 30.0288L51.0112 30.0306C52.0666 30.067 52.3309 30.3658 52.3543 30.4085L52.3543 30.4086L52.3579 30.415C52.3645 30.4268 52.4995 30.7501 51.9412 31.4584L51.9389 31.4614C51.3981 32.1558 50.3436 32.9743 48.9509 33.5819C47.5574 34.1802 46.1662 34.4283 45.1831 34.3689L45.1831 34.3688L45.1719 34.3683C44.1761 34.3254 43.8724 34.0392 43.8181 33.9609C43.8038 33.9245 43.7116 33.618 44.2458 32.9403ZM36.1731 39.0619L36.176 39.0611C36.6308 38.9421 37.1453 38.8717 37.722 38.8628C38.4495 38.8541 39.2695 38.9427 40.1084 39.1654L40.1127 39.1665C41.6064 39.5522 42.7673 40.2526 43.4153 40.9305C44.1021 41.6582 44.1404 42.1436 44.0389 42.4328L44.0389 42.4328L44.037 42.4383C43.9309 42.7498 43.542 43.1786 42.4949 43.4493L42.4949 43.4492L42.4887 43.4509C41.4793 43.7225 40.0742 43.7402 38.5893 43.3455L38.5883 43.3452C37.0998 42.9519 35.935 42.2539 35.2526 41.5693C34.5885 40.8442 34.5474 40.3607 34.6525 40.0849L34.6572 40.0726L34.6614 40.0601C34.7682 39.7419 35.1546 39.3231 36.1731 39.0619ZM53.0088 44.6251L49.2638 46.5936L49.0554 46.3164L52.8408 44.5057L53.0088 44.6251ZM57.0163 45.8803L51.3745 49.2878L50.8248 48.5725L56.4815 45.545L57.0163 45.8803Z" stroke="white" stroke-width="1.3"/>
</svg>
