<svg width="344" height="345" viewBox="0 0 344 345" fill="none" xmlns="http://www.w3.org/2000/svg">
<path d="M103.204 185.554C131.022 142.058 161.012 134.167 171.802 132.208C193.888 128.199 195.412 138.171 278.034 164.12C309.5 174.003 324.428 177.314 334.723 192.699C344.753 207.687 346.101 227.733 341.392 243.187C325.537 295.217 237.985 305.136 225.633 306.536C213.146 307.95 106.459 318.871 85.1016 264.144C72.6134 232.144 96.2797 195.582 103.204 185.554Z" fill="white"/>
<path d="M231.258 197.742C238.667 201.512 244.733 204.264 248.983 206.111C254.241 208.395 259.485 210.711 264.739 213.003C265.58 213.37 267.994 214.424 271.14 215.957C272.384 216.563 273.403 217.08 274.095 217.434C270.706 225.483 267.316 233.534 263.926 241.584C263.904 246.934 263.617 252.699 262.941 258.814C262.467 261.586 261.949 264.395 261.385 267.237C259.389 277.305 257.012 286.803 254.399 295.709C252.224 295.382 248.988 294.886 245.045 294.232C240.539 293.485 240.515 293.431 239.136 293.247C237.083 292.975 234.604 292.76 226.03 292.92C220.724 293.019 221.298 293.085 214.518 293.247C211.886 293.31 208.583 293.346 204.557 293.319C202.507 293.304 201.457 293.297 200.239 293.247C196.245 293.084 193.027 292.632 190.884 292.262H189.407C188.095 291.771 186.781 291.278 185.469 290.786C184.813 290.294 184.157 289.801 183.499 289.309C180.873 287.833 178.247 286.355 175.621 284.879C176.236 280.11 176.96 272.985 177.098 264.202C177.146 261.207 177.107 259.109 177.098 258.295C177.024 251.607 177.908 240.934 182.021 223.342C181.365 222.686 180.709 222.03 180.051 221.373C179.231 220.552 178.41 219.732 177.59 218.912C177.754 217.927 177.918 216.942 178.082 215.957C180.435 215.867 181.845 215.132 182.683 214.508C184.207 213.375 184.291 212.258 186.622 210.077C187.309 209.435 188.007 208.782 189.083 208.108C190.492 207.227 191.418 207.042 194.007 206.138C195.656 205.563 196.386 205.154 197.945 204.662C198.691 204.427 199.315 204.254 199.744 204.143C199.838 205.367 200.078 207.094 200.728 209.065C201.194 210.475 202.078 213.173 204.175 215.465C207.769 219.391 212.837 219.844 213.53 219.896C222.062 220.532 227.987 212.907 229.286 210.05C230.208 208.024 230.763 205.619 230.763 205.619C230.966 204.738 231.144 203.748 231.255 202.665C231.448 200.791 231.396 199.122 231.255 197.742H231.258Z" fill="black"/>
<path d="M201.223 81.0656C200.944 76.6443 202.94 72.9112 205.891 71.8419C206.312 71.6895 209.009 70.7762 211.307 72.3337C212.471 73.122 213.029 74.208 213.277 74.795C213.878 74.9153 215.113 75.2475 216.232 76.2716C217.543 77.473 218.236 79.2044 218.201 80.7024C218.116 84.3783 213.239 87.1337 209.338 87.5945C207.074 87.8612 205.213 87.3433 204.179 86.9717C204.815 85.4452 204.639 83.746 203.687 82.5409C202.824 81.4466 201.627 81.1465 201.226 81.0644L201.223 81.0656Z" fill="black"/>
<path d="M202.209 80.5772C202.167 80.5308 201.384 79.6425 201.717 78.6077C201.885 78.0837 202.255 77.7801 202.422 77.661C202.456 77.4562 203.065 74.1447 206.012 72.9754C206.401 72.8218 208.689 71.9728 210.729 73.279C211.758 73.9375 212.267 74.8675 212.496 75.3724C213.021 75.4629 214.101 75.7237 215.096 76.587C216.6 77.8932 216.88 79.7139 216.908 80.3902C217.024 83.1814 213.629 86.4155 208.354 87.5991C208.251 87.3788 207.843 86.5679 206.877 86.1226C205.837 85.6427 204.887 85.9225 204.671 85.9928C204.665 85.1033 204.515 83.2112 203.195 81.562C202.874 81.1619 202.535 80.838 202.21 80.5772H202.209Z" fill="white"/>
<path d="M218.948 103.713C219.075 106.479 212.557 109.479 207.131 110.113C205.71 110.279 194.861 111.354 187.928 102.73C181.805 95.1098 183.728 86.1315 183.99 85.0074C184.574 83.9167 187.719 78.2939 194.33 76.6387C197.449 75.8576 200.138 76.2601 201.715 76.6387V80.5766C202.176 80.7754 202.703 81.0827 203.192 81.5613C205.022 83.357 204.724 86.0398 204.668 86.4839L208.607 87.4687C212.529 87.1805 216.007 89.5383 216.977 92.8843C218.125 96.8483 215.149 100.119 215.007 100.268C216.802 101.024 218.875 102.19 218.945 103.714L218.948 103.713Z" fill="black"/>
<path d="M217.964 103.226C218.277 105.55 212.176 108.971 206.536 109.652C201.085 110.312 193.889 108.652 188.965 102.895C182.229 95.0167 184.755 85.3084 184.976 84.5178C185.468 83.8617 185.961 83.2056 186.452 82.5483C187.898 81.3861 190.372 79.6904 193.837 78.6104C197.088 77.5971 199.91 77.5292 201.716 77.6257C201.556 77.8805 201.149 78.6092 201.224 79.5952C201.277 80.2989 201.552 80.8145 201.716 81.0717C202.044 81.236 202.372 81.4004 202.7 81.5635C203.039 82.2113 203.402 83.0365 203.685 84.0248C204.012 85.1608 204.137 86.1777 204.177 86.9791C204.383 86.8314 205.163 86.3123 206.147 86.4873C206.439 86.5385 207.397 86.7088 207.624 87.4721C207.768 87.9591 207.568 88.5259 207.132 88.9486C210.648 88.0567 214.214 89.8226 215.502 92.8865C216.584 95.4633 215.895 98.5747 213.745 100.642C215.722 101.149 217.793 101.953 217.964 103.225V103.226Z" fill="white"/>
<path d="M185.468 83.0366C185.275 82.2376 185.11 81.0004 185.468 79.5906C185.562 79.2191 186.306 76.4124 188.914 75.1598C189.513 74.8716 190.047 74.7358 190.391 74.668C190.221 74.9728 190.054 75.3003 189.899 75.6527C189.257 77.1043 189.002 78.4784 188.914 79.5906C188.472 79.8192 187.959 80.1359 187.437 80.5753C186.418 81.4327 185.813 82.3781 185.468 83.0366Z" fill="black"/>
<path d="M185.96 82.053C185.982 81.2909 186.129 80.6884 186.258 80.2847C186.416 79.7881 187.014 77.8686 188.807 77.0089C189.25 76.7958 189.644 76.6957 189.899 76.6445C189.772 76.866 189.649 77.1089 189.534 77.3721C189.095 78.3854 188.948 79.3404 188.914 80.0835C188.602 80.218 188.271 80.38 187.929 80.5752C187.103 81.0468 186.453 81.5767 185.959 82.0518L185.96 82.053Z" fill="white"/>
<path d="M173.651 139.486C173.79 145.138 174.66 153.953 178.574 163.823C181.979 172.409 185.212 180.568 193.837 186.173C207.233 194.878 222.228 190.041 223.38 189.65C224.806 189.164 230.272 187.192 235.689 182.2C247.277 171.52 248.314 155.397 248.983 145.944C249.326 141.088 249.165 137.092 248.983 134.521C248.086 131.587 246.392 127.166 243.074 122.601C240.341 118.842 237.44 116.402 231.75 111.675C228.747 109.18 224.604 105.888 219.44 102.238C218.172 103.782 216.946 104.921 215.994 105.715C213.793 107.549 212.415 108.068 212.055 108.198C211.265 108.483 210.575 108.622 210.085 108.695C209.487 109.068 208.463 109.59 207.131 109.688C206.155 109.759 205.343 109.581 204.176 109.191C202.835 108.745 200.948 107.994 198.759 106.708C194.742 110.457 190.342 115.06 185.958 120.615C180.633 127.361 176.637 133.859 173.648 139.489L173.651 139.486Z" fill="black"/>
<path d="M178.675 159.151C177.787 158.842 176.502 158.307 175.123 157.38C171.857 155.184 170.326 152.306 169.297 150.315C168.437 148.653 166.929 145.656 166.827 141.58C166.783 139.824 166.684 135.824 168.43 135.078C170.06 134.382 173.006 136.649 175.647 140.584C176.657 146.773 177.665 152.961 178.675 159.149V159.151Z" fill="black"/>
<path d="M245.205 157.819C246.094 157.51 247.379 156.975 248.758 156.048C252.023 153.852 253.555 150.974 254.584 148.983C255.444 147.321 256.951 144.324 257.054 140.248C257.098 138.492 257.197 134.491 255.451 133.746C253.82 133.049 250.874 135.317 248.234 139.252C247.224 145.441 246.215 151.629 245.205 157.817V157.819Z" fill="black"/>
<path d="M232.735 182.973C232.524 186.142 232.35 188.684 232.243 190.26C231.259 204.616 230.96 207.771 228.796 211.525C227.845 213.174 226.207 215.938 222.888 217.925C222.502 218.156 215.651 222.107 208.61 218.91C202.623 216.191 198.954 209.421 199.747 202.172V194.634C210.743 190.747 221.739 186.86 232.736 182.974L232.735 182.973Z" fill="black"/>
<path d="M179.068 208.08L174.636 207.095C174.636 207.095 172.687 205.146 172.666 205.126C173.158 203.485 173.651 201.844 174.143 200.203C173.323 197.578 172.502 194.952 171.681 192.326C170.205 191.67 168.727 191.014 167.25 190.357C168.399 188.88 169.547 187.403 170.697 185.926C171.924 184.772 174.222 182.943 177.59 181.988C183.833 180.218 189.076 182.775 190.391 183.465C190.883 186.255 191.376 189.044 191.868 191.833C191.376 194.13 190.883 196.429 190.391 198.726C189.735 199.382 189.079 200.038 188.421 200.695C188.231 201.537 187.752 203.12 186.452 204.633C184.631 206.754 182.355 207.396 181.528 207.587C180.708 207.752 179.887 207.916 179.067 208.079L179.068 208.08Z" fill="black"/>
<path d="M162.326 213.494V205.126C163.968 200.203 165.609 195.279 167.25 190.357C167.89 189.96 174.931 185.741 181.528 188.88C189.407 192.629 190.539 203.961 187.436 210.048C186.854 211.191 185.363 214.118 182.02 215.464C180.011 216.272 178.216 216.128 176.603 215.956C173.301 215.603 168.457 214.923 162.325 213.494H162.326Z" fill="black"/>
<path d="M179.028 206.758L175.023 205.693C175.023 205.693 173.318 203.842 173.301 203.823C173.812 202.344 174.323 200.866 174.834 199.387C174.427 198.676 174.001 197.797 173.653 196.758C173.038 194.93 172.892 193.296 172.886 192.108C171.336 191.524 169.787 190.941 168.237 190.357C169.17 188.863 172.17 184.491 177.592 182.974C180.231 182.235 182.601 182.408 183.5 182.482C186.605 182.734 188.988 183.732 190.394 184.451C191.05 186.421 191.706 188.389 192.363 190.359V196.266C191.107 197.914 189.487 199.787 187.44 201.682C185.257 203.701 183.13 205.242 181.295 206.402C180.54 206.521 179.785 206.64 179.031 206.758H179.028Z" fill="white"/>
<path d="M163.311 213.495C163.304 210.756 163.297 208.017 163.29 205.28C164.938 200.306 166.587 195.332 168.235 190.357C168.695 190.114 175.735 186.525 181.962 190.204C188.871 194.286 189.375 204.127 186.456 209.317C185.894 210.316 184.455 212.873 181.422 213.951C179.434 214.657 177.69 214.363 176.569 214.192C173.623 213.739 169.329 213.329 163.31 213.496L163.311 213.495Z" fill="white"/>
<path d="M176.605 227.772L178.082 215.958C178.026 215.606 177.986 215.091 178.082 214.481C178.184 213.832 178.402 213.328 178.574 213.004C176.743 212.199 172.731 210.748 167.742 211.528C165.234 211.92 163.232 212.759 161.834 213.497C162.589 215.455 164.03 218.452 166.757 221.374C170.4 225.276 174.446 227.021 176.605 227.775V227.772Z" fill="black"/>
<path d="M175.766 226.772C176.25 222.833 176.734 218.895 177.218 214.956C177.392 214.643 177.618 214.137 177.699 213.479C177.747 213.095 177.732 212.758 177.699 212.494C176.45 212.053 175.168 211.565 173.862 211.021C169.884 209.367 166.37 207.501 163.31 205.617C163.308 208.243 163.304 210.868 163.302 213.494C163.566 214.236 164.007 215.293 164.738 216.446C164.998 216.856 165.176 217.091 166.655 218.905C168.763 221.491 169.143 221.923 169.532 222.347C170.433 223.335 170.884 223.829 171.449 224.315C172.297 225.044 173.683 226.038 175.765 226.771L175.766 226.772Z" fill="white"/>
<path d="M169.713 306.045C171.552 307.041 175.901 309.057 181.529 308.506C184.49 308.217 186.843 307.311 188.423 306.537C190.064 307.357 191.705 308.178 193.346 308.998C193.514 308.287 193.717 307.274 193.838 306.044C194.168 302.676 193.642 300.072 193.346 298.66C193.024 297.129 192.453 295.066 191.376 292.753C190.227 292.424 189.079 292.097 187.93 291.768C186.288 290.783 184.647 289.798 183.006 288.814C180.544 287.337 178.083 285.859 175.621 284.383C175.621 285.625 175.621 286.637 175.621 287.337C175.621 292.199 175.631 292.137 175.621 292.26C175.443 294.478 175.207 297.398 173.651 300.628C173.003 301.975 171.826 304.001 169.713 306.044V306.045Z" fill="black"/>
<path d="M170.696 306.043C172.262 306.848 176.076 308.535 181.036 308.013C184.435 307.654 186.982 306.405 188.421 305.551C189.898 306.208 191.376 306.864 192.853 307.521C193.303 306.018 193.94 303.158 193.344 299.644C192.844 296.691 191.683 294.505 190.883 293.244C189.049 292.609 187.059 291.806 184.974 290.782C181.165 288.912 178.057 286.804 175.62 284.875C175.826 286.056 176.057 287.751 176.111 289.798C176.187 292.615 176.315 296.225 174.635 300.136C174.023 301.56 172.863 303.787 170.696 306.043Z" fill="white"/>
<path d="M173.651 138.667C172.33 137.597 170.907 136.155 169.713 134.236C165.094 126.821 167.642 118.338 168.236 116.514C166.223 114.216 158.276 104.616 159.373 91.4066C159.79 86.3839 161.389 82.3544 162.82 79.5918C161.1 78.8452 158.527 77.3996 156.911 74.6692C152.766 67.6664 158.205 57.789 162.328 53.0081C166.647 47.9985 172 45.7147 175.621 44.6394C175.566 43.8261 175.523 42.6306 175.621 41.1933C176.219 32.3472 181.351 25.4062 184.484 22.4865C197.94 9.9418 230.534 19.3214 236.674 35.286C237.312 36.9411 237.553 38.382 237.659 39.2238C238.566 38.9642 239.939 38.6713 241.598 38.732C248.227 38.9738 254.605 44.6823 256.369 51.5315C257.41 55.573 256.625 59.1655 255.877 61.3779C256.229 61.4434 256.764 61.5744 257.354 61.8697C261.144 63.7678 262.361 70.0324 261.292 74.6692C260.99 75.9803 260.13 78.7928 257.354 81.5614C257.898 82.1591 258.595 82.9819 259.324 84.0227C259.324 84.0227 260.836 86.1839 261.785 88.4535C262.799 90.8743 264.172 96.4721 262.277 102.73C260.019 110.186 254.502 114.018 252.922 115.037C253.795 116.896 254.929 119.992 254.892 123.899C254.816 131.973 249.801 137.346 248.491 138.668C249.358 136.779 250.447 133.914 250.953 130.299C251.655 125.286 250.88 121.392 249.968 117.008C249.032 112.512 247.831 109.398 246.029 104.7C246.029 104.7 244.036 99.5026 241.106 93.8703C241.106 93.8703 239.763 91.2863 238.151 88.9476C237.484 87.9796 236.387 86.6173 236.386 86.6161C236.386 86.6161 236.386 86.615 236.385 86.615C235.404 85.7147 233.733 84.0727 231.258 81.5637C230.766 79.774 229.954 78.7381 229.288 78.1177C227.773 76.7066 226.492 76.9626 224.365 75.1634C223.432 74.3751 223.655 74.306 222.395 73.1939C221.683 72.5651 220.585 71.6078 218.949 70.7326C218.036 70.2444 216.711 69.6514 215.01 69.256C214.553 69.0631 214.061 68.8952 213.533 68.7642C209.734 67.8188 206.311 69.3441 204.67 70.2408C203.342 69.8907 200.571 69.3584 197.285 70.2408C192.713 71.4673 190.177 74.6168 189.407 75.6564C189.029 75.785 187.418 76.3768 186.453 78.1177C185.446 79.9324 185.864 81.6888 185.961 82.0555C185.482 82.7366 184.9 83.725 184.484 85.0098C183.887 86.8495 183.903 88.4559 183.992 89.4406C183.379 90.1289 182.512 91.1363 181.53 92.3949C178.63 96.1137 172.628 103.814 170.699 114.548C168.76 125.335 171.809 134.325 173.654 138.67L173.651 138.667Z" fill="black"/>
<path d="M188.422 80.5756C188.496 79.0562 188.879 76.2139 190.884 73.6835C194.028 69.7147 199.845 68.175 205.655 69.7456C205.812 69.5646 205.976 69.4003 206.147 69.2539C208.866 66.9033 213.495 68.256 215.01 68.7621C212.531 71.5473 210.515 72.1748 209.101 72.2081C208.282 72.2272 208.003 72.0379 207.132 72.2081C204.483 72.7249 202.924 75.2767 202.7 75.6542C202.457 76.0638 202.299 76.4187 202.208 76.639C201.429 76.5937 200.606 76.5878 199.747 76.639C194.821 76.9283 190.935 78.9086 188.422 80.5768V80.5756Z" fill="black"/>
<path d="M188.914 80.0857C189.027 78.6984 189.472 75.8751 191.578 73.4031C194.614 69.8403 199.846 68.4841 205.019 69.8189C205.162 69.6534 205.312 69.5045 205.467 69.3712C207.941 67.2326 212.154 68.4638 213.532 68.9235C211.278 71.4574 209.443 72.029 208.156 72.0587C207.411 72.0766 207.157 71.9039 206.364 72.0587C203.901 72.5386 202.51 74.882 202.331 75.194C202 75.7727 201.818 76.2943 201.716 76.6384C200.219 76.5003 197.951 76.4681 195.314 77.1302C192.362 77.872 190.2 79.1688 188.913 80.0845L188.914 80.0857Z" fill="white"/>
<path d="M212.055 73.1925C211.341 72.3149 210.513 71.8958 210.085 71.716C211.562 70.7312 213.04 69.7465 214.516 68.7617C216.136 68.9915 218.395 69.5714 220.425 71.223C221.407 72.022 221.279 72.203 222.395 73.1925C225.034 75.5336 226.402 74.9942 228.796 77.1304C228.796 77.1304 230.774 78.9082 231.257 81.0682C231.315 81.3207 231.439 81.8768 231.257 82.5448C231.135 82.9973 230.919 83.3283 230.766 83.5295C230.998 84.1773 231.309 85.399 230.766 86.4838C229.741 88.5319 225.961 88.3974 223.872 87.9604C221.524 87.4698 221.132 86.5315 218.949 85.9909C216.441 85.3705 214.135 85.9099 212.548 86.4826C216.083 85.1145 218.244 82.39 217.964 80.0823C217.8 78.7343 216.88 77.565 216.487 77.128C215.204 75.7015 213.632 75.2847 213.041 75.1585C212.931 74.7215 212.676 73.9534 212.056 73.189L212.055 73.1925Z" fill="black"/>
<path d="M212.055 73.1931C211.511 72.6108 210.914 72.3345 210.578 72.2083C211.727 71.2235 212.875 70.2388 214.025 69.254C214.299 69.1802 215.916 68.7694 217.471 69.7458C218.669 70.4984 219.114 71.6224 219.239 71.9797C219.393 72.1559 219.628 72.4107 219.934 72.6989C220.378 73.118 221.018 73.6503 221.904 74.1754C223.974 75.4031 225.23 75.309 226.937 76.4831C228.568 77.6048 230.291 79.6637 229.781 81.0676C229.638 81.4617 229.349 81.7249 229.119 81.888C229.339 82.2714 229.559 82.6537 229.781 83.0371C229.945 83.4515 230.437 84.8375 229.781 85.9914C228.784 87.743 225.958 87.5167 225.349 87.4679C223.012 87.281 223.313 86.1545 220.426 85.4984C217.093 84.7411 214.051 85.6413 213.536 85.7997C213.513 85.8068 213.492 85.8128 213.479 85.8175C213.791 85.646 217.734 83.4062 217.759 79.847C217.763 79.4017 217.755 78.2371 216.979 77.1285C215.687 75.2828 213.372 75.1697 213.041 75.159C212.975 74.7982 212.769 73.954 212.056 73.1895L212.055 73.1931Z" fill="white"/>
<path d="M181.036 222.356C180.215 221.536 179.395 220.715 178.574 219.895C178.246 219.566 177.918 219.239 177.589 218.91C177.261 221.7 176.933 224.489 176.604 227.279C176.986 227.631 177.325 227.744 177.589 227.771C178.953 227.906 180.564 225.946 181.528 222.848C181.363 222.684 181.199 222.519 181.036 222.356Z" fill="black"/>
<path d="M182.021 222.849C181.036 222.193 180.051 221.537 179.066 220.879C178.574 220.551 178.081 220.223 177.589 219.895C177.424 221.057 177.257 222.22 177.091 223.382C176.929 224.517 176.767 225.652 176.605 226.787C177.28 226.961 177.779 226.878 178.082 226.787C179.513 226.358 180.525 224.584 180.544 222.356C180.873 222.684 181.2 223.012 181.529 223.341C181.693 223.176 181.858 223.012 182.021 222.849Z" fill="white"/>
<path d="M159.865 219.403C158.722 223.898 156.888 230.944 154.448 239.587C151.191 251.125 149.825 254.988 148.047 262.232C146.686 267.779 144.912 276.006 143.615 286.355C143.857 267.062 144.026 252.431 143.615 243.526C143.488 240.775 143.127 234.708 146.57 228.757C148.058 226.186 149.808 224.408 151.002 223.341C154.119 221.371 157.239 219.403 160.356 217.434" fill="black"/>
<path d="M160.373 220.203C159.269 224.28 157.497 230.672 155.14 238.512C151.994 248.98 150.673 252.483 148.956 259.055C147.641 264.086 145.927 271.55 144.674 280.938C144.908 263.436 145.072 250.165 144.674 242.086C144.551 239.59 144.203 234.086 147.529 228.688C148.965 226.357 150.657 224.743 151.81 223.776C154.823 221.99 157.836 220.204 160.849 218.418" fill="white"/>
<path d="M197.778 315.888C196.585 315.888 194.874 315.804 192.854 315.396C191.439 315.111 190.591 314.899 189.899 314.412C187.159 312.481 188.274 306.765 188.423 306.043C190.064 307.028 191.705 308.012 193.346 308.997C193.27 309.858 193.123 310.857 192.854 311.952C192.572 313.093 192.218 314.083 191.869 314.906C193.839 315.234 195.808 315.562 197.778 315.891V315.888Z" fill="black"/>
<path d="M259.733 237.987C259.38 233.402 259.327 228.911 262.195 224.696C265.42 219.954 270.813 218.173 274.094 217.434C275.567 218.256 277.509 219.514 279.51 221.371C280.47 222.262 282.874 224.67 284.926 228.264C288.833 235.107 288.928 244.912 288.865 250.417C288.832 253.327 288.733 256.903 286.895 279.462C286.709 281.741 286.156 290.249 285.91 300.138C285.76 306.163 285.686 309.175 285.91 310.968C286.26 313.77 286.886 316.459 286.402 320.321C286.163 322.23 285.736 323.764 285.417 324.752C284.778 325.275 283.782 326.017 282.462 326.722C281.039 327.483 279.39 328.117 274.092 329.183C271.546 329.695 270.273 329.951 268.676 330.168C265.406 330.611 259.779 331.332 253.413 330.168C250.443 329.625 248.427 328.891 246.52 328.198C235.067 324.038 222.811 321.262 216.486 319.83C212.208 318.86 203.996 317.136 200.238 316.384C200.234 316.384 198.088 315.954 197.776 315.892C195.314 315.4 192.853 314.907 190.391 314.415C191.011 314.029 191.909 313.346 192.533 312.225C193.222 310.992 193.234 309.845 193.262 308.878C193.448 302.793 194.35 303.009 193.836 300.139C193.528 298.416 192.918 296.747 192.359 295.217C191.984 294.189 191.633 293.347 191.375 292.755C191.046 292.591 190.718 292.427 190.39 292.263C191.28 292.505 192.612 292.837 194.246 293.126C199.979 294.139 204.471 293.669 206.062 293.617C212.339 293.416 238.382 292.54 245.452 294.109C247.745 294.619 250.099 294.894 252.345 295.586C252.732 295.705 253.604 295.989 254.806 296.077C255.648 296.139 255.976 296.056 256.776 296.077C257.895 296.107 258.732 296.31 259.731 296.569C265.982 298.199 269.131 298.977 271.547 300.507C273.985 302.051 275.967 303.967 275.979 303.953C276.003 303.923 274.761 302.696 273.024 301.492C270.798 299.949 268.837 299.19 267.116 298.538C265.059 297.758 263.431 297.36 262.193 297.061C260.05 296.544 258.196 296.251 256.776 296.076C257.46 288.733 258.143 281.389 258.828 274.046C260.509 257.443 260.347 245.965 259.731 237.986L259.733 237.987Z" fill="black"/>
<path d="M189.899 313.924C190.063 314.088 190.228 314.253 190.391 314.416C191.211 312.282 192.032 310.149 192.852 308.016C191.54 307.524 190.226 307.031 188.914 306.539C188.619 307.288 187.7 309.898 188.914 312.446C189.199 313.043 189.55 313.531 189.899 313.923V313.924Z" fill="white"/>
<path d="M259.071 240.775C258.732 238.422 258.765 237.005 258.829 234.172C258.938 229.487 259.587 227.424 260.799 225.804C261.636 224.684 262.031 224.726 262.769 223.834C264.067 222.266 265.141 219.364 263.754 213.496C266.679 214.525 270.773 216.299 275.078 219.403C277.021 220.804 280.71 223.464 283.448 227.28C285.706 230.426 288.309 235.74 287.88 253.372C287.692 261.092 287.168 261.13 286.403 272.079C285.836 280.203 284.163 303.858 285.418 312.447C285.547 313.327 286.161 317.045 285.418 321.801C285.255 322.846 285.063 323.699 284.926 324.262C284.471 324.756 283.72 325.466 282.634 326.055C281.997 326.401 281.469 326.562 281.184 326.678C279.927 327.186 277.999 327.878 275.566 328.411C271.962 329.2 265.909 330.201 261.429 330.296C249.128 330.554 244.788 325.223 223.731 320.872C220.707 320.247 218.53 319.889 215.057 319.195C213.138 318.812 213.122 318.787 209.593 318.045C201.193 316.278 196.968 315.396 195.808 315.4C195.368 315.403 193.805 315.435 191.87 314.909C191.199 314.726 190.677 314.529 190.393 314.417C190.635 314.039 195.171 306.816 194.332 301.125C194.025 299.052 192.724 295.449 192.362 294.725C192.362 294.724 191.875 293.75 191.87 293.74C191.87 293.739 191.378 292.757 191.378 292.756C190.722 292.591 190.066 292.427 189.408 292.264H190.885C191.729 292.407 192.912 292.591 194.332 292.756C194.932 292.826 196.561 292.989 198.918 293.129C204.403 293.458 210.086 293.247 210.086 293.247C219.95 293.247 226.108 292.353 235.197 292.756C238.068 292.883 239.503 292.946 241.599 293.247C245.593 293.823 250.668 295.069 253.495 295.578C254.331 295.728 255.162 295.865 255.162 295.865C256.056 296.011 256.806 296.123 257.354 296.2C257.862 292.06 258.453 286.361 258.83 279.463C257.025 279.134 255.22 278.807 253.414 278.478C258.888 254.211 259.634 244.68 259.071 240.775Z" fill="white"/>
<path d="M231.75 198.723C235.83 200.872 240.097 203.013 244.551 205.123C251.166 208.255 257.585 211.029 263.754 213.492C263.935 214.133 264.101 214.79 264.246 215.461C266.224 224.536 264.103 233.029 261.291 239.584C262.099 248.737 262.151 260.891 259.321 274.746C257.761 282.386 255.625 289.075 253.413 294.721C251.173 293.947 247.978 292.986 244.058 292.284C241.246 291.782 238.108 291.42 231.749 291.31C227.76 291.241 226.162 291.334 211.562 291.797C206.585 291.956 203.806 291.969 201.524 291.909C200.4 291.88 199.497 291.837 199.042 291.813C199.042 291.813 198.907 291.806 198.761 291.797C197.286 291.716 193.074 291.401 191.868 291.31H189.406C188.75 291.148 188.094 290.985 187.436 290.823C187.107 290.661 186.78 290.498 186.451 290.336C185.961 290.011 185.468 289.686 184.975 289.362C181.685 287.2 178.402 285.089 175.127 283.029C175.029 280.849 174.844 277.439 175.127 273.285C175.852 262.605 177.325 254.474 178.573 248.925C179.371 245.378 180.772 239.798 181.528 231.873C181.9 227.976 181.997 224.755 182.02 222.616C180.543 221.545 179.065 220.472 177.588 219.4C178.245 213.493 178.901 207.586 179.558 201.678C179.722 202.334 179.887 202.99 180.05 203.648C181.855 204.468 183.661 205.289 185.466 206.109C186.795 205.006 188.431 203.807 190.39 202.663C192.732 201.295 194.933 200.359 196.791 199.709C197.776 199.38 198.761 199.052 199.746 198.724V205.124C199.796 206.18 200.213 212.789 205.654 216.939C208.951 219.454 212.429 219.798 213.532 219.893C214.528 219.979 218.991 220.267 223.38 217.432C224.022 217.018 227.387 214.79 229.288 210.54C229.395 210.3 229.488 210.078 229.572 209.856C229.572 209.856 229.977 208.818 230.272 207.586C230.533 206.501 231.133 203.205 231.749 198.724L231.75 198.723Z" fill="white"/>
<path d="M164.199 216.447C165.287 218.324 168.355 223.489 174.374 226.294C175.239 226.696 176.091 227.02 176.917 227.278C177.406 227.33 178.448 227.364 179.461 226.787C180.908 225.96 181.698 224.224 181.497 222.356C181.836 222.684 182.175 223.012 182.514 223.341C182.156 227.967 181.8 231.962 181.497 235.155C180.846 241.993 180.243 247.23 179.776 251.238C179.289 255.411 179.053 257.251 178.966 257.919C178.23 263.57 177.814 265.773 177.427 268.632C176.953 272.132 176.772 275.888 176.41 283.401C175.817 295.69 176.166 296.702 174.884 299.647C173.334 303.211 171.085 305.784 167.763 309.493C164.854 312.738 162.138 315.195 160.132 316.877C158.708 317.367 155.994 318.05 153.519 316.877C151.673 316.002 150.727 314.459 148.941 310.477C146.336 304.674 145.035 301.774 144.363 298.662C143.936 296.683 143.259 292.807 143.855 284.386C144.321 277.79 145.282 272.437 145.939 269.268C145.996 268.991 146.161 268.198 146.397 267.156C148.908 256.069 153.929 240.909 157.08 229.742C158.111 226.086 159.609 220.495 161.149 213.496C161.542 213.168 161.935 212.84 162.328 212.512C162.998 214.263 163.709 215.599 164.202 216.45L164.199 216.447Z" fill="black"/>
<path d="M164.788 217.432C165.561 218.404 165.918 218.83 167.249 220.387C168.344 221.666 168.755 222.284 169.219 222.848C170.159 223.99 175.356 228.87 178.574 227.279C178.598 227.267 178.656 227.241 178.739 227.198C179.128 226.999 180.058 226.424 180.543 225.31C181.155 223.907 180.641 222.597 180.543 222.356C180.871 222.685 181.199 223.012 181.527 223.341C180.8 231.763 179.982 240.297 179.066 248.94C178.593 253.405 178.1 257.836 177.589 262.231C177.438 263.222 177.27 264.381 177.097 265.677C175.784 275.539 175.647 282.706 175.62 284.877C175.604 286.231 175.61 287.4 175.62 288.323C175.722 289.357 175.805 290.824 175.707 292.594C175.707 292.594 175.68 293.191 175.62 293.739C175.492 294.921 174.946 299.058 172.174 303.585C171.423 304.81 170.813 305.569 166.757 309.985C164.185 312.787 161.994 315.134 160.356 316.878C159.642 317.128 158.427 317.454 156.91 317.369C156.91 317.369 155.58 317.34 154.448 316.878C152.235 315.975 150.815 313.426 148.54 307.524C147.027 303.603 146.27 301.643 145.833 299.882C145.254 297.55 144.307 292.847 145.093 282.91C145.232 281.142 145.716 275.557 147.555 266.664C149.16 258.897 150.869 253.109 152.971 245.988C155.066 238.892 156.553 234.584 158.387 227.773C159.687 222.946 160.755 218.336 160.849 217.927C161.26 216.148 161.591 214.634 161.834 213.496C161.998 213.331 162.163 213.167 162.326 213.004V213.989C163.3 215.507 164.177 216.665 164.788 217.435V217.432Z" fill="white"/>
<path d="M235.197 200.201C232.893 199.206 230.981 198.588 229.78 198.232C229.78 198.232 214.318 193.647 197.776 199.216C196.473 199.655 193.759 200.718 193.838 200.693C195.467 200.169 197.837 199.45 200.731 198.723C203.791 197.955 208.717 196.655 215.009 196.262C218.884 196.019 222.12 195.817 226.334 196.754C230.196 197.612 233.199 199.057 235.197 200.2V200.201Z" fill="black"/>
<path d="M254.398 295.707C257.551 286.151 259.29 278.028 260.307 272.077C260.805 269.162 261.413 265.549 261.783 260.754C262.461 251.994 261.929 244.693 261.292 239.586C261.523 247.143 261.324 255.754 260.307 265.185C259.047 276.868 256.818 287.126 254.398 295.707Z" fill="black"/>
<path d="M240.342 292.754C236.814 292.272 233.969 291.986 233.963 292.032C233.955 292.097 239.26 292.61 245.719 293.932C251.136 295.04 255.865 296.008 261.322 298.433C264.541 299.863 269.03 302.25 273.851 306.271C272.029 304.377 269.192 301.81 265.224 299.558C262.875 298.225 260.998 297.497 259.407 296.886C253.351 294.561 248.18 293.824 240.342 292.754Z" fill="black"/>
<path d="M174.636 139.835C174.773 145.233 175.622 153.654 179.45 163.082C182.78 171.283 185.94 179.078 194.373 184.431C207.471 192.748 222.133 188.126 223.258 187.753C224.653 187.288 229.997 185.406 235.294 180.637C246.625 170.434 247.639 155.033 248.292 146.003C248.628 141.365 248.471 137.548 248.292 135.091C247.415 132.288 245.76 128.066 242.515 123.705C239.842 120.114 237.005 117.783 231.443 113.268C228.507 110.885 224.455 107.74 219.407 104.254C218.672 105.157 217.338 106.563 215.259 107.676C213.471 108.632 211.821 109.005 210.727 109.165C209.966 109.746 208.544 110.639 206.7 110.653C206.115 110.658 205.538 110.573 204.182 110.157C202.934 109.773 201.193 109.16 199.147 108.172C195.201 111.922 190.93 116.443 186.67 121.807C181.577 128.223 177.65 134.394 174.635 139.835H174.636Z" fill="white"/>
<path d="M177.584 157.425C176.83 157.163 175.741 156.711 174.571 155.924C171.802 154.062 170.503 151.622 169.629 149.933C168.9 148.523 167.621 145.982 167.536 142.525C167.499 141.037 167.414 137.645 168.895 137.012C170.277 136.422 172.775 138.343 175.015 141.681C175.871 146.929 176.727 152.177 177.582 157.424L177.584 157.425Z" fill="white"/>
<path d="M246.029 155.894C246.881 155.62 248.099 155.128 249.362 154.215C251.996 152.308 253.077 149.819 253.911 147.922C254.548 146.469 255.663 143.85 255.528 140.396C255.47 138.909 255.338 135.517 253.82 134.98C252.403 134.479 250.032 136.557 248.01 140.03C247.35 145.319 246.69 150.606 246.029 155.894Z" fill="white"/>
<path d="M231.246 185.434C231.307 189.701 231.189 197.014 229.816 204.286C229.43 206.329 228.823 209.015 226.956 211.827C226.22 212.935 224.837 214.966 222.188 216.54C219.792 217.963 217.547 218.281 216.467 218.425C215.521 218.551 214.054 218.736 212.176 218.425C209.065 217.91 206.936 216.386 205.978 215.597C204.435 214.326 203.588 213.031 203.118 212.297C201.525 209.819 200.953 207.373 200.733 205.699V189.204C204.411 190.4 212.689 192.507 222.189 189.675C225.971 188.547 228.997 186.921 231.249 185.434H231.246Z" fill="white"/>
<path d="M190.391 183.466C191.302 183.258 192.285 183.073 193.337 182.93C195.363 182.654 197.215 182.59 198.834 182.634C199.932 183.104 201.032 183.573 202.13 184.044C202.981 186.467 203.832 188.89 204.683 191.314C204.678 192.144 204.674 192.976 204.669 193.805C204.177 194.955 203.684 196.102 203.192 197.252C202.7 197.908 202.207 198.564 201.715 199.221C201.387 199.188 199.229 198.934 198.269 197.252C198.175 197.086 197.561 196.013 197.777 194.79C197.891 194.139 198.227 193.522 198.269 192.329C198.276 192.121 198.272 191.949 198.269 191.837C197.66 191.15 197.05 190.463 196.442 189.776C196.001 190.043 195.471 190.321 194.853 190.568C193.881 190.955 192.993 191.143 192.287 191.236C191.994 189.97 191.69 188.695 191.376 187.408C191.052 186.08 190.723 184.766 190.391 183.47V183.466Z" fill="black"/>
<path d="M177.738 215.152C178.036 215.176 179.18 215.251 180.683 214.921C181.446 214.753 184.962 213.994 187.286 210.946C188.03 209.97 187.787 209.894 188.604 208.867C189.912 207.225 191.358 206.388 192.791 205.576C195.177 204.223 196.026 204.282 198.979 202.622C199.785 202.168 200.434 201.763 200.865 201.486C200.929 201.131 200.973 200.581 200.75 200.014C200.042 198.223 197.196 197.621 195.158 197.984C193.63 198.255 192.518 199.077 191.838 199.726C190.535 200.657 189.127 201.598 187.612 202.527C184.958 204.154 182.402 205.486 180.028 206.579C180.071 207.275 180.095 209.175 178.903 211.111C177.49 213.405 175.324 214.202 174.717 214.402C175.388 214.693 176.427 215.05 177.739 215.152H177.738Z" fill="black"/>
<path d="M190.71 184.085C191.618 183.847 192.64 183.631 193.765 183.479C195.474 183.248 197.014 183.217 198.318 183.276C199.372 183.726 200.426 184.178 201.479 184.628C201.965 185.8 202.452 186.972 202.938 188.144C203.267 189.297 203.597 190.449 203.928 191.601C203.986 192.401 204.043 193.203 204.1 194.003C203.942 194.309 203.709 194.772 203.453 195.348C203.196 195.929 203.054 196.309 202.957 196.549C202.722 197.125 202.317 197.939 201.573 198.918C201.226 198.897 199.766 198.767 198.88 197.625C197.865 196.318 198.227 194.485 198.268 194.293C198.289 194.194 198.304 194.118 198.487 193.204C198.604 192.619 198.699 192.143 198.76 191.832C198.043 190.97 197.325 190.108 196.608 189.246C195.943 189.479 195.279 189.712 194.615 189.946C193.951 190.179 193.286 190.413 192.623 190.646C191.984 188.459 191.347 186.271 190.709 184.084L190.71 184.085Z" fill="white"/>
<path d="M180.645 214.43C181.62 214.241 182.78 213.93 184.003 213.179C184.314 212.988 185.391 212.301 186.452 211.033C187.562 209.705 187.389 209.251 188.421 208.078C189.342 207.032 190.365 206.427 190.883 206.109C191.431 205.773 191.834 205.584 192.853 205.124C196.217 203.607 196.92 203.379 198.269 202.663C198.83 202.365 199.699 201.879 200.731 201.186C200.7 200.823 200.6 200.258 200.239 199.71C199.246 198.203 197.075 198.04 195.808 198.233C194.8 198.387 194.056 198.812 193.346 199.218C192.464 199.723 191.812 200.275 191.376 200.695C189.43 202.017 186.97 203.436 183.991 204.632C182.423 205.262 180.933 205.742 179.56 206.109C179.869 206.452 180.651 207.41 180.689 208.774C180.689 208.774 180.67 209.787 180.172 210.811C178.882 213.462 175.26 214.936 171.242 214.18C172.651 214.444 176.897 215.155 180.646 214.43H180.645Z" fill="white"/>
<path d="M184.447 85.1055C184.737 91.9059 185.925 95.9331 186.669 97.949C186.957 98.7302 187.216 99.3089 187.617 99.9364C188.136 100.749 189.357 102.357 194.909 104.997C195.807 105.425 197.124 106.024 198.762 106.669C197.771 107.918 196.781 109.172 195.792 110.431C188.283 119.985 181.05 129.539 174.08 139.074C173.267 138.287 172.205 137.13 171.19 135.574C168.654 131.681 168.143 127.938 167.92 126.157C167.198 120.398 168.677 115.481 170.165 111.427C173.993 101.003 179.526 91.9476 184.447 85.1067V85.1055Z" fill="black"/>
<path d="M185.96 82.052C185.468 82.7081 184.975 83.3642 184.483 84.0215C184.232 85.2611 183.99 86.9436 183.992 88.9441C183.992 92.3032 184.676 94.836 184.976 95.8362C185.605 97.9367 186.09 99.5586 187.438 101.252C188.858 103.034 190.425 103.88 192.854 105.19C194.21 105.921 196.199 106.866 198.763 107.651C194.355 111.365 189.066 116.527 183.992 123.405C179.786 129.105 176.783 134.555 174.637 139.159C171.921 136.703 170.739 134.191 170.205 132.758C169.13 129.871 169.173 127.281 169.22 124.39C169.261 121.934 169.539 120.049 169.712 118.974C171.477 108.017 174.635 100.759 174.635 100.759C176.311 98.113 177.409 95.8624 178.082 94.3585C180.098 89.8562 180.61 86.8936 183.498 84.0203C184.467 83.057 185.387 82.4163 185.96 82.0508V82.052Z" fill="white"/>
<path d="M219.441 102.236C222.084 104.139 225.872 106.963 230.273 110.605C233.717 113.456 236.491 115.749 238.643 117.989C241.755 121.228 246.323 127.216 248.983 137.68C249.526 136.921 250.28 135.756 250.953 134.234C251.917 132.054 253.576 127.395 251.444 117.497C251.001 115.439 250.979 115.8 246.028 101.743C243.37 94.1961 242.155 90.6215 238.643 86.9742C236.478 84.726 233.72 83.0363 233.72 83.0363C233.291 82.7541 232.839 82.4707 232.363 82.1873C231.988 81.9646 231.619 81.7551 231.258 81.5586C231.302 81.7551 231.353 82.1135 231.258 82.5434C231.148 83.0375 230.901 83.3709 230.766 83.5281C231.175 84.3259 231.732 85.7013 231.751 87.466C231.756 87.922 231.731 89.0663 231.259 90.4202C230.901 91.4455 230.475 92.6636 229.289 93.3745C228.727 93.7103 228.177 93.8234 227.813 93.8663C226.698 94.6117 225.544 95.4298 224.366 96.3276C223.499 96.9885 222.68 97.647 221.904 98.2971C221.82 98.8342 221.595 99.7856 220.919 100.758C220.414 101.485 219.844 101.955 219.443 102.235L219.441 102.236Z" fill="black"/>
<path d="M219.934 103.715C222.61 105.49 226.399 108.122 230.765 111.592C233.88 114.067 236.241 115.991 239.135 118.976C241.957 121.886 244.716 124.778 247.013 129.314C248.31 131.876 249.049 134.149 249.475 135.715C250.333 134.804 251.519 133.337 252.43 131.284C254.394 126.86 253.716 122.757 253.415 120.946C253.073 118.892 252.575 117.908 250.953 114.054C249.238 109.98 247.682 105.842 246.026 101.744C245.157 99.5919 242.325 91.7066 239.543 88.7774C238.914 88.1153 238.152 87.4687 238.152 87.4687C237.174 86.6399 235.978 85.6445 234.213 85.0074C233.761 84.8443 233.093 84.6395 232.243 84.5156C232.739 85.7421 233.536 88.257 232.735 90.916C232.385 92.0805 231.902 92.7009 231.75 92.8855C230.431 94.5014 228.457 94.7883 227.812 94.855C227.166 95.3194 226.509 95.8112 225.842 96.3316C224.785 97.1579 223.801 97.9831 222.887 98.7929C222.721 99.4549 222.43 100.322 221.902 101.254C221.256 102.397 220.5 103.202 219.933 103.715H219.934Z" fill="white"/>
<path d="M218.948 103.219C218.563 102.796 218.219 102.467 217.963 102.234C217.519 101.832 216.903 101.279 215.993 100.758C215.591 100.527 215.244 100.367 215.008 100.266C217.36 96.7867 217.26 92.5155 215.008 89.9279C213.107 87.7441 210.324 87.5059 209.592 87.4666C210.591 87.3261 211.781 87.0439 213.038 86.4819C213.39 86.3247 213.718 86.1592 214.023 85.9901C215.604 85.3459 216.846 85.4126 217.47 85.4983C218.606 85.6531 219.664 86.1354 220.425 86.4831C220.919 86.7093 221.065 86.8236 221.409 86.9748C221.939 87.2094 223.498 87.8834 225.348 87.9596C226.534 88.0084 229.371 88.1239 230.271 86.4831C230.829 85.4673 230.639 83.7872 230.37 83.2871C230.35 83.249 230.243 83.0572 230.271 83.037C230.319 83.0025 230.711 83.4657 230.763 83.5288C231.222 84.073 231.574 84.6505 231.748 85.0053C231.992 85.5043 232.816 87.4666 232.24 89.9279C232.004 90.9341 231.54 92.9191 229.778 93.8658C229.03 94.2683 228.296 94.3504 227.808 94.3576C227.194 94.847 226.538 95.3423 225.839 95.8341C224.475 96.7951 223.149 97.6083 221.9 98.2954C221.943 98.661 221.935 98.9908 221.9 99.2802C221.624 101.553 219.496 102.894 218.945 103.218L218.948 103.219Z" fill="black"/>
<path d="M219.156 103.219C218.784 102.806 218.45 102.485 218.201 102.258C217.771 101.865 217.173 101.327 216.291 100.817C215.901 100.592 215.564 100.436 215.336 100.337C217.1 96.0089 217.237 91.8424 215.336 90.2527C214.203 89.3049 211.505 88.569 211.069 88.4499C210.522 88.3011 210.084 88.2177 209.994 88.2023C209.233 88.0689 207.767 88.4154 207.622 88.4499C207.844 88.313 208.178 88.126 208.607 87.9581C209.609 87.5652 210.299 87.5997 211.069 87.4664C211.689 87.3592 212.544 87.1103 213.53 86.4816C214.732 86.1625 215.754 86.0398 216.485 85.9898C217.837 85.8957 219.306 85.81 220.917 86.4816C221.279 86.6328 221.151 86.615 221.901 86.9734C223.034 87.5152 224.323 88.132 225.362 88.332C226.494 88.5488 229.08 88.6202 230.137 86.8912C230.944 85.5683 230.622 83.575 229.286 82.0508C229.812 82.4021 230.605 83.0248 231.256 84.0203C232.927 86.5733 233.065 90.6528 230.764 92.8819C230.339 93.2928 229.425 94.037 227.81 94.3585C225.88 95.7112 223.95 97.0639 222.021 98.4178C222.062 98.775 222.055 99.0965 222.021 99.3787C221.753 101.596 219.689 102.903 219.156 103.22V103.219Z" fill="white"/>
<path d="M207.664 157.354C207.305 156.363 207.879 155.298 208.115 154.91C208.257 155.411 208.626 156.455 209.592 157.371C210.953 158.663 212.566 158.819 213.038 158.848C210.439 159.691 208.171 158.759 207.662 157.354H207.664Z" fill="black"/>
<path d="M212.233 172.999C215.252 173.448 217.342 175.816 217.965 176.572H216.98C216.254 175.851 214.743 174.566 212.549 174.111C211.878 173.972 210.849 173.77 209.594 174.111C208.677 174.36 208.013 174.794 207.624 175.096C207.682 174.89 207.742 174.683 207.8 174.477C207.991 174.198 208.304 173.814 208.785 173.492C210.014 172.669 211.41 172.877 212.232 173L212.233 172.999Z" fill="black"/>
<path d="M190.391 131.282C192.63 131.79 194.517 131.438 195.314 131.282C196.067 131.134 197.083 130.927 198.269 130.297C199.748 129.513 200.698 128.493 201.223 127.836C201.239 128.318 201.194 128.979 200.908 129.678C199.617 132.835 194.879 133.207 194.33 133.252C193.957 133.281 190.554 133.5 187.8 131.336C187.071 130.763 186.333 129.979 186.453 129.805C186.613 129.574 188.054 130.752 190.392 131.282H190.391Z" fill="black"/>
<path d="M244.059 149.918C245.786 154.825 250.938 156.267 250.335 158.868C250.069 160.02 249.323 160.823 249.323 160.823C248.841 161.344 248.509 161.412 247.333 162.272C246.333 163.005 245.833 163.379 245.836 163.729C245.841 164.411 247.165 165.208 248.278 165.24C251.268 165.327 255.289 159.962 254.316 155.97C253.757 153.678 251.428 151.457 249.482 149.502C248.017 148.03 247.572 147.762 247.263 147.344C247.263 147.344 247.152 147.175 247.054 147.006C246.405 145.877 247.471 141.797 249.66 136.703C249.434 136.045 249.209 135.385 248.983 134.727C247.265 137.588 245.971 139.658 245.674 140.095C245.279 140.677 245.195 140.784 245.195 140.784C244.935 141.146 244.86 141.223 244.668 141.558C243.295 143.967 243.146 147.325 244.059 149.919V149.918Z" fill="black"/>
<path d="M176.98 145.511C174.981 148.088 170.971 148.378 170.559 150.921C170.426 151.743 170.526 153.674 171.327 154.528C172.073 155.321 172.741 155.395 173.318 155.796C173.847 156.164 174.451 156.914 174.296 157.44C174.114 158.057 172.919 158.257 172.279 158.262C169.884 158.282 166.824 155.672 166.56 152.767C166.247 149.323 169.935 146.32 172.491 144.24C173.003 143.823 173.452 143.495 173.78 143.266C174.16 142.835 174.671 142.256 174.786 141.695C174.813 141.558 174.909 140.976 174.339 140.203C175.215 138.424 176.092 136.646 176.969 134.867C179.085 140.978 178.2 143.937 176.979 145.511H176.98Z" fill="black"/>
<path d="M230.586 127.409C228.578 126.294 226.667 126.102 225.859 126.03C225.095 125.961 224.062 125.876 222.747 126.148C221.107 126.487 219.909 127.199 219.222 127.683C219.342 127.216 219.571 126.594 220.041 126.002C222.164 123.334 226.818 124.303 227.356 124.415C227.721 124.491 231.05 125.234 233.088 128.084C233.627 128.839 234.117 129.797 233.952 129.93C233.734 130.106 232.682 128.573 230.584 127.409H230.586Z" fill="black"/>
<path d="M233.54 137.211C233.396 136.817 233.159 136.337 232.749 135.893C230.611 133.577 225.466 134.085 222.452 136.644C221.916 137.099 219.099 139.49 219.98 141.684C220.521 143.036 222.313 143.888 224.406 143.82C223.939 143.764 223.137 143.607 222.286 143.102C221.996 142.929 220.542 142.068 220.35 141.1C219.875 138.701 226.712 133.417 231.28 135.376C232.376 135.845 233.103 136.63 233.54 137.211Z" fill="black"/>
<path d="M233.009 140.199C233.899 138.215 232.912 135.839 230.804 134.892C228.695 133.946 226.264 134.787 225.373 136.771C224.482 138.755 225.469 141.131 227.578 142.077C229.686 143.024 232.118 142.183 233.009 140.199Z" fill="black"/>
<path d="M232.746 136.871C233.004 137.457 233.39 138.598 233.047 139.85C232.486 141.896 230.202 143.421 227.389 143.431C227.78 143.368 230.616 142.859 232.033 140.278C232.805 138.873 232.796 137.511 232.747 136.871H232.746Z" fill="black"/>
<path d="M201.36 138.223C201.216 137.829 200.979 137.349 200.569 136.905C198.431 134.589 193.287 135.097 190.272 137.656C189.736 138.111 186.92 140.502 187.8 142.695C188.342 144.048 190.133 144.899 192.227 144.832C191.76 144.776 190.957 144.618 190.107 144.114C189.816 143.941 188.362 143.08 188.17 142.112C187.695 139.712 194.532 134.429 199.101 136.388C200.196 136.857 200.923 137.642 201.36 138.223Z" fill="black"/>
<path d="M200.832 141.214C201.723 139.23 200.736 136.855 198.627 135.908C196.519 134.962 194.087 135.803 193.196 137.787C192.305 139.771 193.292 142.146 195.401 143.093C197.509 144.039 199.941 143.198 200.832 141.214Z" fill="black"/>
<path d="M200.566 137.883C200.824 138.469 201.21 139.609 200.867 140.862C200.306 142.908 198.022 144.433 195.209 144.443C195.601 144.38 198.436 143.871 199.854 141.29C200.625 139.884 200.616 138.522 200.567 137.883H200.566Z" fill="black"/>
<path d="M173.651 203.65C173.593 203.161 173.521 201.979 174.143 200.696C174.898 199.138 176.188 198.439 176.605 198.234H177.097C176.535 198.573 175.458 199.324 174.635 200.696C173.919 201.889 173.717 203.015 173.65 203.65H173.651Z" fill="black"/>
<path d="M174.762 196.595C175.369 197.466 176.257 197.984 176.764 198.236H177.098C176.869 198.095 176.645 197.94 176.431 197.767C174.568 196.275 174.389 194.362 174.429 193.312C174.271 193.678 173.724 195.105 174.762 196.594V196.595Z" fill="black"/>
<path d="M183.006 196.757C182.74 195.244 182.201 193.143 181.036 190.849C179.767 188.349 178.235 186.567 177.098 185.434C177.43 185.91 177.759 186.402 178.083 186.91C180.123 190.116 181.532 193.307 182.514 196.264C182.678 196.428 182.843 196.592 183.006 196.755V196.757Z" fill="black"/>
<path d="M183.006 196.755C182.918 198.391 182.442 199.493 182.021 200.201C181.285 201.434 180.443 201.918 178.574 203.647C177.488 204.651 176.651 205.525 176.113 206.108C175.941 206.1 174.881 206.03 174.143 205.123C173.277 204.061 173.616 202.782 173.651 202.662C173.64 202.761 173.507 204.271 174.636 205.123C175.213 205.56 175.841 205.61 176.113 205.615C176.635 205 177.455 204.105 178.574 203.154C179.869 202.054 180.423 201.848 181.036 201.184C181.789 200.372 182.566 198.946 182.513 196.262C182.677 196.426 182.841 196.59 183.005 196.754L183.006 196.755Z" fill="black"/>
<path d="M177.098 205.617H181.036C181.415 205.284 181.941 204.791 182.513 204.14C183.225 203.328 183.69 202.634 183.99 202.171C184.866 200.821 186.456 198.212 188.421 194.787C188.504 193.636 188.493 191.887 187.929 189.864C187.287 187.562 186.208 185.906 185.468 184.941C185.981 185.887 186.508 187.038 186.944 188.387C187.687 190.688 187.899 192.748 187.929 194.295C186.947 196.163 185.807 198.147 184.483 200.202C183.329 201.994 182.169 203.634 181.036 205.125C179.724 205.289 178.41 205.453 177.098 205.617Z" fill="black"/>
<path d="M190.39 183.465C190.919 184.458 191.435 185.607 191.867 186.911C193.171 190.842 193.119 194.382 192.852 196.757C190.555 199.054 188.256 201.352 185.959 203.649C185.503 203.973 184.658 204.475 183.497 204.634C182.92 204.714 182.414 204.688 182.021 204.634C182.568 204.557 183.245 204.414 183.99 204.142C184.809 203.844 185.467 203.479 185.96 203.158C188.094 200.861 190.227 198.563 192.361 196.266C192.456 194.258 192.389 191.733 191.87 188.882C191.49 186.794 190.948 184.977 190.393 183.466L190.39 183.465Z" fill="black"/>
<path d="M174.635 195.277C174.538 195.469 174.251 195.964 173.65 196.262C172.717 196.724 171.807 196.32 171.681 196.262C172.556 196.812 173.566 196.787 174.142 196.262C174.495 195.941 174.6 195.511 174.634 195.277H174.635Z" fill="black"/>
<path d="M8.68289 85.4172L9.09389 85.1324C13.5801 91.6077 20.6715 92.7229 21.8876 92.8936L22.1611 92.932L22.2742 93.1839C23.3786 95.6428 26.7218 102.203 34.2295 106.312L34.2296 106.312C45.8763 112.69 57.7178 107.778 59.2704 107.102L59.4546 107.022L59.6431 107.092C60.7425 107.497 71.3975 111.219 81.2951 104.616C92.1025 97.4061 91.9891 84.5647 91.968 83.764L91.9582 83.3943L92.3089 83.2767C93.614 82.8393 97.2187 81.434 99.7168 77.6933C103.574 71.9164 101.505 65.47 101.231 64.6625L101.147 64.4169L101.3 64.2071C106.972 56.4192 107.763 46.4152 103.422 39.1726C97.6658 29.572 83.4277 25.7324 71.5319 32.5407L70.8198 32.9482L70.784 32.1285C70.4219 23.8292 64.4011 16.8082 56.303 15.2192L56.3993 14.7286L56.303 15.2192C48.1941 13.6276 39.9768 17.8694 36.535 25.4249V25.8694L35.9865 25.816C33.3542 25.5595 29.6427 25.5102 25.4361 26.5601L8.68289 85.4172ZM8.68289 85.4172L9.09388 85.1324C3.45897 76.9997 7.05192 67.7828 7.32539 67.1184L7.45154 66.8119L7.21836 66.5763C1.54699 60.8473 0.722116 55.6123 0.552527 53.4851M8.68289 85.4172L0.552527 53.4851M0.552527 53.4851C0.0515456 47.1879 3.18422 41.2307 8.02641 36.4376C12.8662 31.6469 19.3601 28.077 25.4361 26.5601L0.552527 53.4851Z" fill="white" stroke="black"/>
<path d="M98.9525 112.658L98.9525 112.658C99.2144 114.812 100.884 116.497 102.944 116.733H103.321L103.406 117.127C103.559 117.827 103.851 118.784 104.452 119.773L98.9525 112.658ZM98.9525 112.658C98.6903 110.505 99.902 108.44 101.844 107.678L102.583 107.389M98.9525 112.658L102.583 107.389M102.583 107.389L102.003 106.847M102.583 107.389L102.003 106.847M102.003 106.847C99.3618 104.381 99.1781 100.449 101.026 98.2276L101.026 98.2275M102.003 106.847L101.026 98.2275M101.026 98.2275C102.412 96.5608 104.889 95.9183 107.251 96.7092L107.506 96.7946M101.026 98.2275L107.506 96.7946M107.506 96.7946L107.718 96.6288M107.506 96.7946L107.718 96.6288M107.718 96.6288C107.894 96.4912 109.244 95.4829 110.873 95.9522L107.718 96.6288ZM112.97 97.6163L112.747 97.3063C112.538 97.017 111.93 96.2568 110.873 95.9522L112.97 97.6163ZM112.97 97.6163L113.328 97.4824M112.97 97.6163L113.328 97.4824M113.328 97.4824C113.516 97.412 116.632 96.3253 119.242 98.447L113.328 97.4824ZM121.584 103.925L121.591 103.729C121.602 103.416 121.643 100.398 119.243 98.447L121.584 103.925ZM121.584 103.925L121.712 104.073M121.584 103.925L121.712 104.073M121.712 104.073C122.006 104.414 124.18 107.039 123.56 110.543L123.56 110.543M121.712 104.073L123.56 110.543M123.56 110.543C123.161 112.802 121.821 114.206 121.305 114.694L121.11 114.879M123.56 110.543L121.11 114.879M121.11 114.879L121.157 115.144M121.11 114.879L121.157 115.144M121.157 115.144C121.213 115.466 121.506 117.332 120.311 118.976L120.311 118.976M121.157 115.144L120.311 118.976M120.311 118.976C118.82 121.029 116.327 120.895 116.149 120.881L115.812 120.856M120.311 118.976L115.812 120.856M115.812 120.856L115.663 121.16M115.812 120.856L115.663 121.16M115.663 121.16C114.717 123.086 113.514 123.713 113.042 123.918L113.242 124.377M115.663 121.16L113.242 124.377M113.242 124.377L113.042 123.918C111.604 124.544 109.927 124.273 108.337 123.429M113.242 124.377L108.337 123.429M108.337 123.429C106.751 122.587 105.327 121.211 104.452 119.773L108.337 123.429Z" fill="white" stroke="black"/>
<path d="M146.952 127.264L147.161 126.971C147.505 126.491 147.927 125.779 148.194 124.853C148.582 123.505 148.621 121.835 148.235 120.355C147.848 118.872 147.059 117.656 145.859 117.086L145.859 117.086C145.467 116.9 144.401 116.479 142.679 116.934L142.36 117.018L142.157 116.758C142.059 116.632 140.725 114.978 138.624 115.154L146.952 127.264ZM146.952 127.264L147.162 127.555M146.952 127.264L147.162 127.555M147.162 127.555C148.203 128.997 148.11 130.983 146.944 132.319C145.784 133.648 143.842 134.016 142.271 133.199L141.545 132.821L141.54 133.64C141.524 136.675 139.213 138.931 136.815 138.974C135.011 139.007 133.2 137.786 132.34 135.838L132.234 135.599L131.978 135.55C131.796 135.514 130.414 135.209 129.781 133.923L147.162 127.555ZM129.625 131.643L129.551 132.006C129.492 132.293 129.371 133.089 129.781 133.922L129.625 131.643ZM129.625 131.643L129.299 131.466M129.625 131.643L129.299 131.466M129.299 131.466C129.147 131.384 126.7 129.992 126.521 127.164L129.299 131.466ZM128.583 122.655L128.431 122.783C128.233 122.949 126.357 124.573 126.521 127.164L128.583 122.655ZM128.583 122.655L128.606 122.458M128.583 122.655L128.606 122.458M128.606 122.458C128.65 122.078 129.032 119.259 131.533 117.735L131.533 117.735M128.606 122.458L131.533 117.735M131.533 117.735C133.146 116.752 134.771 116.833 135.368 116.893L135.642 116.921M131.533 117.735L135.642 116.921M135.642 116.921L135.812 116.704M135.642 116.921L135.812 116.704M135.812 116.704C135.976 116.493 136.95 115.295 138.624 115.154L135.812 116.704Z" fill="white" stroke="black"/>
<path d="M20.8922 68.7128L20.8921 68.7126C20.4983 68.3228 20.4924 67.6872 20.8784 67.2898C20.8785 67.2898 20.8785 67.2898 20.8785 67.2897L52.1197 35.1542L52.1197 35.1541C52.5107 34.7519 53.153 34.7447 53.5528 35.138L53.5531 35.1383C58.98 40.4697 64.4089 45.8033 69.8378 51.1369C75.2667 56.4706 80.6957 61.8042 86.1227 67.1357L86.1228 67.1358C86.5208 67.5265 86.5266 68.1659 86.1364 68.5642L54.6299 100.702C54.2371 101.102 53.5943 101.107 53.1962 100.713C47.8189 95.3857 42.4453 90.0628 37.0717 84.7399C31.6798 79.3988 26.2879 74.0578 20.8922 68.7128Z" fill="white" stroke="black"/>
<path d="M53.2694 98.0692L53.2693 98.0691C43.4409 88.3325 33.6126 78.597 23.783 68.8604L23.5141 68.594C23.1665 68.2495 23.1615 67.6897 23.5023 67.3396L23.5026 67.3393L52.2793 37.739L52.2794 37.739C52.6239 37.3844 53.1916 37.3781 53.5428 37.7239L53.5432 37.7243L83.5426 67.1972C83.8941 67.5425 83.8991 68.1059 83.5543 68.4569L83.554 68.4572C73.88 78.3248 64.206 88.1924 54.5332 98.0599C54.1872 98.4128 53.6205 98.4172 53.2694 98.0692Z" fill="#5F19F2" stroke="black"/>
<path d="M52.3967 78.8136L52.4287 78.7643C52.7124 78.252 52.3531 77.6067 51.7535 77.5924L50.6742 77.5672L50.6739 77.5672C49.7031 77.5439 48.9249 76.7524 48.9248 75.7787M52.3967 78.8136L49.4248 75.7786M52.3967 78.8136L47.5543 86.2768L47.5542 86.2769C47.2552 86.7379 46.5886 86.7607 46.2588 86.3219L46.2587 86.3217L40.7334 78.9764L40.7334 78.9763C40.3464 78.462 40.7032 77.7253 41.3474 77.7102L52.3967 78.8136ZM48.9248 75.7787C48.9248 75.7787 48.9248 75.7786 48.9248 75.7786H49.4248M48.9248 75.7787C48.9248 75.7789 48.9248 75.7791 48.9248 75.7793L49.4248 75.7786M48.9248 75.7787C48.9116 67.1724 48.8995 58.5649 48.8875 49.9575L48.8875 49.936M49.4248 75.7786C49.4116 67.1717 49.3995 58.5636 49.3875 49.9556L49.3875 49.9351M48.8875 49.936L49.3875 49.9351M48.8875 49.936C48.8868 49.5067 48.5447 49.1567 48.1146 49.1463M48.8875 49.936V49.9358L49.3875 49.9351M49.3875 49.9351L48.1146 49.1463M48.1146 49.1463L48.1148 49.1463L48.1264 48.6464L48.1144 49.1463C48.1145 49.1463 48.1145 49.1463 48.1146 49.1463ZM44.8569 49.0705L44.8685 48.5707L44.8569 49.0705C44.8569 49.0705 44.8569 49.0705 44.8569 49.0705Z" fill="white" stroke="black"/>
<path d="M53.9117 55.374L53.8983 55.3949C53.5855 55.9136 53.9499 56.582 54.5606 56.5943L55.1002 56.6051L55.6395 56.6159C55.6395 56.6159 55.6396 56.6159 55.6397 56.6159L55.64 56.616L55.63 57.1159C56.3297 57.1291 56.8911 57.6989 56.8947 58.3998L53.9117 55.374ZM53.9117 55.374L58.7264 47.8942L53.9117 55.374ZM62.8648 84.2853L62.5678 58.2748L62.8648 84.2853ZM62.8648 84.2853C62.8732 85.0138 62.2769 85.6053 61.5484 85.5909L62.8648 84.2853ZM60.0222 47.8448C59.6899 47.4065 59.0243 47.4321 58.7265 47.894L60.0222 47.8448ZM60.0222 47.8448C60.0222 47.8448 60.0222 47.8449 60.0223 47.8449M60.0222 47.8448L60.0223 47.8449M60.0223 47.8449L65.5739 55.1709L60.0223 47.8449Z" fill="white" stroke="black"/>
</svg>
