<svg width="36" height="42" viewBox="0 0 36 42" fill="none" xmlns="http://www.w3.org/2000/svg">
<circle cx="18" cy="18" r="16" fill="#5F19F2"/>
<path d="M19.0588 42L18.5294 35.7H18C12.9882 35.7 8.73529 33.9675 5.24118 30.5025C1.74706 27.0375 0 22.82 0 17.85C0 12.88 1.74706 8.6625 5.24118 5.1975C8.73529 1.7325 12.9882 0 18 0C20.5059 0 22.8438 0.4634 25.0136 1.3902C27.1849 2.3184 29.0915 3.5959 30.7334 5.2227C32.3739 6.8509 33.6614 8.7409 34.596 10.8927C35.532 13.0459 36 15.365 36 17.85C36 20.475 35.568 22.995 34.704 25.41C33.8386 27.825 32.6562 30.065 31.1569 32.13C29.6562 34.195 27.8739 36.0675 25.8099 37.7475C23.7445 39.4275 21.4941 40.845 19.0588 42ZM17.9471 29.3475C18.5471 29.3475 19.0588 29.1375 19.4824 28.7175C19.9059 28.2975 20.1176 27.79 20.1176 27.195C20.1176 26.6 19.9059 26.0925 19.4824 25.6725C19.0588 25.2525 18.5471 25.0425 17.9471 25.0425C17.3471 25.0425 16.8353 25.2525 16.4118 25.6725C15.9882 26.0925 15.7765 26.6 15.7765 27.195C15.7765 27.79 15.9882 28.2975 16.4118 28.7175C16.8353 29.1375 17.3471 29.3475 17.9471 29.3475ZM16.4118 22.68H19.5882C19.5882 21.63 19.6941 20.895 19.9059 20.475C20.1176 20.055 20.7882 19.285 21.9176 18.165C22.5529 17.535 23.0824 16.8525 23.5059 16.1175C23.9294 15.3825 24.1412 14.595 24.1412 13.755C24.1412 11.97 23.5327 10.6309 22.3158 9.7377C21.0974 8.8459 19.6588 8.4 18 8.4C16.4471 8.4 15.1412 8.8284 14.0824 9.6852C13.0235 10.5434 12.2824 11.585 11.8588 12.81L14.8235 13.965C15 13.37 15.3353 12.7834 15.8294 12.2052C16.3235 11.6284 17.0471 11.34 18 11.34C18.9529 11.34 19.668 11.6025 20.1452 12.1275C20.6209 12.6525 20.8588 13.23 20.8588 13.86C20.8588 14.455 20.6824 14.9884 20.3294 15.4602C19.9765 15.9334 19.5529 16.415 19.0588 16.905C17.8235 17.955 17.0739 18.7859 16.8099 19.3977C16.5445 20.0109 16.4118 21.105 16.4118 22.68Z" fill="#AE8CF8"/>
</svg>
