<svg width="81" height="80" viewBox="0 0 81 80" fill="none" xmlns="http://www.w3.org/2000/svg">
<path d="M0.889221 39.9072C0.889221 57.3332 12.0632 72.0988 27.4939 77.5527V2.2616C12.0632 7.71555 0.889221 22.4811 0.889221 39.9072Z" fill="#F2B200"/>
<path d="M80.7024 39.9072C80.7024 22.4811 69.6614 7.71555 54.0977 2.2616V77.5527C69.6614 72.0988 80.7024 57.3332 80.7024 39.9072Z" fill="#83BF4F"/>
<path d="M27.4935 77.5525C31.6172 79.0158 36.14 79.8139 40.7958 79.8139C45.4516 79.8139 49.9744 79.0158 54.0981 77.5525V2.26139C49.9744 0.798139 45.4516 0 40.7958 0C36.14 0 31.6172 0.798139 27.4935 2.26139V77.5525Z" fill="#F9F9F9"/>
</svg>
