<svg width="27" height="27" viewBox="0 0 27 27" fill="none" xmlns="http://www.w3.org/2000/svg">
<path d="M26.9977 13.4978V13.491C26.9977 9.49648 25.2586 5.90916 22.497 3.44224L22.4835 3.43099C22.4494 3.39422 22.4113 3.36139 22.3699 3.33312L22.3676 3.332C19.9149 1.1784 16.7607 -0.00633513 13.4966 2.54791e-05C10.0859 2.54791e-05 6.97217 1.26667 4.59862 3.35674L4.61324 3.34437C4.58463 3.36607 4.55826 3.39056 4.5345 3.41749V3.41861C3.10759 4.6821 1.96543 6.23436 1.18369 7.97256C0.401958 9.71077 -0.00151512 11.5952 4.27539e-06 13.5011C4.27539e-06 17.4946 1.73686 21.0819 4.49625 23.5499L4.50975 23.5612C4.54548 23.6017 4.58546 23.6383 4.62899 23.6703L4.63124 23.6714C7.08335 25.8218 10.2352 27.0048 13.4966 26.9989C16.7733 27.0039 19.9386 25.81 22.3958 23.6422L22.3811 23.6545C23.8328 22.3925 24.9964 20.8333 25.7933 19.0826C26.5901 17.3318 27.0017 15.4303 27 13.5068V13.4989L26.9977 13.4978ZM21.9784 22.2777C21.3097 21.7368 20.5906 21.2614 19.831 20.858L19.7578 20.822C20.4474 18.8343 20.8625 16.5429 20.9019 14.1592V14.1412H25.6951C25.5335 17.225 24.2061 20.1322 21.9818 22.2743L21.9784 22.2777ZM14.1423 20.5847C15.5856 20.6623 16.9343 20.9795 18.1785 21.4959L18.0975 21.4666C17.1008 23.7389 15.6981 25.3003 14.1423 25.6434V20.5847ZM14.1423 19.2978V14.1412H19.6184C19.5749 16.2766 19.2047 18.3927 18.5205 20.4159L18.5643 20.2686C17.1677 19.6946 15.6823 19.3665 14.1738 19.2989L14.1434 19.2978H14.1423ZM14.1423 12.8543V7.69776C15.6915 7.62705 17.2167 7.28792 18.6498 6.69546L18.561 6.72809C19.1853 8.54931 19.5689 10.6484 19.6184 12.8307V12.8543H14.1423ZM14.1423 6.41086V1.35441C15.6981 1.69751 17.1008 3.25213 18.0975 5.53119C16.9343 6.0149 15.5856 6.331 14.1749 6.40974L14.1423 6.41086ZM17.3528 1.91124C18.6783 2.35337 19.918 3.02002 21.0177 3.88208L20.9919 3.86183C20.4935 4.25329 19.9345 4.62226 19.345 4.94286L19.282 4.97436C18.8057 3.85027 18.1508 2.81057 17.3427 1.89549L17.3528 1.90787V1.91124ZM12.8532 1.35779V6.41086C11.4656 6.34008 10.1004 6.03189 8.81702 5.49969L8.89801 5.52894C9.89918 3.25663 11.2997 1.69638 12.8554 1.35329L12.8532 1.35779ZM7.71461 4.97098C7.10483 4.64291 6.52382 4.26398 5.97775 3.8382L6.00475 3.85845C7.07244 3.0217 8.27337 2.37065 9.5572 1.93261L9.6427 1.90674C8.85573 2.79703 8.21449 3.80616 7.74273 4.89674L7.71461 4.96986V4.97098ZM12.8554 7.69663V12.8532H7.37939C7.42888 10.6473 7.81248 8.54818 8.48067 6.5796L8.4368 6.72696C9.83287 7.30007 11.3174 7.62773 12.8251 7.69551L12.8554 7.69663ZM12.8554 14.1401V19.2967C11.3062 19.3674 9.7811 19.7065 8.34793 20.299L8.4368 20.2663C7.81248 18.4462 7.42888 16.346 7.37939 14.1637V14.1401H12.8554ZM12.8554 20.5836V25.64C11.2997 25.2969 9.89693 23.7423 8.90026 21.4632C10.0634 20.9795 11.4122 20.6645 12.8228 20.5858L12.8554 20.5847V20.5836ZM9.64945 25.0832C8.32425 24.6423 7.08459 23.9772 5.9845 23.1168L6.0115 23.1371C6.50983 22.7456 7.06891 22.3767 7.65836 22.0561L7.72136 22.0246C8.19369 23.1491 8.84858 24.1879 9.65957 25.0989L9.64945 25.0877V25.0832ZM19.2831 22.0234C19.9356 22.3778 20.4947 22.7456 21.02 23.1562L20.993 23.136C19.9253 23.9727 18.7244 24.6238 17.4405 25.0618L17.3551 25.0877C18.142 24.1978 18.7833 23.189 19.255 22.0988L19.2831 22.0257V22.0234ZM25.6951 12.8543H20.9019C20.8674 10.5268 20.4657 8.21938 19.7117 6.01715L19.7578 6.17238C20.5525 5.75399 21.3048 5.25973 22.0043 4.69651L21.9773 4.71676C24.197 6.85074 25.5248 9.74715 25.6929 12.8217L25.694 12.8532L25.6951 12.8543ZM5.01933 4.71788C5.66728 5.24434 6.39509 5.72692 7.16678 6.13751L7.2399 6.17351C6.55033 8.16122 6.13524 10.4527 6.09587 12.8363V12.8543H1.30152C1.46316 9.77051 2.7905 6.86331 5.01483 4.72125L5.01821 4.71788H5.01933ZM1.30265 14.1412H6.09587C6.13035 16.4687 6.53201 18.7762 7.28602 20.9784L7.2399 20.8232C6.39509 21.272 5.66841 21.7546 4.99346 22.299L5.02046 22.2788C2.80072 20.1448 1.47292 17.2484 1.3049 14.1738L1.30377 14.1423L1.30265 14.1412Z" fill="black"/>
</svg>
