<svg width="268" height="344" viewBox="0 0 268 344" fill="none" xmlns="http://www.w3.org/2000/svg">
<path d="M186.754 4.72791C185.624 7.11407 184.489 9.50509 183.359 11.8912C183.237 12.1445 183.174 12.422 183.174 12.7045V17.3112C183.174 17.506 183.213 17.6959 183.281 17.881C183.408 18.2316 183.559 18.9134 183.174 19.5854C183.174 19.5951 183.164 19.6 183.16 19.6097C182.75 20.2964 181.435 20.2477 180.997 20.233C179.706 20.1843 175.663 18.4702 170.504 15.6896C170.309 15.602 169.725 15.3098 169.53 14.7157C169.267 13.9073 169.812 12.8116 170.977 12.2857C170.986 12.2808 170.996 12.276 171.006 12.2662C171.829 11.6137 172.979 10.591 174.143 9.10091C174.211 9.00838 174.43 8.81359 174.557 8.55063C175.736 6.06221 176.915 3.57379 178.093 1.08537C178.503 0.223437 179.482 -0.200227 180.393 0.0919551C181.304 0.384137 182.219 0.700668 183.179 1.07564C184.109 1.43599 184.986 1.80609 185.814 2.18593C186.784 2.62907 187.208 3.76858 186.754 4.73278V4.72791Z" fill="white" stroke="black" stroke-miterlimit="10"/>
<path d="M114.947 266.793C114.397 267.416 113.769 268.332 113.973 269.228C114.645 272.15 123.643 272.15 125.182 272.15C126.721 272.15 135.718 272.15 136.391 269.228C136.595 268.332 135.967 267.416 135.416 266.793C132.299 267.09 128.874 267.28 125.182 267.28C122.05 267.28 118.625 267.144 114.947 266.793Z" fill="white" stroke="black" stroke-width="2" stroke-miterlimit="10"/>
<path d="M66.537 245.261C65.9719 246.62 65.4069 247.979 64.8418 249.333C63.9893 251.383 64.8759 253.744 66.878 254.718C71.8758 257.144 77.9551 259.71 85.0281 261.95C88.7254 263.119 98.7357 266.113 112.073 267.55C116.209 267.993 136.04 269.44 158.369 265.115C173.86 262.115 209.405 251.11 236.343 217.86C265.633 181.707 266.978 141.186 266.072 123.348C265.409 110.327 261.98 78.5715 239.27 47.347C222.119 23.7679 201.538 10.8924 188.926 4.4644C186.452 3.20315 183.432 4.64945 182.91 7.38135C182.589 9.0614 182.409 10.946 182.496 13.001C182.521 13.5415 182.56 14.0626 182.613 14.569C182.764 15.9812 183.641 17.2035 184.908 17.8415C188.878 19.8234 193.876 22.604 199.307 26.4024C204.29 29.8891 218.388 40.3541 230.497 59.044C232.553 62.2191 238.364 71.5153 243.167 84.8632C246.952 95.3818 260.343 132.518 245.116 174.505C240.907 186.114 231.803 205.593 212.951 222.734C170.387 261.439 115.41 254.3 106.228 252.941C91.9112 250.818 80.2787 246.649 72.0951 243.036C69.9517 242.086 67.443 243.099 66.5419 245.266L66.537 245.261Z" fill="white" stroke="black" stroke-width="2" stroke-miterlimit="10"/>
<path d="M114.212 272.303C114.465 271.359 115.459 270.808 116.389 271.11C117.626 271.514 118.708 271.782 119.565 271.963C120.763 272.216 125.771 273.185 132.235 271.963C132.255 271.963 132.274 271.953 132.284 271.953C133.268 271.768 134.062 271.583 134.705 271.412C135.518 271.198 136.356 271.646 136.619 272.445C137.267 274.392 137.92 276.345 138.568 278.293L144.116 294.938C144.243 295.313 144.486 295.624 144.813 295.834C145.046 295.985 145.261 296.038 145.329 296.058C150.916 297.446 156.323 299.54 161.959 300.704C168.949 302.145 174.249 303.747 177.065 304.599C180.713 305.71 183.232 306.64 188.274 308.495C192.005 309.868 194.304 310.798 197.047 312.391C198.211 313.068 199.219 313.725 200.057 314.309C200.953 314.938 201.587 315.877 201.816 316.949C202.04 317.976 202.239 319.057 202.41 320.187C202.878 323.309 203.009 326.182 202.96 328.734C202.936 329.868 202.463 330.939 201.66 331.743C201.66 331.743 201.153 332.366 200.466 332.858C189.292 340.781 150.531 342.846 150.531 342.846C137.291 343.26 139.927 343.63 134.456 343.82C116.296 344.448 96.948 342.846 96.948 342.846C77.4972 341.268 69.9176 339.749 66.2593 338.95C66.2593 338.95 47.2323 334.806 46.2873 328.237C46.0632 326.688 46.1022 325.037 46.1022 325.037C46.2678 323.654 46.336 322.262 46.5942 320.893C46.8572 319.491 47.1787 318.054 47.4077 316.564C47.4369 316.384 47.4905 316.209 47.5733 316.048C47.5733 316.048 48.2699 314.071 49.8871 312.401C55.416 306.688 72.3045 303.63 72.3045 303.63C72.3045 303.63 75.539 303.046 100.08 297.295C100.947 297.09 103.066 296.569 104.951 294.86C106.315 293.623 106.997 292.279 107.387 291.451C110.037 285.836 114.046 272.863 114.216 272.303H114.212Z" fill="white" stroke="black" stroke-width="2" stroke-miterlimit="10"/>
<path d="M114.47 272.339C114.724 271.394 115.717 270.844 116.648 271.145C117.885 271.55 118.967 271.817 119.824 271.998C121.022 272.251 126.03 273.22 132.494 271.998C132.513 271.998 132.533 271.988 132.543 271.988C133.527 271.803 134.321 271.618 134.964 271.447C135.777 271.233 136.615 271.681 136.878 272.48C137.526 274.428 138.179 276.38 138.826 278.328L144.375 294.973C144.501 295.348 144.745 295.66 145.071 295.869C145.305 296.02 145.52 296.073 145.588 296.093C151.175 297.481 156.582 299.575 162.218 300.739C169.208 302.18 174.508 303.782 177.324 304.634C180.972 305.745 183.491 306.675 188.532 308.53C192.264 309.903 194.563 310.834 197.305 312.426C198.47 313.103 199.478 313.76 200.316 314.345C201.212 314.973 201.845 315.913 202.074 316.984C202.298 318.011 202.498 319.093 202.669 320.222C203.136 323.344 203.268 326.217 203.219 328.769C203.195 329.903 202.722 330.975 201.919 331.778C201.919 331.778 201.412 332.401 200.725 332.893C189.551 340.816 150.79 342.881 150.79 342.881C137.55 343.295 140.186 343.665 134.715 343.855C116.555 344.483 97.2068 342.881 97.2068 342.881C77.756 341.303 70.1764 339.784 66.5181 338.985C66.5181 338.985 47.4911 334.841 46.5461 328.272C46.322 326.723 46.361 325.073 46.361 325.073C46.5266 323.69 46.5948 322.297 46.853 320.928C47.116 319.526 47.4375 318.089 47.6665 316.599C47.6957 316.419 47.7493 316.244 47.8321 316.083C47.8321 316.083 48.5287 314.106 50.1459 312.436C55.6748 306.724 72.5633 303.665 72.5633 303.665C72.5633 303.665 75.7978 303.081 100.339 297.33C101.206 297.125 103.325 296.604 105.21 294.895C106.574 293.658 107.256 292.314 107.646 291.486C110.296 285.871 114.305 272.899 114.475 272.339H114.47Z" fill="white" stroke="black" stroke-width="2" stroke-miterlimit="10"/>
<path d="M115.44 267.129C114.889 267.752 114.261 268.668 114.465 269.564C115.138 272.486 124.135 272.486 125.674 272.486C127.213 272.486 136.21 272.486 136.883 269.564C137.087 268.668 136.459 267.752 135.908 267.129C132.791 267.426 129.366 267.616 125.674 267.616C122.542 267.616 119.117 267.48 115.44 267.129Z" fill="white" stroke="black" stroke-width="2" stroke-miterlimit="10"/>
<path d="M67.2245 244.59C66.6594 245.948 66.0944 247.307 65.5293 248.661C64.6768 250.711 65.5634 253.073 67.5655 254.047C72.5633 256.472 78.6426 259.038 85.7156 261.278C89.4129 262.447 99.4232 265.442 112.761 266.878C116.896 267.321 136.727 268.768 159.057 264.443C174.547 261.444 210.092 250.438 237.03 217.188C266.321 181.035 267.665 140.514 266.759 122.677C266.097 109.655 262.668 77.8997 239.958 46.6751C222.806 23.096 202.225 10.2205 189.614 3.79253C187.139 2.53127 184.119 3.97758 183.598 6.70948C183.276 8.38953 183.096 10.2741 183.184 12.3291C183.208 12.8697 183.247 13.3907 183.301 13.8972C183.452 15.3094 184.329 16.5317 185.595 17.1696C189.565 19.1516 194.563 21.9322 199.994 25.7305C204.978 29.2172 219.075 39.6822 231.185 58.3722C233.241 61.5472 239.052 70.8435 243.855 84.1913C247.64 94.7099 261.031 131.846 245.803 173.833C241.595 185.442 232.49 204.921 213.639 222.062C171.074 260.767 116.097 253.628 106.915 252.269C92.5987 250.146 80.9662 245.977 72.7826 242.364C70.6392 241.415 68.1305 242.427 67.2294 244.594L67.2245 244.59Z" fill="white" stroke="black" stroke-width="2" stroke-miterlimit="10"/>
<path d="M187.241 4.7826C186.111 7.16875 184.976 9.55978 183.846 11.9459C183.724 12.1992 183.66 12.4767 183.66 12.7592V17.3659C183.66 17.5607 183.699 17.7506 183.768 17.9357C183.894 18.2863 184.045 18.968 183.66 19.6401C183.66 19.6498 183.651 19.6547 183.646 19.6644C183.237 20.351 181.921 20.3023 181.483 20.2877C180.192 20.239 176.149 18.5249 170.99 15.7443C170.796 15.6566 170.211 15.3645 170.016 14.7704C169.753 13.962 170.299 12.8663 171.463 12.3404C171.473 12.3355 171.482 12.3306 171.492 12.3209C172.315 11.6684 173.465 10.6457 174.629 9.15559C174.697 9.06307 174.917 8.86828 175.043 8.60532C176.222 6.1169 177.401 3.62848 178.58 1.14006C178.989 0.278125 179.968 -0.14554 180.879 0.146643C181.79 0.438825 182.706 0.755355 183.665 1.13032C184.596 1.49068 185.473 1.86078 186.301 2.24061C187.27 2.68376 187.694 3.82327 187.241 4.78747V4.7826Z" fill="white" stroke="black" stroke-miterlimit="10"/>
<path d="M107.675 297.836C112.263 299.102 118.601 300.329 126.185 300.271C132.391 300.222 137.686 299.326 141.773 298.323" stroke="black" stroke-miterlimit="10" stroke-linecap="round"/>
<path d="M50.6807 317.312C51.9959 318.131 53.3111 318.954 54.6264 319.772C68.6603 324.427 86.7666 329.005 108.161 330.948C126.438 332.608 140.204 331.693 143.721 331.435C157.838 330.402 169.007 328.104 176.358 326.565C183.67 325.036 194.869 322.669 198.766 320.721" stroke="black" stroke-miterlimit="10" stroke-linecap="round"/>
<path d="M50.6865 317.348C52.1625 318.326 53.6434 319.305 55.1193 320.289C69.1631 324.925 87.2742 329.473 108.674 331.387C126.955 333.018 140.721 332.083 144.233 331.82C158.345 330.769 169.515 328.451 176.866 326.902C184.173 325.363 190.305 323.771 194.884 322.495C196.346 321.842 197.807 321.19 199.264 320.542" stroke="black" stroke-miterlimit="10" stroke-linecap="round"/>
<path d="M136.493 186.551C135.943 187.174 135.314 188.09 135.519 188.986C136.191 191.907 145.188 191.907 146.728 191.907C148.267 191.907 157.264 191.907 157.936 188.986C158.141 188.09 157.513 187.174 156.962 186.551C153.845 186.848 150.42 187.038 146.728 187.038C143.596 187.038 140.171 186.901 136.493 186.551Z" fill="white" stroke="black" stroke-width="2" stroke-miterlimit="10"/>
<path d="M121.708 251.168C188.341 251.168 242.358 197.474 242.358 131.246C242.358 65.0185 188.346 11.3203 121.708 11.3203C55.0697 11.3203 1.05762 65.0137 1.05762 131.246C1.05762 197.479 55.0746 251.168 121.708 251.168Z" fill="black" stroke="black" stroke-width="2" stroke-miterlimit="10"/>
<path d="M110.051 156.211C110.485 165.02 108.736 168.054 106.948 169.13C106.218 169.573 102.837 171.273 102.837 171.273C102.837 171.273 102.813 171.657 104.995 173.683C105.623 174.691 106.261 176.045 105.735 176.96C105.151 177.978 103.592 177.676 103.309 178.431C102.915 179.483 105.575 180.983 107.625 183.184C110.343 186.101 110.246 188.394 111.737 191.282C113.125 193.97 115.984 197.364 122.526 200.053C125.386 208.701 124.47 211.9 122.999 213.171C122.161 213.897 120.476 214.579 120.101 216.249C119.847 217.369 120.412 217.9 120.573 219.327C120.787 221.231 120.013 222.317 119.156 224.547C117.933 227.737 117.641 230.415 117.47 231.978C117.163 234.764 116.915 237.018 117.943 239.541C119.014 242.18 120.938 243.778 122.054 244.562C122.302 243.631 122.677 242.312 123.203 240.749C124.29 237.496 124.835 235.869 125.629 234.588C127.325 231.861 130.827 228.813 135.002 227.693C136.614 227.26 138.538 227.06 139.05 225.75C139.483 224.635 138.538 223.617 139.05 222.94C139.732 222.039 142.075 222.94 143.365 223.14C145.806 223.515 149.469 222.107 154.896 214.574C154.711 213.439 154.866 212.582 155.1 211.964C156.299 208.73 161.316 206.865 167.575 207.411C169.982 203.929 172.383 200.447 174.79 196.97C175.194 194.983 175.598 192.996 176.003 191.014C179.037 188.56 182.072 186.106 185.107 183.651C184.859 181.665 184.61 179.678 184.367 177.696C184.25 177.759 182.325 178.743 180.523 177.696C179.344 177.009 178.94 175.87 178.838 175.553C177.386 174.769 175.525 174.048 174.317 174.818C173.348 175.431 173.294 176.693 172.632 176.761C172.184 176.805 171.477 176.298 170.406 173.615C168.988 173.011 167.575 172.412 166.158 171.808C165.549 172.432 164.945 173.06 164.336 173.683C163.864 173.396 163.391 173.104 162.919 172.811C163.547 172.188 164.175 171.56 164.809 170.937L162.987 169.33C162.066 170.245 161.145 171.161 160.225 172.076C159.708 171.789 159.192 171.497 158.676 171.204C159.82 170.157 160.97 169.106 162.115 168.059C161.847 167.143 161.574 166.228 161.306 165.312C160.975 164.509 160.424 163.437 159.484 162.366C157.838 160.481 155.919 159.644 154.901 159.288C152.835 159.425 150.765 159.556 148.699 159.688C145.957 156.878 143.214 154.063 140.472 151.253C138.27 151.833 136.068 152.412 133.867 152.992C132.863 152.889 130.749 152.529 128.878 150.917C128.226 150.357 127.743 149.763 127.393 149.242C126.808 148.974 126.224 148.706 125.639 148.439C124.675 149.374 123.705 150.313 122.741 151.248V153.123C122.142 154.058 121.693 154.482 121.391 154.394C120.943 154.263 120.831 152.992 121.055 150.581C121.503 150.133 121.952 149.69 122.405 149.242C122.517 148.775 122.629 148.307 122.741 147.835C122.312 147.679 121.888 147.523 121.46 147.367C119.682 148.453 117.772 149.734 115.794 151.248C113.593 152.933 111.693 154.618 110.061 156.201L110.051 156.211Z" fill="black" stroke="black" stroke-width="0.75" stroke-miterlimit="10"/>
<path d="M83.2842 112.143C81.9641 112.089 81.1506 112.776 79.0608 113.73C78.0914 114.173 76.6885 114.748 74.9008 115.255C75.0421 116.014 75.1882 116.769 75.3295 117.529C75.5146 117.792 75.6948 118.059 75.8799 118.327C75.7387 119.647 75.5974 120.967 75.4561 122.286C75.0323 122.359 74.6037 122.428 74.1799 122.501C74.2822 123.367 74.4673 124.653 74.8277 126.177C75.9335 130.842 76.9126 134.972 79.9279 136.034C82.2222 136.842 84.9988 135.625 86.6404 134.013C88.5305 132.162 88.8179 129.888 88.8763 129.231C90.742 129.367 92.6077 129.498 94.4734 129.635C93.2361 133.399 91.9988 137.163 90.7615 140.932C92.5054 140.728 94.6341 140.65 97.0259 140.928C98.0732 141.049 99.0426 141.225 99.9291 141.429C100.129 145.023 100.329 148.612 100.528 152.206C104.352 152.829 108.181 153.457 112.005 154.086L111.415 155.702C110.178 155.469 108.941 155.24 107.704 155.006C107.085 155.795 106.466 156.584 105.843 157.373C102.292 155.357 98.7454 153.345 95.1943 151.334C94.298 149.601 93.4017 147.872 92.5054 146.138C91.3119 146.06 90.1234 145.987 88.9299 145.909C88.5597 145.13 88.1944 144.356 87.8241 143.577C86.4992 143.616 85.1742 143.65 83.8492 143.689C82.7532 142.16 81.6572 140.631 80.5612 139.106C79.2216 139.949 77.8869 140.791 76.5473 141.629C71.3205 138.405 66.0936 135.186 60.8717 131.963C61.1737 130.774 61.4708 129.586 61.7729 128.403C58.3192 122.993 54.8655 117.587 51.4118 112.177C51.1926 110.662 50.9734 109.143 50.7542 107.629C49.8286 107.171 48.9031 106.713 47.9776 106.255C47.7243 107.619 47.471 108.987 47.2177 110.351C49.8092 115.074 52.4055 119.803 54.997 124.531C54.846 125.048 54.695 125.564 54.544 126.075C52.0791 122.798 49.6143 119.52 47.1543 116.248C46.6818 114.402 46.2142 112.552 45.7417 110.706C45.3958 108.008 45.05 105.311 44.7041 102.613C43.1892 101.717 41.6742 100.816 40.1593 99.9199C39.9303 95.7465 39.7014 91.5732 39.4773 87.3998C41.2017 83.2947 42.931 79.1895 44.6554 75.0844C44.8064 74.2955 44.9672 72.8784 44.5434 71.1983C44.0514 69.2505 43.0333 67.9503 42.478 67.3367C42.9943 67.3075 43.5107 67.2782 44.027 67.249C44.7041 67.6678 45.6491 68.3593 46.5454 69.4306C47.3492 70.3949 47.8314 71.3347 48.1237 72.0262C47.773 70.6675 47.4174 69.3089 47.0667 67.9503C46.3408 67.1565 45.6102 66.3579 44.8844 65.5641C44.8162 63.5091 44.748 61.459 44.6798 59.4039C45.1377 57.9674 45.5907 56.5357 46.0437 55.0991C45.956 53.2486 45.8635 51.3933 45.7758 49.5428C44.7285 48.15 43.6763 46.7524 42.629 45.3597C41.6499 45.9733 40.6659 46.5869 39.6868 47.2005C38.8976 47.142 38.1134 47.0836 37.3242 47.0251C37.7529 46.4359 38.1913 45.8515 38.6492 45.2672C45.7368 36.268 54.9337 30.4195 64.2377 26.6211C64.5154 26.6552 66.0011 26.8792 66.951 28.1989C67.5258 28.9975 67.6281 29.8156 67.6476 30.2003C68.8995 29.8302 70.1562 29.4553 71.4081 29.0852C72.7282 28.7345 74.0483 28.3839 75.3733 28.0333C77.049 30.0591 79.4359 32.2748 82.7191 33.8429C83.177 34.062 83.63 34.2568 84.0733 34.4321C85.2327 33.8623 86.3969 33.2877 87.5562 32.718C89.2173 33.6968 90.6592 33.9841 91.5457 34.0766C92.5005 34.1789 93.3481 34.1204 94.3759 34.0425C94.8972 34.0036 95.8568 33.9159 97.0648 33.6773C98.6334 33.3656 99.4225 33.2049 99.7489 32.7764C100.616 31.6418 99.3202 29.4212 99.1692 29.1679C100.109 28.6664 101.045 28.1648 101.98 27.6632C102.194 28.866 102.413 30.0688 102.628 31.2717L104.45 31.6515C104.567 32.0508 104.683 32.455 104.8 32.8543C104.459 34.5977 104.123 36.3459 103.782 38.0892C102.613 37.9675 101.444 37.8506 100.275 37.7289C101.201 38.2548 102.131 38.7807 103.056 39.3067C99.7586 41.7318 96.4657 44.1618 93.1679 46.5869C92.4859 47.7994 91.8039 49.012 91.122 50.2294C91.8185 52.2065 92.5151 54.1885 93.2117 56.1656C96.6654 57.4658 100.114 58.766 103.568 60.0662C104.269 60.3486 104.966 60.6311 105.667 60.9135C105.619 62.6325 105.575 64.3515 105.526 66.0754C106.413 66.8935 107.299 67.7068 108.181 68.5249C109.233 68.223 110.285 67.921 111.338 67.6191C111.352 64.8288 111.362 62.0384 111.376 59.2481C112.429 59.1458 113.486 59.0436 114.538 58.9462C114.289 56.9155 114.041 54.8897 113.793 52.8591C113.495 52.9029 113.159 52.9321 112.784 52.937C112.487 52.937 112.146 52.9272 111.771 52.8834C111.917 51.9192 112.063 50.9599 112.209 49.9957C112.95 49.9421 113.69 49.8885 114.431 49.835C114.08 48.7685 113.734 47.6972 113.383 46.6307C112.351 46.5528 111.318 46.4749 110.28 46.397C110.227 45.8613 110.178 45.3256 110.129 44.79C113.544 44.863 116.959 44.936 120.374 45.0091C121.25 45.759 122.137 46.5284 123.028 47.3222C123.701 47.9212 124.358 48.5153 125.001 49.1094C125.357 50.692 125.712 52.2698 126.068 53.8525C126.945 53.7989 127.817 53.7405 128.694 53.6869C129.327 52.2747 129.965 50.8576 130.598 49.4454C132.776 51.5394 134.958 53.6382 137.14 55.7322C136.853 56.336 136.57 56.9447 136.283 57.5534C138.266 58.2449 140.253 58.9364 142.236 59.6279C141.101 60.4655 139.966 61.308 138.826 62.1456C139.191 62.6082 139.556 63.0757 139.922 63.5383C140.969 62.8127 142.016 62.0871 143.064 61.3615C144.082 61.8631 145.095 62.3647 146.113 62.8663C146.079 63.8256 146.045 64.7898 146.011 65.7491C144.944 65.4229 143.853 65.6323 143.186 66.3189C142.801 66.7133 142.655 67.1711 142.591 67.4633C142.036 68.0963 141.481 68.7245 140.93 69.3576C137.204 69.5329 133.477 69.7131 129.751 69.8884C127.193 72.1966 124.636 74.5 122.083 76.8082C122.512 77.0956 122.946 77.378 123.374 77.6653C125.508 75.7418 127.641 73.8231 129.775 71.8996C130.876 71.885 131.977 71.8752 133.078 71.8606L134.101 73.0537C133.799 73.9741 133.492 74.8945 133.19 75.81C133.575 76.2093 133.964 76.6037 134.349 77.003C135.094 77.5533 135.845 78.1036 136.59 78.6539C137.399 78.5126 138.202 78.3666 139.011 78.2253C139.488 77.6556 140.019 77.0663 140.609 76.4674C141.013 76.0534 141.417 75.6736 141.807 75.3132C142.06 75.9366 142.314 76.5599 142.572 77.1783C142.109 77.9624 141.646 78.7513 141.183 79.5401C135.815 83.1096 132.24 83.2947 129.902 82.686C128.757 82.3889 127.413 81.7705 126.19 82.3938C124.509 83.2509 124.134 85.9097 124.1 88.1108C123.306 88.0134 121.928 87.9745 120.466 88.6221C116.944 90.1853 116.277 94.271 116.223 94.6314C115.463 94.9966 114.704 95.3618 113.944 95.727C114.411 97.3048 114.879 98.8875 115.347 100.465C112.341 102.847 109.335 105.223 106.335 107.604C106.612 112.245 106.89 116.886 107.168 121.527C106.496 121.78 105.823 122.033 105.156 122.286C103.203 118.332 101.244 114.383 99.291 110.429C98.7795 110.994 98.2729 111.558 97.7614 112.118C93.8645 110.073 90.591 109.713 89.5924 111.008C89.3781 111.286 89.115 111.841 89.344 112.956C88.4038 113.234 87.4637 113.511 86.5235 113.794C85.788 113.063 84.6725 112.211 83.2696 112.157L83.2842 112.143Z" fill="black" stroke="black" stroke-width="0.75" stroke-miterlimit="10"/>
<path d="M140.457 33.8324C141.197 33.0532 141.938 32.2692 142.678 31.4901C142.05 30.6866 141.421 29.8831 140.793 29.0796C140.184 29.6834 139.58 30.2824 138.976 30.8862C138.304 30.4626 137.627 30.0389 136.954 29.6152C138.031 28.9432 139.112 28.2761 140.189 27.6089C139.336 27.2096 138.484 26.8054 137.627 26.4061C136.862 26.4499 136.097 26.4938 135.337 26.5424C134.933 25.7828 134.529 25.0231 134.124 24.2683C132.015 22.3496 129.901 20.431 127.792 18.5123C125.906 18.7363 124.016 18.9603 122.131 19.1843C121.907 18.7363 121.683 18.2932 121.459 17.8452C122.131 17.5578 122.808 17.2657 123.481 16.9735C122.268 16.9978 121.055 17.0173 119.842 17.0417C120.246 16.4816 120.65 15.9265 121.055 15.3713C121.595 14.8357 122.131 14.3 122.672 13.7643C123.257 12.7807 123.841 11.8019 124.421 10.8182C125.721 10.7938 127.027 10.7743 128.327 10.75C128.888 11.3977 129.453 12.0453 130.013 12.693C131.903 12.8148 133.886 13.0485 135.941 13.4283C147.837 15.6343 156.619 21.7361 162.08 26.5424C161.364 27.1658 160.643 27.7891 159.922 28.4173C161.203 28.5293 162.484 28.6413 163.761 28.7533C163.805 29.4886 163.853 30.2239 163.897 30.9593C163.41 30.8424 162.898 31.0274 162.616 31.4268C162.353 31.7969 162.324 32.2936 162.548 32.6978C161.651 32.9851 160.75 33.2772 159.854 33.5694C159.942 34.1294 160.034 34.6846 160.122 35.2397C159.226 35.4199 158.324 35.5952 157.428 35.7754C157.608 36.1114 157.789 36.4474 157.969 36.7786C157.521 36.9587 157.073 37.1341 156.619 37.3142C156.707 38.1859 156.8 39.0527 156.887 39.9244C157.248 40.3237 157.603 40.7279 157.964 41.1272C157.628 41.6385 157.292 42.1547 156.956 42.666C157.204 43.2261 157.448 43.7812 157.696 44.3363C157.92 45.096 158.144 45.8557 158.368 46.6105C158.344 47.5016 158.324 48.3928 158.3 49.2888C156.05 48.7191 151.763 47.3215 147.588 43.7325C143.336 40.0754 141.324 35.9702 140.447 33.8275L140.457 33.8324Z" fill="black" stroke="black" stroke-width="0.75" stroke-miterlimit="10"/>
<path d="M96.368 128.879C97.5518 129.01 99.2518 129.035 101.152 128.479C101.809 128.289 102.394 128.056 102.905 127.812C103.782 128.436 104.659 129.054 105.536 129.677C106.705 130.257 107.874 130.831 109.038 131.411C110.431 131.654 111.824 131.898 113.213 132.141C114.158 131.786 115.098 131.43 116.043 131.075C115.453 130.554 114.528 129.819 113.281 129.142C111.698 128.285 110.548 128.041 108.634 127.408C107.47 127.023 105.818 126.429 103.85 125.543H95.4961C95.7884 126.653 96.0806 127.764 96.3729 128.874L96.368 128.879Z" fill="black" stroke="black" stroke-width="0.75" stroke-miterlimit="10"/>
<path d="M111.591 137.839C112.151 137.269 112.711 136.699 113.271 136.129C113.067 135.774 112.711 135.267 112.126 134.829C110.918 133.923 109.589 133.977 109.17 134.011C108.989 134.717 108.809 135.423 108.634 136.129C109.618 136.699 110.607 137.269 111.591 137.839Z" fill="black" stroke="black" stroke-width="0.75" stroke-miterlimit="10"/>
<path d="M119.579 136.998C120.543 137.066 121.508 137.135 122.477 137.203C122.906 136.935 123.329 136.662 123.758 136.394C126.203 136.506 128.654 136.618 131.099 136.73C133.116 136.463 134.538 135.937 134.533 135.45C134.533 134.982 133.203 134.505 131.435 134.237C129.73 134.33 128.025 134.417 126.316 134.505C125.755 134.101 124.747 133.487 123.354 133.224C121.249 132.825 119.564 133.473 118.906 133.765C118.814 134.062 118.697 134.563 118.77 135.177C118.882 136.117 119.364 136.745 119.579 136.993V136.998Z" fill="black" stroke="black" stroke-width="0.75" stroke-miterlimit="10"/>
<path d="M123.613 250.818C190.835 250.818 245.33 196.341 245.33 129.139C245.33 61.9373 190.835 7.46484 123.613 7.46484C56.3898 7.46484 1.89551 61.9422 1.89551 129.139C1.89551 196.336 56.3898 250.818 123.613 250.818Z" fill="white" stroke="black" stroke-width="2" stroke-miterlimit="10"/>
<path d="M111.449 155.825C111.888 164.765 110.12 167.843 108.322 168.934C107.582 169.382 104.172 171.106 104.172 171.111C104.172 171.111 104.148 171.5 106.349 173.555C106.983 174.578 107.63 175.951 107.099 176.881C106.51 177.914 104.937 177.607 104.649 178.376C104.25 179.443 106.934 180.962 109.004 183.197C111.742 186.158 111.649 188.481 113.154 191.417C114.557 194.144 117.441 197.587 124.037 200.314C126.92 209.089 125.995 212.333 124.514 213.628C123.667 214.363 121.971 215.055 121.591 216.754C121.338 217.889 121.908 218.429 122.069 219.881C122.283 221.809 121.504 222.914 120.641 225.179C119.409 228.412 119.112 231.135 118.941 232.717C118.635 235.542 118.381 237.83 119.419 240.392C120.5 243.07 122.439 244.692 123.569 245.486C123.818 244.541 124.197 243.202 124.728 241.614C125.824 238.312 126.375 236.662 127.179 235.366C128.888 232.6 132.42 229.508 136.634 228.369C138.261 227.93 140.199 227.726 140.716 226.401C141.154 225.271 140.199 224.234 140.716 223.548C141.403 222.632 143.77 223.548 145.071 223.752C147.535 224.132 151.228 222.705 156.703 215.06C156.518 213.91 156.674 213.044 156.908 212.411C158.121 209.128 163.177 207.234 169.49 207.794C171.916 204.263 174.342 200.728 176.768 197.198C177.177 195.181 177.586 193.165 177.99 191.154C181.049 188.666 184.113 186.173 187.173 183.684C186.924 181.668 186.676 179.652 186.422 177.641C186.306 177.704 184.362 178.707 182.545 177.641C181.351 176.944 180.947 175.79 180.845 175.469C179.384 174.675 177.503 173.94 176.285 174.724C175.311 175.347 175.253 176.628 174.585 176.691C174.132 176.74 173.421 176.219 172.34 173.502C170.912 172.888 169.485 172.279 168.053 171.671C167.439 172.304 166.83 172.937 166.217 173.57C165.739 173.278 165.267 172.981 164.789 172.688C165.423 172.055 166.061 171.422 166.694 170.789L164.858 169.158C163.927 170.088 162.997 171.013 162.071 171.943C161.55 171.651 161.029 171.354 160.508 171.062C161.662 169.995 162.821 168.934 163.976 167.872C163.703 166.942 163.43 166.017 163.162 165.087C162.831 164.273 162.271 163.183 161.326 162.097C159.665 160.188 157.726 159.336 156.703 158.97C154.618 159.107 152.533 159.243 150.444 159.379C147.677 156.526 144.91 153.677 142.143 150.823C139.922 151.413 137.7 152.002 135.479 152.591C134.466 152.489 132.332 152.119 130.447 150.482C129.79 149.913 129.303 149.314 128.952 148.783C128.362 148.51 127.773 148.238 127.184 147.97C126.209 148.919 125.235 149.869 124.261 150.823V152.723C123.657 153.672 123.204 154.101 122.902 154.013C122.449 153.882 122.337 152.591 122.561 150.142C123.014 149.689 123.467 149.236 123.92 148.783C124.032 148.306 124.149 147.833 124.261 147.356C123.832 147.195 123.399 147.04 122.97 146.879C121.177 147.979 119.248 149.28 117.256 150.818C115.035 152.528 113.115 154.237 111.474 155.844L111.449 155.825Z" fill="black" stroke="black" stroke-width="0.75" stroke-miterlimit="10"/>
<path d="M84.4482 111.112C83.1184 111.059 82.2952 111.755 80.1859 112.724C79.2068 113.172 77.7942 113.756 75.9869 114.268C76.1331 115.037 76.2792 115.806 76.4205 116.576C76.6056 116.844 76.7907 117.116 76.9758 117.384C76.8345 118.723 76.6884 120.063 76.5471 121.402C76.1185 121.475 75.6898 121.548 75.2562 121.621C75.3585 122.502 75.5436 123.803 75.909 125.351C77.0245 130.084 78.0134 134.272 81.053 135.349C83.3668 136.167 86.1678 134.93 87.8289 133.298C89.7384 131.419 90.0258 129.115 90.0842 128.448C91.9645 128.585 93.8497 128.721 95.73 128.857C94.483 132.68 93.2359 136.498 91.9889 140.321C93.7474 140.111 95.8956 140.033 98.3117 140.316C99.3688 140.437 100.348 140.618 101.239 140.827C101.439 144.474 101.639 148.117 101.843 151.764C105.701 152.397 109.559 153.035 113.422 153.668L112.828 155.305C111.581 155.071 110.329 154.837 109.082 154.599C108.458 155.397 107.83 156.201 107.207 156.999C103.626 154.954 100.046 152.914 96.4655 150.868C95.5595 149.11 94.6583 147.352 93.7523 145.599C92.5491 145.521 91.3508 145.448 90.1476 145.37C89.7774 144.582 89.4071 143.793 89.0321 143.004C87.6973 143.043 86.3577 143.082 85.023 143.121C83.9173 141.572 82.8115 140.019 81.7057 138.47C80.3564 139.322 79.0071 140.179 77.6578 141.032C72.3871 137.764 67.1116 134.492 61.8409 131.224C62.1429 130.021 62.4498 128.813 62.7518 127.611C59.2689 122.122 55.7811 116.634 52.2982 111.146C52.0741 109.607 51.8549 108.069 51.6308 106.53C50.6956 106.062 49.7603 105.6 48.8299 105.137C48.5717 106.52 48.3184 107.908 48.0602 109.291C50.6761 114.087 53.2919 118.879 55.9078 123.676C55.7568 124.197 55.6009 124.723 55.4499 125.244C52.9655 121.918 50.4812 118.597 47.992 115.271C47.5195 113.396 47.0421 111.521 46.5696 109.646C46.2189 106.91 45.8731 104.173 45.5223 101.436C43.9928 100.525 42.4632 99.6147 40.9385 98.7041C40.7096 94.4723 40.4757 90.2357 40.2468 86.0039C41.9907 81.8403 43.7297 77.6719 45.4736 73.5083C45.6246 72.7096 45.7854 71.2731 45.3616 69.5687C44.8696 67.5916 43.8369 66.2768 43.2767 65.6486C43.7979 65.6193 44.3191 65.5901 44.8404 65.5609C45.5223 65.9846 46.4771 66.6858 47.3831 67.7718C48.1918 68.7506 48.6837 69.705 48.976 70.4063C48.6204 69.0281 48.2648 67.65 47.9092 66.2719C47.1737 65.4635 46.443 64.66 45.7074 63.8516C45.6392 61.7674 45.571 59.6832 45.498 57.6038C45.9559 56.1478 46.4138 54.6917 46.8765 53.2357C46.7888 51.356 46.6963 49.4763 46.6086 47.5966C45.5516 46.1795 44.4896 44.7673 43.4326 43.3502C42.4437 43.9735 41.4549 44.5968 40.4611 45.2202C39.6671 45.1617 38.8731 45.1033 38.0791 45.0449C38.5078 44.4459 38.9559 43.8518 39.4187 43.2625C46.5696 34.1318 55.8444 28.2006 65.2361 24.3438C65.5138 24.3827 67.019 24.6018 67.9738 25.9459C68.5534 26.7591 68.6557 27.587 68.6752 27.9765C69.9369 27.6016 71.2034 27.2217 72.4699 26.8468C73.8046 26.4913 75.1345 26.1358 76.4692 25.7803C78.1595 27.8353 80.5659 30.0851 83.8783 31.6775C84.3362 31.9015 84.7941 32.0963 85.2471 32.2716C86.4162 31.6921 87.5902 31.1126 88.7593 30.5331C90.435 31.5266 91.8866 31.8187 92.7878 31.9161C93.7523 32.0233 94.6047 31.96 95.6423 31.882C96.1684 31.8431 97.1378 31.7554 98.3556 31.512C99.9387 31.1954 100.733 31.0347 101.064 30.5964C101.941 29.4423 100.63 27.1877 100.479 26.9344C101.424 26.4231 102.369 25.9167 103.314 25.4053C103.534 26.6276 103.748 27.8451 103.967 29.0674L105.809 29.4521C105.925 29.8563 106.042 30.2653 106.164 30.6695C105.823 32.4421 105.482 34.2098 105.136 35.9823C103.957 35.8606 102.779 35.7389 101.595 35.6171C102.53 36.1479 103.465 36.6836 104.401 37.2144C101.074 39.6784 97.7515 42.1376 94.4245 44.6017C93.7377 45.8337 93.0459 47.0658 92.3591 48.2978C93.0605 50.3041 93.7669 52.3153 94.4683 54.3216C97.9513 55.6413 101.434 56.961 104.912 58.2807C105.619 58.568 106.325 58.8553 107.031 59.1378C106.982 60.8811 106.939 62.6293 106.89 64.3727C107.781 65.2006 108.678 66.0284 109.569 66.8562C110.631 66.5495 111.693 66.2427 112.755 65.9359C112.77 63.1066 112.779 60.2724 112.794 57.4382C113.856 57.336 114.923 57.2337 115.985 57.1315C115.736 55.0716 115.483 53.0166 115.234 50.9567C114.937 51.0005 114.596 51.0346 114.216 51.0346C113.914 51.0346 113.573 51.0248 113.193 50.9762C113.339 50.0022 113.49 49.0234 113.637 48.0495C114.382 47.9959 115.132 47.9423 115.877 47.8888C115.527 46.8077 115.171 45.7217 114.82 44.6407C113.778 44.5628 112.735 44.4848 111.693 44.4069C111.639 43.8664 111.591 43.321 111.537 42.7756C114.981 42.8486 118.425 42.9217 121.874 42.9947C122.76 43.7544 123.652 44.5384 124.553 45.3419C125.23 45.9506 125.893 46.5545 126.545 47.1534C126.906 48.7556 127.261 50.3626 127.622 51.9647C128.504 51.9111 129.39 51.8527 130.272 51.7991C130.91 50.3626 131.553 48.9309 132.191 47.4943C134.388 49.6224 136.59 51.7456 138.792 53.8736C138.504 54.4872 138.217 55.1057 137.929 55.7192C139.931 56.4205 141.933 57.1217 143.936 57.823C142.791 58.6752 141.646 59.5274 140.496 60.3795C140.867 60.8519 141.232 61.3243 141.602 61.7918C142.659 61.0564 143.716 60.3162 144.773 59.5809C145.796 60.0922 146.824 60.5987 147.852 61.11C147.818 62.0839 147.784 63.0579 147.75 64.0318C146.673 63.7007 145.572 63.9101 144.9 64.6064C144.51 65.0058 144.364 65.4733 144.301 65.7703C143.741 66.4131 143.181 67.051 142.625 67.6938C138.865 67.874 135.109 68.0542 131.348 68.2295C128.771 70.5718 126.19 72.9093 123.613 75.2516C124.046 75.5389 124.48 75.8311 124.913 76.1184C127.067 74.1705 129.22 72.2178 131.373 70.265C132.483 70.2504 133.594 70.2407 134.705 70.2261L135.737 71.4386C135.43 72.3688 135.124 73.3037 134.817 74.2338C135.206 74.638 135.596 75.0422 135.986 75.4415C136.741 76.0015 137.496 76.5567 138.246 77.1167C139.059 76.9706 139.873 76.8245 140.686 76.6784C141.164 76.1038 141.7 75.5 142.299 74.8913C142.708 74.4725 143.112 74.0829 143.507 73.7225C143.765 74.3556 144.018 74.9838 144.277 75.6168C143.809 76.4155 143.341 77.2141 142.879 78.0127C137.462 81.6358 133.857 81.8208 131.494 81.2024C130.34 80.9005 128.986 80.2723 127.753 80.9053C126.058 81.777 125.683 84.47 125.644 86.7052C124.84 86.6078 123.452 86.5688 121.981 87.2213C118.425 88.804 117.753 92.953 117.704 93.3182C116.939 93.6883 116.17 94.0584 115.405 94.4334C115.877 96.0355 116.35 97.6376 116.822 99.2446C113.792 101.66 110.763 104.071 107.728 106.486C108.01 111.195 108.288 115.904 108.571 120.613C107.893 120.871 107.216 121.124 106.539 121.382C104.566 117.37 102.594 113.362 100.621 109.354C100.104 109.924 99.5929 110.499 99.0765 111.068C95.1454 108.989 91.8427 108.629 90.8393 109.939C90.6249 110.221 90.357 110.781 90.5908 111.911C89.641 112.193 88.6959 112.476 87.7461 112.758C87.0056 112.018 85.8804 111.156 84.4628 111.097L84.4482 111.112Z" fill="black" stroke="black" stroke-width="0.75" stroke-miterlimit="10"/>
<path d="M142.123 31.6537C142.869 30.86 143.619 30.0711 144.364 29.2773C143.731 28.4641 143.098 27.646 142.459 26.8327C141.846 27.4463 141.237 28.055 140.623 28.6637C139.941 28.2352 139.264 27.8018 138.582 27.3733C139.668 26.6915 140.759 26.0146 141.846 25.3377C140.983 24.9287 140.126 24.5245 139.264 24.1154C138.494 24.1593 137.725 24.208 136.955 24.2518C136.546 23.4824 136.141 22.713 135.732 21.9436C133.604 19.9957 131.475 18.0527 129.341 16.1048C127.437 16.3337 125.537 16.5577 123.632 16.7865C123.403 16.3337 123.179 15.8808 122.95 15.4279C123.632 15.1357 124.309 14.8387 124.991 14.5465C123.769 14.5708 122.546 14.5903 121.323 14.6146C121.732 14.0498 122.137 13.4849 122.546 12.92C123.091 12.3746 123.632 11.834 124.178 11.2886C124.767 10.2904 125.357 9.29693 125.946 8.29865C127.261 8.2743 128.576 8.25482 129.887 8.23047C130.452 8.88788 131.022 9.54529 131.587 10.1978C133.492 10.3196 135.494 10.5582 137.569 10.9429C149.571 13.1781 158.427 19.3723 163.942 24.2518C163.216 24.8849 162.49 25.5179 161.764 26.151C163.055 26.263 164.346 26.3798 165.637 26.4919C165.681 27.2369 165.729 27.9868 165.773 28.7319C165.281 28.615 164.77 28.8001 164.482 29.2091C164.214 29.5841 164.19 30.0906 164.414 30.4996C163.508 30.7918 162.602 31.0889 161.696 31.381C161.788 31.9459 161.876 32.5108 161.969 33.0757C161.063 33.2559 160.157 33.436 159.251 33.6211C159.431 33.962 159.611 34.3029 159.796 34.6389C159.343 34.819 158.89 34.9992 158.437 35.1843C158.53 36.0657 158.617 36.9471 158.71 37.8334C159.07 38.2424 159.436 38.6466 159.796 39.0557C159.455 39.5767 159.114 40.0978 158.778 40.6189C159.026 41.1837 159.275 41.7486 159.523 42.3135C159.752 43.0829 159.976 43.8523 160.205 44.6217C160.181 45.5275 160.161 46.4333 160.137 47.339C157.867 46.7644 153.541 45.3425 149.328 41.7048C145.041 37.9941 143.005 33.8305 142.123 31.6537Z" fill="black" stroke="black" stroke-width="0.75" stroke-miterlimit="10"/>
<path d="M97.6444 128.09C98.8378 128.221 100.553 128.245 102.472 127.685C103.134 127.491 103.724 127.252 104.24 127.008C105.122 127.642 106.008 128.27 106.89 128.903C108.069 129.487 109.248 130.076 110.426 130.661C111.829 130.909 113.237 131.157 114.64 131.406C115.59 131.045 116.545 130.685 117.495 130.325C116.9 129.794 115.97 129.049 114.708 128.367C113.111 127.495 111.951 127.252 110.017 126.609C108.843 126.22 107.177 125.616 105.19 124.715H96.7627C97.055 125.84 97.3521 126.97 97.6444 128.094V128.09Z" fill="black" stroke="black" stroke-width="0.75" stroke-miterlimit="10"/>
<path d="M113.004 137.178C113.569 136.598 114.134 136.024 114.699 135.444C114.494 135.084 114.134 134.568 113.544 134.124C112.322 133.209 110.982 133.258 110.563 133.292C110.383 134.008 110.203 134.723 110.022 135.439C111.016 136.019 112.01 136.593 113.004 137.173V137.178Z" fill="black" stroke="black" stroke-width="0.75" stroke-miterlimit="10"/>
<path d="M121.061 136.326C122.035 136.394 123.009 136.462 123.984 136.531C124.412 136.258 124.846 135.985 125.275 135.713C127.744 135.825 130.209 135.941 132.679 136.053C134.715 135.781 136.147 135.25 136.142 134.753C136.142 134.276 134.798 133.794 133.015 133.526C131.295 133.619 129.571 133.706 127.851 133.799C127.286 133.39 126.268 132.766 124.861 132.503C122.737 132.099 121.037 132.752 120.374 133.049C120.282 133.351 120.165 133.857 120.238 134.485C120.35 135.44 120.837 136.078 121.051 136.331L121.061 136.326Z" fill="black" stroke="black" stroke-width="0.75" stroke-miterlimit="10"/>
<path d="M111.849 154.473C112.287 163.414 110.519 166.491 108.722 167.582C107.981 168.03 104.571 169.754 104.571 169.759C104.571 169.759 104.547 170.149 106.749 172.204C107.382 173.226 108.03 174.599 107.499 175.53C106.909 176.562 105.336 176.255 105.049 177.025C104.649 178.091 107.333 179.61 109.404 181.846C112.141 184.806 112.049 187.129 113.554 190.066C114.957 192.793 117.84 196.236 124.436 198.963C127.32 207.738 126.394 210.981 124.914 212.276C124.066 213.012 122.371 213.703 121.991 215.403C121.737 216.537 122.307 217.078 122.468 218.529C122.682 220.457 121.903 221.563 121.041 223.827C119.808 227.061 119.511 229.783 119.341 231.366C119.034 234.19 118.781 236.479 119.818 239.04C120.9 241.719 122.838 243.34 123.968 244.134C124.217 243.189 124.597 241.85 125.128 240.263C126.224 236.961 126.774 235.31 127.578 234.015C129.288 231.249 132.82 228.156 137.033 227.017C138.66 226.579 140.599 226.374 141.115 225.05C141.554 223.92 140.599 222.883 141.115 222.196C141.802 221.28 144.169 222.196 145.47 222.4C147.935 222.78 151.627 221.353 157.103 213.708C156.917 212.559 157.073 211.692 157.307 211.059C158.52 207.777 163.576 205.882 169.889 206.442C172.315 202.912 174.741 199.377 177.167 195.846C177.576 193.83 177.985 191.814 178.39 189.803C181.449 187.314 184.513 184.821 187.572 182.333C187.324 180.317 187.075 178.3 186.822 176.289C186.705 176.353 184.761 177.356 182.944 176.289C181.751 175.593 181.347 174.439 181.244 174.117C179.783 173.324 177.903 172.588 176.685 173.372C175.711 173.996 175.652 175.276 174.985 175.34C174.532 175.388 173.821 174.867 172.739 172.15C171.312 171.536 169.885 170.928 168.452 170.319C167.839 170.952 167.23 171.585 166.616 172.218C166.139 171.926 165.666 171.629 165.189 171.337C165.822 170.704 166.46 170.071 167.093 169.438L165.257 167.806C164.327 168.736 163.396 169.662 162.471 170.592C161.949 170.3 161.428 170.002 160.907 169.71C162.061 168.644 163.221 167.582 164.375 166.521C164.102 165.591 163.83 164.665 163.562 163.735C163.231 162.922 162.67 161.831 161.725 160.745C160.064 158.836 158.125 157.984 157.103 157.619C155.018 157.755 152.933 157.892 150.843 158.028C148.076 155.174 145.309 152.325 142.542 149.472C140.321 150.061 138.1 150.65 135.879 151.24C134.865 151.137 132.732 150.767 130.847 149.131C130.189 148.561 129.702 147.962 129.351 147.431C128.762 147.159 128.172 146.886 127.583 146.618C126.609 147.568 125.634 148.517 124.66 149.472V151.371C124.056 152.321 123.603 152.749 123.301 152.661C122.848 152.53 122.736 151.24 122.96 148.79C123.413 148.337 123.866 147.884 124.319 147.431C124.431 146.954 124.548 146.482 124.66 146.005C124.232 145.844 123.798 145.688 123.369 145.527C121.577 146.628 119.648 147.928 117.655 149.467C115.434 151.176 113.515 152.885 111.873 154.492L111.849 154.473Z" fill="#5F19F2" stroke="black" stroke-width="0.75" stroke-miterlimit="10"/>
<path d="M84.8476 109.761C83.5178 109.707 82.6946 110.403 80.5853 111.372C79.6062 111.82 78.1936 112.405 76.3863 112.916C76.5325 113.686 76.6786 114.455 76.8199 115.224C77.005 115.492 77.1901 115.765 77.3752 116.033C77.2339 117.372 77.0878 118.711 76.9465 120.05C76.5179 120.123 76.0892 120.196 75.6557 120.269C75.758 121.151 75.9431 122.451 76.3084 124C77.4239 128.733 78.4128 132.921 81.4524 133.997C83.7662 134.815 86.5672 133.578 88.2283 131.947C90.1378 130.067 90.4252 127.764 90.4837 127.097C92.3639 127.233 94.2491 127.369 96.1294 127.506C94.8824 131.328 93.6353 135.146 92.3883 138.969C94.1468 138.76 96.295 138.682 98.7111 138.964C99.7682 139.086 100.747 139.266 101.639 139.475C101.838 143.123 102.038 146.765 102.243 150.413C106.101 151.046 109.959 151.684 113.822 152.317L113.227 153.953C111.98 153.719 110.728 153.486 109.481 153.247C108.858 154.046 108.23 154.849 107.606 155.648C104.026 153.602 100.445 151.562 96.8649 149.517C95.9589 147.759 95.0577 146.001 94.1517 144.248C92.9485 144.17 91.7502 144.097 90.547 144.019C90.1768 143.23 89.8065 142.441 89.4315 141.652C88.0968 141.691 86.7572 141.73 85.4225 141.769C84.3167 140.221 83.2109 138.667 82.1052 137.119C80.7558 137.971 79.4065 138.828 78.0572 139.68C72.7865 136.412 67.511 133.14 62.2403 129.872C62.5423 128.67 62.8492 127.462 63.1512 126.259C59.6683 120.771 56.1805 115.283 52.6976 109.795C52.4735 108.256 52.2543 106.717 52.0302 105.178C51.095 104.711 50.1597 104.248 49.2293 103.785C48.9711 105.168 48.7178 106.556 48.4596 107.939C51.0755 112.736 53.6913 117.528 56.3072 122.324C56.1562 122.845 56.0003 123.371 55.8493 123.892C53.365 120.566 50.8806 117.245 48.3914 113.919C47.9189 112.044 47.4416 110.17 46.9691 108.295C46.6183 105.558 46.2725 102.821 45.9217 100.084C44.3922 99.1738 42.8626 98.2632 41.3379 97.3525C41.109 93.1208 40.8752 88.8841 40.6462 84.6524C42.3901 80.4888 44.1291 76.3203 45.873 72.1567C46.024 71.3581 46.1848 69.9215 45.761 68.2171C45.269 66.24 44.2363 64.9252 43.6761 64.297C44.1973 64.2678 44.7185 64.2386 45.2398 64.2094C45.9217 64.633 46.8765 65.3343 47.7825 66.4202C48.5912 67.399 49.0832 68.3535 49.3754 69.0547C49.0198 67.6766 48.6642 66.2985 48.3086 64.9203C47.5731 64.112 46.8424 63.3085 46.1068 62.5001C46.0386 60.4158 45.9705 58.3316 45.8974 56.2523C46.3553 54.7962 46.8132 53.3402 47.2759 51.8841C47.1883 50.0044 47.0957 48.1247 47.008 46.245C45.951 44.8279 44.889 43.4157 43.832 41.9986C42.8431 42.622 41.8543 43.2453 40.8605 43.8686C40.0665 43.8102 39.2725 43.7517 38.4785 43.6933C38.9072 43.0943 39.3553 42.5002 39.8181 41.911C46.9691 32.7803 56.2439 26.849 65.6356 22.9922C65.9132 23.0311 67.4184 23.2503 68.3732 24.5943C68.9529 25.4076 69.0552 26.2354 69.0746 26.625C70.3363 26.25 71.6028 25.8702 72.8693 25.4952C74.204 25.1397 75.5339 24.7842 76.8686 24.4288C78.5589 26.4838 80.9653 28.7336 84.2777 30.326C84.7356 30.55 85.1935 30.7448 85.6465 30.9201C86.8156 30.3406 87.9896 29.7611 89.1587 29.1816C90.8344 30.175 92.286 30.4672 93.1872 30.5646C94.1517 30.6717 95.0041 30.6084 96.0417 30.5305C96.5678 30.4915 97.5372 30.4039 98.755 30.1604C100.338 29.8439 101.132 29.6832 101.463 29.2449C102.34 28.0908 101.03 25.8361 100.879 25.5829C101.824 25.0716 102.769 24.5651 103.714 24.0538C103.933 25.2761 104.147 26.4935 104.367 27.7158L106.208 28.1005C106.325 28.5047 106.442 28.9137 106.564 29.3179C106.223 31.0905 105.882 32.8582 105.536 34.6308C104.357 34.509 103.178 34.3873 101.994 34.2655C102.93 34.7963 103.865 35.332 104.8 35.8628C101.473 38.3269 98.151 40.7861 94.8239 43.2501C94.1371 44.4822 93.4454 45.7142 92.7585 46.9463C93.46 48.9526 94.1663 50.9638 94.8677 52.9701C98.3507 54.2898 101.834 55.6095 105.312 56.9291C106.018 57.2165 106.724 57.5038 107.431 57.7862C107.382 59.5296 107.338 61.2778 107.289 63.0211C108.181 63.849 109.077 64.6768 109.969 65.5047C111.03 65.1979 112.092 64.8911 113.154 64.5843C113.169 61.755 113.179 58.9209 113.193 56.0867C114.255 55.9844 115.322 55.8822 116.384 55.7799C116.135 53.72 115.882 51.665 115.634 49.6051C115.337 49.6489 114.996 49.683 114.616 49.683C114.314 49.683 113.973 49.6733 113.593 49.6246C113.739 48.6507 113.89 47.6718 114.036 46.6979C114.781 46.6443 115.531 46.5908 116.277 46.5372C115.926 45.4561 115.57 44.3702 115.22 43.2891C114.177 43.2112 113.135 43.1333 112.092 43.0554C112.039 42.5148 111.99 41.9694 111.936 41.424C115.38 41.4971 118.824 41.5701 122.273 41.6432C123.16 42.4028 124.051 43.1868 124.952 43.9903C125.629 44.5991 126.292 45.2029 126.945 45.8019C127.305 47.404 127.661 49.011 128.021 50.6131C128.903 50.5596 129.79 50.5011 130.671 50.4476C131.309 49.011 131.952 47.5793 132.59 46.1428C134.787 48.2708 136.989 50.394 139.191 52.5221C138.904 53.1356 138.616 53.7541 138.329 54.3677C140.331 55.0689 142.333 55.7702 144.335 56.4714C143.19 57.3236 142.046 58.1758 140.896 59.028C141.266 59.5003 141.631 59.9727 142.002 60.4402C143.059 59.7049 144.116 58.9647 145.173 58.2294C146.196 58.7407 147.224 59.2471 148.251 59.7584C148.217 60.7324 148.183 61.7063 148.149 62.6803C147.073 62.3491 145.972 62.5585 145.299 63.2549C144.91 63.6542 144.764 64.1217 144.7 64.4187C144.14 65.0615 143.58 65.6995 143.025 66.3423C139.264 66.5225 135.508 66.7026 131.748 66.8779C129.171 69.2203 126.589 71.5577 124.012 73.9001C124.446 74.1874 124.879 74.4796 125.313 74.7669C127.466 72.819 129.619 70.8662 131.772 68.9135C132.883 68.8989 133.993 68.8891 135.104 68.8745L136.137 70.0871C135.83 71.0172 135.523 71.9522 135.216 72.8823C135.606 73.2865 135.995 73.6907 136.385 74.09C137.14 74.65 137.895 75.2051 138.645 75.7652C139.459 75.6191 140.272 75.473 141.086 75.3269C141.563 74.7523 142.099 74.1484 142.698 73.5397C143.107 73.1209 143.512 72.7313 143.906 72.371C144.164 73.004 144.418 73.6322 144.676 74.2653C144.208 75.0639 143.741 75.8625 143.278 76.6612C137.861 80.2842 134.256 80.4693 131.894 79.8508C130.739 79.5489 129.385 78.9207 128.153 79.5538C126.458 80.4255 126.083 83.1184 126.044 85.3536C125.24 85.2562 123.851 85.2172 122.38 85.8698C118.824 87.4524 118.152 91.6014 118.103 91.9667C117.339 92.3368 116.569 92.7068 115.804 93.0818C116.277 94.6839 116.749 96.2861 117.222 97.8931C114.192 100.308 111.162 102.719 108.127 105.134C108.41 109.843 108.687 114.552 108.97 119.261C108.293 119.519 107.616 119.773 106.939 120.031C104.966 116.018 102.993 112.01 101.02 108.003C100.504 108.572 99.9923 109.147 99.4759 109.717C95.5448 107.637 92.2422 107.277 91.2387 108.587C91.0244 108.869 90.7564 109.429 90.9903 110.559C90.0404 110.842 89.0954 111.124 88.1455 111.407C87.405 110.666 86.2798 109.804 84.8623 109.746L84.8476 109.761Z" fill="#5F19F2" stroke="black" stroke-width="0.75" stroke-miterlimit="10"/>
<path d="M142.528 30.3022C143.273 29.5084 144.023 28.7195 144.768 27.9258C144.135 27.1125 143.502 26.2944 142.864 25.4812C142.25 26.0948 141.641 26.7035 141.027 27.3122C140.345 26.8836 139.668 26.4502 138.986 26.0217C140.073 25.3399 141.164 24.6631 142.25 23.9862C141.388 23.5771 140.53 23.1729 139.668 22.7639C138.899 22.8077 138.129 22.8564 137.359 22.9002C136.95 22.1308 136.546 21.3614 136.137 20.592C134.008 18.6441 131.879 16.7011 129.746 14.7532C127.841 14.9821 125.941 15.2061 124.036 15.435C123.808 14.9821 123.583 14.5292 123.355 14.0763C124.036 13.7841 124.714 13.4871 125.396 13.1949C124.173 13.2193 122.95 13.2387 121.728 13.2631C122.137 12.6982 122.541 12.1333 122.95 11.5684C123.496 11.023 124.036 10.4825 124.582 9.93708C125.171 8.93879 125.761 7.94537 126.35 6.94708C127.666 6.92273 128.981 6.90325 130.291 6.87891C130.856 7.53632 131.426 8.19373 131.991 8.84627C133.896 8.96801 135.898 9.20662 137.973 9.59133C149.976 11.8265 158.832 18.0208 164.346 22.9002C163.62 23.5333 162.894 24.1663 162.168 24.7994C163.459 24.9114 164.75 25.0283 166.041 25.1403C166.085 25.8854 166.134 26.6353 166.177 27.3804C165.685 27.2635 165.174 27.4485 164.887 27.8576C164.619 28.2326 164.594 28.739 164.818 29.1481C163.912 29.4402 163.006 29.7373 162.1 30.0295C162.193 30.5944 162.28 31.1592 162.373 31.7241C161.467 31.9043 160.561 32.0845 159.655 32.2695C159.835 32.6104 160.015 32.9513 160.2 33.2873C159.747 33.4675 159.294 33.6477 158.841 33.8327C158.934 34.7141 159.022 35.5955 159.114 36.4818C159.475 36.8909 159.84 37.2951 160.2 37.7041C159.859 38.2252 159.518 38.7462 159.182 39.2673C159.431 39.8322 159.679 40.3971 159.928 40.962C160.157 41.7314 160.381 42.5008 160.61 43.2702C160.585 44.176 160.566 45.0817 160.541 45.9875C158.271 45.4129 153.946 43.9909 149.732 40.3532C145.445 36.6425 143.409 32.4789 142.528 30.3022Z" fill="#5F19F2" stroke="black" stroke-width="0.75" stroke-miterlimit="10"/>
<path d="M98.0438 126.738C99.2373 126.869 100.952 126.894 102.871 126.334C103.534 126.139 104.123 125.9 104.639 125.657C105.521 126.29 106.408 126.918 107.289 127.551C108.468 128.136 109.647 128.725 110.826 129.309C112.229 129.558 113.637 129.806 115.039 130.054C115.989 129.694 116.944 129.334 117.894 128.973C117.3 128.442 116.369 127.697 115.108 127.016C113.51 126.144 112.351 125.9 110.417 125.258C109.243 124.868 107.577 124.264 105.589 123.363H97.1621C97.4544 124.488 97.7515 125.618 98.0438 126.743V126.738Z" fill="#5F19F2" stroke="black" stroke-width="0.75" stroke-miterlimit="10"/>
<path d="M113.403 135.826C113.968 135.247 114.533 134.672 115.098 134.093C114.894 133.732 114.533 133.216 113.944 132.773C112.721 131.857 111.382 131.906 110.963 131.94C110.782 132.656 110.602 133.372 110.422 134.088C111.416 134.667 112.409 135.242 113.403 135.821V135.826Z" fill="#5F19F2" stroke="black" stroke-width="0.75" stroke-miterlimit="10"/>
<path d="M121.459 134.975C122.434 135.043 123.408 135.111 124.382 135.179C124.811 134.906 125.244 134.634 125.673 134.361C128.143 134.473 130.608 134.59 133.077 134.702C135.113 134.429 136.546 133.898 136.541 133.402C136.541 132.924 135.196 132.442 133.413 132.174C131.694 132.267 129.969 132.355 128.25 132.447C127.685 132.038 126.667 131.415 125.259 131.152C123.135 130.748 121.435 131.4 120.773 131.697C120.68 131.999 120.563 132.506 120.636 133.134C120.748 134.088 121.235 134.726 121.45 134.979L121.459 134.975Z" fill="#5F19F2" stroke="black" stroke-width="0.75" stroke-miterlimit="10"/>
</svg>
