<svg width="81" height="80" viewBox="0 0 81 80" fill="none" xmlns="http://www.w3.org/2000/svg">
<path d="M27.2616 77.5527V2.2616C11.8309 7.71555 0.656982 22.4811 0.656982 39.9072C0.656982 57.3332 11.8309 72.0988 27.2616 77.5527Z" fill="#ED4C5C"/>
<path d="M27.2592 39.907H80.4685C80.4685 17.8251 62.6434 0 40.5615 0C35.9057 0 31.3829 0.798139 27.2592 2.26139V39.907Z" fill="#FFCE31"/>
<path d="M27.2592 39.9066V77.5522C31.3829 79.0154 35.9057 79.8136 40.5615 79.8136C62.6434 79.8136 80.4685 61.9885 80.4685 39.9066H27.2592Z" fill="#699635"/>
<path d="M15.2923 44.8285L21.0123 49.2182L18.8839 42.168L24.6039 37.5122H17.5537L15.2923 30.595L13.1639 37.5122H5.98068L11.7007 42.168L9.57231 49.2182L15.2923 44.8285Z" fill="#3E4347"/>
</svg>
