<svg width="22" height="22" viewBox="0 0 22 22" fill="none" xmlns="http://www.w3.org/2000/svg">
<path d="M10.6202 0.000232697C16.4857 0.000232697 21.2402 4.75481 21.2402 10.6202C21.2402 16.4846 16.4857 21.2402 10.6202 21.2402C4.75481 21.2402 0.000232697 16.4846 0.000232697 10.6202C0.000232697 4.75481 4.75481 0.000232697 10.6202 0.000232697ZM10.6202 15.9302C10.9019 15.9302 11.172 15.8183 11.3712 15.6192C11.5703 15.42 11.6822 15.1499 11.6822 14.8682L11.6822 9.55823C11.6822 9.27657 11.5703 9.00645 11.3712 8.80729C11.172 8.60812 10.9019 8.49623 10.6202 8.49623C10.3386 8.49623 10.0684 8.60812 9.86929 8.80729C9.67012 9.00645 9.55823 9.27657 9.55823 9.55823L9.55823 14.8682C9.55823 15.1499 9.67012 15.42 9.86929 15.6192C10.0684 15.8183 10.3386 15.9302 10.6202 15.9302ZM10.6202 5.31023C10.3386 5.31023 10.0684 5.42212 9.86929 5.62129C9.67012 5.82045 9.55823 6.09057 9.55823 6.37223C9.55823 6.65389 9.67012 6.92402 9.86929 7.12318C10.0684 7.32234 10.3386 7.43423 10.6202 7.43423C10.9019 7.43423 11.172 7.32234 11.3712 7.12318C11.5703 6.92402 11.6822 6.65389 11.6822 6.37223C11.6822 6.09057 11.5703 5.82045 11.3712 5.62129C11.172 5.42212 10.9019 5.31023 10.6202 5.31023Z" fill="black"/>
</svg>
