<svg width="44" height="40" viewBox="0 0 44 40" fill="none" xmlns="http://www.w3.org/2000/svg">
<path d="M21.9722 0C19.3317 0 16.9823 1.67283 16.1091 4.18208H3.26018V8.36415H7.31446L1.18107 23.0014C0.203887 27.1835 3.26018 29.2745 8.45797 29.2745C13.6558 29.2745 16.8992 27.1835 15.7349 23.0014L9.60148 8.36415H16.0883C16.7744 10.1415 18.1259 11.5007 19.8931 12.1908V35.5476H1.18107V39.7297H42.7633V35.5476H24.0513V12.1698C25.8186 11.5007 27.17 10.1415 27.8353 8.36415H34.3429L28.2096 23.0014C27.2324 27.1835 30.2887 29.2745 35.4865 29.2745C40.6842 29.2745 43.9277 27.1835 42.7633 23.0014L36.63 8.36415H40.6842V4.18208H27.8561C26.9621 1.67283 24.6127 0 21.9722 0ZM21.9722 4.18208C22.5236 4.18208 23.0525 4.40238 23.4424 4.79453C23.8323 5.18667 24.0513 5.71854 24.0513 6.27311C24.0513 6.82769 23.8323 7.35956 23.4424 7.7517C23.0525 8.14385 22.5236 8.36415 21.9722 8.36415C21.4208 8.36415 20.892 8.14385 20.5021 7.7517C20.1121 7.35956 19.8931 6.82769 19.8931 6.27311C19.8931 5.71854 20.1121 5.18667 20.5021 4.79453C20.892 4.40238 21.4208 4.18208 21.9722 4.18208ZM8.45797 15.16L11.5766 23.0014H5.3393L8.45797 15.16ZM35.4865 15.16L38.6051 23.0014H32.3678L35.4865 15.16Z" fill="#5F19F2"/>
<path d="M21.9722 0C19.3317 0 16.9823 1.67283 16.1091 4.18208H3.26018V8.36415H7.31446L1.18107 23.0014C0.203887 27.1835 3.26018 29.2745 8.45797 29.2745C13.6558 29.2745 16.8992 27.1835 15.7349 23.0014L9.60148 8.36415H16.0883C16.7744 10.1415 18.1259 11.5007 19.8931 12.1908V35.5476H1.18107V39.7297H42.7633V35.5476H24.0513V12.1698C25.8186 11.5007 27.17 10.1415 27.8353 8.36415H34.3429L28.2096 23.0014C27.2324 27.1835 30.2887 29.2745 35.4865 29.2745C40.6842 29.2745 43.9277 27.1835 42.7633 23.0014L36.63 8.36415H40.6842V4.18208H27.8561C26.9621 1.67283 24.6127 0 21.9722 0ZM21.9722 4.18208C22.5236 4.18208 23.0525 4.40238 23.4424 4.79453C23.8323 5.18667 24.0513 5.71854 24.0513 6.27311C24.0513 6.82769 23.8323 7.35956 23.4424 7.7517C23.0525 8.14385 22.5236 8.36415 21.9722 8.36415C21.4208 8.36415 20.892 8.14385 20.5021 7.7517C20.1121 7.35956 19.8931 6.82769 19.8931 6.27311C19.8931 5.71854 20.1121 5.18667 20.5021 4.79453C20.892 4.40238 21.4208 4.18208 21.9722 4.18208ZM8.45797 15.16L11.5766 23.0014H5.3393L8.45797 15.16ZM35.4865 15.16L38.6051 23.0014H32.3678L35.4865 15.16Z" fill="#5F19F2"/>
<mask id="path-3-outside-1_942_179" maskUnits="userSpaceOnUse" x="0" y="8" width="44" height="23" fill="black">
<rect fill="white" y="8" width="44" height="23"/>
<path fill-rule="evenodd" clip-rule="evenodd" d="M1.18107 23.7L7.31446 9H9.60148L15.7349 23.7C16.8992 27.9 13.6558 30 8.45797 30C3.26018 30 0.203887 27.9 1.18107 23.7ZM28.2096 23.7L34.3429 9H36.63L42.7633 23.7C43.9277 27.9 40.6842 30 35.4865 30C30.2887 30 27.2324 27.9 28.2096 23.7ZM8.5 16L12.3971 23.5H4.60289L8.5 16ZM39.3971 23.5L35.5 16L31.6029 23.5H39.3971Z"/>
</mask>
<path fill-rule="evenodd" clip-rule="evenodd" d="M1.18107 23.7L7.31446 9H9.60148L15.7349 23.7C16.8992 27.9 13.6558 30 8.45797 30C3.26018 30 0.203887 27.9 1.18107 23.7ZM28.2096 23.7L34.3429 9H36.63L42.7633 23.7C43.9277 27.9 40.6842 30 35.4865 30C30.2887 30 27.2324 27.9 28.2096 23.7ZM8.5 16L12.3971 23.5H4.60289L8.5 16ZM39.3971 23.5L35.5 16L31.6029 23.5H39.3971Z" fill="#AE8CF8"/>
<path d="M7.31446 9V8.5H6.9813L6.85301 8.80747L7.31446 9ZM1.18107 23.7L0.719625 23.5075L0.703542 23.546L0.694077 23.5867L1.18107 23.7ZM9.60148 9L10.0629 8.80747L9.93464 8.5H9.60148V9ZM15.7349 23.7L16.2167 23.5664L16.2083 23.5363L16.1963 23.5075L15.7349 23.7ZM34.3429 9V8.5H34.0098L33.8815 8.80747L34.3429 9ZM28.2096 23.7L27.7481 23.5075L27.732 23.546L27.7226 23.5867L28.2096 23.7ZM36.63 9L37.0914 8.80747L36.9631 8.5H36.63V9ZM42.7633 23.7L43.2452 23.5664L43.2368 23.5363L43.2248 23.5075L42.7633 23.7ZM12.3971 23.5V24H13.2204L12.8408 23.2695L12.3971 23.5ZM8.5 16L8.94368 15.7695L8.5 14.9156L8.05632 15.7695L8.5 16ZM4.60289 23.5L4.15921 23.2695L3.77961 24H4.60289V23.5ZM35.5 16L35.9437 15.7695L35.5 14.9156L35.0563 15.7695L35.5 16ZM39.3971 23.5V24H40.2204L39.8408 23.2695L39.3971 23.5ZM31.6029 23.5L31.1592 23.2695L30.7796 24H31.6029V23.5ZM6.85301 8.80747L0.719625 23.5075L1.64252 23.8925L7.7759 9.19253L6.85301 8.80747ZM9.60148 8.5H7.31446V9.5H9.60148V8.5ZM16.1963 23.5075L10.0629 8.80747L9.14004 9.19253L15.2734 23.8925L16.1963 23.5075ZM8.45797 30.5C11.1036 30.5 13.3497 29.9691 14.7942 28.8157C15.5253 28.2319 16.0487 27.4895 16.3013 26.5917C16.5528 25.6977 16.5265 24.6839 16.2167 23.5664L15.253 23.8336C15.5254 24.8161 15.5303 25.6398 15.3387 26.3208C15.1481 26.998 14.7541 27.5681 14.1702 28.0343C12.9846 28.9809 11.0101 29.5 8.45797 29.5V30.5ZM0.694077 23.5867C0.170528 25.8369 0.721949 27.6208 2.18851 28.813C3.61038 29.9688 5.81155 30.5 8.45797 30.5V29.5C5.9066 29.5 3.98074 28.9812 2.8193 28.037C1.70256 27.1292 1.21443 25.7631 1.66806 23.8133L0.694077 23.5867ZM33.8815 8.80747L27.7481 23.5075L28.671 23.8925L34.8044 9.19253L33.8815 8.80747ZM36.63 8.5H34.3429V9.5H36.63V8.5ZM43.2248 23.5075L37.0914 8.80747L36.1685 9.19253L42.3019 23.8925L43.2248 23.5075ZM35.4865 30.5C38.1321 30.5 40.3782 29.9691 41.8227 28.8157C42.5538 28.2319 43.0772 27.4895 43.3298 26.5917C43.5813 25.6977 43.555 24.6839 43.2452 23.5664L42.2815 23.8336C42.5539 24.8161 42.5588 25.6398 42.3671 26.3208C42.1766 26.998 41.7826 27.5681 41.1987 28.0343C40.0131 28.9809 38.0386 29.5 35.4865 29.5V30.5ZM27.7226 23.5867C27.199 25.8369 27.7504 27.6208 29.217 28.813C30.6389 29.9688 32.84 30.5 35.4865 30.5V29.5C32.9351 29.5 31.0092 28.9812 29.8478 28.037C28.731 27.1292 28.2429 25.7631 28.6965 23.8133L27.7226 23.5867ZM12.8408 23.2695L8.94368 15.7695L8.05632 16.2305L11.9534 23.7305L12.8408 23.2695ZM4.60289 24H12.3971V23H4.60289V24ZM8.05632 15.7695L4.15921 23.2695L5.04656 23.7305L8.94368 16.2305L8.05632 15.7695ZM35.0563 16.2305L38.9534 23.7305L39.8408 23.2695L35.9437 15.7695L35.0563 16.2305ZM32.0466 23.7305L35.9437 16.2305L35.0563 15.7695L31.1592 23.2695L32.0466 23.7305ZM39.3971 23H31.6029V24H39.3971V23Z" fill="#AE8CF8" mask="url(#path-3-outside-1_942_179)"/>
</svg>
