<svg width="40" height="40" viewBox="0 0 40 40" fill="" xmlns="http://www.w3.org/2000/svg">
<circle cx="19.9881" cy="19.9881" r="19.4881" stroke="white"/>
<path d="M15.657 27.9335V17.1832H12.0857V27.9335H15.657ZM13.8718 15.7145C15.1171 15.7145 15.8923 14.889 15.8923 13.8574C15.8691 12.8026 15.1172 12 13.8954 12C12.6738 12 11.875 12.8026 11.875 13.8574C11.875 14.8891 12.65 15.7145 13.8485 15.7145H13.8718ZM17.6336 27.9335H21.2049V21.93C21.2049 21.6087 21.2281 21.2878 21.3224 21.0581C21.5806 20.4161 22.1682 19.7513 23.1547 19.7513C24.447 19.7513 24.964 20.7371 24.964 22.1823V27.9334H28.535V21.7693C28.535 18.4672 26.7731 16.9308 24.4235 16.9308C22.4969 16.9308 21.651 18.0083 21.1811 18.7421H21.205V17.183H17.6337C17.6806 18.1917 17.6336 27.9335 17.6336 27.9335Z" fill="white"/>
</svg>
