<svg width="50" height="48" viewBox="0 0 50 48" fill="none" xmlns="http://www.w3.org/2000/svg">
<path fill-rule="evenodd" clip-rule="evenodd" d="M8.19762 44.8962C9.03844 46.3514 10.5915 47.2478 12.2723 47.2478H34.117C35.7977 47.2478 37.3509 46.3514 38.1916 44.8962L38.5393 44.2945L21.9678 24.7064L17.3948 30.2953L14.0437 34.3908L10.3676 30.5843L4.62132 24.634L0.0737305 30.8354L8.19762 44.8962ZM3.71581 10.1479L8.19762 2.39072C9.03844 0.935442 10.5915 0.0390625 12.2723 0.0390625H34.117C35.7977 0.0390625 37.3509 0.93544 38.1916 2.39072L49.1106 21.2892C49.9522 22.7459 49.9522 24.541 49.1106 25.9977L43.542 35.6358L25.5002 14.3096L21.8472 9.99144L18.2655 14.3689L13.4618 20.2396L7.51307 14.0798L3.71581 10.1479Z" fill="white" fill-opacity="0.48"/>
</svg>
