<svg width="148" height="28" viewBox="0 0 148 28" fill="none" xmlns="http://www.w3.org/2000/svg">
<path d="M0 27.5805V0.803995H0.0349561L14.3321 21.0787L12.1648 20.5893L26.427 0.803995H26.4969V27.5805H21.4282V12.2347L21.7428 14.8564L13.0387 27.231H12.9688L4.01998 14.8564L4.89389 12.4444V27.5805H0Z" fill="#453B58"/>
<path d="M38.775 28C37.3535 28 36.0601 27.7203 34.8949 27.161C33.753 26.5784 32.8441 25.6929 32.1683 24.5044C31.4925 23.3159 31.1545 21.8011 31.1545 19.9601C31.1545 18.2355 31.5041 16.7441 32.2032 15.4856C32.9024 14.2272 33.8229 13.2601 34.9648 12.5843C36.1067 11.8851 37.3185 11.5356 38.6002 11.5356C40.115 11.5356 41.2569 11.7919 42.026 12.3046C42.8183 12.794 43.4708 13.3417 43.9835 13.9476L43.7738 14.5418L44.2282 12.3046H48.7725V27.5805H43.8787V24.2597L44.2632 25.3084C44.2166 25.3084 44.0767 25.4482 43.8437 25.7278C43.6107 25.9842 43.2611 26.2988 42.795 26.6717C42.3522 27.0212 41.7929 27.3242 41.1171 27.5805C40.4646 27.8602 39.6839 28 38.775 28ZM40.1733 24.015C40.7559 24.015 41.2802 23.9334 41.7463 23.7703C42.2124 23.5839 42.6202 23.3275 42.9698 23.0012C43.3194 22.6517 43.6223 22.2206 43.8787 21.7079V17.9675C43.6922 17.4548 43.4126 17.0237 43.0397 16.6742C42.6668 16.3013 42.2241 16.0216 41.7114 15.8352C41.1987 15.6255 40.6277 15.5206 39.9985 15.5206C39.2994 15.5206 38.6469 15.707 38.0409 16.0799C37.4583 16.4295 36.9923 16.9189 36.6427 17.5481C36.2931 18.1773 36.1183 18.8997 36.1183 19.7154C36.1183 20.531 36.3048 21.2651 36.6776 21.9176C37.0505 22.5701 37.5399 23.0828 38.1458 23.4557C38.775 23.8285 39.4508 24.015 40.1733 24.015Z" fill="#453B58"/>
<path d="M58.2198 12.3046L58.6742 16.4994L58.5693 15.8702C59.0121 14.9613 59.618 14.1923 60.387 13.563C61.1561 12.9105 61.9135 12.4095 62.6592 12.0599C63.4282 11.7104 64.0108 11.5356 64.407 11.5356L64.1623 16.4295C63.0204 16.2896 62.0416 16.4761 61.226 16.9888C60.4104 17.5015 59.7811 18.1773 59.3384 19.0162C58.8956 19.8552 58.6742 20.7174 58.6742 21.603V27.5805H53.8153V12.3046H58.2198Z" fill="#453B58"/>
<path d="M74.0727 28C72.6512 28 71.3578 27.7203 70.1926 27.161C69.0507 26.5784 68.1418 25.6929 67.466 24.5044C66.7902 23.3159 66.4522 21.8011 66.4522 19.9601C66.4522 18.2355 66.8018 16.7441 67.5009 15.4856C68.2001 14.2272 69.1206 13.2601 70.2625 12.5843C71.4044 11.8851 72.6162 11.5356 73.8979 11.5356C75.4127 11.5356 76.5546 11.7919 77.3237 12.3046C78.116 12.794 78.7685 13.3417 79.2812 13.9476L79.0715 14.5418L79.5259 12.3046H84.0702V27.5805H79.1763V24.2597L79.5609 25.3084C79.5143 25.3084 79.3744 25.4482 79.1414 25.7278C78.9083 25.9842 78.5588 26.2988 78.0927 26.6717C77.6499 27.0212 77.0906 27.3242 76.4148 27.5805C75.7623 27.8602 74.9816 28 74.0727 28ZM75.471 24.015C76.0536 24.015 76.5779 23.9334 77.044 23.7703C77.5101 23.5839 77.9179 23.3275 78.2675 23.0012C78.617 22.6517 78.92 22.2206 79.1763 21.7079V17.9675C78.9899 17.4548 78.7103 17.0237 78.3374 16.6742C77.9645 16.3013 77.5217 16.0216 77.009 15.8352C76.4964 15.6255 75.9254 15.5206 75.2962 15.5206C74.5971 15.5206 73.9445 15.707 73.3386 16.0799C72.756 16.4295 72.2899 16.9189 71.9404 17.5481C71.5908 18.1773 71.416 18.8997 71.416 19.7154C71.416 20.531 71.6025 21.2651 71.9753 21.9176C72.3482 22.5701 72.8376 23.0828 73.4435 23.4557C74.0727 23.8285 74.7485 24.015 75.471 24.015Z" fill="#453B58"/>
<path d="M99.1454 28C97.8637 28 96.78 27.7903 95.8945 27.3708C95.0322 26.928 94.2748 26.3571 93.6223 25.6579L94.0068 24.6092V27.5805H89.1129V0H93.9719V14.9263V13.3533C94.5778 12.8406 95.3818 12.4095 96.3839 12.0599C97.3859 11.7104 98.5279 11.5356 99.8096 11.5356C101.138 11.5356 102.35 11.8502 103.445 12.4794C104.54 13.1086 105.414 14.0291 106.067 15.2409C106.743 16.4295 107.08 17.886 107.08 19.6105C107.08 21.335 106.708 22.8265 105.962 24.0849C105.239 25.3433 104.272 26.3104 103.061 26.9863C101.849 27.6621 100.544 28 99.1454 28ZM98.0618 23.8752C98.7842 23.8752 99.4484 23.6887 100.054 23.3159C100.683 22.943 101.185 22.4303 101.557 21.7778C101.93 21.1253 102.117 20.3912 102.117 19.5755C102.117 18.7599 101.93 18.0375 101.557 17.4082C101.185 16.779 100.683 16.2896 100.054 15.9401C99.4484 15.5672 98.7842 15.3808 98.0618 15.3808C97.4326 15.3808 96.8383 15.4856 96.279 15.6954C95.743 15.8818 95.2769 16.1615 94.8807 16.5343C94.5079 16.8839 94.2166 17.315 94.0068 17.8277V21.568C94.2865 22.0807 94.6127 22.5119 94.9856 22.8614C95.3818 23.1877 95.8362 23.444 96.3489 23.6305C96.8616 23.7936 97.4326 23.8752 98.0618 23.8752Z" fill="#453B58"/>
<path d="M109.738 19.7503C109.738 18.1889 110.099 16.7907 110.822 15.5556C111.567 14.3204 112.604 13.3533 113.933 12.6542C115.261 11.9318 116.788 11.5705 118.512 11.5705C120.26 11.5705 121.775 11.9318 123.056 12.6542C124.338 13.3533 125.317 14.3204 125.993 15.5556C126.692 16.7907 127.041 18.1889 127.041 19.7503C127.041 21.3117 126.692 22.7216 125.993 23.98C125.317 25.2151 124.338 26.1939 123.056 26.9164C121.775 27.6388 120.237 28 118.442 28C116.764 28 115.261 27.6737 113.933 27.0212C112.628 26.3687 111.602 25.4249 110.857 24.1898C110.111 22.9546 109.738 21.4748 109.738 19.7503ZM114.667 19.7853C114.667 20.5776 114.83 21.3 115.156 21.9526C115.482 22.5818 115.925 23.0828 116.485 23.4557C117.044 23.8285 117.673 24.015 118.372 24.015C119.141 24.015 119.805 23.8285 120.365 23.4557C120.924 23.0828 121.355 22.5818 121.658 21.9526C121.961 21.3 122.113 20.5776 122.113 19.7853C122.113 18.9696 121.961 18.2472 121.658 17.618C121.355 16.9888 120.924 16.4877 120.365 16.1149C119.805 15.742 119.141 15.5556 118.372 15.5556C117.673 15.5556 117.044 15.742 116.485 16.1149C115.925 16.4877 115.482 16.9888 115.156 17.618C114.83 18.2472 114.667 18.9696 114.667 19.7853Z" fill="#453B58"/>
<path d="M129.708 19.7503C129.708 18.1889 130.069 16.7907 130.792 15.5556C131.538 14.3204 132.575 13.3533 133.903 12.6542C135.231 11.9318 136.758 11.5705 138.482 11.5705C140.23 11.5705 141.745 11.9318 143.027 12.6542C144.308 13.3533 145.287 14.3204 145.963 15.5556C146.662 16.7907 147.012 18.1889 147.012 19.7503C147.012 21.3117 146.662 22.7216 145.963 23.98C145.287 25.2151 144.308 26.1939 143.027 26.9164C141.745 27.6388 140.207 28 138.412 28C136.734 28 135.231 27.6737 133.903 27.0212C132.598 26.3687 131.572 25.4249 130.827 24.1898C130.081 22.9546 129.708 21.4748 129.708 19.7503ZM134.637 19.7853C134.637 20.5776 134.8 21.3 135.126 21.9526C135.453 22.5818 135.895 23.0828 136.455 23.4557C137.014 23.8285 137.643 24.015 138.342 24.015C139.111 24.015 139.776 23.8285 140.335 23.4557C140.894 23.0828 141.325 22.5818 141.628 21.9526C141.931 21.3 142.083 20.5776 142.083 19.7853C142.083 18.9696 141.931 18.2472 141.628 17.618C141.325 16.9888 140.894 16.4877 140.335 16.1149C139.776 15.742 139.111 15.5556 138.342 15.5556C137.643 15.5556 137.014 15.742 136.455 16.1149C135.895 16.4877 135.453 16.9888 135.126 17.618C134.8 18.2472 134.637 18.9696 134.637 19.7853Z" fill="#453B58"/>
</svg>
