<svg width="81" height="80" viewBox="0 0 81 80" fill="none" xmlns="http://www.w3.org/2000/svg">
<path d="M0.828491 39.9072C0.828491 57.3332 12.0024 72.0988 27.4331 77.5527V2.2616C12.0024 7.71555 0.828491 22.4811 0.828491 39.9072Z" fill="#83BF4F"/>
<path d="M80.6416 39.9072C80.6416 22.4811 69.6007 7.71555 54.037 2.2616V77.5527C69.6007 72.0988 80.6416 57.3332 80.6416 39.9072Z" fill="#C94747"/>
<path d="M27.4327 77.5525C31.5565 79.0158 36.0792 79.8139 40.7351 79.8139C45.3909 79.8139 49.9137 79.0158 54.0374 77.5525V2.26139C49.9137 0.798139 45.3909 0 40.7351 0C36.0792 0 31.5565 0.798139 27.4327 2.26139V77.5525Z" fill="#FFCE31"/>
</svg>
