<svg width="275" height="62" viewBox="0 0 275 62" fill="none" xmlns="http://www.w3.org/2000/svg">
<path d="M83.275 50V15.53H83.32L101.725 41.63L98.935 41L117.295 15.53H117.385V50H110.86V30.245L111.265 33.62L100.06 49.55H99.97L88.45 33.62L89.575 30.515V50H83.275ZM133.191 50.54C131.361 50.54 129.696 50.18 128.196 49.46C126.726 48.71 125.556 47.57 124.686 46.04C123.816 44.51 123.381 42.56 123.381 40.19C123.381 37.97 123.831 36.05 124.731 34.43C125.631 32.81 126.816 31.565 128.286 30.695C129.756 29.795 131.316 29.345 132.966 29.345C134.916 29.345 136.386 29.675 137.376 30.335C138.396 30.965 139.236 31.67 139.896 32.45L139.626 33.215L140.211 30.335H146.061V50H139.761V45.725L140.256 47.075C140.196 47.075 140.016 47.255 139.716 47.615C139.416 47.945 138.966 48.35 138.366 48.83C137.796 49.28 137.076 49.67 136.206 50C135.366 50.36 134.361 50.54 133.191 50.54ZM134.991 45.41C135.741 45.41 136.416 45.305 137.016 45.095C137.616 44.855 138.141 44.525 138.591 44.105C139.041 43.655 139.431 43.1 139.761 42.44V37.625C139.521 36.965 139.161 36.41 138.681 35.96C138.201 35.48 137.631 35.12 136.971 34.88C136.311 34.61 135.576 34.475 134.766 34.475C133.866 34.475 133.026 34.715 132.246 35.195C131.496 35.645 130.896 36.275 130.446 37.085C129.996 37.895 129.771 38.825 129.771 39.875C129.771 40.925 130.011 41.87 130.491 42.71C130.971 43.55 131.601 44.21 132.381 44.69C133.191 45.17 134.061 45.41 134.991 45.41ZM158.223 30.335L158.808 35.735L158.673 34.925C159.243 33.755 160.023 32.765 161.013 31.955C162.003 31.115 162.978 30.47 163.938 30.02C164.928 29.57 165.678 29.345 166.188 29.345L165.873 35.645C164.403 35.465 163.143 35.705 162.093 36.365C161.043 37.025 160.233 37.895 159.663 38.975C159.093 40.055 158.808 41.165 158.808 42.305V50H152.553V30.335H158.223ZM178.63 50.54C176.8 50.54 175.135 50.18 173.635 49.46C172.165 48.71 170.995 47.57 170.125 46.04C169.255 44.51 168.82 42.56 168.82 40.19C168.82 37.97 169.27 36.05 170.17 34.43C171.07 32.81 172.255 31.565 173.725 30.695C175.195 29.795 176.755 29.345 178.405 29.345C180.355 29.345 181.825 29.675 182.815 30.335C183.835 30.965 184.675 31.67 185.335 32.45L185.065 33.215L185.65 30.335H191.5V50H185.2V45.725L185.695 47.075C185.635 47.075 185.455 47.255 185.155 47.615C184.855 47.945 184.405 48.35 183.805 48.83C183.235 49.28 182.515 49.67 181.645 50C180.805 50.36 179.8 50.54 178.63 50.54ZM180.43 45.41C181.18 45.41 181.855 45.305 182.455 45.095C183.055 44.855 183.58 44.525 184.03 44.105C184.48 43.655 184.87 43.1 185.2 42.44V37.625C184.96 36.965 184.6 36.41 184.12 35.96C183.64 35.48 183.07 35.12 182.41 34.88C181.75 34.61 181.015 34.475 180.205 34.475C179.305 34.475 178.465 34.715 177.685 35.195C176.935 35.645 176.335 36.275 175.885 37.085C175.435 37.895 175.21 38.825 175.21 39.875C175.21 40.925 175.45 41.87 175.93 42.71C176.41 43.55 177.04 44.21 177.82 44.69C178.63 45.17 179.5 45.41 180.43 45.41ZM210.907 50.54C209.257 50.54 207.862 50.27 206.722 49.73C205.612 49.16 204.637 48.425 203.797 47.525L204.292 46.175V50H197.992V14.495H204.247V33.71V31.685C205.027 31.025 206.062 30.47 207.352 30.02C208.642 29.57 210.112 29.345 211.762 29.345C213.472 29.345 215.032 29.75 216.442 30.56C217.852 31.37 218.977 32.555 219.817 34.115C220.687 35.645 221.122 37.52 221.122 39.74C221.122 41.96 220.642 43.88 219.682 45.5C218.752 47.12 217.507 48.365 215.947 49.235C214.387 50.105 212.707 50.54 210.907 50.54ZM209.512 45.23C210.442 45.23 211.297 44.99 212.077 44.51C212.887 44.03 213.532 43.37 214.012 42.53C214.492 41.69 214.732 40.745 214.732 39.695C214.732 38.645 214.492 37.715 214.012 36.905C213.532 36.095 212.887 35.465 212.077 35.015C211.297 34.535 210.442 34.295 209.512 34.295C208.702 34.295 207.937 34.43 207.217 34.7C206.527 34.94 205.927 35.3 205.417 35.78C204.937 36.23 204.562 36.785 204.292 37.445V42.26C204.652 42.92 205.072 43.475 205.552 43.925C206.062 44.345 206.647 44.675 207.307 44.915C207.967 45.125 208.702 45.23 209.512 45.23ZM224.543 39.92C224.543 37.91 225.008 36.11 225.938 34.52C226.898 32.93 228.233 31.685 229.943 30.785C231.653 29.855 233.618 29.39 235.838 29.39C238.088 29.39 240.038 29.855 241.688 30.785C243.338 31.685 244.598 32.93 245.468 34.52C246.368 36.11 246.818 37.91 246.818 39.92C246.818 41.93 246.368 43.745 245.468 45.365C244.598 46.955 243.338 48.215 241.688 49.145C240.038 50.075 238.058 50.54 235.748 50.54C233.588 50.54 231.653 50.12 229.943 49.28C228.263 48.44 226.943 47.225 225.983 45.635C225.023 44.045 224.543 42.14 224.543 39.92ZM230.888 39.965C230.888 40.985 231.098 41.915 231.518 42.755C231.938 43.565 232.508 44.21 233.228 44.69C233.948 45.17 234.758 45.41 235.658 45.41C236.648 45.41 237.503 45.17 238.223 44.69C238.943 44.21 239.498 43.565 239.888 42.755C240.278 41.915 240.473 40.985 240.473 39.965C240.473 38.915 240.278 37.985 239.888 37.175C239.498 36.365 238.943 35.72 238.223 35.24C237.503 34.76 236.648 34.52 235.658 34.52C234.758 34.52 233.948 34.76 233.228 35.24C232.508 35.72 231.938 36.365 231.518 37.175C231.098 37.985 230.888 38.915 230.888 39.965ZM250.251 39.92C250.251 37.91 250.716 36.11 251.646 34.52C252.606 32.93 253.941 31.685 255.651 30.785C257.361 29.855 259.326 29.39 261.546 29.39C263.796 29.39 265.746 29.855 267.396 30.785C269.046 31.685 270.306 32.93 271.176 34.52C272.076 36.11 272.526 37.91 272.526 39.92C272.526 41.93 272.076 43.745 271.176 45.365C270.306 46.955 269.046 48.215 267.396 49.145C265.746 50.075 263.766 50.54 261.456 50.54C259.296 50.54 257.361 50.12 255.651 49.28C253.971 48.44 252.651 47.225 251.691 45.635C250.731 44.045 250.251 42.14 250.251 39.92ZM256.596 39.965C256.596 40.985 256.806 41.915 257.226 42.755C257.646 43.565 258.216 44.21 258.936 44.69C259.656 45.17 260.466 45.41 261.366 45.41C262.356 45.41 263.211 45.17 263.931 44.69C264.651 44.21 265.206 43.565 265.596 42.755C265.986 41.915 266.181 40.985 266.181 39.965C266.181 38.915 265.986 37.985 265.596 37.175C265.206 36.365 264.651 35.72 263.931 35.24C263.211 34.76 262.356 34.52 261.366 34.52C260.466 34.52 259.656 34.76 258.936 35.24C258.216 35.72 257.646 36.365 257.226 37.175C256.806 37.985 256.596 38.915 256.596 39.965Z" fill="white"/>
<path fill-rule="evenodd" clip-rule="evenodd" d="M11.1086 59.5014C12.0019 61.0476 13.6521 62 15.4379 62H45.4893C47.275 62 48.9252 61.0476 49.8186 59.5014L50.446 58.4155L28.8565 32.8957L23.094 39.9384L18.4653 45.5953L13.3878 40.3375L6.10448 32.7958L0.273236 40.7476L11.1086 59.5014ZM5.0481 12.9881L11.1086 2.49864C12.0019 0.952399 13.6521 0 15.4379 0H45.4893C47.275 0 48.9252 0.952402 49.8186 2.49864L64.8406 28.4986C65.7348 30.0463 65.7348 31.9537 64.8406 33.5014L57.356 46.4556L33.7356 18.5351L28.6899 12.5708L23.7426 18.6171L17.6615 26.0491L10.0987 18.2179L5.0481 12.9881Z" fill="white"/>
</svg>
