<svg width="53" height="51" viewBox="0 0 53 51" fill="none" xmlns="http://www.w3.org/2000/svg">
<path fill-rule="evenodd" clip-rule="evenodd" d="M8.70976 47.6607C9.60313 49.2069 11.2533 50.1593 13.0391 50.1593H36.2491C38.0348 50.1593 39.6851 49.2069 40.5784 47.6607L40.9478 47.0214L23.3406 26.209L18.4818 32.1472L14.9212 36.4987L11.0154 32.4543L4.90994 26.1321L0.078125 32.7211L8.70976 47.6607ZM3.94783 10.7406L8.70976 2.49864C9.60313 0.952403 11.2533 0 13.0391 0H36.2491C38.0348 0 39.6851 0.952401 40.5784 2.49864L52.1798 22.5783C53.074 24.126 53.074 26.0333 52.1798 27.581L46.2632 37.8215L27.0938 15.1624L23.2124 10.5744L19.4069 15.2254L14.3029 21.4631L7.98242 14.9183L3.94783 10.7406Z" fill="black"/>
</svg>
