<svg width="92" height="93" viewBox="0 0 92 93" fill="none" xmlns="http://www.w3.org/2000/svg">
<path d="M52.2353 0H6.33156C2.83931 0 0 2.82583 0 6.3015V81.9195C0 85.3952 2.83931 88.221 6.33156 88.221H52.2353C55.7276 88.221 58.5669 85.3952 58.5669 81.9195V6.3015C58.5669 2.82583 55.7276 0 52.2353 0ZM29.2834 75.0272C27.0971 75.0272 25.3262 73.2648 25.3262 71.0888C25.3262 68.9128 27.0971 67.1504 29.2834 67.1504C31.4698 67.1504 33.2407 68.9128 33.2407 71.0888C33.2407 73.2648 31.4698 75.0272 29.2834 75.0272Z" fill="black"/>
<mask id="path-2-inside-1_839_510" fill="white">
<path d="M61.339 89.8358C59.6192 90.3167 57.7734 89.8439 56.4967 88.5954L47.444 79.7429C46.166 78.4932 45.6524 76.6563 46.0968 74.925L49.2446 62.6609C49.6885 60.9312 51.0213 59.5696 52.7411 59.0887L64.9482 55.6752C66.668 55.1943 68.5137 55.6671 69.7905 56.9156L78.8432 65.7681C80.1211 67.0178 80.6348 68.8547 80.1904 70.586L77.0426 82.8501C76.5986 84.5798 75.2658 85.9414 73.5461 86.4223L61.339 89.8358Z"/>
</mask>
<path d="M61.339 89.8358C59.6192 90.3167 57.7734 89.8439 56.4967 88.5954L47.444 79.7429C46.166 78.4932 45.6524 76.6563 46.0968 74.925L49.2446 62.6609C49.6885 60.9312 51.0213 59.5696 52.7411 59.0887L64.9482 55.6752C66.668 55.1943 68.5137 55.6671 69.7905 56.9156L78.8432 65.7681C80.1211 67.0178 80.6348 68.8547 80.1904 70.586L77.0426 82.8501C76.5986 84.5798 75.2658 85.9414 73.5461 86.4223L61.339 89.8358Z" fill="black"/>
<path d="M77.0426 82.8501L78.0112 83.0987L77.0426 82.8501ZM78.8432 65.7681L79.5423 65.0531L78.8432 65.7681ZM80.1904 70.586L79.2218 70.3374L80.1904 70.586ZM69.7905 56.9156L69.0913 57.6306L69.7905 56.9156ZM49.2446 62.6609L50.2132 62.9095L49.2446 62.6609ZM47.444 79.7429L46.7448 80.4579L47.444 79.7429ZM46.0968 74.925L45.1282 74.6764L46.0968 74.925ZM56.4967 88.5954L57.1958 87.8804L56.4967 88.5954ZM57.1958 87.8804L48.1431 79.0279L46.7448 80.4579L55.7975 89.3103L57.1958 87.8804ZM47.0654 75.1736L50.2132 62.9095L48.276 62.4123L45.1282 74.6764L47.0654 75.1736ZM53.0104 60.0517L65.2175 56.6382L64.6789 54.7121L52.4718 58.1256L53.0104 60.0517ZM69.0913 57.6306L78.144 66.4831L79.5423 65.0531L70.4896 56.2006L69.0913 57.6306ZM79.2218 70.3374L76.074 82.6015L78.0112 83.0987L81.159 70.8346L79.2218 70.3374ZM73.2768 85.4593L61.0697 88.8728L61.6083 90.7989L73.8154 87.3854L73.2768 85.4593ZM76.074 82.6015C75.7188 83.9852 74.6526 85.0745 73.2768 85.4593L73.8154 87.3854C75.8791 86.8083 77.4784 85.1744 78.0112 83.0987L76.074 82.6015ZM78.144 66.4831C79.1664 67.4828 79.5773 68.9523 79.2218 70.3374L81.159 70.8346C81.6923 68.757 81.0759 66.5528 79.5423 65.0531L78.144 66.4831ZM65.2175 56.6382C66.5933 56.2535 68.0699 56.6318 69.0913 57.6306L70.4896 56.2006C68.9575 54.7024 66.7426 54.135 64.6789 54.7121L65.2175 56.6382ZM50.2132 62.9095C50.5684 61.5257 51.6346 60.4364 53.0104 60.0517L52.4718 58.1256C50.408 58.7027 48.8087 60.3366 48.276 62.4123L50.2132 62.9095ZM48.1431 79.0279C47.1208 78.0282 46.7099 76.5587 47.0654 75.1736L45.1282 74.6764C44.5949 76.754 45.2113 78.9582 46.7448 80.4579L48.1431 79.0279ZM55.7975 89.3103C57.3296 90.8086 59.5445 91.376 61.6083 90.7989L61.0697 88.8728C59.6938 89.2575 58.2172 88.8792 57.1958 87.8804L55.7975 89.3103Z" fill="white" mask="url(#path-2-inside-1_839_510)"/>
<path d="M69.2961 72.8532L69.2885 72.845L69.2804 72.8371C68.7953 72.3636 68.2189 71.9947 67.5866 71.7533C66.9584 71.5135 66.2884 71.4048 65.6176 71.4337C65.1648 71.4312 64.7122 71.4466 64.2609 71.48L62.8844 66.8128C63.7296 66.7411 64.5832 66.8517 65.3874 67.1399C65.5164 67.1971 65.6551 67.2301 65.7963 67.2368C65.9467 67.244 66.097 67.2214 66.2386 67.1701C66.3802 67.1189 66.5102 67.0401 66.6212 66.9384C66.7321 66.8367 66.8219 66.7142 66.8853 66.5778C66.9488 66.4414 66.9848 66.294 66.9914 66.1438C66.9981 65.9937 66.9752 65.8437 66.9242 65.7023C66.8731 65.561 66.7949 65.4309 66.6939 65.3196C66.5928 65.2083 66.4709 65.1179 66.3348 65.0536L66.3192 65.0462L66.3031 65.0399C65.003 64.5322 63.5975 64.3727 62.224 64.5736L61.7839 63.0814C61.6982 62.7908 61.5011 62.5454 61.2351 62.3996L60.9948 62.838L61.2351 62.3996C60.9691 62.2537 60.6558 62.2195 60.3643 62.3054C60.0729 62.3914 59.8283 62.5901 59.684 62.857L60.1219 63.0938L59.684 62.857C59.5397 63.1239 59.5074 63.4369 59.5931 63.7275L60.0067 65.1301C57.4818 66.0955 56.3488 67.9113 56.2246 69.3636C56.1324 70.3232 56.3809 71.2855 56.9262 72.0807C57.4721 72.8768 58.2805 73.4544 59.2089 73.7106L59.2118 73.7114C60.3204 74.0102 61.4738 74.0927 62.6097 73.9558L64.0065 78.6918C62.65 78.9169 61.2529 78.7578 59.9734 78.227C59.8514 78.1539 59.7166 78.104 59.5759 78.0803C59.4171 78.0535 59.2543 78.0607 59.0984 78.1015C58.9425 78.1422 58.7971 78.2156 58.6717 78.3167L58.6717 78.3168C58.5463 78.4179 58.4439 78.5444 58.3709 78.6878C58.2979 78.8312 58.256 78.9884 58.2477 79.149C58.2395 79.3097 58.2651 79.4702 58.3227 79.6203C58.3804 79.7704 58.469 79.9068 58.5828 80.0205C58.6931 80.1309 58.8249 80.2176 58.97 80.2751C60.7627 81.0644 62.7483 81.2812 64.6584 80.9023L65.0741 82.3118C65.1598 82.6023 65.3569 82.8477 65.6228 82.9936C65.8889 83.1395 66.2022 83.1737 66.4937 83.0878C66.7851 83.0018 67.0297 82.8031 67.174 82.5361C67.3183 82.2693 67.3506 81.9562 67.2649 81.6656L66.8462 80.2457C68.4949 79.5517 70.2729 78.276 70.3629 75.6915L70.3629 75.6906C70.3801 75.1709 70.2947 74.6526 70.1117 74.1656C69.9286 73.6787 69.6515 73.2326 69.2961 72.8532ZM59.8613 71.5L59.8613 71.4999L59.8559 71.4985C59.4424 71.3918 59.0791 71.1401 58.8319 70.7881C58.5847 70.4361 58.4702 70.0073 58.5092 69.579L58.5094 69.5791L58.5102 69.5651C58.5122 69.5341 58.5514 69.1358 58.8899 68.6493C59.1778 68.2354 59.7001 67.7317 60.6574 67.3362L61.946 71.7056C61.2464 71.7529 60.5419 71.6839 59.8613 71.5ZM66.1868 78.0102L64.9277 73.7409C65.1429 73.7325 65.3632 73.7281 65.5913 73.7296L65.6084 73.7297L65.6255 73.7286C65.9921 73.7058 66.3599 73.7581 66.7065 73.8826C67.0478 74.0052 67.3616 74.1952 67.6293 74.4415C67.9154 74.7528 68.0729 75.1623 68.069 75.5859C68.0453 76.2149 67.8657 76.6943 67.5157 77.0958C67.2264 77.4275 66.7994 77.7305 66.1868 78.0102Z" fill="white" stroke="white"/>
<g filter="url(#filter0_d_839_510)">
<path d="M52.1197 62.0789C50.5719 62.5117 48.9107 62.0862 47.7616 60.9625L38.709 52.1101C37.5588 50.9853 37.0965 49.3321 37.4965 47.774L40.6443 35.5098C41.0438 33.9531 42.2433 32.7277 43.7911 32.2948L55.9982 28.8814C57.5461 28.4485 59.2072 28.8741 60.3563 29.9977L69.409 38.8502C70.5592 39.9749 71.0214 41.6281 70.6215 43.1863L67.4737 55.4504C67.0741 57.0072 65.8746 58.2326 64.3268 58.6654L52.1197 62.0789Z" fill="black" stroke="white"/>
<path d="M50.9123 48.8857C50.9853 48.8646 51.057 48.8752 51.1274 48.9173L51.8315 49.345C51.6107 49.8499 51.2864 50.2848 50.8587 50.6495C50.4299 51.0104 49.8735 51.2895 49.1893 51.4867C48.582 51.6618 48.0025 51.7164 47.4507 51.6507C46.9017 51.58 46.4004 51.4081 45.947 51.135C45.4925 50.8581 45.0963 50.4873 44.7584 50.0228C44.4244 49.5571 44.1676 49.0129 43.9881 48.3903C43.8086 47.7676 43.7421 47.1686 43.7885 46.5932C43.8377 46.0129 43.9873 45.4848 44.2372 45.0089C44.4899 44.5281 44.8362 44.1119 45.276 43.7603C45.7197 43.4076 46.2432 43.1443 46.8467 42.9704C47.4462 42.7975 48.003 42.7432 48.5169 42.8073C49.0335 42.8666 49.5074 43.0088 49.9387 43.2342L49.676 43.9906C49.6574 44.0417 49.6314 44.0888 49.598 44.1317C49.5646 44.1746 49.5114 44.2066 49.4383 44.2277C49.3615 44.2498 49.2631 44.2407 49.1432 44.2004C49.0261 44.155 48.8785 44.1122 48.7003 44.072C48.525 44.0268 48.312 44.0029 48.0614 44.0002C47.8136 43.9925 47.5187 44.038 47.1766 44.1366C46.7807 44.2507 46.4375 44.4246 46.1468 44.6583C45.8562 44.8919 45.6299 45.1757 45.4681 45.5096C45.3062 45.8435 45.2129 46.2201 45.1881 46.6394C45.1671 47.0575 45.2264 47.5088 45.366 47.993C45.5067 48.4812 45.7016 48.8975 45.9508 49.2419C46.1989 49.5825 46.4822 49.8505 46.8008 50.0459C47.1183 50.2375 47.4603 50.3554 47.8269 50.3995C48.1935 50.4437 48.5651 50.4115 48.9417 50.303C49.1723 50.2365 49.3746 50.1657 49.5486 50.0905C49.7254 50.0104 49.8829 49.9213 50.0211 49.8232C50.1582 49.7212 50.2818 49.6086 50.392 49.4852C50.506 49.3608 50.6125 49.2177 50.7116 49.0559C50.7685 48.9646 50.8354 48.9078 50.9123 48.8857ZM52.6132 42.5881L53.3793 45.2459L56.6252 44.3102L56.9393 45.3998L53.6934 46.3355L54.6923 49.8004L53.3375 50.191L50.9442 41.889L56.1214 40.3966L56.4355 41.4862L52.6132 42.5881ZM62.6771 44.1266L60.6614 41.4232C60.5016 41.2153 60.3216 40.9446 60.1213 40.611C60.1311 40.8038 60.1332 40.9843 60.1276 41.1525C60.1208 41.3168 60.1129 41.4627 60.1039 41.5902L59.8349 44.946L62.6771 44.1266ZM66.1286 46.5036L65.0851 46.8044C64.966 46.8388 64.8616 46.8376 64.7719 46.801C64.6812 46.7606 64.6038 46.7017 64.5399 46.6244L63.3196 44.9905L59.7451 46.0209L59.5818 48.0537C59.5732 48.1394 59.5399 48.226 59.4819 48.3135C59.4238 48.401 59.3372 48.4614 59.2219 48.4946L58.1784 48.7955L59.0771 39.5445L60.4434 39.1506L66.1286 46.5036Z" fill="white"/>
<path d="M51.1274 48.9173L51.3871 48.49L51.3842 48.4882L51.1274 48.9173ZM51.8315 49.345L52.2896 49.5453L52.4648 49.1447L52.0911 48.9177L51.8315 49.345ZM50.8587 50.6495L51.1807 51.0321L51.1832 51.03L50.8587 50.6495ZM47.4507 51.6507L47.3869 52.1466L47.3916 52.1472L47.4507 51.6507ZM45.947 51.135L45.6869 51.562L45.6891 51.5633L45.947 51.135ZM44.7584 50.0228L44.3521 50.3142L44.3541 50.3169L44.7584 50.0228ZM43.7885 46.5932L43.2903 46.551L43.2901 46.553L43.7885 46.5932ZM44.2372 45.0089L43.7946 44.7763L43.7946 44.7764L44.2372 45.0089ZM45.276 43.7603L44.9649 43.3689L44.9638 43.3698L45.276 43.7603ZM48.5169 42.8073L48.4549 43.3035L48.4599 43.3041L48.5169 42.8073ZM49.9387 43.2342L50.411 43.3983L50.5526 42.9908L50.1703 42.791L49.9387 43.2342ZM49.676 43.9906L50.146 44.1612L50.1483 44.1547L49.676 43.9906ZM49.598 44.1317L49.9926 44.4388L49.9926 44.4388L49.598 44.1317ZM49.1432 44.2004L48.9628 44.6667L48.9731 44.6707L48.9836 44.6742L49.1432 44.2004ZM48.7003 44.072L48.5756 44.5562L48.5828 44.5581L48.5902 44.5597L48.7003 44.072ZM48.0614 44.0002L48.046 44.5L48.056 44.5001L48.0614 44.0002ZM46.1468 44.6583L46.4601 45.048L46.4601 45.048L46.1468 44.6583ZM45.1881 46.6394L44.6889 46.6098L44.6887 46.6143L45.1881 46.6394ZM45.9508 49.2419L45.5457 49.535L45.5466 49.5363L45.9508 49.2419ZM46.8008 50.0459L46.5394 50.4722L46.5425 50.474L46.8008 50.0459ZM47.8269 50.3995L47.8867 49.9031L47.8867 49.9031L47.8269 50.3995ZM49.5486 50.0905L49.7469 50.5496L49.755 50.546L49.5486 50.0905ZM50.0211 49.8232L50.3106 50.231L50.3195 50.2244L50.0211 49.8232ZM50.392 49.4852L50.0232 49.1475L50.019 49.1522L50.392 49.4852ZM50.7116 49.0559L50.2872 48.7915L50.2852 48.7948L50.7116 49.0559ZM51.0508 49.3661C51.0221 49.3744 50.9863 49.3781 50.9481 49.3725C50.9109 49.367 50.8845 49.3546 50.8707 49.3464L51.3842 48.4882C51.2054 48.3813 50.9914 48.3425 50.7738 48.4052L51.0508 49.3661ZM50.8678 49.3446L51.5719 49.7723L52.0911 48.9177L51.3871 48.49L50.8678 49.3446ZM51.3733 49.1447C51.1835 49.5788 50.9056 49.9524 50.5343 50.2691L51.1832 51.03C51.6673 50.6171 52.0378 50.1211 52.2896 49.5453L51.3733 49.1447ZM50.5368 50.267C50.174 50.5723 49.6852 50.8234 49.0508 51.0063L49.3278 51.9671C50.0617 51.7556 50.6859 51.4485 51.1807 51.0321L50.5368 50.267ZM49.0508 51.0063C48.4989 51.1654 47.9869 51.211 47.5099 51.1542L47.3916 52.1472C48.0182 52.2218 48.6652 52.1582 49.3278 51.9671L49.0508 51.0063ZM47.5145 51.1548C47.031 51.0925 46.5964 50.9425 46.205 50.7067L45.6891 51.5633C46.2045 51.8738 46.7723 52.0675 47.3869 52.1466L47.5145 51.1548ZM46.2072 50.7081C45.8134 50.4681 45.465 50.1441 45.1628 49.7286L44.3541 50.3169C44.7277 50.8305 45.1717 51.2481 45.6869 51.562L46.2072 50.7081ZM45.1647 49.7313C44.868 49.3176 44.6343 48.8266 44.4685 48.2518L43.5077 48.5288C43.7009 49.1992 43.9808 49.7965 44.3522 50.3142L45.1647 49.7313ZM44.4685 48.2518C44.3037 47.68 44.2459 47.1417 44.2869 46.6334L43.2901 46.553C43.2383 47.1955 43.3135 47.8552 43.5077 48.5288L44.4685 48.2518ZM44.2867 46.6354C44.3307 46.116 44.4635 45.6534 44.6799 45.2415L43.7946 44.7764C43.5111 45.3161 43.3446 45.9098 43.2903 46.551L44.2867 46.6354ZM44.6798 45.2416C44.8992 44.8241 45.2003 44.461 45.5882 44.1509L44.9638 43.3698C44.4721 43.7628 44.0806 44.2322 43.7946 44.7763L44.6798 45.2416ZM45.5872 44.1517C45.9744 43.8439 46.4377 43.6086 46.9852 43.4508L46.7082 42.4899C46.0487 42.68 45.465 42.9714 44.9649 43.3689L45.5872 44.1517ZM46.9852 43.4508C47.5327 43.2929 48.0205 43.2493 48.4549 43.3035L48.5788 42.3112C47.9855 42.2371 47.3598 42.3021 46.7082 42.4899L46.9852 43.4508ZM48.4599 43.3041C48.9198 43.3568 49.3339 43.4823 49.7072 43.6774L50.1703 42.791C49.6809 42.5354 49.1472 42.3763 48.5738 42.3106L48.4599 43.3041ZM49.4664 43.0701L49.2036 43.8265L50.1483 44.1547L50.411 43.3983L49.4664 43.0701ZM49.206 43.82C49.2052 43.822 49.2047 43.823 49.2034 43.8246L49.9926 44.4388C50.0581 44.3546 50.1096 44.2615 50.146 44.1611L49.206 43.82ZM49.2034 43.8246C49.2561 43.7569 49.3105 43.7442 49.2998 43.7472L49.5768 44.7081C49.7122 44.6691 49.873 44.5924 49.9926 44.4388L49.2034 43.8246ZM49.2998 43.7472C49.3336 43.7375 49.3542 43.7397 49.353 43.7396C49.3527 43.7396 49.3484 43.7391 49.3397 43.7371C49.3309 43.7352 49.3187 43.7319 49.3028 43.7265L48.9836 44.6742C49.1482 44.7296 49.3605 44.7705 49.5768 44.7081L49.2998 43.7472ZM49.3237 43.734C49.1759 43.6769 49.0028 43.6277 48.8105 43.5843L48.5902 44.5597C48.7541 44.5967 48.8762 44.6332 48.9628 44.6667L49.3237 43.734ZM48.8251 43.5878C48.599 43.5296 48.3435 43.5032 48.0668 43.5002L48.056 44.5001C48.2805 44.5026 48.4509 44.5241 48.5756 44.5562L48.8251 43.5878ZM48.0769 43.5004C47.7598 43.4906 47.4103 43.5489 47.0381 43.6562L47.3151 44.617C47.627 44.5271 47.8674 44.4944 48.046 44.4999L48.0769 43.5004ZM47.0381 43.6562C46.5852 43.7867 46.181 43.9892 45.8335 44.2686L46.4601 45.048C46.6939 44.86 46.9762 44.7147 47.3151 44.617L47.0381 43.6562ZM45.8335 44.2686C45.4855 44.5484 45.2124 44.8906 45.0181 45.2915L45.918 45.7277C46.0474 45.4607 46.2268 45.2355 46.4601 45.048L45.8335 44.2686ZM45.0181 45.2915C44.8242 45.6917 44.7171 46.1337 44.6889 46.6098L45.6872 46.6689C45.7086 46.3065 45.7883 45.9953 45.918 45.7277L45.0181 45.2915ZM44.6887 46.6143C44.6644 47.0976 44.7337 47.6046 44.8855 48.1315L45.8464 47.8545C45.7191 47.4129 45.6697 47.0175 45.6874 46.6644L44.6887 46.6143ZM44.8855 48.1315C45.0392 48.6646 45.2568 49.1356 45.5457 49.535L46.3559 48.9489C46.1465 48.6593 45.9742 48.2977 45.8464 47.8545L44.8855 48.1315ZM45.5466 49.5363C45.8283 49.923 46.1583 50.2385 46.5394 50.4722L47.0622 49.6197C46.806 49.4626 46.5694 49.242 46.355 48.9476L45.5466 49.5363ZM46.5425 50.474C46.9203 50.702 47.3299 50.8433 47.767 50.896L47.8867 49.9031C47.5907 49.8675 47.3162 49.773 47.0591 49.6178L46.5425 50.474ZM47.767 50.896C48.2042 50.9486 48.6432 50.9094 49.0802 50.7834L48.8032 49.8225C48.4869 49.9137 48.1827 49.9388 47.8867 49.9031L47.767 50.896ZM49.0802 50.7834C49.3261 50.7125 49.5491 50.635 49.7469 50.5496L49.3504 49.6315C49.2002 49.6964 49.0186 49.7604 48.8032 49.8225L49.0802 50.7834ZM49.755 50.546C49.9568 50.4545 50.1428 50.35 50.3105 50.2309L49.7316 49.4155C49.6229 49.4927 49.4939 49.5664 49.3423 49.6351L49.755 50.546ZM50.3195 50.2244C50.4828 50.103 50.6315 49.9676 50.7649 49.8183L50.019 49.1522C49.9321 49.2495 49.8336 49.3395 49.7227 49.422L50.3195 50.2244ZM50.7607 49.823C50.8988 49.6722 51.0242 49.5028 51.138 49.317L50.2852 48.7948C50.2008 48.9326 50.1132 49.0494 50.0233 49.1475L50.7607 49.823ZM51.1359 49.3204C51.143 49.3091 51.1417 49.3144 51.1279 49.3261C51.1126 49.3391 51.0866 49.3558 51.0508 49.3661L50.7738 48.4052C50.5423 48.4719 50.3866 48.632 50.2872 48.7915L51.1359 49.3204ZM52.6132 42.5881L52.4747 42.1077L51.9942 42.2462L52.1327 42.7266L52.6132 42.5881ZM53.3793 45.2459L52.8989 45.3844L53.0374 45.8648L53.5178 45.7263L53.3793 45.2459ZM56.6252 44.3102L57.1056 44.1717L56.9671 43.6912L56.4867 43.8297L56.6252 44.3102ZM56.9393 45.3998L57.0778 45.8802L57.5582 45.7417L57.4197 45.2613L56.9393 45.3998ZM53.6934 46.3355L53.5549 45.8551L53.0745 45.9936L53.213 46.474L53.6934 46.3355ZM54.6923 49.8004L54.8308 50.2808L55.3112 50.1423L55.1727 49.6619L54.6923 49.8004ZM53.3375 50.191L52.857 50.3295L52.9955 50.8099L53.476 50.6714L53.3375 50.191ZM50.9442 41.889L50.8057 41.4086L50.3253 41.5471L50.4638 42.0275L50.9442 41.889ZM56.1214 40.3966L56.6018 40.2581L56.4633 39.7777L55.9829 39.9162L56.1214 40.3966ZM56.4355 41.4862L56.574 41.9667L57.0544 41.8282L56.9159 41.3477L56.4355 41.4862ZM52.1327 42.7266L52.8989 45.3844L53.8598 45.1074L53.0936 42.4496L52.1327 42.7266ZM53.5178 45.7263L56.7637 44.7906L56.4867 43.8297L53.2408 44.7654L53.5178 45.7263ZM56.1447 44.4487L56.4588 45.5383L57.4197 45.2613L57.1056 44.1717L56.1447 44.4487ZM56.8008 44.9194L53.5549 45.8551L53.8319 46.8159L57.0778 45.8802L56.8008 44.9194ZM53.213 46.474L54.2119 49.9389L55.1727 49.6619L54.1739 46.197L53.213 46.474ZM54.5538 49.32L53.199 49.7105L53.476 50.6714L54.8308 50.2808L54.5538 49.32ZM53.8179 50.0525L51.4247 41.7505L50.4638 42.0275L52.857 50.3295L53.8179 50.0525ZM51.0827 42.3695L56.2599 40.877L55.9829 39.9162L50.8057 41.4086L51.0827 42.3695ZM55.641 40.5351L55.9551 41.6247L56.9159 41.3477L56.6018 40.2581L55.641 40.5351ZM56.297 41.0058L52.4747 42.1077L52.7517 43.0685L56.574 41.9667L56.297 41.0058ZM62.6771 44.1266L62.8156 44.6071L63.5098 44.4069L63.078 43.8277L62.6771 44.1266ZM60.6614 41.4232L61.0623 41.1243L61.0578 41.1184L60.6614 41.4232ZM60.1213 40.611L60.55 40.3537L59.622 40.6364L60.1213 40.611ZM60.1276 41.1525L60.6271 41.173L60.6273 41.1693L60.1276 41.1525ZM60.1039 41.5902L60.6023 41.6301L60.6026 41.6255L60.1039 41.5902ZM59.8349 44.946L59.3365 44.906L59.2787 45.6267L59.9734 45.4264L59.8349 44.946ZM66.1286 46.5036L66.2671 46.984L66.9744 46.7801L66.5242 46.1977L66.1286 46.5036ZM64.7719 46.801L64.5684 47.2577L64.5756 47.2609L64.5829 47.2639L64.7719 46.801ZM64.5399 46.6244L64.1393 46.9236L64.1467 46.9335L64.1545 46.943L64.5399 46.6244ZM63.3196 44.9905L63.7202 44.6913L63.5133 44.4143L63.1811 44.51L63.3196 44.9905ZM59.7451 46.0209L59.6066 45.5405L59.2744 45.6362L59.2467 45.9809L59.7451 46.0209ZM59.5818 48.0537L60.0794 48.1035L60.0802 48.0937L59.5818 48.0537ZM59.4819 48.3135L59.8986 48.5899L59.4819 48.3135ZM58.1784 48.7955L57.6807 48.7471L57.6095 49.4798L58.3169 49.2759L58.1784 48.7955ZM59.0771 39.5445L58.9386 39.0641L58.6122 39.1582L58.5794 39.4962L59.0771 39.5445ZM60.4434 39.1506L60.839 38.8448L60.6312 38.5761L60.3049 38.6702L60.4434 39.1506ZM63.078 43.8277L61.0623 41.1243L60.2606 41.7221L62.2763 44.4255L63.078 43.8277ZM61.0578 41.1184C60.9138 40.9311 60.7446 40.6779 60.55 40.3537L59.6926 40.8683C59.8985 41.2113 60.0894 41.4996 60.2651 41.728L61.0578 41.1184ZM59.622 40.6364C59.6312 40.8172 59.6329 40.9835 59.6278 41.1357L60.6273 41.1693C60.6335 40.9852 60.6311 40.7905 60.6207 40.5856L59.622 40.6364ZM59.628 41.1319C59.6214 41.2926 59.6137 41.4334 59.6051 41.5548L60.6026 41.6255C60.6121 41.4919 60.6202 41.3409 60.6271 41.173L59.628 41.1319ZM59.6055 41.5502L59.3365 44.906L60.3333 44.9859L60.6023 41.6301L59.6055 41.5502ZM59.9734 45.4264L62.8156 44.6071L62.5386 43.6462L59.6964 44.4655L59.9734 45.4264ZM65.9901 46.0231L64.9466 46.324L65.2236 47.2848L66.2671 46.984L65.9901 46.0231ZM64.9466 46.324C64.9253 46.3301 64.9183 46.3293 64.9228 46.3293C64.9253 46.3294 64.9303 46.3296 64.9373 46.331C64.9444 46.3324 64.9525 46.3347 64.9609 46.3381L64.5829 47.2639C64.8028 47.3537 65.0271 47.3415 65.2236 47.2848L64.9466 46.324ZM64.9754 46.3443C64.9558 46.3356 64.9405 46.3243 64.9253 46.3058L64.1545 46.943C64.2671 47.0791 64.4065 47.1856 64.5684 47.2577L64.9754 46.3443ZM64.9405 46.3252L63.7202 44.6913L62.919 45.2897L64.1393 46.9236L64.9405 46.3252ZM63.1811 44.51L59.6066 45.5405L59.8836 46.5013L63.4581 45.4709L63.1811 44.51ZM59.2467 45.9809L59.0834 48.0136L60.0802 48.0937L60.2435 46.0609L59.2467 45.9809ZM59.0843 48.0038C59.0854 47.9928 59.088 48.0028 59.0652 48.0372L59.8986 48.5899C59.9918 48.4492 60.061 48.2861 60.0793 48.1035L59.0843 48.0038ZM59.0652 48.0372C59.0678 48.0332 59.0713 48.0287 59.0756 48.0244C59.0799 48.02 59.0841 48.0166 59.0876 48.0141C59.0948 48.0091 59.0955 48.0107 59.0834 48.0142L59.3604 48.9751C59.5724 48.9139 59.7656 48.7903 59.8986 48.5899L59.0652 48.0372ZM59.0834 48.0142L58.0399 48.315L58.3169 49.2759L59.3604 48.9751L59.0834 48.0142ZM58.676 48.8438L59.5747 39.5929L58.5794 39.4962L57.6807 48.7471L58.676 48.8438ZM59.2156 40.025L60.5819 39.6311L60.3049 38.6702L58.9386 39.0641L59.2156 40.025ZM60.0479 39.4565L65.7331 46.8094L66.5242 46.1977L60.839 38.8448L60.0479 39.4565Z" fill="white"/>
</g>
<defs>
<filter id="filter0_d_839_510" x="18.855" y="9.21497" width="72.4078" height="72.5303" filterUnits="userSpaceOnUse" color-interpolation-filters="sRGB">
<feFlood flood-opacity="0" result="BackgroundImageFix"/>
<feColorMatrix in="SourceAlpha" type="matrix" values="0 0 0 0 0 0 0 0 0 0 0 0 0 0 0 0 0 0 127 0" result="hardAlpha"/>
<feOffset dx="1"/>
<feGaussianBlur stdDeviation="9.5"/>
<feComposite in2="hardAlpha" operator="out"/>
<feColorMatrix type="matrix" values="0 0 0 0 0.275 0 0 0 0 0.275 0 0 0 0 0.275 0 0 0 0.34 0"/>
<feBlend mode="normal" in2="BackgroundImageFix" result="effect1_dropShadow_839_510"/>
<feBlend mode="normal" in="SourceGraphic" in2="effect1_dropShadow_839_510" result="shape"/>
</filter>
</defs>
</svg>
