<svg width="80" height="80" viewBox="0 0 80 80" fill="none" xmlns="http://www.w3.org/2000/svg">
<rect width="80" height="80" rx="10" fill="#5A76F5"/>
<mask id="path-2-inside-1_323_321" fill="white">
<path d="M17 22.9706C17 21.9175 17.4183 20.9076 18.163 20.163C18.9076 19.4183 19.9175 19 20.9706 19H50.0882C51.1413 19 52.1512 19.4183 52.8959 20.163C53.6405 20.9076 54.0588 21.9175 54.0588 22.9706V32.2353H46.1176C44.7136 32.2353 43.367 32.7931 42.3741 33.7859C41.3813 34.7787 40.8235 36.1253 40.8235 37.5294V45.4706H20.9706C19.9175 45.4706 18.9076 45.0523 18.163 44.3076C17.4183 43.563 17 42.5531 17 41.5V22.9706ZM22.2941 29.5882C23.6982 29.5882 25.0448 29.0305 26.0376 28.0376C27.0305 27.0448 27.5882 25.6982 27.5882 24.2941V21.6471H24.9412V24.2941C24.9412 24.9962 24.6623 25.6695 24.1659 26.1659C23.6695 26.6623 22.9962 26.9412 22.2941 26.9412H19.6471V29.5882H22.2941ZM30.8971 32.2353C30.8971 33.4639 31.3851 34.6421 32.2538 35.5109C33.1226 36.3796 34.3008 36.8676 35.5294 36.8676C36.758 36.8676 37.9362 36.3796 38.805 35.5109C39.6737 34.6421 40.1618 33.4639 40.1618 32.2353C40.1618 31.0067 39.6737 29.8285 38.805 28.9597C37.9362 28.091 36.758 27.6029 35.5294 27.6029C34.3008 27.6029 33.1226 28.091 32.2538 28.9597C31.3851 29.8285 30.8971 31.0067 30.8971 32.2353ZM19.6471 34.8824V37.5294H22.2941C22.9962 37.5294 23.6695 37.8083 24.1659 38.3047C24.6623 38.8011 24.9412 39.4744 24.9412 40.1765V42.8235H27.5882V40.1765C27.5882 38.7724 27.0305 37.4258 26.0376 36.433C25.0448 35.4401 23.6982 34.8824 22.2941 34.8824H19.6471ZM51.4118 29.5882V26.9412H48.7647C48.0627 26.9412 47.3894 26.6623 46.893 26.1659C46.3965 25.6695 46.1176 24.9962 46.1176 24.2941V21.6471H43.4706V24.2941C43.4706 25.6982 44.0284 27.0448 45.0212 28.0376C46.014 29.0305 47.3606 29.5882 48.7647 29.5882H51.4118ZM56.7059 32.2353V24.5191C57.4804 24.7929 58.1508 25.3002 58.6249 25.9711C59.099 26.6419 59.3534 27.4433 59.3529 28.2647V32.2353H56.7059ZM40.8235 48.1176V50.7647H26.2647C25.4433 50.7651 24.6419 50.5108 23.9711 50.0367C23.3002 49.5626 22.7929 48.8921 22.5191 48.1176H40.8235ZM47.4412 34.8824C46.3881 34.8824 45.3782 35.3007 44.6335 36.0453C43.8889 36.7899 43.4706 37.7999 43.4706 38.8529V57.3824C43.4706 58.4354 43.8889 59.4454 44.6335 60.19C45.3782 60.9346 46.3881 61.3529 47.4412 61.3529H58.0294C59.0825 61.3529 60.0924 60.9346 60.837 60.19C61.5817 59.4454 62 58.4354 62 57.3824V38.8529C62 37.7999 61.5817 36.7899 60.837 36.0453C60.0924 35.3007 59.0825 34.8824 58.0294 34.8824H47.4412ZM47.4412 45.4706H50.0882C50.4393 45.4706 50.7759 45.61 51.0241 45.8582C51.2723 46.1064 51.4118 46.4431 51.4118 46.7941C51.4118 47.1451 51.2723 47.4818 51.0241 47.73C50.7759 47.9782 50.4393 48.1176 50.0882 48.1176H47.4412C47.0902 48.1176 46.7535 47.9782 46.5053 47.73C46.2571 47.4818 46.1176 47.1451 46.1176 46.7941C46.1176 46.4431 46.2571 46.1064 46.5053 45.8582C46.7535 45.61 47.0902 45.4706 47.4412 45.4706ZM55.3824 45.4706H58.0294C58.3804 45.4706 58.7171 45.61 58.9653 45.8582C59.2135 46.1064 59.3529 46.4431 59.3529 46.7941C59.3529 47.1451 59.2135 47.4818 58.9653 47.73C58.7171 47.9782 58.3804 48.1176 58.0294 48.1176H55.3824C55.0313 48.1176 54.6947 47.9782 54.4465 47.73C54.1983 47.4818 54.0588 47.1451 54.0588 46.7941C54.0588 46.4431 54.1983 46.1064 54.4465 45.8582C54.6947 45.61 55.0313 45.4706 55.3824 45.4706ZM47.4412 50.7647H50.0882C50.4393 50.7647 50.7759 50.9041 51.0241 51.1524C51.2723 51.4006 51.4118 51.7372 51.4118 52.0882C51.4118 52.4393 51.2723 52.7759 51.0241 53.0241C50.7759 53.2723 50.4393 53.4118 50.0882 53.4118H47.4412C47.0902 53.4118 46.7535 53.2723 46.5053 53.0241C46.2571 52.7759 46.1176 52.4393 46.1176 52.0882C46.1176 51.7372 46.2571 51.4006 46.5053 51.1524C46.7535 50.9041 47.0902 50.7647 47.4412 50.7647ZM55.3824 50.7647H58.0294C58.3804 50.7647 58.7171 50.9041 58.9653 51.1524C59.2135 51.4006 59.3529 51.7372 59.3529 52.0882C59.3529 52.4393 59.2135 52.7759 58.9653 53.0241C58.7171 53.2723 58.3804 53.4118 58.0294 53.4118H55.3824C55.0313 53.4118 54.6947 53.2723 54.4465 53.0241C54.1983 52.7759 54.0588 52.4393 54.0588 52.0882C54.0588 51.7372 54.1983 51.4006 54.4465 51.1524C54.6947 50.9041 55.0313 50.7647 55.3824 50.7647ZM47.4412 56.0588H50.0882C50.4393 56.0588 50.7759 56.1983 51.0241 56.4465C51.2723 56.6947 51.4118 57.0313 51.4118 57.3824C51.4118 57.7334 51.2723 58.07 51.0241 58.3182C50.7759 58.5664 50.4393 58.7059 50.0882 58.7059H47.4412C47.0902 58.7059 46.7535 58.5664 46.5053 58.3182C46.2571 58.07 46.1176 57.7334 46.1176 57.3824C46.1176 57.0313 46.2571 56.6947 46.5053 56.4465C46.7535 56.1983 47.0902 56.0588 47.4412 56.0588ZM55.3824 56.0588H58.0294C58.3804 56.0588 58.7171 56.1983 58.9653 56.4465C59.2135 56.6947 59.3529 57.0313 59.3529 57.3824C59.3529 57.7334 59.2135 58.07 58.9653 58.3182C58.7171 58.5664 58.3804 58.7059 58.0294 58.7059H55.3824C55.0313 58.7059 54.6947 58.5664 54.4465 58.3182C54.1983 58.07 54.0588 57.7334 54.0588 57.3824C54.0588 57.0313 54.1983 56.6947 54.4465 56.4465C54.6947 56.1983 55.0313 56.0588 55.3824 56.0588ZM46.1176 38.8529C46.1176 38.5019 46.2571 38.1653 46.5053 37.9171C46.7535 37.6689 47.0902 37.5294 47.4412 37.5294H58.0294C58.3804 37.5294 58.7171 37.6689 58.9653 37.9171C59.2135 38.1653 59.3529 38.5019 59.3529 38.8529V41.5C59.3529 41.851 59.2135 42.1877 58.9653 42.4359C58.7171 42.6841 58.3804 42.8235 58.0294 42.8235H47.4412C47.0902 42.8235 46.7535 42.6841 46.5053 42.4359C46.2571 42.1877 46.1176 41.851 46.1176 41.5V38.8529Z"/>
</mask>
<path d="M17 22.9706C17 21.9175 17.4183 20.9076 18.163 20.163C18.9076 19.4183 19.9175 19 20.9706 19H50.0882C51.1413 19 52.1512 19.4183 52.8959 20.163C53.6405 20.9076 54.0588 21.9175 54.0588 22.9706V32.2353H46.1176C44.7136 32.2353 43.367 32.7931 42.3741 33.7859C41.3813 34.7787 40.8235 36.1253 40.8235 37.5294V45.4706H20.9706C19.9175 45.4706 18.9076 45.0523 18.163 44.3076C17.4183 43.563 17 42.5531 17 41.5V22.9706ZM22.2941 29.5882C23.6982 29.5882 25.0448 29.0305 26.0376 28.0376C27.0305 27.0448 27.5882 25.6982 27.5882 24.2941V21.6471H24.9412V24.2941C24.9412 24.9962 24.6623 25.6695 24.1659 26.1659C23.6695 26.6623 22.9962 26.9412 22.2941 26.9412H19.6471V29.5882H22.2941ZM30.8971 32.2353C30.8971 33.4639 31.3851 34.6421 32.2538 35.5109C33.1226 36.3796 34.3008 36.8676 35.5294 36.8676C36.758 36.8676 37.9362 36.3796 38.805 35.5109C39.6737 34.6421 40.1618 33.4639 40.1618 32.2353C40.1618 31.0067 39.6737 29.8285 38.805 28.9597C37.9362 28.091 36.758 27.6029 35.5294 27.6029C34.3008 27.6029 33.1226 28.091 32.2538 28.9597C31.3851 29.8285 30.8971 31.0067 30.8971 32.2353ZM19.6471 34.8824V37.5294H22.2941C22.9962 37.5294 23.6695 37.8083 24.1659 38.3047C24.6623 38.8011 24.9412 39.4744 24.9412 40.1765V42.8235H27.5882V40.1765C27.5882 38.7724 27.0305 37.4258 26.0376 36.433C25.0448 35.4401 23.6982 34.8824 22.2941 34.8824H19.6471ZM51.4118 29.5882V26.9412H48.7647C48.0627 26.9412 47.3894 26.6623 46.893 26.1659C46.3965 25.6695 46.1176 24.9962 46.1176 24.2941V21.6471H43.4706V24.2941C43.4706 25.6982 44.0284 27.0448 45.0212 28.0376C46.014 29.0305 47.3606 29.5882 48.7647 29.5882H51.4118ZM56.7059 32.2353V24.5191C57.4804 24.7929 58.1508 25.3002 58.6249 25.9711C59.099 26.6419 59.3534 27.4433 59.3529 28.2647V32.2353H56.7059ZM40.8235 48.1176V50.7647H26.2647C25.4433 50.7651 24.6419 50.5108 23.9711 50.0367C23.3002 49.5626 22.7929 48.8921 22.5191 48.1176H40.8235ZM47.4412 34.8824C46.3881 34.8824 45.3782 35.3007 44.6335 36.0453C43.8889 36.7899 43.4706 37.7999 43.4706 38.8529V57.3824C43.4706 58.4354 43.8889 59.4454 44.6335 60.19C45.3782 60.9346 46.3881 61.3529 47.4412 61.3529H58.0294C59.0825 61.3529 60.0924 60.9346 60.837 60.19C61.5817 59.4454 62 58.4354 62 57.3824V38.8529C62 37.7999 61.5817 36.7899 60.837 36.0453C60.0924 35.3007 59.0825 34.8824 58.0294 34.8824H47.4412ZM47.4412 45.4706H50.0882C50.4393 45.4706 50.7759 45.61 51.0241 45.8582C51.2723 46.1064 51.4118 46.4431 51.4118 46.7941C51.4118 47.1451 51.2723 47.4818 51.0241 47.73C50.7759 47.9782 50.4393 48.1176 50.0882 48.1176H47.4412C47.0902 48.1176 46.7535 47.9782 46.5053 47.73C46.2571 47.4818 46.1176 47.1451 46.1176 46.7941C46.1176 46.4431 46.2571 46.1064 46.5053 45.8582C46.7535 45.61 47.0902 45.4706 47.4412 45.4706ZM55.3824 45.4706H58.0294C58.3804 45.4706 58.7171 45.61 58.9653 45.8582C59.2135 46.1064 59.3529 46.4431 59.3529 46.7941C59.3529 47.1451 59.2135 47.4818 58.9653 47.73C58.7171 47.9782 58.3804 48.1176 58.0294 48.1176H55.3824C55.0313 48.1176 54.6947 47.9782 54.4465 47.73C54.1983 47.4818 54.0588 47.1451 54.0588 46.7941C54.0588 46.4431 54.1983 46.1064 54.4465 45.8582C54.6947 45.61 55.0313 45.4706 55.3824 45.4706ZM47.4412 50.7647H50.0882C50.4393 50.7647 50.7759 50.9041 51.0241 51.1524C51.2723 51.4006 51.4118 51.7372 51.4118 52.0882C51.4118 52.4393 51.2723 52.7759 51.0241 53.0241C50.7759 53.2723 50.4393 53.4118 50.0882 53.4118H47.4412C47.0902 53.4118 46.7535 53.2723 46.5053 53.0241C46.2571 52.7759 46.1176 52.4393 46.1176 52.0882C46.1176 51.7372 46.2571 51.4006 46.5053 51.1524C46.7535 50.9041 47.0902 50.7647 47.4412 50.7647ZM55.3824 50.7647H58.0294C58.3804 50.7647 58.7171 50.9041 58.9653 51.1524C59.2135 51.4006 59.3529 51.7372 59.3529 52.0882C59.3529 52.4393 59.2135 52.7759 58.9653 53.0241C58.7171 53.2723 58.3804 53.4118 58.0294 53.4118H55.3824C55.0313 53.4118 54.6947 53.2723 54.4465 53.0241C54.1983 52.7759 54.0588 52.4393 54.0588 52.0882C54.0588 51.7372 54.1983 51.4006 54.4465 51.1524C54.6947 50.9041 55.0313 50.7647 55.3824 50.7647ZM47.4412 56.0588H50.0882C50.4393 56.0588 50.7759 56.1983 51.0241 56.4465C51.2723 56.6947 51.4118 57.0313 51.4118 57.3824C51.4118 57.7334 51.2723 58.07 51.0241 58.3182C50.7759 58.5664 50.4393 58.7059 50.0882 58.7059H47.4412C47.0902 58.7059 46.7535 58.5664 46.5053 58.3182C46.2571 58.07 46.1176 57.7334 46.1176 57.3824C46.1176 57.0313 46.2571 56.6947 46.5053 56.4465C46.7535 56.1983 47.0902 56.0588 47.4412 56.0588ZM55.3824 56.0588H58.0294C58.3804 56.0588 58.7171 56.1983 58.9653 56.4465C59.2135 56.6947 59.3529 57.0313 59.3529 57.3824C59.3529 57.7334 59.2135 58.07 58.9653 58.3182C58.7171 58.5664 58.3804 58.7059 58.0294 58.7059H55.3824C55.0313 58.7059 54.6947 58.5664 54.4465 58.3182C54.1983 58.07 54.0588 57.7334 54.0588 57.3824C54.0588 57.0313 54.1983 56.6947 54.4465 56.4465C54.6947 56.1983 55.0313 56.0588 55.3824 56.0588ZM46.1176 38.8529C46.1176 38.5019 46.2571 38.1653 46.5053 37.9171C46.7535 37.6689 47.0902 37.5294 47.4412 37.5294H58.0294C58.3804 37.5294 58.7171 37.6689 58.9653 37.9171C59.2135 38.1653 59.3529 38.5019 59.3529 38.8529V41.5C59.3529 41.851 59.2135 42.1877 58.9653 42.4359C58.7171 42.6841 58.3804 42.8235 58.0294 42.8235H47.4412C47.0902 42.8235 46.7535 42.6841 46.5053 42.4359C46.2571 42.1877 46.1176 41.851 46.1176 41.5V38.8529Z" stroke="white" stroke-width="2.6" mask="url(#path-2-inside-1_323_321)"/>
</svg>
