<svg width="420" height="168" viewBox="0 0 420 168" fill="none" xmlns="http://www.w3.org/2000/svg">
<g filter="url(#filter0_d_991_4246)">
<path d="M46.6408 154.266H48.5352V180.922H46.6408C46.2887 180.922 46 180.633 46 180.28V154.908C46 154.555 46.2887 154.266 46.6408 154.266Z" fill="#EAEAEC"/>
<path d="M327.352 21.0391H106.634C74.5468 21.0391 48.5352 47.1005 48.5352 79.2488V659.829C48.5352 691.978 74.5468 718.039 106.634 718.039H327.352C359.439 718.039 385.451 691.978 385.451 659.829V79.2488C385.451 47.1005 359.439 21.0391 327.352 21.0391Z" fill="white" stroke="#E0E1E6" stroke-miterlimit="10"/>
<path d="M326.514 24.8633H107.472C77.2165 24.8633 52.6899 49.4368 52.6899 79.7498V658.376C52.6899 688.689 77.2165 713.262 107.472 713.262H326.514C356.769 713.262 381.296 688.689 381.296 658.376V79.7498C381.296 49.4368 356.769 24.8633 326.514 24.8633Z" fill="white" stroke="#E0E1E6" stroke-miterlimit="10"/>
<path d="M327.549 35.1719H106.444C82.6254 35.1719 63.3169 54.5173 63.3169 78.3811V659.745C63.3169 683.609 82.6254 702.954 106.444 702.954H327.549C351.367 702.954 370.676 683.609 370.676 659.745V78.3811C370.676 54.5173 351.367 35.1719 327.549 35.1719Z" fill="#EAEAEC"/>
<path d="M48.542 154.266H46.6406V180.922H48.542V154.266Z" fill="#E0E1E4"/>
<path opacity="0.48" d="M326.521 24.8625H107.472C77.2181 24.8625 52.6899 49.4306 52.6899 79.742V658.375C52.6899 688.687 77.2181 713.262 107.472 713.262H326.521C356.774 713.262 381.303 688.687 381.303 658.375V79.742C381.303 49.4306 356.774 24.8555 326.521 24.8555V24.8625ZM378.486 658.784C378.486 687.134 355.549 710.115 327.253 710.115H106.732C78.4364 710.115 55.4998 687.134 55.4998 658.784V79.3398C55.5068 50.9969 78.4435 28.0164 106.732 28.0164H327.26C355.556 28.0164 378.493 50.9969 378.493 79.3468V658.777L378.486 658.784Z" fill="#EAEAEC"/>
<path d="M327.838 35.5039H106.732C82.914 35.5039 63.6055 54.8494 63.6055 78.7132V660.077C63.6055 683.941 82.914 703.286 106.732 703.286H327.838C351.656 703.286 370.965 683.941 370.965 660.077V78.7132C370.965 54.8494 351.656 35.5039 327.838 35.5039Z" fill="black"/>
<path d="M182.641 44.7305H252.324C259.888 44.7305 266.021 50.8742 266.021 58.4548C266.021 66.0355 259.888 72.1792 252.324 72.1792H182.641C175.077 72.1792 168.944 66.0355 168.944 58.4548C168.944 50.8742 175.077 44.7305 182.641 44.7305Z" fill="#F5F5F6" stroke="#ECECEF"/>
<path d="M251.845 66.2926C256.162 66.2926 259.662 62.7862 259.662 58.4608C259.662 54.1354 256.162 50.6289 251.845 50.6289C247.528 50.6289 244.028 54.1354 244.028 58.4608C244.028 62.7862 247.528 66.2926 251.845 66.2926Z" fill="#E0E1E4"/>
<path d="M251.846 62.7036C254.183 62.7036 256.078 60.8051 256.078 58.4632C256.078 56.1212 254.183 54.2227 251.846 54.2227C249.508 54.2227 247.613 56.1212 247.613 58.4632C247.613 60.8051 249.508 62.7036 251.846 62.7036Z" fill="#A8AEB8"/>
</g>
<defs>
<filter id="filter0_d_991_4246" x="0" y="0.539062" width="420" height="776" filterUnits="userSpaceOnUse" color-interpolation-filters="sRGB">
<feFlood flood-opacity="0" result="BackgroundImageFix"/>
<feColorMatrix in="SourceAlpha" type="matrix" values="0 0 0 0 0 0 0 0 0 0 0 0 0 0 0 0 0 0 127 0" result="hardAlpha"/>
<feOffset dx="-7" dy="19"/>
<feGaussianBlur stdDeviation="19.5"/>
<feComposite in2="hardAlpha" operator="out"/>
<feColorMatrix type="matrix" values="0 0 0 0 0.344375 0 0 0 0 0.348906 0 0 0 0 0.3625 0 0 0 0.3 0"/>
<feBlend mode="normal" in2="BackgroundImageFix" result="effect1_dropShadow_991_4246"/>
<feBlend mode="normal" in="SourceGraphic" in2="effect1_dropShadow_991_4246" result="shape"/>
</filter>
</defs>
</svg>
