<svg width="81" height="80" viewBox="0 0 81 80" fill="none" xmlns="http://www.w3.org/2000/svg">
<mask id="mask0_734_1069" style="mask-type:alpha" maskUnits="userSpaceOnUse" x="0" y="0" width="81" height="80">
<circle cx="40.6205" cy="39.907" r="39.907" fill="#D9D9D9"/>
</mask>
<g mask="url(#mask0_734_1069)">
<path d="M-15.2492 24.5581H95.2624V55.2558H-15.2492V24.5581Z" fill="#EEEEEE"/>
<path d="M82.9831 0H-2.97038C-6.22699 0 -9.35022 1.29368 -11.653 3.59646C-13.9558 5.89923 -15.2495 9.02246 -15.2495 12.2791L-15.2495 24.5581H95.2622V12.2791C95.2622 9.02246 93.9685 5.89923 91.6657 3.59646C89.363 1.29368 86.2397 0 82.9831 0Z" fill="#E05206"/>
<path d="M40.0096 52.186C46.7911 52.186 52.2886 46.6885 52.2886 39.9069C52.2886 33.1254 46.7911 27.6279 40.0096 27.6279C33.228 27.6279 27.7305 33.1254 27.7305 39.9069C27.7305 46.6885 33.228 52.186 40.0096 52.186Z" fill="#E05206"/>
<path d="M82.9833 79.8141H-2.97016C-6.22678 79.8141 -9.35001 78.5204 -11.6528 76.2177C-13.9556 73.9149 -15.2492 70.7917 -15.2492 67.5351V55.256H95.2624V67.5351C95.2624 70.7917 93.9687 73.9149 91.666 76.2177C89.3632 78.5204 86.24 79.8141 82.9833 79.8141Z" fill="#0DB02B"/>
</g>
</svg>
