<svg width="195" height="68" viewBox="0 0 195 68" fill="none" xmlns="http://www.w3.org/2000/svg">
<rect x="0.5" y="0.5" width="194" height="67" rx="9.5" stroke="black"/>
<path d="M84.5 34.91V40.61C83.0667 41.6433 81.4 42.16 79.5 42.16C78.3333 42.16 77.2767 41.98 76.33 41.62C75.39 41.2533 74.5867 40.7467 73.92 40.1C73.2533 39.4467 72.74 38.67 72.38 37.77C72.02 36.87 71.84 35.88 71.84 34.8C71.84 33.7133 72.0133 32.72 72.36 31.82C72.7067 30.9133 73.2033 30.1367 73.85 29.49C74.4967 28.8367 75.2767 28.3333 76.19 27.98C77.1033 27.62 78.13 27.44 79.27 27.44C79.85 27.44 80.3867 27.4867 80.88 27.58C81.38 27.6667 81.8433 27.79 82.27 27.95C82.6967 28.11 83.09 28.3033 83.45 28.53C83.81 28.7567 84.14 29.01 84.44 29.29L83.77 30.36C83.6633 30.5267 83.5267 30.63 83.36 30.67C83.1933 30.71 83.0133 30.67 82.82 30.55C82.6267 30.4367 82.42 30.3167 82.2 30.19C81.9867 30.0633 81.74 29.9467 81.46 29.84C81.18 29.7267 80.8567 29.6367 80.49 29.57C80.1233 29.4967 79.69 29.46 79.19 29.46C78.43 29.46 77.7433 29.5867 77.13 29.84C76.5233 30.0867 76.0033 30.4433 75.57 30.91C75.1367 31.37 74.8033 31.93 74.57 32.59C74.3367 33.25 74.22 33.9867 74.22 34.8C74.22 35.66 74.3433 36.43 74.59 37.11C74.8367 37.7833 75.1867 38.3567 75.64 38.83C76.0933 39.2967 76.64 39.6533 77.28 39.9C77.9267 40.1467 78.6467 40.27 79.44 40.27C80.0333 40.27 80.56 40.2067 81.02 40.08C81.4867 39.9533 81.9433 39.7767 82.39 39.55V36.69H80.38C80.2267 36.69 80.1067 36.65 80.02 36.57C79.9333 36.4833 79.89 36.3733 79.89 36.24V34.91H84.5ZM91.1536 31.64C91.9069 31.64 92.5869 31.7633 93.1936 32.01C93.8069 32.2567 94.3269 32.6067 94.7536 33.06C95.1869 33.5133 95.5203 34.0633 95.7536 34.71C95.9869 35.3567 96.1036 36.0833 96.1036 36.89C96.1036 37.6967 95.9869 38.4233 95.7536 39.07C95.5203 39.7167 95.1869 40.27 94.7536 40.73C94.3269 41.1833 93.8069 41.5333 93.1936 41.78C92.5869 42.0267 91.9069 42.15 91.1536 42.15C90.3936 42.15 89.7069 42.0267 89.0936 41.78C88.4869 41.5333 87.9669 41.1833 87.5336 40.73C87.1003 40.27 86.7669 39.7167 86.5336 39.07C86.3003 38.4233 86.1836 37.6967 86.1836 36.89C86.1836 36.0833 86.3003 35.3567 86.5336 34.71C86.7669 34.0633 87.1003 33.5133 87.5336 33.06C87.9669 32.6067 88.4869 32.2567 89.0936 32.01C89.7069 31.7633 90.3936 31.64 91.1536 31.64ZM91.1536 40.47C92.0736 40.47 92.7569 40.1633 93.2036 39.55C93.6569 38.93 93.8836 38.0467 93.8836 36.9C93.8836 35.7533 93.6569 34.87 93.2036 34.25C92.7569 33.6233 92.0736 33.31 91.1536 33.31C90.2203 33.31 89.5269 33.6233 89.0736 34.25C88.6203 34.87 88.3936 35.7533 88.3936 36.9C88.3936 38.0467 88.6203 38.93 89.0736 39.55C89.5269 40.1633 90.2203 40.47 91.1536 40.47ZM102.579 31.64C103.333 31.64 104.013 31.7633 104.619 32.01C105.233 32.2567 105.753 32.6067 106.179 33.06C106.613 33.5133 106.946 34.0633 107.179 34.71C107.413 35.3567 107.529 36.0833 107.529 36.89C107.529 37.6967 107.413 38.4233 107.179 39.07C106.946 39.7167 106.613 40.27 106.179 40.73C105.753 41.1833 105.233 41.5333 104.619 41.78C104.013 42.0267 103.333 42.15 102.579 42.15C101.819 42.15 101.133 42.0267 100.519 41.78C99.9127 41.5333 99.3927 41.1833 98.9594 40.73C98.526 40.27 98.1927 39.7167 97.9594 39.07C97.726 38.4233 97.6094 37.6967 97.6094 36.89C97.6094 36.0833 97.726 35.3567 97.9594 34.71C98.1927 34.0633 98.526 33.5133 98.9594 33.06C99.3927 32.6067 99.9127 32.2567 100.519 32.01C101.133 31.7633 101.819 31.64 102.579 31.64ZM102.579 40.47C103.499 40.47 104.183 40.1633 104.629 39.55C105.083 38.93 105.309 38.0467 105.309 36.9C105.309 35.7533 105.083 34.87 104.629 34.25C104.183 33.6233 103.499 33.31 102.579 33.31C101.646 33.31 100.953 33.6233 100.499 34.25C100.046 34.87 99.8194 35.7533 99.8194 36.9C99.8194 38.0467 100.046 38.93 100.499 39.55C100.953 40.1633 101.646 40.47 102.579 40.47ZM113.157 36.81C113.824 36.81 114.324 36.64 114.657 36.3C114.99 35.96 115.157 35.5167 115.157 34.97C115.157 34.41 114.99 33.9667 114.657 33.64C114.324 33.3133 113.824 33.15 113.157 33.15C112.497 33.15 111.997 33.3133 111.657 33.64C111.324 33.9667 111.157 34.41 111.157 34.97C111.157 35.2367 111.2 35.4833 111.287 35.71C111.374 35.9367 111.5 36.1333 111.667 36.3C111.834 36.46 112.04 36.5867 112.287 36.68C112.54 36.7667 112.83 36.81 113.157 36.81ZM116.147 42.5C116.147 42.2733 116.08 42.0933 115.947 41.96C115.82 41.82 115.647 41.7133 115.427 41.64C115.207 41.56 114.95 41.5033 114.657 41.47C114.364 41.43 114.05 41.4033 113.717 41.39C113.39 41.37 113.054 41.3533 112.707 41.34C112.367 41.32 112.037 41.2867 111.717 41.24C111.397 41.4067 111.134 41.6067 110.927 41.84C110.727 42.0733 110.627 42.3433 110.627 42.65C110.627 42.85 110.677 43.0367 110.777 43.21C110.884 43.3833 111.044 43.5333 111.257 43.66C111.477 43.7867 111.754 43.8867 112.087 43.96C112.427 44.0333 112.834 44.07 113.307 44.07C114.254 44.07 114.964 43.9233 115.437 43.63C115.91 43.3367 116.147 42.96 116.147 42.5ZM118.307 32.17V32.97C118.307 33.2367 118.147 33.4 117.827 33.46L116.807 33.63C116.98 34.0167 117.067 34.4467 117.067 34.92C117.067 35.42 116.967 35.8733 116.767 36.28C116.574 36.6867 116.304 37.0333 115.957 37.32C115.61 37.6067 115.197 37.8267 114.717 37.98C114.237 38.1333 113.717 38.21 113.157 38.21C112.944 38.21 112.734 38.2 112.527 38.18C112.327 38.1533 112.13 38.12 111.937 38.08C111.744 38.1933 111.6 38.3133 111.507 38.44C111.414 38.5667 111.367 38.6967 111.367 38.83C111.367 39.05 111.464 39.2133 111.657 39.32C111.85 39.4267 112.104 39.5033 112.417 39.55C112.737 39.5967 113.1 39.6267 113.507 39.64C113.914 39.6533 114.327 39.6767 114.747 39.71C115.167 39.7433 115.58 39.8 115.987 39.88C116.394 39.9533 116.754 40.08 117.067 40.26C117.387 40.4333 117.644 40.67 117.837 40.97C118.03 41.27 118.127 41.66 118.127 42.14C118.127 42.58 118.017 43.01 117.797 43.43C117.577 43.85 117.257 44.2233 116.837 44.55C116.424 44.8767 115.917 45.1367 115.317 45.33C114.717 45.53 114.034 45.63 113.267 45.63C112.507 45.63 111.844 45.5567 111.277 45.41C110.717 45.2633 110.247 45.0633 109.867 44.81C109.494 44.5633 109.214 44.2767 109.027 43.95C108.847 43.6233 108.757 43.2833 108.757 42.93C108.757 42.45 108.907 42.04 109.207 41.7C109.514 41.36 109.927 41.0933 110.447 40.9C110.167 40.7667 109.94 40.5833 109.767 40.35C109.6 40.1167 109.517 39.81 109.517 39.43C109.517 39.13 109.627 38.8167 109.847 38.49C110.067 38.1633 110.397 37.8867 110.837 37.66C110.33 37.38 109.93 37.01 109.637 36.55C109.344 36.0833 109.197 35.54 109.197 34.92C109.197 34.4133 109.294 33.9567 109.487 33.55C109.687 33.1433 109.964 32.7967 110.317 32.51C110.67 32.2233 111.087 32.0033 111.567 31.85C112.054 31.6967 112.584 31.62 113.157 31.62C114.037 31.62 114.804 31.8033 115.457 32.17H118.307ZM122.195 27.2V42H120.045V27.2H122.195ZM131.539 35.75C131.539 35.39 131.486 35.0567 131.379 34.75C131.279 34.4367 131.129 34.1667 130.929 33.94C130.729 33.7067 130.479 33.5267 130.179 33.4C129.886 33.2667 129.546 33.2 129.159 33.2C128.379 33.2 127.766 33.4233 127.319 33.87C126.872 34.3167 126.589 34.9433 126.469 35.75H131.539ZM126.409 37.07C126.436 37.65 126.526 38.1533 126.679 38.58C126.832 39 127.036 39.35 127.289 39.63C127.549 39.91 127.856 40.12 128.209 40.26C128.569 40.3933 128.969 40.46 129.409 40.46C129.829 40.46 130.192 40.4133 130.499 40.32C130.806 40.22 131.072 40.1133 131.299 40C131.526 39.88 131.719 39.7733 131.879 39.68C132.039 39.58 132.186 39.53 132.319 39.53C132.492 39.53 132.626 39.5967 132.719 39.73L133.329 40.52C133.076 40.82 132.789 41.0733 132.469 41.28C132.149 41.4867 131.809 41.6567 131.449 41.79C131.089 41.9167 130.719 42.0067 130.339 42.06C129.959 42.12 129.589 42.15 129.229 42.15C128.522 42.15 127.866 42.0333 127.259 41.8C126.659 41.56 126.136 41.21 125.689 40.75C125.249 40.29 124.902 39.72 124.649 39.04C124.402 38.36 124.279 37.5767 124.279 36.69C124.279 35.9833 124.389 35.3233 124.609 34.71C124.836 34.0967 125.156 33.5633 125.569 33.11C125.989 32.6567 126.496 32.3 127.089 32.04C127.689 31.7733 128.366 31.64 129.119 31.64C129.746 31.64 130.326 31.7433 130.859 31.95C131.392 32.15 131.852 32.4467 132.239 32.84C132.626 33.2333 132.926 33.7167 133.139 34.29C133.359 34.8567 133.469 35.5033 133.469 36.23C133.469 36.5633 133.432 36.7867 133.359 36.9C133.286 37.0133 133.152 37.07 132.959 37.07H126.409ZM145.335 34.94C145.855 34.94 146.311 34.8733 146.705 34.74C147.105 34.6067 147.435 34.42 147.695 34.18C147.961 33.9333 148.161 33.6367 148.295 33.29C148.428 32.9433 148.495 32.5567 148.495 32.13C148.495 31.71 148.428 31.3333 148.295 31C148.168 30.6667 147.975 30.3833 147.715 30.15C147.455 29.9167 147.125 29.74 146.725 29.62C146.331 29.4933 145.868 29.43 145.335 29.43H143.195V34.94H145.335ZM145.335 27.6C146.275 27.6 147.088 27.71 147.775 27.93C148.468 28.15 149.038 28.46 149.485 28.86C149.938 29.2533 150.275 29.73 150.495 30.29C150.715 30.8433 150.825 31.4567 150.825 32.13C150.825 32.8167 150.708 33.4467 150.475 34.02C150.241 34.5867 149.895 35.0767 149.435 35.49C148.975 35.8967 148.401 36.2167 147.715 36.45C147.035 36.6767 146.241 36.79 145.335 36.79H143.195V42H140.855V27.6H145.335ZM154.793 27.2V42H152.643V27.2H154.793ZM162.897 37.54C162.13 37.5667 161.483 37.63 160.957 37.73C160.43 37.8233 160.003 37.9467 159.677 38.1C159.35 38.2467 159.113 38.4233 158.967 38.63C158.827 38.8367 158.757 39.0633 158.757 39.31C158.757 39.55 158.793 39.7567 158.867 39.93C158.947 40.0967 159.053 40.2367 159.187 40.35C159.327 40.4567 159.487 40.5367 159.667 40.59C159.853 40.6367 160.057 40.66 160.277 40.66C160.837 40.66 161.317 40.5567 161.717 40.35C162.123 40.1367 162.517 39.83 162.897 39.43V37.54ZM157.197 33.22C158.35 32.1467 159.723 31.61 161.317 31.61C161.903 31.61 162.423 31.7067 162.877 31.9C163.337 32.0867 163.72 32.3533 164.027 32.7C164.34 33.0467 164.577 33.46 164.737 33.94C164.903 34.4133 164.987 34.94 164.987 35.52V42H164.027C163.82 42 163.663 41.97 163.557 41.91C163.45 41.8433 163.36 41.7133 163.287 41.52L163.077 40.69C162.817 40.9233 162.56 41.1333 162.307 41.32C162.053 41.5 161.79 41.6533 161.517 41.78C161.25 41.9067 160.96 42 160.647 42.06C160.34 42.1267 160 42.16 159.627 42.16C159.213 42.16 158.827 42.1033 158.467 41.99C158.113 41.8767 157.807 41.7067 157.547 41.48C157.287 41.2467 157.08 40.96 156.927 40.62C156.78 40.28 156.707 39.88 156.707 39.42C156.707 39.0267 156.81 38.6433 157.017 38.27C157.23 37.8967 157.577 37.5633 158.057 37.27C158.543 36.97 159.18 36.7233 159.967 36.53C160.76 36.3367 161.737 36.2267 162.897 36.2V35.52C162.897 34.7867 162.74 34.24 162.427 33.88C162.113 33.52 161.653 33.34 161.047 33.34C160.633 33.34 160.287 33.3933 160.007 33.5C159.727 33.6 159.483 33.71 159.277 33.83C159.07 33.95 158.887 34.0633 158.727 34.17C158.567 34.27 158.397 34.32 158.217 34.32C158.07 34.32 157.943 34.2833 157.837 34.21C157.737 34.13 157.653 34.0333 157.587 33.92L157.197 33.22ZM176.282 31.8L170.662 44.9C170.589 45.0533 170.499 45.1733 170.392 45.26C170.292 45.3467 170.135 45.39 169.922 45.39H168.332L170.212 41.31L166.052 31.8H167.922C168.102 31.8 168.239 31.8433 168.332 31.93C168.432 32.01 168.505 32.1067 168.552 32.22L170.982 38.01C171.042 38.1767 171.095 38.3433 171.142 38.51C171.195 38.67 171.245 38.8367 171.292 39.01C171.345 38.8367 171.399 38.6667 171.452 38.5C171.505 38.3333 171.565 38.1667 171.632 38L173.962 32.22C174.009 32.1 174.085 32 174.192 31.92C174.305 31.84 174.429 31.8 174.562 31.8H176.282Z" fill="black"/>
<path d="M56.9387 36.3798L49.7881 40.4462L43.3747 34.0423L49.8392 27.587L56.9387 31.6241C57.3577 31.8621 57.7063 32.2077 57.9488 32.6255C58.1913 33.0433 58.3191 33.5183 58.3191 34.0019C58.3191 34.4856 58.1913 34.9606 57.9488 35.3784C57.7063 35.7961 57.3577 36.1417 56.9387 36.3798ZM19.2044 13.6939C19.069 14.0242 18.9995 14.378 19 14.7352V53.2668C19 53.6646 19.0821 54.035 19.2263 54.3668L39.5795 34.0404L19.2044 13.6939ZM41.4771 32.1466L47.4216 26.2102L23.0597 12.3574C22.5375 12.0559 21.9294 11.9402 21.3337 12.0292L41.4771 32.1466ZM41.4771 35.9361L21.4066 55.9802C21.9504 56.0462 22.5233 55.9508 23.0597 55.6446L47.3705 41.8212L41.4771 35.9361Z" fill="black"/>
</svg>
