<svg width="195" height="68" viewBox="0 0 195 68" fill="none" xmlns="http://www.w3.org/2000/svg">
<rect x="0.5" y="0.5" width="194" height="67" rx="9.5" stroke="white"/>
<path d="M83.5 32.91V38.61C82.0667 39.6433 80.4 40.16 78.5 40.16C77.3333 40.16 76.2767 39.98 75.33 39.62C74.39 39.2533 73.5867 38.7467 72.92 38.1C72.2533 37.4467 71.74 36.67 71.38 35.77C71.02 34.87 70.84 33.88 70.84 32.8C70.84 31.7133 71.0133 30.72 71.36 29.82C71.7067 28.9133 72.2033 28.1367 72.85 27.49C73.4967 26.8367 74.2767 26.3333 75.19 25.98C76.1033 25.62 77.13 25.44 78.27 25.44C78.85 25.44 79.3867 25.4867 79.88 25.58C80.38 25.6667 80.8433 25.79 81.27 25.95C81.6967 26.11 82.09 26.3033 82.45 26.53C82.81 26.7567 83.14 27.01 83.44 27.29L82.77 28.36C82.6633 28.5267 82.5267 28.63 82.36 28.67C82.1933 28.71 82.0133 28.67 81.82 28.55C81.6267 28.4367 81.42 28.3167 81.2 28.19C80.9867 28.0633 80.74 27.9467 80.46 27.84C80.18 27.7267 79.8567 27.6367 79.49 27.57C79.1233 27.4967 78.69 27.46 78.19 27.46C77.43 27.46 76.7433 27.5867 76.13 27.84C75.5233 28.0867 75.0033 28.4433 74.57 28.91C74.1367 29.37 73.8033 29.93 73.57 30.59C73.3367 31.25 73.22 31.9867 73.22 32.8C73.22 33.66 73.3433 34.43 73.59 35.11C73.8367 35.7833 74.1867 36.3567 74.64 36.83C75.0933 37.2967 75.64 37.6533 76.28 37.9C76.9267 38.1467 77.6467 38.27 78.44 38.27C79.0333 38.27 79.56 38.2067 80.02 38.08C80.4867 37.9533 80.9433 37.7767 81.39 37.55V34.69H79.38C79.2267 34.69 79.1067 34.65 79.02 34.57C78.9333 34.4833 78.89 34.3733 78.89 34.24V32.91H83.5ZM90.1536 29.64C90.9069 29.64 91.5869 29.7633 92.1936 30.01C92.8069 30.2567 93.3269 30.6067 93.7536 31.06C94.1869 31.5133 94.5203 32.0633 94.7536 32.71C94.9869 33.3567 95.1036 34.0833 95.1036 34.89C95.1036 35.6967 94.9869 36.4233 94.7536 37.07C94.5203 37.7167 94.1869 38.27 93.7536 38.73C93.3269 39.1833 92.8069 39.5333 92.1936 39.78C91.5869 40.0267 90.9069 40.15 90.1536 40.15C89.3936 40.15 88.7069 40.0267 88.0936 39.78C87.4869 39.5333 86.9669 39.1833 86.5336 38.73C86.1003 38.27 85.7669 37.7167 85.5336 37.07C85.3003 36.4233 85.1836 35.6967 85.1836 34.89C85.1836 34.0833 85.3003 33.3567 85.5336 32.71C85.7669 32.0633 86.1003 31.5133 86.5336 31.06C86.9669 30.6067 87.4869 30.2567 88.0936 30.01C88.7069 29.7633 89.3936 29.64 90.1536 29.64ZM90.1536 38.47C91.0736 38.47 91.7569 38.1633 92.2036 37.55C92.6569 36.93 92.8836 36.0467 92.8836 34.9C92.8836 33.7533 92.6569 32.87 92.2036 32.25C91.7569 31.6233 91.0736 31.31 90.1536 31.31C89.2203 31.31 88.5269 31.6233 88.0736 32.25C87.6203 32.87 87.3936 33.7533 87.3936 34.9C87.3936 36.0467 87.6203 36.93 88.0736 37.55C88.5269 38.1633 89.2203 38.47 90.1536 38.47ZM101.579 29.64C102.333 29.64 103.013 29.7633 103.619 30.01C104.233 30.2567 104.753 30.6067 105.179 31.06C105.613 31.5133 105.946 32.0633 106.179 32.71C106.413 33.3567 106.529 34.0833 106.529 34.89C106.529 35.6967 106.413 36.4233 106.179 37.07C105.946 37.7167 105.613 38.27 105.179 38.73C104.753 39.1833 104.233 39.5333 103.619 39.78C103.013 40.0267 102.333 40.15 101.579 40.15C100.819 40.15 100.133 40.0267 99.5194 39.78C98.9127 39.5333 98.3927 39.1833 97.9594 38.73C97.526 38.27 97.1927 37.7167 96.9594 37.07C96.726 36.4233 96.6094 35.6967 96.6094 34.89C96.6094 34.0833 96.726 33.3567 96.9594 32.71C97.1927 32.0633 97.526 31.5133 97.9594 31.06C98.3927 30.6067 98.9127 30.2567 99.5194 30.01C100.133 29.7633 100.819 29.64 101.579 29.64ZM101.579 38.47C102.499 38.47 103.183 38.1633 103.629 37.55C104.083 36.93 104.309 36.0467 104.309 34.9C104.309 33.7533 104.083 32.87 103.629 32.25C103.183 31.6233 102.499 31.31 101.579 31.31C100.646 31.31 99.9527 31.6233 99.4994 32.25C99.046 32.87 98.8194 33.7533 98.8194 34.9C98.8194 36.0467 99.046 36.93 99.4994 37.55C99.9527 38.1633 100.646 38.47 101.579 38.47ZM112.157 34.81C112.824 34.81 113.324 34.64 113.657 34.3C113.99 33.96 114.157 33.5167 114.157 32.97C114.157 32.41 113.99 31.9667 113.657 31.64C113.324 31.3133 112.824 31.15 112.157 31.15C111.497 31.15 110.997 31.3133 110.657 31.64C110.324 31.9667 110.157 32.41 110.157 32.97C110.157 33.2367 110.2 33.4833 110.287 33.71C110.374 33.9367 110.5 34.1333 110.667 34.3C110.834 34.46 111.04 34.5867 111.287 34.68C111.54 34.7667 111.83 34.81 112.157 34.81ZM115.147 40.5C115.147 40.2733 115.08 40.0933 114.947 39.96C114.82 39.82 114.647 39.7133 114.427 39.64C114.207 39.56 113.95 39.5033 113.657 39.47C113.364 39.43 113.05 39.4033 112.717 39.39C112.39 39.37 112.054 39.3533 111.707 39.34C111.367 39.32 111.037 39.2867 110.717 39.24C110.397 39.4067 110.134 39.6067 109.927 39.84C109.727 40.0733 109.627 40.3433 109.627 40.65C109.627 40.85 109.677 41.0367 109.777 41.21C109.884 41.3833 110.044 41.5333 110.257 41.66C110.477 41.7867 110.754 41.8867 111.087 41.96C111.427 42.0333 111.834 42.07 112.307 42.07C113.254 42.07 113.964 41.9233 114.437 41.63C114.91 41.3367 115.147 40.96 115.147 40.5ZM117.307 30.17V30.97C117.307 31.2367 117.147 31.4 116.827 31.46L115.807 31.63C115.98 32.0167 116.067 32.4467 116.067 32.92C116.067 33.42 115.967 33.8733 115.767 34.28C115.574 34.6867 115.304 35.0333 114.957 35.32C114.61 35.6067 114.197 35.8267 113.717 35.98C113.237 36.1333 112.717 36.21 112.157 36.21C111.944 36.21 111.734 36.2 111.527 36.18C111.327 36.1533 111.13 36.12 110.937 36.08C110.744 36.1933 110.6 36.3133 110.507 36.44C110.414 36.5667 110.367 36.6967 110.367 36.83C110.367 37.05 110.464 37.2133 110.657 37.32C110.85 37.4267 111.104 37.5033 111.417 37.55C111.737 37.5967 112.1 37.6267 112.507 37.64C112.914 37.6533 113.327 37.6767 113.747 37.71C114.167 37.7433 114.58 37.8 114.987 37.88C115.394 37.9533 115.754 38.08 116.067 38.26C116.387 38.4333 116.644 38.67 116.837 38.97C117.03 39.27 117.127 39.66 117.127 40.14C117.127 40.58 117.017 41.01 116.797 41.43C116.577 41.85 116.257 42.2233 115.837 42.55C115.424 42.8767 114.917 43.1367 114.317 43.33C113.717 43.53 113.034 43.63 112.267 43.63C111.507 43.63 110.844 43.5567 110.277 43.41C109.717 43.2633 109.247 43.0633 108.867 42.81C108.494 42.5633 108.214 42.2767 108.027 41.95C107.847 41.6233 107.757 41.2833 107.757 40.93C107.757 40.45 107.907 40.04 108.207 39.7C108.514 39.36 108.927 39.0933 109.447 38.9C109.167 38.7667 108.94 38.5833 108.767 38.35C108.6 38.1167 108.517 37.81 108.517 37.43C108.517 37.13 108.627 36.8167 108.847 36.49C109.067 36.1633 109.397 35.8867 109.837 35.66C109.33 35.38 108.93 35.01 108.637 34.55C108.344 34.0833 108.197 33.54 108.197 32.92C108.197 32.4133 108.294 31.9567 108.487 31.55C108.687 31.1433 108.964 30.7967 109.317 30.51C109.67 30.2233 110.087 30.0033 110.567 29.85C111.054 29.6967 111.584 29.62 112.157 29.62C113.037 29.62 113.804 29.8033 114.457 30.17H117.307ZM121.195 25.2V40H119.045V25.2H121.195ZM130.539 33.75C130.539 33.39 130.486 33.0567 130.379 32.75C130.279 32.4367 130.129 32.1667 129.929 31.94C129.729 31.7067 129.479 31.5267 129.179 31.4C128.886 31.2667 128.546 31.2 128.159 31.2C127.379 31.2 126.766 31.4233 126.319 31.87C125.872 32.3167 125.589 32.9433 125.469 33.75H130.539ZM125.409 35.07C125.436 35.65 125.526 36.1533 125.679 36.58C125.832 37 126.036 37.35 126.289 37.63C126.549 37.91 126.856 38.12 127.209 38.26C127.569 38.3933 127.969 38.46 128.409 38.46C128.829 38.46 129.192 38.4133 129.499 38.32C129.806 38.22 130.072 38.1133 130.299 38C130.526 37.88 130.719 37.7733 130.879 37.68C131.039 37.58 131.186 37.53 131.319 37.53C131.492 37.53 131.626 37.5967 131.719 37.73L132.329 38.52C132.076 38.82 131.789 39.0733 131.469 39.28C131.149 39.4867 130.809 39.6567 130.449 39.79C130.089 39.9167 129.719 40.0067 129.339 40.06C128.959 40.12 128.589 40.15 128.229 40.15C127.522 40.15 126.866 40.0333 126.259 39.8C125.659 39.56 125.136 39.21 124.689 38.75C124.249 38.29 123.902 37.72 123.649 37.04C123.402 36.36 123.279 35.5767 123.279 34.69C123.279 33.9833 123.389 33.3233 123.609 32.71C123.836 32.0967 124.156 31.5633 124.569 31.11C124.989 30.6567 125.496 30.3 126.089 30.04C126.689 29.7733 127.366 29.64 128.119 29.64C128.746 29.64 129.326 29.7433 129.859 29.95C130.392 30.15 130.852 30.4467 131.239 30.84C131.626 31.2333 131.926 31.7167 132.139 32.29C132.359 32.8567 132.469 33.5033 132.469 34.23C132.469 34.5633 132.432 34.7867 132.359 34.9C132.286 35.0133 132.152 35.07 131.959 35.07H125.409ZM144.335 32.94C144.855 32.94 145.311 32.8733 145.705 32.74C146.105 32.6067 146.435 32.42 146.695 32.18C146.961 31.9333 147.161 31.6367 147.295 31.29C147.428 30.9433 147.495 30.5567 147.495 30.13C147.495 29.71 147.428 29.3333 147.295 29C147.168 28.6667 146.975 28.3833 146.715 28.15C146.455 27.9167 146.125 27.74 145.725 27.62C145.331 27.4933 144.868 27.43 144.335 27.43H142.195V32.94H144.335ZM144.335 25.6C145.275 25.6 146.088 25.71 146.775 25.93C147.468 26.15 148.038 26.46 148.485 26.86C148.938 27.2533 149.275 27.73 149.495 28.29C149.715 28.8433 149.825 29.4567 149.825 30.13C149.825 30.8167 149.708 31.4467 149.475 32.02C149.241 32.5867 148.895 33.0767 148.435 33.49C147.975 33.8967 147.401 34.2167 146.715 34.45C146.035 34.6767 145.241 34.79 144.335 34.79H142.195V40H139.855V25.6H144.335ZM153.793 25.2V40H151.643V25.2H153.793ZM161.897 35.54C161.13 35.5667 160.483 35.63 159.957 35.73C159.43 35.8233 159.003 35.9467 158.677 36.1C158.35 36.2467 158.113 36.4233 157.967 36.63C157.827 36.8367 157.757 37.0633 157.757 37.31C157.757 37.55 157.793 37.7567 157.867 37.93C157.947 38.0967 158.053 38.2367 158.187 38.35C158.327 38.4567 158.487 38.5367 158.667 38.59C158.853 38.6367 159.057 38.66 159.277 38.66C159.837 38.66 160.317 38.5567 160.717 38.35C161.123 38.1367 161.517 37.83 161.897 37.43V35.54ZM156.197 31.22C157.35 30.1467 158.723 29.61 160.317 29.61C160.903 29.61 161.423 29.7067 161.877 29.9C162.337 30.0867 162.72 30.3533 163.027 30.7C163.34 31.0467 163.577 31.46 163.737 31.94C163.903 32.4133 163.987 32.94 163.987 33.52V40H163.027C162.82 40 162.663 39.97 162.557 39.91C162.45 39.8433 162.36 39.7133 162.287 39.52L162.077 38.69C161.817 38.9233 161.56 39.1333 161.307 39.32C161.053 39.5 160.79 39.6533 160.517 39.78C160.25 39.9067 159.96 40 159.647 40.06C159.34 40.1267 159 40.16 158.627 40.16C158.213 40.16 157.827 40.1033 157.467 39.99C157.113 39.8767 156.807 39.7067 156.547 39.48C156.287 39.2467 156.08 38.96 155.927 38.62C155.78 38.28 155.707 37.88 155.707 37.42C155.707 37.0267 155.81 36.6433 156.017 36.27C156.23 35.8967 156.577 35.5633 157.057 35.27C157.543 34.97 158.18 34.7233 158.967 34.53C159.76 34.3367 160.737 34.2267 161.897 34.2V33.52C161.897 32.7867 161.74 32.24 161.427 31.88C161.113 31.52 160.653 31.34 160.047 31.34C159.633 31.34 159.287 31.3933 159.007 31.5C158.727 31.6 158.483 31.71 158.277 31.83C158.07 31.95 157.887 32.0633 157.727 32.17C157.567 32.27 157.397 32.32 157.217 32.32C157.07 32.32 156.943 32.2833 156.837 32.21C156.737 32.13 156.653 32.0333 156.587 31.92L156.197 31.22ZM175.282 29.8L169.662 42.9C169.589 43.0533 169.499 43.1733 169.392 43.26C169.292 43.3467 169.135 43.39 168.922 43.39H167.332L169.212 39.31L165.052 29.8H166.922C167.102 29.8 167.239 29.8433 167.332 29.93C167.432 30.01 167.505 30.1067 167.552 30.22L169.982 36.01C170.042 36.1767 170.095 36.3433 170.142 36.51C170.195 36.67 170.245 36.8367 170.292 37.01C170.345 36.8367 170.399 36.6667 170.452 36.5C170.505 36.3333 170.565 36.1667 170.632 36L172.962 30.22C173.009 30.1 173.085 30 173.192 29.92C173.305 29.84 173.429 29.8 173.562 29.8H175.282Z" fill="white"/>
<path d="M56.9387 36.3798L49.7881 40.4462L43.3747 34.0423L49.8392 27.587L56.9387 31.6241C57.3577 31.8621 57.7063 32.2077 57.9488 32.6255C58.1913 33.0433 58.3191 33.5183 58.3191 34.0019C58.3191 34.4856 58.1913 34.9606 57.9488 35.3784C57.7063 35.7961 57.3577 36.1417 56.9387 36.3798ZM19.2044 13.6939C19.069 14.0242 18.9995 14.378 19 14.7352V53.2668C19 53.6646 19.0821 54.035 19.2263 54.3668L39.5795 34.0404L19.2044 13.6939ZM41.4771 32.1466L47.4216 26.2102L23.0597 12.3574C22.5375 12.0559 21.9294 11.9402 21.3337 12.0292L41.4771 32.1466ZM41.4771 35.9361L21.4066 55.9802C21.9504 56.0462 22.5233 55.9508 23.0597 55.6446L47.3705 41.8212L41.4771 35.9361Z" fill="white"/>
</svg>
