<svg width="19" height="14" viewBox="0 0 19 14" fill="none" xmlns="http://www.w3.org/2000/svg">
<path d="M7.6549 0.376683C7.89888 0.627804 8.01599 0.931242 8.00623 1.287C7.99566 1.64275 7.86838 1.94619 7.6244 2.19731L4.17817 5.7444L17.7801 5.7444C18.1257 5.7444 18.4157 5.86493 18.6499 6.10601C18.8833 6.34625 19 6.64425 19 7C19 7.35576 18.8833 7.65417 18.6499 7.89525C18.4157 8.13549 18.1257 8.25561 17.7801 8.25561L4.17817 8.25561L7.6549 11.8341C7.89888 12.0852 8.02087 12.3836 8.02087 12.7293C8.02087 13.0742 7.89888 13.3722 7.6549 13.6233C7.41092 13.8744 7.12099 14 6.78511 14C6.45004 14 6.16051 13.8744 5.91653 13.6233L0.335476 7.87892C0.213486 7.75336 0.126871 7.61734 0.0756359 7.47085C0.0252132 7.32437 0 7.16741 0 7C0 6.83259 0.0252132 6.67564 0.0756359 6.52915C0.126871 6.38266 0.213486 6.24664 0.335476 6.12108L5.94703 0.345293C6.17068 0.115099 6.45004 0 6.78511 0C7.12099 0 7.41092 0.125562 7.6549 0.376683Z" fill="black"/>
</svg>
