<svg width="286" height="294" viewBox="0 0 286 294" fill="none" xmlns="http://www.w3.org/2000/svg">
<rect x="0.5" y="0.5" width="285" height="292.13" rx="19.5" stroke="white"/>
<path d="M66.1523 69.3214H91.9003V95.0693H66.1523V69.3214Z" fill="white"/>
<path d="M117.648 43.5734V120.817H40.4043V43.5734H117.648ZM104.774 56.4474H53.2783V107.943H104.774V56.4474ZM91.9001 198.061H66.1522V223.809H91.9001V198.061Z" fill="white"/>
<path d="M117.648 172.313V249.557H40.4043V172.313H117.648ZM53.2783 185.187V236.683H104.774V185.187H53.2783ZM194.892 69.3214H220.64V95.0693H194.892V69.3214Z" fill="white"/>
<path d="M169.144 43.5734V120.817H246.388V43.5734H169.144ZM233.514 56.4474V107.943H182.018V56.4474H233.514ZM143.396 56.4474V43.5734H156.27V69.3213H143.396V95.0693H130.522V56.4474H143.396ZM143.396 120.817V95.0693H156.27V120.817H143.396ZM117.648 146.565V133.691H130.522V120.817H143.396V146.565H156.27V133.691H220.64V146.565H169.144V159.439H130.522V146.565H117.648ZM117.648 146.565V159.439H66.1522V146.565H53.2783V159.439H40.4043V133.691H79.0262V146.565H117.648ZM246.388 159.439H233.514V133.691H246.388V159.439ZM233.514 159.439H220.64V185.187H246.388V172.313H233.514V159.439ZM182.018 159.439H207.766V172.313H194.892V185.187H182.018V159.439ZM207.766 198.061V185.187H194.892V198.061H182.018V210.935H156.27V223.809H194.892V198.061H207.766ZM207.766 198.061H246.388V210.935H220.64V223.809H207.766V198.061ZM156.27 185.187V198.061H169.144V172.313H130.522V185.187H156.27Z" fill="white"/>
<path d="M130.522 198.061H143.396V236.683H194.892V249.557H130.522V198.061ZM246.388 223.809V249.557H207.766V236.683H233.514V223.809H246.388Z" fill="white"/>
</svg>
