<svg width="1670" height="1415" viewBox="0 0 1670 1415" fill="none" xmlns="http://www.w3.org/2000/svg">
<path d="M136.237 404.579C132.666 404.579 129.366 402.675 127.579 399.584L23.2929 219.194C21.5027 216.097 21.5027 212.28 23.2929 209.184L127.579 28.794C129.366 25.7028 132.666 23.799 136.237 23.799H344.839C348.41 23.799 351.709 25.7028 353.496 28.794L457.783 209.184C459.573 212.28 459.573 216.097 457.783 219.194L353.496 399.584C351.709 402.675 348.41 404.579 344.839 404.579H136.237Z" fill="white" fill-opacity="0.08"/>
<path d="M1208.88 1273.23C1205.31 1273.23 1202.01 1271.33 1200.22 1268.24L1121.44 1132.05C1119.65 1128.95 1119.65 1125.13 1121.44 1122.03L1200.22 985.841C1202.01 982.751 1205.31 980.848 1208.88 980.848H1366.49C1370.06 980.848 1373.36 982.751 1375.14 985.841L1453.93 1122.03C1455.72 1125.13 1455.72 1128.95 1453.93 1132.05L1375.14 1268.24C1373.36 1271.33 1370.06 1273.23 1366.49 1273.23H1208.88Z" fill="white" fill-opacity="0.08"/>
<path d="M1102.73 258.586C1101.48 258.586 1100.32 257.917 1099.7 256.831L1027.78 131.788C1027.16 130.708 1027.16 129.378 1027.78 128.298L1099.7 3.255L1098.4 2.50714L1099.7 3.25499C1100.32 2.16928 1101.48 1.5 1102.73 1.5H1246.54C1247.79 1.5 1248.95 2.16928 1249.58 3.25499L1321.5 128.298C1322.12 129.378 1322.12 130.708 1321.5 131.788L1249.58 256.831C1248.95 257.917 1247.79 258.586 1246.54 258.586H1102.73Z" stroke="white" stroke-opacity="0.08" stroke-width="3"/>
<path d="M143.128 1271.73C141.878 1271.73 140.723 1271.07 140.097 1269.98L86.0392 1176.39C85.4136 1175.3 85.4136 1173.97 86.0392 1172.89L140.097 1079.29C140.723 1078.21 141.878 1077.54 143.128 1077.54H251.252C252.502 1077.54 253.657 1078.21 254.282 1079.29L308.341 1172.89C308.966 1173.97 308.966 1175.3 308.341 1176.39L254.282 1269.98C253.657 1271.07 252.502 1271.73 251.252 1271.73H143.128Z" stroke="white" stroke-opacity="0.08" stroke-width="3"/>
<path d="M156.733 986.348C156.017 986.348 155.356 985.966 154.999 985.345L4.03251 722.609C3.678 721.992 3.678 721.233 4.03251 720.616L154.999 457.88C155.356 457.259 156.017 456.877 156.733 456.877H458.634C459.35 456.877 460.012 457.259 460.368 457.88L462.966 456.388L460.368 457.88L611.335 720.616C611.689 721.233 611.689 721.992 611.335 722.609L460.368 985.345C460.012 985.966 459.35 986.348 458.634 986.348H156.733Z" stroke="white" stroke-opacity="0.08" stroke-width="6"/>
<path d="M1406.16 707.562C1405.45 707.562 1404.79 707.18 1404.43 706.561L1250.07 438.725C1249.72 438.107 1249.72 437.346 1250.07 436.728L1404.43 168.892C1404.79 168.273 1405.45 167.891 1406.16 167.891H1714.87C1715.59 167.891 1716.25 168.273 1716.6 168.892L1870.96 436.728C1871.32 437.346 1871.32 438.107 1870.96 438.725L1716.6 706.561C1716.25 707.18 1715.59 707.562 1714.87 707.562H1406.16Z" stroke="white" stroke-opacity="0.08" stroke-width="6"/>
<path d="M585.866 588.169C582.293 588.169 578.992 586.263 577.206 583.169L424.465 318.634C422.679 315.54 422.679 311.728 424.465 308.633L577.206 44.098C578.992 41.0042 582.293 39.0983 585.866 39.0983H891.357C894.93 39.0983 898.231 41.0041 900.017 44.098L1052.76 308.633C1054.54 311.728 1054.54 315.54 1052.76 318.634L900.017 583.169C898.231 586.263 894.93 588.169 891.357 588.169H585.866Z" fill="white" fill-opacity="0.08"/>
<path d="M1162.36 936.65C1155.23 936.65 1148.63 932.85 1145.06 926.678L964.56 615.195C960.966 608.993 960.966 601.342 964.56 595.14L1145.06 283.658C1148.63 277.485 1155.23 273.685 1162.36 273.685H1523.5C1530.63 273.685 1537.22 277.485 1540.8 283.658L1721.3 595.14C1724.89 601.342 1724.89 608.993 1721.3 615.195L1540.8 926.678C1537.22 932.85 1530.63 936.65 1523.5 936.65H1162.36Z" fill="white" fill-opacity="0.08"/>
<path d="M483.258 1414.33C476.119 1414.33 469.52 1410.52 465.946 1404.34L245.479 1023.16C241.896 1016.97 241.896 1009.33 245.479 1003.13L465.946 621.954C469.52 615.774 476.119 611.968 483.258 611.968H924.268C931.407 611.968 938.006 615.774 941.58 621.954L1162.05 1003.13C1165.63 1009.33 1165.63 1016.97 1162.05 1023.16L941.58 1404.34C938.006 1410.52 931.407 1414.33 924.268 1414.33H483.258Z" fill="white" fill-opacity="0.08"/>
</svg>
