<svg width="81" height="80" viewBox="0 0 81 80" fill="none" xmlns="http://www.w3.org/2000/svg">
<path d="M80.4115 39.9071C80.4115 22.4811 69.3706 7.71554 53.8069 2.2616V77.5526C69.3706 72.0987 80.4115 57.3331 80.4115 39.9071Z" fill="#ED4C5C"/>
<path d="M0.598389 39.9071C0.598389 57.3331 11.7723 72.0987 27.203 77.5526V2.2616C11.7723 7.71554 0.598389 22.4811 0.598389 39.9071Z" fill="#699635"/>
<path d="M53.8073 2.26139C49.6835 0.798138 45.1608 0 40.505 0C35.8491 0 31.3264 0.798138 27.2027 2.26139V77.5524C31.3264 79.0157 35.8491 79.8138 40.505 79.8138C45.1608 79.8138 49.6835 79.0157 53.8073 77.5524V2.26139Z" fill="#FFE62E"/>
<path d="M40.5047 45.4944L47.5549 50.5493L44.8945 42.4349L51.8117 37.38H43.1652L40.5047 29.2656L37.8443 37.38H29.1978L36.115 42.4349L33.4545 50.5493L40.5047 45.4944Z" fill="#699635"/>
</svg>
