<svg width="626" height="585" viewBox="0 0 626 585" fill="none" xmlns="http://www.w3.org/2000/svg">
<path d="M59.6959 167.226C56.1253 167.226 52.8256 165.322 51.0385 162.231L11.3251 93.5362C9.53494 90.4397 9.53494 86.6228 11.3251 83.5263L51.0385 14.8318C52.8256 11.7406 56.1253 9.83679 59.6959 9.83679H139.148C142.719 9.83679 146.019 11.7406 147.806 14.8318L187.519 83.5263C189.309 86.6228 189.309 90.4397 187.519 93.5362L147.806 162.231C146.019 165.322 142.719 167.226 139.148 167.226H59.6959Z" fill="#F5F5F5"/>
<path d="M503.053 526.269C499.484 526.269 496.185 524.367 494.397 521.277L465.227 470.851C463.435 467.753 463.435 463.934 465.227 460.836L494.397 410.41C496.185 407.32 499.484 405.417 503.053 405.417H561.43C565 405.417 568.299 407.32 570.086 410.41L599.257 460.836C601.049 463.934 601.049 467.753 599.257 470.851L570.086 521.277C568.299 524.367 565 526.269 561.43 526.269H503.053Z" fill="#F5F5F5"/>
<path d="M457.493 106.002C456.241 106.002 455.084 105.333 454.459 104.247L426.42 55.4961L425.125 56.2409L426.42 55.4961C425.798 54.4158 425.798 53.0865 426.42 52.0061L454.459 3.255C455.084 2.16928 456.241 1.5 457.493 1.5H513.541C514.793 1.5 515.95 2.16928 516.575 3.255L544.614 52.0061C545.236 53.0865 545.236 54.4158 544.614 55.4961L516.575 104.247C515.95 105.333 514.793 106.002 513.541 106.002H457.493Z" stroke="#F5F5F5" stroke-width="3"/>
<path d="M60.8536 524.769C59.6034 524.769 58.4481 524.102 57.8228 523.02L37.173 487.267C36.5474 486.184 36.5474 484.849 37.173 483.766L57.8228 448.014C58.4481 446.931 59.6034 446.264 60.8536 446.264H102.158C103.408 446.264 104.564 446.931 105.189 448.014L125.839 483.766C126.464 484.849 126.464 486.184 125.839 487.267L105.189 523.02C104.564 524.102 103.408 524.769 102.158 524.769H60.8536Z" stroke="#F5F5F5" stroke-width="3"/>
<path d="M66.4806 407.43C65.2276 407.43 64.0702 406.76 63.4459 405.674L2.73192 300.01C2.11153 298.93 2.11153 297.602 2.73192 296.522L1.43396 295.777L2.73192 296.522L63.4459 190.858C64.0702 189.772 65.2276 189.102 66.4806 189.102H187.871C189.124 189.102 190.282 189.772 190.906 190.858L251.62 296.522C252.24 297.602 252.24 298.93 251.62 300.01L190.906 405.674C190.282 406.76 189.124 407.43 187.871 407.43H66.4806Z" stroke="#F5F5F5" stroke-width="3"/>
<path d="M582.909 292.199C581.658 292.199 580.501 291.531 579.876 290.447L517.766 182.675C517.142 181.593 517.142 180.261 517.766 179.179L579.876 71.4074C580.501 70.3232 581.658 69.655 582.909 69.655H707.119C708.37 69.655 709.526 70.3232 710.151 71.4074L772.262 179.179C772.885 180.261 772.885 181.593 772.262 182.675L710.151 290.447C709.526 291.531 708.37 292.199 707.119 292.199H582.909Z" stroke="#F5F5F5" stroke-width="3"/>
<path d="M245.544 243.11C241.972 243.11 238.671 241.204 236.884 238.11L177.139 134.635C175.353 131.541 175.353 127.729 177.139 124.635L236.884 21.1602C238.671 18.0663 241.972 16.1605 245.544 16.1605H365.04C368.613 16.1605 371.914 18.0663 373.7 21.1602L433.446 124.635C435.232 127.729 435.232 131.541 433.446 134.635L373.7 238.11C371.914 241.204 368.613 243.11 365.04 243.11H245.544Z" fill="#F5F5F5"/>
<path d="M487.205 387.149C480.071 387.149 473.477 383.349 469.9 377.176L402.094 260.164C398.5 253.962 398.5 246.31 402.094 240.108L469.9 123.096C473.477 116.923 480.071 113.123 487.205 113.123H622.95C630.084 113.123 636.678 116.923 640.255 123.096L708.061 240.108C711.655 246.31 711.655 253.962 708.061 260.164L640.255 377.176C636.678 383.349 630.084 387.149 622.95 387.149H487.205Z" fill="#F5F5F5"/>
<path d="M206.514 584.588C199.375 584.588 192.776 580.782 189.202 574.601L104.862 428.78C101.279 422.586 101.279 414.949 104.862 408.754L189.202 262.933C192.776 256.753 199.375 252.947 206.514 252.947H375.262C382.402 252.947 389 256.753 392.575 262.933L476.914 408.754C480.497 414.949 480.497 422.586 476.914 428.781L392.575 574.601C389 580.782 382.402 584.588 375.262 584.588H206.514Z" fill="#F5F5F5"/>
</svg>
