<svg width="440" height="417" viewBox="0 0 440 417" fill="none" xmlns="http://www.w3.org/2000/svg">
<path fill-rule="evenodd" clip-rule="evenodd" d="M18.6535 160.96C13.6005 148.34 18.0144 140.779 20.8437 130.909C23.207 122.664 41.6888 109.271 50.1947 123.236C52.6972 127.344 51.6933 131.228 57.1624 134.838C70.4018 143.579 63.1793 125.445 63.6716 120.861C63.9118 118.625 62.0225 113.469 62.7258 111.311C63.4638 109.046 67.3974 105.829 67.3974 101.136C67.3974 96.4418 59.3961 94.6341 57.1624 93.4808C37.3136 83.2327 24.6901 66.1155 30.9809 57.4284C39.7456 45.3249 74.0954 64.3685 84.4165 66.1155C84.5501 66.1381 86.3935 56.5155 87.899 54.3122C90.9112 49.9038 94.2402 45.6245 98.2117 42.056C99.9907 40.4575 102.402 39.4708 104.772 39.151C111.865 38.1939 119.122 37.4091 126.227 38.2759C128.737 38.5822 143.688 21.2785 149.518 15.6969C194.245 -27.1271 283.907 25.0583 235.033 95.9705C226.05 109.004 214.564 113.149 213.08 117.755C209.785 127.987 230.529 126.642 239.316 127.735C254.328 129.602 261.727 137.313 252.408 150.53C246.602 158.764 212.545 158.344 197.627 152.39C192.09 150.18 185.247 140.517 180.013 148.444C176.408 153.905 162.349 165.492 147.267 172.047C140.46 175.006 132.707 173.222 126.898 175.864C118.721 179.583 94.5828 195.198 84.4165 195.194C74.178 195.191 60.9287 182.869 59.3961 182.061C57.0597 180.829 38.9863 177.298 30.0578 163.52C27.3579 159.354 20.5032 165.579 18.6535 160.96Z" fill="white"/>
<path d="M195.635 87.8013C195.635 89.5107 194.229 90.8963 192.495 90.8963C190.761 90.8963 189.355 89.5107 189.355 87.8013C189.355 86.092 190.761 84.7063 192.495 84.7063C194.229 84.7063 195.635 86.092 195.635 87.8013Z" fill="#5F19F2"/>
<path d="M172.554 81.3413C172.554 83.025 171.189 84.3899 169.506 84.3899C167.822 84.3899 166.457 83.025 166.457 81.3413C166.457 79.6576 167.822 78.2927 169.506 78.2927C171.189 78.2927 172.554 79.6576 172.554 81.3413Z" fill="#5F19F2"/>
<path d="M59.9185 260.338C59.9185 275.732 46.6479 288.211 30.2776 288.211C13.9074 288.211 0.636719 275.732 0.636719 260.338C0.636719 244.944 13.9074 232.465 30.2776 232.465C46.6479 232.465 59.9185 244.944 59.9185 260.338Z" fill="white"/>
<path d="M432.992 78.7282C432.992 101.578 414.468 120.102 391.618 120.102C368.768 120.102 350.244 101.578 350.244 78.7282C350.244 55.878 368.768 37.3543 391.618 37.3543C414.468 37.3543 432.992 55.878 432.992 78.7282Z" fill="white"/>
<path d="M382.472 313.445C382.472 370.196 328.646 416.201 262.249 416.201C195.851 416.201 142.025 370.196 142.025 313.445C142.025 256.695 195.851 210.689 262.249 210.689C328.646 210.689 382.472 256.695 382.472 313.445Z" fill="white"/>
<path fill-rule="evenodd" clip-rule="evenodd" d="M160.327 369.474L161.676 370.45C158.631 373.183 154.049 369.785 151.481 366.6C147.351 361.479 143.159 356.037 141.902 349.579C141.187 345.904 141.473 342.117 141.762 338.385L142.927 323.336C143.443 316.667 143.961 309.985 145.116 303.397C148.24 285.566 156.105 268.587 167.686 254.673L167.802 254.534C169.847 252.078 172.08 249.396 172.041 246.212C171.957 239.475 175.837 233.179 180.931 228.769C186.025 224.359 192.262 221.529 198.404 218.759C201.186 217.504 204.82 216.38 206.976 218.54C211.411 222.983 218.813 220.153 224.672 217.896C231.865 215.125 239.548 213.633 247.255 213.508C247.479 213.504 247.705 213.501 247.932 213.498C252.56 213.432 257.768 213.358 260.591 209.772C262.389 207.49 265.826 207.622 268.711 207.967L288.552 210.34C290.068 210.522 291.885 210.935 292.363 212.386C293.645 216.274 298.167 217.861 302.087 219.043C316.023 223.245 329.644 228.95 341.476 237.429C353.307 245.908 363.307 257.313 368.613 270.867C359.986 259.076 351.135 247.062 339.163 238.688C335.736 236.292 332.092 234.223 328.393 232.273C319.663 227.671 310.577 223.704 301.138 220.823C257.32 207.448 206.633 219.852 173.943 251.95C169.203 256.604 164.759 261.731 162.071 267.805L165.622 268.907C159.994 271.422 155.814 276.934 154.909 283.032C157.174 279.152 160.402 275.84 164.222 273.476C163.129 277.129 160.285 280.064 157.498 282.941C153.945 286.607 150.483 290.18 150.851 295.024C152.537 290.598 156.786 287.256 161.486 286.661C154.032 293.944 146.033 302.492 146.27 312.911C148.989 306.894 153.606 301.753 159.297 298.404L151.105 309.412C148.007 313.575 144.744 318.333 145.453 323.474C148.148 318.637 152.001 314.451 156.598 311.365C154.384 316.4 151.224 321.016 147.33 324.901C151.033 324.454 154.597 322.92 157.468 320.54C156.265 322.22 155.18 324.116 155.14 326.182C155.099 328.248 156.438 330.465 158.483 330.763C159.102 329.378 161.044 328.793 162.324 329.606C158.443 333.382 158.403 340.379 162.241 344.199C162.582 342.404 164.097 340.891 165.892 340.551C163.03 345.556 162.515 351.841 164.525 357.245C165.134 354.183 166.832 351.35 169.246 349.37C167.855 356.633 164.778 363.568 160.327 369.474ZM158.631 367.159C161.055 367.134 162.562 364.423 162.815 362.013C163.117 359.129 162.401 356.247 161.69 353.436L157.474 336.763C156.681 337.014 156.589 337.877 156.492 338.781C156.41 339.553 156.324 340.355 155.797 340.83C154.73 339.503 154.608 337.494 155.508 336.049C156.417 334.589 155.822 332.545 154.534 331.408C153.245 330.27 151.452 329.884 149.734 329.827C148.805 329.796 147.817 329.868 147.058 330.403C146.298 330.937 145.898 332.074 146.438 332.83C148.044 335.081 149.253 337.616 149.991 340.281C150.046 340.48 150.1 340.682 150.153 340.884C150.52 342.268 150.898 343.691 151.91 344.678C152.693 345.44 152.892 346.604 153.051 347.685L154.339 356.446C154.574 358.041 154.808 359.667 154.54 361.257C154.271 362.846 153.413 364.422 151.971 365.143L156.574 366.709C157.242 366.936 157.926 367.166 158.631 367.159ZM208.806 223.554C207.899 223.746 207.139 222.949 206.489 222.268L206.415 222.19C205.749 221.495 204.605 220.888 203.903 221.548C195.733 229.234 186.436 235.72 176.402 240.733C174.58 241.643 174.336 244.097 174.335 246.133C174.334 246.813 174.985 247.767 175.41 247.235C177.479 244.643 180.169 242.631 182.829 240.648C190.311 235.069 197.883 229.438 206.461 225.76C207.502 225.314 208.721 224.683 208.806 223.554ZM290.921 214.91C290.458 213.824 289.142 213.432 287.981 213.213C284.819 212.618 281.6 212.348 278.385 212.078C273.969 211.708 269.558 211.338 265.309 210.125C263.948 209.737 262.783 211.116 262.037 212.319C264.276 212.086 266.53 211.99 268.781 212.031C272.7 212.103 276.597 212.591 280.486 213.079C282.462 213.327 284.452 213.577 286.347 214.19C286.567 214.262 286.79 214.338 287.013 214.415C288.307 214.859 289.644 215.318 290.921 214.91Z" fill="black"/>
<path d="M249.093 231.611C249.988 231.815 250.841 232.484 250.975 233.393C251.108 234.3 250.489 235.183 249.698 235.645C248.906 236.106 247.971 236.236 247.062 236.356L244.328 236.718C244.054 236.754 243.771 236.793 243.534 236.934C242.846 237.341 242.894 238.444 243.456 239.012C244.018 239.579 244.88 239.72 245.678 239.719C249.398 239.712 252.919 237.035 254.055 233.493C254.325 232.652 254.467 231.717 254.133 230.899C253.964 230.484 253.681 230.125 253.366 229.806C251.903 228.323 249.724 227.67 247.646 227.817C245.569 227.964 243.592 228.848 241.902 230.065C241.092 230.648 240.319 231.331 239.859 232.217C239.399 233.102 239.3 234.227 239.815 235.082C240.012 235.408 240.315 235.697 240.691 235.758C241.067 235.82 241.5 235.577 241.547 235.199C241.677 234.149 242.443 233.262 243.357 232.727C244.271 232.193 245.324 231.959 246.362 231.751C247.263 231.571 248.197 231.406 249.093 231.611Z" fill="black"/>
<path d="M175.792 283.566C176.814 277.521 181.697 272.606 187.39 270.329C190.526 269.074 194.116 268.524 197.27 269.733C198.049 270.031 198.802 270.443 199.363 271.06C199.89 271.639 200.222 272.37 200.472 273.113C202.075 277.866 200.448 283.364 197.005 287.012C193.562 290.66 188.549 292.574 183.545 292.933C181.942 293.048 180.221 292.983 178.897 292.072C177.573 291.161 176.916 289.137 177.935 287.894C178.417 287.918 178.677 288.348 178.943 288.788C179.075 289.006 179.208 289.227 179.37 289.402C179.926 290 180.845 290.043 181.661 290.009C185.209 289.859 188.81 288.98 191.698 286.913C194.586 284.847 196.661 281.471 196.6 277.921C196.581 276.777 196.332 275.607 195.684 274.664C194.62 273.116 192.608 272.417 190.734 272.541C188.86 272.665 187.103 273.496 185.507 274.486C183.408 275.789 181.467 277.427 180.151 279.519C178.835 281.611 178.191 284.196 178.748 286.604C178.256 287.492 176.794 287.315 176.189 286.499C175.585 285.684 175.623 284.567 175.792 283.566Z" fill="black"/>
<path d="M208.467 333.39C205.871 335.061 203.719 337.675 203.318 340.735C202.995 343.212 203.825 345.678 204.642 348.037C205.281 349.879 205.94 351.76 207.156 353.283C209.352 356.034 212.988 357.173 216.463 357.732C217.41 357.884 218.846 357.456 218.508 356.559C214.839 356.492 211.23 354.791 208.842 352.004C206.454 349.218 205.326 345.391 205.821 341.754C205.926 340.989 206.1 340.228 206.421 339.526C207.071 338.105 208.283 337.013 209.595 336.166C212.419 334.341 215.857 333.486 219.206 333.775C222.436 334.054 225.662 335.47 227.634 338.043C229.605 340.616 230.075 344.412 228.335 347.147C228.053 347.592 227.846 348.378 228.365 348.471C231.165 346.962 232.72 343.635 232.563 340.457C232.406 337.28 230.728 334.306 228.423 332.114C227.148 330.901 225.638 329.877 223.927 329.465C221.672 328.921 219.312 329.482 217.069 330.072C214.084 330.857 211.063 331.72 208.467 333.39Z" fill="black"/>
<path d="M335.95 337.337C326.563 333.832 316.363 332.526 306.397 333.552C302.217 333.982 298.025 334.835 294.268 336.715C287.179 340.263 282.11 347.567 281.267 355.449C280.423 363.332 283.832 371.543 290.01 376.51C292.353 378.394 295.012 379.804 297.675 381.216C299.493 382.18 301.312 383.145 303.034 384.262C303.526 384.732 302.419 385.202 301.772 384.993C295.752 383.05 289.905 380.093 285.61 375.448C280.386 369.796 277.838 361.771 278.846 354.141C279.853 346.511 284.398 339.422 290.91 335.32C296.061 332.076 302.22 330.709 308.304 330.49C314.387 330.271 320.453 331.14 326.469 332.072C330.226 332.654 334.632 333.771 335.95 337.337Z" fill="black"/>
<path d="M237.184 349.098C236.757 348.121 235.044 347.867 234.731 348.885C232.739 355.365 226.416 360.264 219.645 360.575C218.114 360.645 216.583 360.503 215.057 360.355C211.773 360.037 208.385 359.662 205.509 358.044C201.372 355.719 198.883 350.943 198.854 346.198C198.825 341.453 201.076 336.841 204.493 333.549C204.019 332.221 201.982 332.863 200.971 333.846C195.366 339.294 194.404 348.698 198.337 355.453C202.27 362.208 210.512 365.995 218.282 365.136C226.051 364.277 233.066 359.075 236.678 352.143C237.17 351.198 237.61 350.074 237.184 349.098Z" fill="black"/>
<path d="M188.529 381.909C187.264 386.763 187.144 391.911 188.181 396.819C188.647 399.02 188.698 400.233 188.707 400.46C188.708 400.486 188.709 400.499 188.709 400.499C188.71 400.499 188.711 400.486 188.712 400.46C188.722 400.232 188.777 399.015 189.253 396.81C190.315 391.894 190.062 386.7 188.529 381.909Z" fill="black"/>
<path d="M195.253 384.846C193.455 388.615 193.678 393.278 195.828 396.859C196.31 397.663 196.677 398.317 196.947 398.799C197.31 399.448 197.5 399.787 197.566 399.764C197.638 399.74 197.561 399.285 197.402 398.333C197.338 397.952 197.26 397.49 197.174 396.945L195.253 384.846Z" fill="black"/>
<path d="M200.316 389.658C199.553 392.065 200.115 394.847 201.751 396.769C203.422 398.732 203.968 399.361 203.459 396.834C202.939 394.255 201.86 391.789 200.316 389.658Z" fill="black"/>
<path d="M346.83 362.286C344.534 371.502 337.201 378.485 330.091 384.782C330.416 385.483 331.466 385.232 332.139 384.853C339.341 380.799 345.168 374.193 347.827 366.369C350.486 358.544 349.825 349.554 345.628 342.435C345.276 341.837 344.827 341.201 344.146 341.067C343.465 340.934 342.681 341.724 343.081 342.29C347.115 348.004 348.52 355.499 346.83 362.286Z" fill="black"/>
<path d="M243.287 279.072C243.27 277.614 243.29 276.036 244.171 274.874C245.383 273.273 247.683 273.105 249.69 273.077C250.586 273.065 251.493 273.053 252.364 273.261C254.22 273.702 255.699 275.072 257.016 276.452C257.308 276.757 257.618 277.134 257.546 277.55C257.456 278.067 256.81 278.304 256.296 278.198C255.955 278.128 255.649 277.958 255.342 277.788C255.187 277.703 255.032 277.617 254.873 277.544C253.027 276.697 250.858 277.625 249.2 278.798C248.94 278.982 248.659 279.219 248.652 279.538C248.646 279.859 248.921 280.107 249.179 280.297C251.419 281.937 254.288 282.697 257.046 282.381C257.706 282.305 258.481 282.063 258.652 281.422C258.719 281.171 258.693 280.876 258.668 280.591C258.626 280.115 258.586 279.666 258.987 279.501C259.195 279.414 259.432 279.477 259.649 279.54C261.142 279.974 262.888 280.672 263.177 282.2C263.261 282.641 263.201 283.102 263.061 283.528C262.65 284.777 261.504 285.753 260.205 285.959C259.628 286.051 259.04 286.001 258.458 285.951C256.938 285.821 255.417 285.69 253.911 285.448C251.146 285.002 248.442 284.178 245.899 283.006C245.016 282.599 244.099 282.099 243.652 281.236C243.312 280.58 243.296 279.811 243.287 279.072Z" fill="black"/>
<path d="M300.077 243.12C299.188 240.718 297.041 238.823 294.547 238.239C293.776 238.059 292.904 238.014 292.25 238.461C291.596 238.908 291.371 239.998 291.995 240.487C292.6 240.961 292.234 242.075 291.495 242.286C290.756 242.497 289.961 241.995 289.592 241.321C289.223 240.647 289.183 239.846 289.179 239.078C289.173 238.052 289.267 236.908 290.024 236.217C290.313 235.953 290.673 235.784 291.029 235.624C292.505 234.964 294.137 234.405 295.714 234.759C297.217 235.097 298.416 236.206 299.464 237.335C300.323 238.261 301.136 239.23 301.898 240.237C302.57 241.125 303.215 242.072 303.468 243.156C303.72 244.24 303.502 245.498 302.665 246.231C301.845 246.948 300.584 247.01 299.589 246.566C298.709 246.175 297.959 245.313 298.024 244.353C298.09 243.393 299.269 242.597 300.077 243.12Z" fill="black"/>
<path fill-rule="evenodd" clip-rule="evenodd" d="M308.008 310.651C310.212 310.588 312.266 308.891 312.742 306.738C313.032 305.428 312.674 303.871 311.533 303.167C310.7 302.652 309.651 302.69 308.674 302.752C307.32 302.839 305.916 302.958 304.74 303.633C303.563 304.309 302.689 305.709 303.057 307.015C303.656 309.137 305.804 310.714 308.008 310.651ZM308.291 307.471C307.865 307.585 307.257 307.475 307.219 307.036C307.202 306.853 307.301 306.68 307.413 306.535C308.04 305.724 309.233 305.409 310.178 305.805C309.85 306.61 309.13 307.245 308.291 307.471Z" fill="black"/>
<path d="M309.429 274.853C309.07 274.024 309.766 273.059 310.611 272.741C311.288 272.487 312.023 272.513 312.753 272.54C312.934 272.546 313.115 272.553 313.295 272.555C314.198 272.566 315.196 272.416 315.781 271.729C315.988 271.486 316.128 271.13 315.97 270.853C315.806 270.564 315.417 270.514 315.085 270.497C312.784 270.378 310.067 270.448 308.74 272.332C308.455 272.737 307.757 272.601 307.49 272.183C307.224 271.766 307.285 271.218 307.437 270.746C307.98 269.058 309.54 267.83 311.244 267.337C312.948 266.845 314.777 267 316.507 267.392C317.091 267.524 317.696 267.698 318.122 268.118C318.46 268.451 318.649 268.907 318.772 269.365C319.361 271.555 318.491 274.064 316.673 275.42C314.854 276.776 312.201 276.893 310.27 275.702C309.925 275.49 309.59 275.224 309.429 274.853Z" fill="black"/>
<path d="M301.541 313.561C302.61 314.842 303.876 316.006 305.411 316.658C308.515 317.976 312.482 316.759 314.312 313.927C314.979 312.896 315.277 311.323 314.291 310.592C312.712 313.91 308.132 315.376 304.92 313.59C304.304 313.248 303.745 312.811 303.236 312.324C300.926 310.112 299.722 306.5 301.077 303.603C301.518 302.659 302.197 301.843 302.939 301.111C304.557 299.514 306.873 298.206 309.033 298.916C309.122 298.946 309.212 298.979 309.301 299.012C309.604 299.123 309.908 299.235 310.226 299.216C310.638 299.192 311.069 298.823 310.962 298.424C310.931 298.306 310.858 298.204 310.782 298.107C309.447 296.407 306.827 295.881 304.939 296.936C302.692 298.191 300.409 299.669 299.214 301.949C297.269 305.659 298.857 310.345 301.541 313.561Z" fill="black"/>
<path fill-rule="evenodd" clip-rule="evenodd" d="M337.327 256.334C337.228 256.475 337.253 256.673 337.276 256.861C337.304 257.085 337.331 257.297 337.147 257.388C336.475 257.72 335.669 257.685 334.953 257.466C332.996 256.865 331.684 255.069 330.577 253.348C329.93 252.341 329.285 251.272 329.18 250.079C329.076 248.887 329.686 247.544 330.834 247.207C332.115 246.831 333.37 247.783 334.367 248.671C335.492 249.672 336.641 250.704 337.336 252.039C338.032 253.374 338.187 255.099 337.327 256.334ZM333.072 251.866C333.348 252.135 333.499 252.495 333.65 252.855C333.799 253.211 333.948 253.566 334.217 253.834C334.557 254.173 335.073 254.325 335.542 254.224C334.663 252.862 333.643 251.591 332.505 250.437C332.201 250.528 332.176 250.979 332.359 251.239C332.47 251.397 332.625 251.512 332.781 251.629C332.882 251.704 332.982 251.779 333.072 251.866Z" fill="black"/>
<path d="M165.564 374.885C165.455 376.672 165.592 378.743 167.022 379.819C167.499 379.553 167.467 378.872 167.407 378.329C167.038 374.989 168.074 371.77 169.117 368.53C169.864 366.21 170.614 363.88 170.855 361.486C170.924 360.791 170.739 359.841 170.042 359.814C169.519 359.794 169.182 360.346 168.971 360.824C167.018 365.261 165.858 370.046 165.564 374.885Z" fill="black"/>
<path d="M304.291 310.439C305.904 311.153 307.693 311.881 309.382 311.368C310.053 311.164 310.651 310.776 311.239 310.393C311.237 311.38 310.388 312.209 309.442 312.491C308.496 312.773 307.479 312.622 306.514 312.413C305.443 312.181 304.133 311.524 304.291 310.439Z" fill="black"/>
<path d="M176.652 392.808C177.063 392.075 177.133 391.205 177.195 390.366L177.682 383.686C177.921 380.407 178.16 377.116 177.946 373.835C177.919 373.422 177.876 372.986 177.635 372.649C177.394 372.312 176.884 372.132 176.553 372.382C176.31 372.566 176.249 372.9 176.206 373.201C175.678 376.995 175.395 380.822 175.361 384.652C175.336 387.429 175.463 390.298 176.652 392.808Z" fill="black"/>
<path d="M169.35 387.067C168.922 387.429 168.209 387.111 167.973 386.603C167.737 386.094 167.833 385.501 167.934 384.95C168.991 379.185 170.19 373.445 171.53 367.738C171.564 367.595 171.6 367.447 171.692 367.333C172.045 366.897 172.758 367.336 173.008 367.838C173.623 369.069 173.328 370.538 173.021 371.879L169.719 386.282C169.653 386.569 169.575 386.877 169.35 387.067Z" fill="black"/>
<path d="M180.787 387.323C180.603 389.486 180.927 391.655 181.251 393.802C181.366 394.566 181.916 395.581 182.607 395.234L183.952 380.845C184.007 380.26 184.044 379.61 183.681 379.148C183.318 378.686 182.399 378.705 182.283 379.281L181.291 384.215C181.084 385.245 180.877 386.277 180.787 387.323Z" fill="black"/>
<path d="M319.731 343.226C315.9 341.253 311.238 340.476 307.259 342.128C304.286 343.362 295.886 348.693 294.768 355.525C294.02 360.099 294.028 364.773 295.628 369.189L295.886 369.882C296.363 371.132 297.882 372.57 298.731 371.536C296.251 367.053 295.788 361.503 297.49 356.671C299.192 351.839 303.032 347.804 307.774 345.865C308.771 345.457 309.814 345.137 310.887 345.035C313.057 344.829 315.223 345.533 317.163 346.527C321.34 348.667 326.516 352.226 328.504 356.477C330.421 360.576 331.832 365.465 330.098 369.644C328.363 373.823 316.968 376.847 316.968 376.847L318.229 379.148C318.229 379.148 324.608 377.889 328.504 375.052C344.859 363.14 323.395 345.112 319.731 343.226Z" fill="black"/>
<path fill-rule="evenodd" clip-rule="evenodd" d="M30.621 284.411C24.8369 285.032 18.7104 283.694 14.1942 280.027C10.9957 277.43 8.74825 273.817 7.17122 270.011C5.45903 265.879 4.47463 261.446 4.27673 256.977C4.20223 255.295 4.24225 253.581 4.73664 251.971C5.55032 249.322 7.50986 247.196 9.51017 245.277C13.7658 241.196 18.7678 237.472 24.6014 236.614C28.5765 236.029 32.6201 236.826 36.5112 237.827C39.5671 238.614 42.6192 239.541 45.368 241.091C51.4419 244.515 55.6509 251.047 56.2598 257.993C56.8686 264.939 56.1196 269.542 46.7456 278.172C41.8746 281.352 36.4052 283.791 30.621 284.411ZM40.8212 262.607C39.8831 262.902 38.948 263.426 37.9796 263.256C36.001 262.907 35.6469 260.193 36.0862 258.233C37.3439 252.621 41.2556 247.665 46.4215 245.138C45.2521 243.017 42.1455 242.861 39.9484 243.88C37.7512 244.9 36.0337 246.737 33.9089 247.9C32.8515 248.479 31.5984 248.888 30.4481 248.528C28.5553 247.935 27.8328 245.456 28.4524 243.572C29.0721 241.688 30.6186 240.282 32.1036 238.967C26.7227 239.155 21.3982 240.77 16.8192 243.603C13.2345 245.82 9.8343 249.456 10.3099 253.644C13.2738 251.258 16.7537 249.517 20.4399 248.575C21.2218 248.375 22.2032 248.275 22.6924 248.916C23.063 249.403 22.9566 250.102 22.7191 250.665C21.5409 253.459 18.0758 254.397 15.9267 256.537C15.6445 256.817 15.3738 257.142 15.3055 257.534C15.1716 258.303 15.9044 259.004 16.6741 259.133C17.4439 259.261 18.2167 258.981 18.9468 258.705C20.4633 258.133 21.9797 257.561 23.4962 256.989C24.594 256.575 25.8973 256.179 26.8735 256.83C27.8835 257.503 27.9786 259.035 27.4079 260.106C26.8371 261.177 25.7893 261.896 24.781 262.572C22.3507 264.2 19.9204 265.829 17.4901 267.458C15.4553 268.822 13.1756 270.661 13.369 273.102C13.5511 275.401 16.0797 276.963 18.3807 276.815C20.6817 276.668 22.7067 275.261 24.4049 273.701C26.1032 272.142 27.6361 270.361 29.6082 269.166C30.8951 268.387 32.7313 267.954 33.7767 269.036C34.5843 269.872 34.5064 271.216 34.2033 272.338C33.3297 275.572 30.9676 278.372 27.9264 279.778C30.4007 280.349 32.981 280.457 35.4943 280.094C36.9277 279.887 38.4115 279.49 39.4481 278.478C40.4846 277.467 40.8859 275.687 39.9868 274.552C38.6456 272.858 38.699 270.38 39.5558 268.397C40.4127 266.414 41.9432 264.813 43.4425 263.258C43.0134 262.373 41.7594 262.313 40.8212 262.607ZM52.2764 266.451C53.6238 263.337 53.6729 259.814 53.3317 256.438C52.9543 252.704 51.6526 248.434 48.135 247.126C42.9803 249.266 39.0023 254.039 37.827 259.495C37.7282 259.953 37.6509 260.446 37.8313 260.879C38.0116 261.312 38.5477 261.628 38.9631 261.41C40.3882 260.663 42.1409 260.24 43.5897 260.939C45.0386 261.639 45.7441 263.823 44.571 264.924C43.2748 266.14 41.9435 267.406 41.2442 269.04C40.5449 270.675 40.6457 272.79 41.9623 273.985C42.9517 274.882 42.9542 276.645 41.9674 277.545C44.773 276.725 46.7722 274.313 48.5915 272.026C49.9823 270.277 51.3892 268.502 52.2764 266.451ZM19.9783 250.345C17.0598 251.555 14.2269 252.972 11.5077 254.581C10.861 254.964 10.2075 255.369 9.73463 255.953C9.09615 256.741 8.85354 257.77 8.65624 258.766C8.01882 261.981 7.69017 265.443 9.04049 268.43C9.47151 269.383 10.0606 270.255 10.6468 271.122C10.8198 271.377 11.0162 271.651 11.3128 271.737C11.6094 271.823 12.001 271.584 11.9314 271.283C11.7167 270.356 12.4189 269.484 13.1119 268.831C17.1705 265.011 22.6383 262.818 26.2881 258.605C25.7345 257.949 24.6843 258.258 23.8948 258.595C22.0145 259.398 20.0758 260.063 18.099 260.585C17.0793 260.854 15.9428 261.073 15.0122 260.577C13.6501 259.85 13.4284 257.864 14.1478 256.498C14.8673 255.132 16.235 254.251 17.554 253.449C18.873 252.648 20.2568 251.811 21.0482 250.486C20.9042 250.109 20.3512 250.19 19.9783 250.345ZM29.9666 275.937C31.2564 274.9 32.6499 273.678 32.7905 272.03C32.8641 271.168 32.3112 270.114 31.45 270.196C31.1853 270.221 30.9436 270.352 30.7153 270.489C26.9647 272.729 24.4964 277.11 20.2655 278.199C21.4611 278.735 22.7077 279.156 23.9829 279.455C24.3626 279.544 24.758 279.623 25.14 279.544C25.5844 279.452 25.9563 279.159 26.3101 278.875C27.5289 277.895 28.7478 276.916 29.9666 275.937ZM33.4546 240.12C32.62 241.043 31.7854 241.966 30.9508 242.889C30.2897 243.62 29.5805 244.585 29.9485 245.499C30.2196 246.173 31.0201 246.513 31.7441 246.457C32.4681 246.401 33.1276 246.031 33.7347 245.632C35.8984 244.213 37.8465 242.279 40.3714 241.712C38.6207 241.074 36.87 240.436 35.1194 239.798C34.7548 239.665 34.3483 239.532 33.9896 239.68C33.7743 239.769 33.6107 239.947 33.4546 240.12Z" fill="black"/>
<path d="M155.107 93.3032C148.856 79.7154 146.248 64.4719 147.627 49.5788C147.65 49.3243 147.683 49.0518 147.851 48.8593C148.088 48.5878 148.575 48.5991 148.799 48.8814C148.719 57.074 148.642 65.3159 149.98 73.399C151.317 81.4821 154.157 89.479 159.342 95.8227C159.497 96.0122 159.654 96.2008 159.811 96.3897C160.703 97.4592 161.603 98.5378 162.108 99.8275C158.737 99.7625 156.517 96.3668 155.107 93.3032Z" fill="black"/>
<path fill-rule="evenodd" clip-rule="evenodd" d="M235.072 45.1786L233.534 43.2394C231.841 41.1058 229.764 38.7761 227.041 38.7732C225.46 38.7714 224.007 39.5807 222.635 40.3671L220.505 41.5887C219.923 41.9224 219.326 42.2695 218.915 42.8002C217.732 44.3308 218.596 46.5672 219.714 48.1459C220.488 49.2382 221.415 50.2872 222.646 50.8129C224.239 51.493 226.071 51.1922 227.74 50.7318C230.026 50.1014 232.234 49.1919 234.301 48.0299C234.962 47.6584 235.693 47.1141 235.659 46.3566C235.64 45.9105 235.35 45.5284 235.072 45.1786ZM221.631 46.6753C221.366 46.2539 221.093 45.8036 221.089 45.3059C221.08 44.3326 222.051 43.6794 222.906 43.2134L225.942 41.5571C226.401 41.3067 226.879 41.0506 227.401 41.0154C227.923 40.9802 228.503 41.2314 228.679 41.7242C229.196 43.1783 230.472 44.3381 231.969 44.7153C232.454 44.8375 232.609 45.5082 232.38 45.9524C232.151 46.3965 231.683 46.6561 231.235 46.8782C229.634 47.6724 227.961 48.32 226.243 48.8102C225.554 49.0068 224.825 49.1787 224.128 49.013C222.989 48.7421 222.254 47.6672 221.631 46.6753Z" fill="black"/>
<path d="M200.03 61.6665C197.018 62.0172 196.445 67.4471 197.844 70.3433C198.132 70.9391 198.582 71.5527 199.238 71.636C200.361 71.7784 200.981 70.3937 201.229 69.29L201.235 69.2643C201.562 67.8098 203.023 61.318 200.03 61.6665Z" fill="black"/>
<path d="M184.498 68.7895C185.1 67.3848 185.301 65.8106 185.071 64.2997C184.964 63.5977 184.753 62.8849 184.284 62.3518C183.815 61.8187 183.039 61.5087 182.371 61.749C181.766 61.9665 181.386 62.5582 181.1 63.1336C180.089 65.165 179.686 67.494 179.956 69.7468C180.082 70.7948 181.402 71.3675 182.404 71.036C183.406 70.7046 184.082 69.7596 184.498 68.7895Z" fill="black"/>
<path d="M193.376 65.575C193.843 65.1876 194.433 65.8912 194.623 66.4679C195.246 68.3635 195.762 70.2943 196.168 72.2481C196.424 73.4828 196.636 74.7656 196.363 75.9967C195.978 77.7325 194.659 79.1444 193.128 80.0487C191.597 80.953 189.855 81.4211 188.137 81.8792C187.683 82.0002 187.113 82.0864 186.819 81.7195C186.57 81.408 186.693 80.9201 186.977 80.6395C187.254 80.3643 187.641 80.2373 188.013 80.1152L188.035 80.1079C190.713 79.2282 193.575 77.6404 194.199 74.8914C194.541 73.3799 194.124 71.8614 193.705 70.3365C193.324 68.9477 192.941 67.5535 193.129 66.1545C193.158 65.9414 193.21 65.7122 193.376 65.575Z" fill="black"/>
<path d="M174.674 59.3923C173.968 58.4155 174.533 56.9311 175.556 56.294C176.579 55.657 177.871 55.6656 179.066 55.8199C180.492 56.0041 181.896 56.3669 183.233 56.8972C183.517 57.0101 183.824 57.1538 183.949 57.4332C184.181 57.9506 183.581 58.5171 183.014 58.5166C182.557 58.5162 182.143 58.2965 181.734 58.0793C181.635 58.0267 181.536 57.9743 181.437 57.9251C179.205 56.8176 176.246 57.4596 174.674 59.3923Z" fill="black"/>
<path d="M200.397 59.0547C201.458 58.8783 202.582 59.1232 203.474 59.7246C203.846 59.976 204.38 59.5532 204.382 59.1038C204.384 58.6544 204.049 58.2764 203.696 57.9985C202.935 57.3999 201.987 57.0417 201.021 56.9871C200.397 56.9519 199.707 57.0725 199.305 57.5509C198.904 58.0293 199.025 58.9272 199.627 59.0938C199.842 59.1533 200.067 59.1131 200.289 59.0736L200.356 59.0617L200.397 59.0547Z" fill="black"/>
<path d="M187.234 86.612C187.532 86.4435 187.926 86.7377 187.971 87.0776C188.015 87.4175 187.821 87.7426 187.599 88.0042C186.487 89.3166 184.571 89.7208 182.879 89.4131C181.186 89.1054 179.669 88.1955 178.242 87.2358C177.57 86.7845 176.909 86.3183 176.258 85.8376C175.584 85.3395 174.865 84.7299 174.785 83.8954C174.704 83.0609 175.773 82.2197 176.383 82.7945C177.884 84.2073 179.418 85.6435 181.284 86.5177C183.151 87.3919 185.439 87.6248 187.234 86.612Z" fill="black"/>
<path d="M174.805 46.2944C176.501 47.671 178.433 48.7552 180.492 49.4852C187.135 51.8408 194.6 50.3619 201.011 47.4317C201.99 46.984 203.24 47.22 203.989 47.994C199.873 50.9272 194.83 52.5395 189.776 52.5383C188.661 52.5381 187.548 52.4617 186.438 52.3647C184.166 52.1662 181.877 51.8751 179.739 51.0794C177.602 50.2837 175.606 48.9376 174.396 47.0044L174.805 46.2944Z" fill="black"/>
<path d="M247.145 135.825C247.079 136.051 247.261 136.268 247.428 136.434L249.952 138.939C250.227 138.218 249.918 137.38 249.389 136.819C248.86 136.258 248.144 135.917 247.447 135.588C247.31 135.594 247.183 135.694 247.145 135.825Z" fill="black"/>
<path d="M161.238 31.9451C161.123 31.8202 160.988 31.7099 160.832 31.6424C160.381 31.4478 159.853 31.6473 159.458 31.9395C157.885 33.1042 157.878 35.8277 159.447 36.9995C160.212 36.3477 160.997 35.6706 161.445 34.7712C161.893 33.8717 161.92 32.6832 161.238 31.9451Z" fill="black"/>
<path fill-rule="evenodd" clip-rule="evenodd" d="M66.0335 129.856C65.8152 134.23 62.4405 138.967 58.0916 138.449C56.1288 136.179 54.5925 133.361 53.0742 130.577C50.1584 125.229 47.3088 120.002 41.6316 119.01C36.0555 118.036 30.8626 122.137 27.3898 126.607C22.36 133.081 19.1097 140.924 18.0851 149.058C17.4827 153.84 19.4438 160.471 24.2348 159.945C29.7073 159.344 33.5992 163.649 37.5576 168.027C41.2213 172.079 44.942 176.195 50.0257 176.542C56.0788 176.955 61.0231 180.582 66.028 184.252C69.3707 186.704 72.7405 189.175 76.4857 190.723C83.5311 193.634 91.6556 193.071 98.8473 190.543C106.039 188.015 112.439 183.661 118.497 179.033L118.814 178.79C122.121 176.261 125.582 173.614 129.694 173.057C150.719 170.209 170.274 157.877 181.905 140.132C198.394 153.313 221.449 157.818 241.687 151.814C245.121 150.795 248.577 149.429 251.123 146.91C253.67 144.391 255.114 140.48 253.862 137.124C252.494 133.454 248.402 131.489 244.514 131.016C242.383 130.757 240.235 130.834 238.085 130.91C236.313 130.974 234.539 131.037 232.774 130.912C222.084 130.156 213.182 122.783 205.087 115.759C216.816 112.161 226.325 103.125 232.604 92.5865C238.883 82.0477 242.248 70.0418 244.804 58.0436C246.149 51.7296 247.149 44.6168 243.541 39.2629C241.927 36.8667 239.559 35.1147 237.2 33.3689C234.544 31.4029 231.898 29.4448 230.35 26.5833C227.371 21.079 221.565 17.815 216.057 14.8416C201.645 7.06045 185.091 -0.947939 169.559 4.24856C163.509 6.27273 158.282 10.1514 153.187 13.9902C144.725 20.3648 135.66 27.8424 134.049 38.3135C120.203 32.1191 102.291 37.0662 93.587 49.4882C91.5962 52.3296 90.0677 55.4628 88.5409 58.5929C86.7433 62.278 84.9479 65.9587 82.4026 69.1532C72.1792 64.4951 61.7626 60.2611 51.1886 56.4657C46.5005 54.7829 40.9003 53.2959 36.8601 56.209C33.6207 58.5448 32.627 63.1296 33.5779 67.0084C34.5288 70.8873 37.0673 74.1756 39.7896 77.0978C45.6955 83.4374 52.7898 88.6662 60.5933 92.4312C60.8451 92.5526 61.0987 92.6734 61.353 92.7946C63.7964 93.9586 66.3081 95.1551 67.9352 97.2917C69.7315 99.6508 69.843 103.598 67.3246 105.163C63.6049 107.475 62.9201 112.663 63.6825 116.976C63.943 118.449 64.3255 119.909 64.7074 121.367C65.4433 124.175 66.1773 126.976 66.0335 129.856ZM167.019 152.918C157.646 162.76 144.457 168.517 130.971 170.201C117.485 171.884 103.714 169.696 90.8313 165.366C94.2967 165.364 96.8024 160.827 94.959 157.893C87.859 166.169 77.035 170.046 66.7208 173.585C57.4027 176.783 46.265 174.46 39.4205 167.375C32.5759 160.289 30.7237 148.663 35.5371 140.068C37.6294 136.332 41.178 133.079 45.4445 132.713C49.711 132.346 54.305 135.884 53.9093 140.148C51.5352 139.735 49.0368 141.752 48.939 144.159C58.1235 143.17 66.7582 137.907 71.8464 130.197C73.6026 127.536 74.9372 124.637 76.273 121.736C77.1698 119.788 78.0672 117.839 79.093 115.96C81.6467 111.283 85.3133 106.824 90.3944 105.216C94.4725 103.926 98.8808 104.642 103.096 105.369L121.821 108.598C123.222 107.388 120.952 105.449 119.14 105.07C113.288 103.847 107.354 103.094 101.42 102.34C95.917 101.642 90.4132 100.943 84.974 99.8694C73.6692 97.639 62.307 93.5594 54.0786 85.4929C59.6601 82.2821 63.9065 76.826 65.6489 70.6272C66.0014 69.3731 65.1616 67.313 64.1432 68.1253C62.9796 72.1494 61.7184 76.3464 58.8031 79.3545C55.8878 82.3626 50.7708 83.6839 47.4712 81.1032C43.1877 77.7531 38.6842 74.0985 36.9902 68.9312C35.2962 63.7638 37.976 56.824 43.3769 56.1904C45.8012 55.906 48.171 56.9078 50.4065 57.8877L72.9601 67.774C79.6726 70.7164 86.4852 73.6883 93.7361 74.7559C98.8272 75.5056 104.005 75.2952 109.147 75.0831L123.723 74.4819C124.319 74.4573 124.93 74.4294 125.479 74.1953C126.943 73.5706 127.44 71.782 127.763 70.2229C131.675 51.348 136.93 31.4291 151.147 18.4128C157.509 12.5884 165.434 8.48762 173.864 6.65825C182.172 4.85498 191.34 5.38512 198.493 9.9805C186.493 10.8637 174.841 15.9239 166.004 24.0897C162.291 20.1262 155.381 23.3659 152.419 27.9185C147.828 34.9757 147.912 44.7792 152.622 51.7572C156.587 57.631 158.057 64.6394 159.531 71.6642C160.885 78.1202 162.242 84.59 165.541 90.2053C170.76 99.0888 180.479 104.791 190.63 106.559C200.78 108.327 211.303 106.48 220.95 102.862C210.153 113.632 192.904 117.357 178.625 112.003C177.584 111.613 176.549 111.177 175.513 110.741L175.512 110.74C172.231 109.359 168.939 107.972 165.42 108.013C167.481 110.197 170.115 111.836 172.984 112.721C169.676 118.278 166.205 123.739 162.577 129.093C162.113 129.778 161.584 130.507 160.79 130.739C159.905 130.997 158.981 130.556 158.174 130.11C151.504 126.424 145.526 121.491 140.64 115.642L130.865 127.532C135.881 133.663 141.746 139.1 148.239 143.638C139.597 154.315 126.503 161.269 112.818 162.45C126.984 163.172 141.325 156.527 149.934 145.254C155.384 148.314 161.109 150.882 167.019 152.918ZM211.818 48.3681C214.949 44.9548 216.109 40.0795 215.841 35.4559C215.574 30.8323 214.018 26.3858 212.297 22.0862C216.781 21.5547 221.337 23.2463 224.908 26.0087C228.48 28.771 231.163 32.5298 233.364 36.4725C236.031 41.252 238.076 46.4201 238.964 51.8212C241.053 64.5387 236.592 77.5054 230.241 88.7202C229.008 90.8978 227.682 93.0604 225.881 94.7989C224.069 96.5495 221.839 97.8079 219.554 98.8697C210.124 103.251 199.277 104.515 189.092 102.42C195.593 97.0071 200.185 89.5496 203.109 81.611C206.034 73.6724 207.372 65.2349 208.143 56.81L208.147 56.7627C208.341 54.6383 208.546 52.4055 209.756 50.6512C210.157 50.0704 210.653 49.5669 211.15 49.0631C211.376 48.8339 211.601 48.6047 211.818 48.3681ZM200.053 83.4592C197.247 90.0216 192.9 96.0473 187.008 100.075C186.318 100.546 185.577 101.001 184.747 101.098C184.014 101.184 183.28 100.982 182.577 100.76C177.567 99.1787 172.834 96.3757 169.62 92.2202C168.453 90.7122 167.501 89.049 166.652 87.3423C160.466 74.9126 159.86 59.8322 165.029 46.9463C165.276 46.3308 165.629 45.6397 166.279 45.5106C167.121 45.3437 167.767 46.2044 168.239 46.9202C172.1 52.7709 179.32 55.7329 186.323 56.0396C193.326 56.3463 200.215 54.3559 206.856 52.1113C205.646 55.0708 205.337 58.295 205.032 61.4887L205.031 61.4935C204.993 61.8941 204.955 62.2943 204.915 62.6933C204.203 69.7947 202.858 76.8968 200.053 83.4592ZM198.627 22.4934C202.21 21.6788 206.392 21.4546 209.13 23.9058C210.014 24.6975 210.671 25.7129 211.212 26.7696C214.603 33.3972 213.275 42.1261 208.065 47.4449C202.043 53.5936 192.511 54.6073 183.936 53.8774C180.859 53.6156 177.694 53.1421 175.067 51.5183C171.668 49.4173 169.656 45.715 167.794 42.1793C176.057 32.9458 186.544 25.2401 198.627 22.4934ZM227.609 133.956C226.485 136.795 225.35 139.672 224.982 142.703C224.614 145.734 225.093 148.987 226.936 151.421C211.639 152.267 196.093 147.55 183.845 138.346C187.795 132.757 190.914 126.581 193.068 120.086C193.92 117.52 197.168 116.449 199.806 117.043C202.234 117.59 204.272 119.148 206.261 120.667C206.432 120.798 206.603 120.929 206.774 121.059C213.286 126.002 220.461 129.988 227.609 133.956ZM120.712 172.723C118.3 175.439 115.416 177.694 112.471 179.821C106.323 184.26 99.619 188.294 92.1466 189.584C81.1957 191.474 69.3645 186.75 62.7259 177.839L86.6116 168.928C87.1834 168.715 87.7757 168.498 88.3851 168.533C88.7294 168.552 89.0606 168.651 89.3924 168.75C89.6133 168.816 89.8345 168.882 90.0601 168.925C90.827 169.07 91.6005 168.942 92.3775 168.814C92.8609 168.735 93.3457 168.655 93.831 168.64C95.6189 168.587 97.262 169.404 98.8876 170.212C99.3004 170.417 99.712 170.622 100.125 170.812C106.458 173.725 113.761 173.253 120.712 172.723ZM86.2246 70.5258C86.0563 70.1493 86.2338 69.7161 86.4115 69.3439C91.303 59.0993 97.774 49.6107 105.526 41.3165C110.978 48.8871 114.607 57.7616 116.021 66.9834C116.303 68.8268 115.998 71.376 114.147 71.6067C105.277 72.7123 96.2512 72.5621 87.4227 71.1619C86.9561 71.0878 86.4174 70.9572 86.2246 70.5258ZM119.633 69.8954C117.806 59.8545 114.015 50.175 108.535 41.565C113.173 39.1234 118.655 39.0835 123.897 39.0999C127.207 39.1103 130.82 39.2269 133.342 41.3701L126.799 60.6768C125.688 63.9544 124.563 67.324 124.704 70.7819L120.567 70.8482C120.42 70.8506 120.268 70.8521 120.132 70.7953C119.801 70.6571 119.697 70.2482 119.633 69.8954ZM172.852 119.303C173.95 117.434 174.997 115.437 175.108 113.272C180.057 115.497 185.506 116.6 190.931 116.474C191.782 116.454 191.752 117.767 191.403 118.544C190.347 120.895 189.289 123.248 188.067 125.517C186.812 127.846 185.388 130.078 183.965 132.309L180.555 137.654C180.088 138.386 179.606 139.134 178.913 139.655C177.051 141.055 174.394 140.382 172.27 139.427C168.746 137.844 165.502 135.64 162.734 132.945C166.579 128.775 169.977 124.193 172.852 119.303ZM44.8833 123.922C46.5229 125.575 47.5945 127.694 48.6392 129.774L43.7203 130.476C42.0814 130.71 40.401 130.957 38.9524 131.758C37.543 132.538 36.4561 133.788 35.4995 135.084C31.4991 140.504 29.2819 147.217 29.2679 153.954C29.2628 156.387 26.3872 158.123 24.0336 157.506C21.6801 156.889 20.0812 154.551 19.6743 152.152C19.2675 149.753 19.8405 147.301 20.5591 144.976C23.0879 136.796 27.6115 129.07 34.3042 123.73C35.583 122.71 36.9959 121.755 38.6113 121.496C40.9105 121.129 43.2437 122.269 44.8833 123.922ZM251.442 137.614C252.011 138.345 252.432 139.236 252.407 140.162C252.374 141.358 251.615 142.408 250.798 143.283C246.05 148.371 238.753 150.104 231.841 150.92C231.385 150.974 230.908 151.023 230.48 150.855C230.129 150.718 229.848 150.448 229.597 150.166C227.93 148.291 227.269 145.669 227.404 143.163C227.539 140.658 228.404 138.244 229.481 135.978C229.708 135.5 229.97 134.999 230.433 134.743C230.802 134.539 231.242 134.523 231.664 134.512L240.028 134.292C242.088 134.238 244.17 134.186 246.186 134.611C248.202 135.035 250.176 135.989 251.442 137.614ZM158.218 58.5789C154.809 52.2636 152.259 45.4857 150.66 38.4899L152.037 34.8119C153.74 31.5139 155.888 28.4456 158.403 25.7156C159.428 24.6037 161.203 24.4808 162.617 25.0165C164.031 25.5522 165.168 26.6175 166.265 27.6572L171.204 32.336C171.351 32.4752 171.504 32.6253 171.553 32.8216C171.645 33.191 171.34 33.5294 171.064 33.7917C168.751 35.9905 166.696 38.4696 165.049 41.2024C162.558 45.3331 161.038 49.962 159.538 54.546L158.218 58.5789ZM170.84 23.109C180.895 17.7237 191.893 12.656 203.235 13.8679C209.165 14.5014 214.837 16.8605 219.776 20.2022C205.627 16.5651 189.855 19.9199 178.412 29.0008C176.643 30.4044 173.989 31.9288 172.414 30.3107C172.01 29.8952 171.746 29.3131 171.488 28.7459C171.076 27.8375 170.68 26.9674 169.756 26.8823C168.874 26.8012 168.482 25.6048 168.856 24.8021C169.23 23.9994 170.059 23.5271 170.84 23.109ZM143.217 121.611C145.201 123.518 147.387 125.202 149.567 126.881L158.377 133.666C155.664 136.057 153.01 138.514 150.417 141.035C144.245 137.377 138.736 132.604 134.236 127.016C136.7 124.45 139.064 121.79 141.323 119.042C141.678 120.056 142.442 120.867 143.217 121.611ZM86.5746 103.258C81.936 106.882 77.1405 110.696 74.589 116.001C74.0905 117.037 73.6786 118.128 73.2674 119.217C72.3933 121.532 71.5222 123.84 69.8274 125.602C69.0762 125.381 68.7807 124.496 68.5977 123.734L66.8326 116.393C66.5944 115.402 66.3546 114.384 66.4899 113.374C66.6246 112.369 67.1202 111.454 67.607 110.564L72.7859 101.1C72.9013 100.889 73.0211 100.672 73.2061 100.519C73.6643 100.138 74.3422 100.259 74.9206 100.401L86.5746 103.258ZM161.93 135.769C165.093 139.021 169.025 141.522 173.311 143.007C174.113 142.253 175.663 142.669 175.979 143.723C174.504 145.637 172.884 147.44 171.139 149.111C170.359 149.857 169.11 149.7 168.058 149.458C162.921 148.279 157.972 146.281 153.457 143.562C153.154 143.38 152.815 143.121 152.844 142.77C152.864 142.533 153.051 142.35 153.225 142.189L159.565 136.35C160.23 135.737 161.3 135.121 161.93 135.769ZM242.878 54.1984C242.82 54.9139 242.719 55.7125 242.159 56.1625C242.155 50.542 240.761 44.9277 238.136 39.9576C237.66 39.0561 237.144 38.175 236.57 37.3326C236.496 37.2243 236.421 37.1159 236.346 37.0072C235.767 36.1712 235.174 35.3157 235.034 34.3176L241.827 41.4147C242.452 42.0677 243.095 42.7489 243.391 43.6032C243.676 44.427 243.608 45.3256 243.536 46.1944L242.878 54.1984Z" fill="black"/>
<path fill-rule="evenodd" clip-rule="evenodd" d="M412.913 38.3927C416.005 39.4644 418.918 36.6757 421.583 34.7758C425.706 31.8361 431.085 30.7245 436.035 31.7891C436.857 31.9657 437.717 32.2308 438.258 32.8735C438.752 33.4612 438.893 34.263 438.973 35.027C439.46 39.7037 438.291 44.5364 435.719 48.4728C434.468 50.3878 432.9 52.0929 431.782 54.0881C430.663 56.0833 430.024 58.5209 430.821 60.665C435.56 73.4126 433.587 88.4482 425.721 99.5423C417.855 110.636 404.318 117.472 390.721 117.218C383.767 117.088 376.954 115.232 370.402 112.898C367.543 111.879 364.401 110.762 361.563 111.838C356.385 113.8 350.934 115.039 345.416 115.508C344.047 115.624 342.617 115.684 341.353 115.143C339.462 114.334 338.321 112.284 338.104 110.238C337.887 108.193 338.452 106.146 339.166 104.217C341.321 98.3982 348.01 89.3089 352.058 87.2151C351.731 80.1495 351.767 73.0011 353.294 66.0948C354.822 59.1885 357.939 52.4871 363.053 47.6005C365.166 45.5821 367.583 43.9022 370.115 42.4444C382.921 35.0713 398.951 33.5537 412.913 38.3927ZM393.411 37.8187C383.618 38.048 374.086 41.9817 366.431 48.093C364.183 49.8873 362.071 51.8808 360.384 54.21C359.054 56.0462 358.002 58.0723 357.124 60.1622C351.91 72.5632 353.1 87.4629 360.217 98.8788C360.372 99.1278 360.55 99.3916 360.827 99.4883C361.168 99.6076 361.536 99.4337 361.855 99.2635C384.207 87.352 404.103 70.8546 419.946 51.0942C420.324 50.6236 420.721 50.077 420.639 49.4793C420.578 49.0309 420.258 48.6669 419.946 48.3394C413.185 41.2511 403.204 37.5895 393.411 37.8187ZM407.102 111.849C417.718 106.865 425.782 97.0159 429.23 85.8061C430.011 83.2677 430.573 80.6436 430.628 77.9884C430.674 75.7555 430.362 73.5324 430.052 71.3207C429.601 68.1143 429.151 64.9078 428.7 61.7014C428.581 60.8513 427.761 59.7291 427.163 60.3448C410.552 77.4395 392.414 93.0494 373.034 106.928C372.389 107.389 371.68 107.96 371.645 108.753C371.605 109.67 372.48 110.335 373.275 110.794C383.435 116.653 396.485 116.834 407.102 111.849ZM341.616 110.544C342.388 111.783 344.062 112.036 345.522 112.077C353.178 112.289 360.752 110.045 367.602 106.619C374.451 103.193 380.651 98.6099 386.675 93.8813C394.711 87.5745 402.507 80.9647 410.104 74.1364C419.513 65.6796 428.758 56.7096 434.936 45.6695C436.131 43.5339 437.234 41.1922 437.047 38.7523C436.86 36.3123 434.914 33.8489 432.468 33.9443C427.279 34.1467 422.177 36.1418 418.227 39.5131C417.442 40.1836 417.997 41.6108 418.964 41.9737C419.931 42.3366 421.008 41.9761 421.953 41.559C422.898 41.142 423.882 40.6542 424.908 40.7684C426.476 40.9427 427.59 42.548 427.683 44.123C427.777 45.6979 427.08 47.2116 426.26 48.5591C424.741 51.0529 422.758 53.2266 420.753 55.35C402.938 74.2243 382.387 90.5123 359.942 103.546C357.921 104.72 355.876 105.871 353.7 106.726C352.559 107.175 351.251 107.535 350.138 107.022C348.312 106.181 348.165 103.617 348.713 101.683C349.536 98.779 351.313 96.1536 353.704 94.311C353.251 93.0353 352.798 91.7595 352.345 90.4838C346.444 94.2534 342.302 100.665 341.292 107.595C341.147 108.595 341.081 109.686 341.616 110.544ZM358.396 101.789C358.438 101.658 358.361 101.521 358.288 101.404C357.525 100.192 356.763 98.981 356.001 97.7697C355.656 97.2216 354.989 96.6009 354.471 96.9904C352.608 98.3939 351.274 100.484 350.786 102.766C350.689 103.216 350.633 103.718 350.878 104.108C351.334 104.833 352.424 104.672 353.23 104.383C354.949 103.767 356.605 102.975 358.163 102.023C358.259 101.965 358.362 101.897 358.396 101.789ZM424.717 44.1262C424.641 43.8116 424.266 43.6749 423.942 43.6608C422.96 43.6179 421.934 44.4255 421.996 45.4067C422.058 46.388 423.517 47.0059 424.126 46.2343C424.31 46.0014 424.388 45.7044 424.461 45.4168C424.534 45.1318 424.606 44.8468 424.679 44.5619C424.715 44.4191 424.752 44.2694 424.717 44.1262Z" fill="black"/>
</svg>
