<svg width="81" height="80" viewBox="0 0 81 80" fill="none" xmlns="http://www.w3.org/2000/svg">
<mask id="mask0_734_1062" style="mask-type:alpha" maskUnits="userSpaceOnUse" x="0" y="0" width="81" height="80">
<circle cx="40.6767" cy="39.907" r="39.907" fill="#D9D9D9"/>
</mask>
<g mask="url(#mask0_734_1062)">
<path d="M-4.54974 67.0009C-4.54974 70.36 -3.21533 73.5816 -0.840066 75.9568C1.5352 78.3321 4.75675 79.6665 8.11589 79.6665H96.7753C100.134 79.6665 103.356 78.3321 105.731 75.9568C108.107 73.5816 109.441 70.36 109.441 67.0009V63.2012H-4.54974V67.0009ZM44.6119 46.4192H44.5296L109.441 46.7359V30.2705H44.6119V46.4192ZM96.7753 -2.6601H44.6119V13.8052H109.441V10.0055C109.441 6.6464 108.107 3.42485 105.731 1.04958C103.356 -1.32568 100.134 -2.6601 96.7753 -2.6601Z" fill="#006A4E"/>
<path d="M44.6118 30.0576V30.2698H109.441V13.8044H44.6118V30.0576ZM-4.46754 46.4184L-4.54987 63.2004H109.441V46.7351L44.5295 46.4184H-4.46754Z" fill="#FFCE00"/>
<path d="M8.11718 -2.66016C1.40123 -2.66016 -4.03866 2.58342 -4.46613 9.19171V46.4192H44.6132V-2.66016H8.11718Z" fill="#D21034"/>
<path d="M34.5211 17.6461H23.5844L23.5432 17.5194L20.0728 6.83911L20.0031 7.05443L16.5613 17.6461H5.19702L14.2466 24.2227L14.3891 24.3272L11.0105 34.7288L10.8776 35.1373L20.0728 28.4562L29.2649 35.1373L25.7533 24.3272L34.9486 17.6461H34.5211Z" fill="white"/>
</g>
</svg>
