<svg width="44" height="26" viewBox="0 0 44 26" fill="none" xmlns="http://www.w3.org/2000/svg">
<path d="M42.8456 1.34268C42.6275 0.813516 42.2102 0.393006 41.685 0.173249C41.4266 0.062281 41.1491 0.00342165 40.8682 0H30.1213C29.5513 0 29.0046 0.228163 28.6015 0.634296C28.1984 1.04043 27.9719 1.59126 27.9719 2.16562C27.9719 2.73998 28.1984 3.29081 28.6015 3.69694C29.0046 4.10308 29.5513 4.33124 30.1213 4.33124H35.6882L23.6732 16.4371L16.6017 9.29051C16.4019 9.08753 16.1642 8.92642 15.9023 8.81648C15.6404 8.70653 15.3594 8.64992 15.0757 8.64992C14.7919 8.64992 14.511 8.70653 14.2491 8.81648C13.9872 8.92642 13.7494 9.08753 13.5496 9.29051L0.65336 22.2842C0.451902 22.4856 0.292001 22.7251 0.18288 22.989C0.0737591 23.2529 0.0175781 23.5359 0.0175781 23.8218C0.0175781 24.1077 0.0737591 24.3908 0.18288 24.6547C0.292001 24.9186 0.451902 25.1581 0.65336 25.3594C0.853173 25.5624 1.0909 25.7235 1.35282 25.8335C1.61474 25.9434 1.89567 26 2.17942 26C2.46316 26 2.7441 25.9434 3.00602 25.8335C3.26794 25.7235 3.50566 25.5624 3.70548 25.3594L15.0757 13.8816L22.1471 21.0282C22.3469 21.2312 22.5847 21.3923 22.8466 21.5022C23.1085 21.6122 23.3894 21.6688 23.6732 21.6688C23.9569 21.6688 24.2379 21.6122 24.4998 21.5022C24.7617 21.3923 24.9994 21.2312 25.1992 21.0282L38.7188 7.38477V12.9937C38.7188 13.5681 38.9453 14.1189 39.3484 14.525C39.7514 14.9312 40.2982 15.1593 40.8682 15.1593C41.4383 15.1593 41.985 14.9312 42.388 14.525C42.7911 14.1189 43.0176 13.5681 43.0176 12.9937V2.16562C43.0142 1.88262 42.9558 1.60304 42.8456 1.34268Z" fill="#5F19F2"/>
</svg>
