<svg width="41" height="40" viewBox="0 0 41 40" fill="" xmlns="http://www.w3.org/2000/svg">
<circle cx="20.1131" cy="19.9881" r="19.4881" stroke="white"/>
<path d="M28.5317 15.5016C27.9192 15.7554 27.2612 15.9268 26.5694 16.0043C27.2832 15.605 27.8172 14.9766 28.0718 14.2363C27.4012 14.6087 26.6672 14.8708 25.9018 15.0112C25.3871 14.4975 24.7054 14.1569 23.9625 14.0425C23.2196 13.9281 22.457 14.0462 21.7932 14.3784C21.1294 14.7107 20.6015 15.2385 20.2915 15.88C19.9815 16.5214 19.9067 17.2407 20.0787 17.926C18.7198 17.8622 17.3905 17.532 16.177 16.9568C14.9635 16.3817 13.893 15.5744 13.0348 14.5874C12.7414 15.0606 12.5726 15.6093 12.5726 16.1936C12.5723 16.7196 12.7109 17.2376 12.976 17.7015C13.2412 18.1655 13.6247 18.561 14.0926 18.8532C13.55 18.837 13.0193 18.7 12.5448 18.4533V18.4945C12.5447 19.2322 12.8177 19.9473 13.3174 20.5183C13.817 21.0893 14.5126 21.4812 15.2862 21.6273C14.7828 21.7547 14.255 21.7734 13.7427 21.6822C13.9609 22.317 14.386 22.8721 14.9585 23.2698C15.531 23.6675 16.2221 23.8879 16.9353 23.9001C15.7247 24.7885 14.2297 25.2704 12.6907 25.2683C12.4181 25.2683 12.1457 25.2535 11.875 25.2237C13.4371 26.1627 15.2556 26.661 17.1128 26.6591C23.3996 26.6591 26.8364 21.7912 26.8364 17.5693C26.8364 17.4322 26.8327 17.2936 26.8261 17.1565C27.4946 16.7045 28.0717 16.1448 28.5303 15.5037L28.5317 15.5016Z" fill="white"/>
</svg>
