<svg width="93" height="93" viewBox="0 0 93 93" fill="none" xmlns="http://www.w3.org/2000/svg">
<circle cx="46.5" cy="46.5" r="46.5" fill="#DDDDDD"/>
<path d="M32.1484 61.4725C28.6612 61.4725 25.3169 60.1475 22.8511 57.7889C20.3853 55.4303 19 52.2313 19 48.8958C19 45.5602 20.3853 42.3613 22.8511 40.0027C25.3169 37.6441 28.6612 36.3191 32.1484 36.3191C32.972 32.6499 35.3814 29.4256 38.8465 27.3552C40.5622 26.3301 42.4855 25.6192 44.5065 25.263C46.5275 24.9069 48.6067 24.9125 50.6253 25.2795C52.644 25.6465 54.5625 26.3678 56.2714 27.4021C57.9803 28.4364 59.4461 29.7636 60.5851 31.3077C61.7241 32.8519 62.5141 34.5829 62.9098 36.4018C63.3055 38.2207 63.2993 40.092 62.8915 41.9087H65.6864C68.2807 41.9087 70.7687 42.9393 72.6032 44.7738C74.4377 46.6082 75.4683 49.0963 75.4683 51.6906C75.4683 54.2849 74.4377 56.773 72.6032 58.6075C70.7687 60.4419 68.2807 61.4725 65.6864 61.4725H62.8915" stroke="black" stroke-width="4" stroke-linecap="round" stroke-linejoin="round"/>
<path d="M37.7383 53.0882L46.1228 44.7037M46.1228 44.7037L54.5073 53.0882M46.1228 44.7037V69.8572" stroke="black" stroke-width="4" stroke-linecap="round" stroke-linejoin="round"/>
</svg>
