<svg width="22" height="22" viewBox="0 0 22 22" fill="none" xmlns="http://www.w3.org/2000/svg">
<path d="M10.62 21.24C4.75457 21.24 0 16.4854 0 10.62C0 4.75564 4.75457 0 10.62 0C16.4854 0 21.24 4.75564 21.24 10.62C21.24 16.4854 16.4854 21.24 10.62 21.24ZM10.62 5.31C10.3383 5.31 10.0682 5.42189 9.86905 5.62105C9.66989 5.82022 9.558 6.09034 9.558 6.372V11.682C9.558 11.9637 9.66989 12.2338 9.86905 12.4329C10.0682 12.6321 10.3383 12.744 10.62 12.744C10.9017 12.744 11.1718 12.6321 11.3709 12.4329C11.5701 12.2338 11.682 11.9637 11.682 11.682V6.372C11.682 6.09034 11.5701 5.82022 11.3709 5.62105C11.1718 5.42189 10.9017 5.31 10.62 5.31ZM10.62 15.93C10.9017 15.93 11.1718 15.8181 11.3709 15.6189C11.5701 15.4198 11.682 15.1497 11.682 14.868C11.682 14.5863 11.5701 14.3162 11.3709 14.1171C11.1718 13.9179 10.9017 13.806 10.62 13.806C10.3383 13.806 10.0682 13.9179 9.86905 14.1171C9.66989 14.3162 9.558 14.5863 9.558 14.868C9.558 15.1497 9.66989 15.4198 9.86905 15.6189C10.0682 15.8181 10.3383 15.93 10.62 15.93Z" fill="#FFC200"/>
</svg>
