<svg width="41" height="40" viewBox="0 0 41 40" fill="none" xmlns="http://www.w3.org/2000/svg">
<circle cx="20.239" cy="19.9881" r="19.4881" stroke="black"/>
<path fill-rule="evenodd" clip-rule="evenodd" d="M16.7698 12.05C17.6579 12.0091 17.9411 12 20.2034 12C22.4656 12 22.7488 12.0098 23.6362 12.05C24.5235 12.0901 25.1292 12.2317 25.6592 12.4369C26.2142 12.6466 26.7177 12.9744 27.1341 13.3984C27.5581 13.8141 27.8851 14.3168 28.0941 14.8725C28.3 15.4025 28.4409 16.0082 28.4818 16.894C28.5226 17.7837 28.5317 18.0668 28.5317 20.3284C28.5317 22.5906 28.5219 22.8738 28.4818 23.7619C28.4416 24.6478 28.3 25.2535 28.0941 25.7834C27.8851 26.3392 27.5575 26.8428 27.1341 27.2591C26.7177 27.6831 26.2142 28.0101 25.6592 28.2191C25.1292 28.425 24.5235 28.5659 23.6377 28.6068C22.7488 28.6476 22.4656 28.6567 20.2034 28.6567C17.9411 28.6567 17.6579 28.6469 16.7698 28.6068C15.884 28.5666 15.2783 28.425 14.7483 28.2191C14.1925 28.0101 13.6889 27.6825 13.2727 27.2591C12.8489 26.8432 12.5211 26.3398 12.3119 25.7842C12.1067 25.2542 11.9659 24.6485 11.925 23.7627C11.8841 22.8731 11.875 22.5899 11.875 20.3284C11.875 18.0661 11.8848 17.7829 11.925 16.8956C11.9651 16.0082 12.1067 15.4025 12.3119 14.8725C12.5214 14.3169 12.8495 13.8135 13.2734 13.3977C13.6891 12.974 14.1922 12.6462 14.7475 12.4369C15.2775 12.2317 15.8832 12.0909 16.769 12.05H16.7698ZM23.5688 13.5491C22.6905 13.5089 22.427 13.5006 20.2034 13.5006C17.9797 13.5006 17.7162 13.5089 16.8379 13.5491C16.0256 13.5862 15.5849 13.7217 15.2911 13.836C14.9027 13.9874 14.6249 14.1669 14.3334 14.4584C14.0571 14.7272 13.8444 15.0545 13.711 15.4161C13.5967 15.7099 13.4612 16.1506 13.4241 16.9629C13.3839 17.8412 13.3756 18.1047 13.3756 20.3284C13.3756 22.552 13.3839 22.8155 13.4241 23.6938C13.4612 24.5062 13.5967 24.9468 13.711 25.2406C13.8443 25.6017 14.057 25.9296 14.3334 26.1983C14.6022 26.4747 14.93 26.6874 15.2911 26.8207C15.5849 26.935 16.0256 27.0705 16.8379 27.1076C17.7162 27.1478 17.9789 27.1561 20.2034 27.1561C22.4278 27.1561 22.6905 27.1478 23.5688 27.1076C24.3812 27.0705 24.8218 26.935 25.1156 26.8207C25.504 26.6693 25.7818 26.4898 26.0733 26.1983C26.3497 25.9296 26.5624 25.6017 26.6957 25.2406C26.81 24.9468 26.9455 24.5062 26.9826 23.6938C27.0228 22.8155 27.0311 22.552 27.0311 20.3284C27.0311 18.1047 27.0228 17.8412 26.9826 16.9629C26.9455 16.1506 26.81 15.7099 26.6957 15.4161C26.5443 15.0277 26.3648 14.7499 26.0733 14.4584C25.8045 14.1821 25.4773 13.9694 25.1156 13.836C24.8218 13.7217 24.3812 13.5862 23.5688 13.5491ZM19.1396 22.8958C19.7337 23.1431 20.3952 23.1764 21.0112 22.9902C21.6271 22.8039 22.1593 22.4096 22.5168 21.8746C22.8744 21.3396 23.035 20.697 22.9714 20.0566C22.9078 19.4163 22.6239 18.8179 22.1681 18.3636C21.8775 18.0732 21.5262 17.8509 21.1394 17.7126C20.7526 17.5743 20.34 17.5235 19.9312 17.5638C19.5224 17.6041 19.1276 17.7346 18.7753 17.9458C18.423 18.157 18.1218 18.4437 17.8936 18.7852C17.6654 19.1268 17.5157 19.5147 17.4554 19.921C17.3951 20.3273 17.4256 20.742 17.5448 21.1351C17.6639 21.5282 17.8688 21.89 18.1445 22.1945C18.4203 22.4989 18.7602 22.7384 19.1396 22.8958ZM17.1764 17.3014C17.5739 16.9039 18.0458 16.5886 18.5652 16.3734C19.0845 16.1583 19.6412 16.0476 20.2034 16.0476C20.7655 16.0476 21.3222 16.1583 21.8416 16.3734C22.3609 16.5886 22.8328 16.9039 23.2303 17.3014C23.6279 17.6989 23.9432 18.1708 24.1583 18.6902C24.3734 19.2095 24.4842 19.7662 24.4842 20.3284C24.4842 20.8905 24.3734 21.4472 24.1583 21.9666C23.9432 22.4859 23.6279 22.9578 23.2303 23.3553C22.4275 24.1581 21.3387 24.6092 20.2034 24.6092C19.068 24.6092 17.9792 24.1581 17.1764 23.3553C16.3736 22.5525 15.9226 21.4637 15.9226 20.3284C15.9226 19.193 16.3736 18.1042 17.1764 17.3014ZM25.4336 16.6851C25.5321 16.5922 25.6109 16.4804 25.6655 16.3565C25.72 16.2325 25.7491 16.0989 25.7511 15.9635C25.7531 15.8281 25.7279 15.6937 25.677 15.5682C25.6261 15.4427 25.5505 15.3287 25.4547 15.2329C25.359 15.1372 25.245 15.0616 25.1195 15.0107C24.994 14.9598 24.8596 14.9346 24.7242 14.9366C24.5888 14.9385 24.4552 14.9677 24.3312 15.0222C24.2073 15.0768 24.0955 15.1556 24.0026 15.2541C23.8219 15.4457 23.7229 15.7002 23.7268 15.9635C23.7306 16.2268 23.8369 16.4783 24.0232 16.6645C24.2094 16.8507 24.4609 16.9571 24.7242 16.9609C24.9875 16.9647 25.242 16.8658 25.4336 16.6851Z" fill="black"/>
</svg>
